<svg width="57" height="56" viewBox="0 0 57 56" fill="none" xmlns="http://www.w3.org/2000/svg">
<path d="M19.3683 26.6467L19.3683 26.6467C17.7184 21.7337 18.2426 16.5984 19.1868 12.6798C19.6585 10.7223 20.2338 9.07307 20.6911 7.91369C20.9196 7.3341 21.1186 6.87722 21.2601 6.56574C21.3149 6.44518 21.3611 6.34641 21.3971 6.27077C21.4714 6.30937 21.5679 6.36023 21.6844 6.42329C21.9853 6.58616 22.4198 6.8303 22.952 7.15437C24.0166 7.80264 25.4711 8.7701 27.0289 10.0459C30.1474 12.5998 33.6651 16.377 35.314 21.289C36.9629 26.201 36.4382 31.3363 35.4937 35.2552C35.0219 37.2129 34.4466 38.8622 33.9893 40.0218C33.7607 40.6014 33.5617 41.0584 33.4202 41.3699C33.3654 41.4905 33.3192 41.5893 33.2832 41.665C33.2089 41.6264 33.1125 41.5755 32.996 41.5125C32.6951 41.3496 32.2607 41.1055 31.7286 40.7814C30.6642 40.1331 29.21 39.1657 27.6524 37.8899C24.5345 35.336 21.0172 31.5588 19.3683 26.6467Z" fill="#FF9499" stroke="black" stroke-width="0.4"/>
<path d="M32.666 40.501C32.666 40.501 38.4975 31.4253 35.166 21.501C31.8345 11.5766 21.666 6.50098 21.666 6.50098L32.666 40.501Z" fill="#CD6C70"/>
<path d="M32.7932 40.2059L32.3685 38.9418L25.2188 34.9111L32.7932 40.2059Z" fill="#46A3AE"/>
<path d="M30.9658 34.7643L30.5411 33.4983L20.8691 28.1094L30.9658 34.7643Z" fill="#46A3AE"/>
<path d="M29.139 29.3256L28.7143 28.0596L18.9121 22.28L29.139 29.3256Z" fill="#954246"/>
<path d="M27.3118 23.8832L26.8871 22.6172L18.7998 17.8914L27.3118 23.8832Z" fill="#954246"/>
<path d="M25.4854 18.4435L25.0607 17.1774L20.415 14.5571L25.4854 18.4435Z" fill="#954246"/>
<path d="M23.6577 12.9983L23.233 11.7322L20.7529 10.3359L23.6577 12.9983Z" fill="#954246"/>
<path d="M32.0116 37.876L31.5869 36.6119L34.8563 29.0835L32.0116 37.876Z" fill="#7FBEC1"/>
<path d="M30.1845 32.4364L29.7598 31.1723L34.2191 21.0376L30.1845 32.4364Z" fill="#7FBEC1"/>
<path d="M28.3573 26.9955L27.9326 25.7295L31.5806 16.8608L28.3573 26.9955Z" fill="#954246"/>
<path d="M26.5302 21.5527L26.1035 20.2867L28.8941 13.5796L26.5302 21.5527Z" fill="#954246"/>
<path d="M24.703 16.113L24.2783 14.8469L26.4018 9.95483L24.703 16.113Z" fill="#954246"/>
<path d="M22.8748 10.6726L22.4521 9.40648L23.2294 7.61353L22.8748 10.6726Z" fill="#954246"/>
<path d="M1.0041 23.2783C0.965852 23.1516 0.935493 23.0468 0.912683 22.9662C0.994097 22.9463 1.10025 22.921 1.22951 22.8917C1.56338 22.8159 2.05134 22.7133 2.6655 22.6065C3.89405 22.3928 5.62631 22.1623 7.63937 22.0957C11.6692 21.9624 16.8047 22.4862 21.2794 25.0948C25.7542 27.7036 28.7436 31.9123 30.6163 35.4825C31.5518 37.2659 32.2064 38.8858 32.627 40.0593C32.8372 40.646 32.9889 41.1208 33.0878 41.4484C33.1261 41.5751 33.1565 41.6798 33.1793 41.7604C33.0979 41.7803 32.9919 41.8056 32.8628 41.8348C32.529 41.9105 32.0412 42.0129 31.4272 42.1196C30.1989 42.3329 28.467 42.563 26.4542 42.6292C22.4249 42.7618 17.2893 42.2375 12.8125 39.6298C8.33579 37.0221 5.34642 32.8139 3.47422 29.244C2.53898 27.4606 1.88477 25.8409 1.46453 24.6674C1.25445 24.0808 1.10294 23.6059 1.0041 23.2783Z" fill="#26AD4F" stroke="black" stroke-width="0.4"/>
<path d="M32.166 41.9995C32.166 41.9995 30.7732 30.7631 21.666 25.4996C12.5589 20.2361 1.66602 23.0003 1.66602 23.0003L32.166 41.9995Z" fill="#26AD4F"/>
<path d="M31.8502 40.9863L30.6963 40.3132L22.6631 41.994L31.8502 40.9863Z" fill="#009959"/>
<path d="M26.8889 38.0999L25.735 37.4268L14.9092 39.7466L26.8889 38.0999Z" fill="#009959"/>
<path d="M21.9291 35.208L20.7752 34.5369L9.59277 36.6483L21.9291 35.208Z" fill="#009959"/>
<path d="M16.9692 32.3181L15.8153 31.647L6.61816 33.4199L16.9692 32.3181Z" fill="#009959"/>
<path d="M12.0093 29.4319L10.8554 28.7588L5.63477 29.8506L12.0093 29.4319Z" fill="#009959"/>
<path d="M7.04987 26.5403L5.89597 25.8672L3.10938 26.4502L7.04987 26.5403Z" fill="#009959"/>
<path d="M29.7254 39.7487L28.5715 39.0776L26.0693 31.2607L29.7254 39.7487Z" fill="#009959"/>
<path d="M24.7664 36.8622L23.6125 36.1911L20.291 25.6296L24.7664 36.8622Z" fill="#009959"/>
<path d="M19.8048 33.9729L18.6509 33.2998L15.5518 24.2249L19.8048 33.9729Z" fill="#009959"/>
<path d="M14.8458 31.082L13.6919 30.4109L11.3721 23.5276L14.8458 31.082Z" fill="#009959"/>
<path d="M9.88503 28.1939L8.73112 27.5228L7.10645 22.4424L9.88503 28.1939Z" fill="#009959"/>
<path d="M4.92461 25.3061L3.77271 24.635L3.17773 22.7739L4.92461 25.3061Z" fill="#009959"/>
<path d="M46.357 43.8469L46.3574 43.8473C46.4657 43.7594 46.5545 43.6498 46.6181 43.5256C46.6808 43.4029 46.7176 43.2687 46.7261 43.1313V40.18H27.8143V43.146C27.821 43.3454 27.8957 43.5366 28.0261 43.6876L28.0297 43.6918L28.0296 43.6918C28.1068 43.7864 28.1923 43.8738 28.2852 43.9531C28.462 44.0968 28.6521 44.2234 28.8528 44.3313L28.8592 44.3347L28.8592 44.3348C28.9335 44.3783 29.0282 44.4249 29.1279 44.4738C29.3763 44.5933 29.6313 44.6987 29.8917 44.7894L29.8952 44.7906L29.8952 44.7906C29.9881 44.8249 30.0755 44.8572 30.166 44.8855L30.1705 44.8869L30.1705 44.8869C30.4306 44.9749 30.7196 45.0576 31.022 45.1327L31.0293 45.1345L31.0293 45.1347C31.1137 45.159 31.2027 45.1799 31.2978 45.2022L31.2996 45.2026L31.2996 45.2026C31.5431 45.262 31.7935 45.3172 32.055 45.3644L32.062 45.3656L32.062 45.3657C32.1514 45.3852 32.2403 45.4026 32.3329 45.418L32.335 45.4183L32.335 45.4184C32.6369 45.472 32.9507 45.5216 33.2725 45.5653L33.2736 45.5655L33.5537 45.6052C33.8094 45.6352 34.0666 45.6648 34.3293 45.6885L34.3295 45.6886L34.6124 45.7145C34.6127 45.7145 34.6129 45.7145 34.6132 45.7145C34.9953 45.7464 35.393 45.7742 35.7903 45.7941L36.0713 45.804L36.0717 45.8041C36.4617 45.8186 36.8599 45.826 37.2662 45.826H37.7471C38.1828 45.818 38.6099 45.8041 39.0248 45.7822L39.3054 45.7623L39.3065 45.7623C39.6423 45.7403 39.9677 45.7164 40.2862 45.6828L40.2871 45.6827L40.5629 45.6549C41.0425 45.5932 41.5036 45.5276 41.9424 45.4562L42.2233 45.4064L46.357 43.8469ZM46.357 43.8469L46.3469 43.8564M46.357 43.8469L46.3469 43.8564M46.3469 43.8564C46.2641 43.9337 46.1765 44.0058 46.0847 44.0722C45.8655 44.2264 45.6337 44.3619 45.3917 44.4771L45.385 44.4802C45.2972 44.5212 45.2088 44.5625 45.1172 44.6018C44.7509 44.7555 44.3755 44.8865 43.9932 44.994L43.9932 44.994M46.3469 43.8564L43.9932 44.994M43.9932 44.994L43.9891 44.9952M43.9932 44.994L43.9891 44.9952M43.9891 44.9952C43.8967 45.0234 43.8075 45.0505 43.715 45.0756M43.9891 44.9952L43.715 45.0756M43.715 45.0756C43.2557 45.1983 42.7565 45.3112 42.2235 45.4063L43.715 45.0756ZM29.8259 44.9782C29.5582 44.885 29.296 44.7766 29.0406 44.6537L30.1064 45.0764C30.0102 45.0463 29.9181 45.0123 29.8259 44.9782Z" fill="#FDC400" stroke="black" stroke-width="0.4"/>
<path d="M46.9253 39.9824C46.9253 41.3847 42.6001 42.5366 37.2653 42.5366C31.9305 42.5366 27.6074 41.3927 27.6074 39.9824C27.6074 38.5721 31.9305 37.4302 37.2653 37.4302C42.6001 37.4302 46.9253 38.5721 46.9253 39.9824Z" fill="#FFDE00"/>
<path d="M45.195 39.6417C45.195 40.6113 41.6452 41.3966 37.2659 41.3966C32.8867 41.3966 29.3389 40.6113 29.3389 39.6417C29.3389 38.6721 32.8887 37.8848 37.2659 37.8848C41.6432 37.8848 45.195 38.6701 45.195 39.6417Z" fill="#FFD000"/>
<path d="M29.5793 40.0724C30.4487 39.3111 33.5598 38.7482 37.2659 38.7482C40.9721 38.7482 44.0772 39.3111 44.9526 40.0724C45.0212 40.0219 45.0783 39.9573 45.1201 39.8831C45.1619 39.8088 45.1875 39.7265 45.195 39.6417C45.195 38.6701 41.6452 37.8848 37.2659 37.8848C32.8867 37.8848 29.3389 38.6701 29.3389 39.6417C29.3462 39.7264 29.3714 39.8086 29.4128 39.8828C29.4543 39.9571 29.511 40.0217 29.5793 40.0724Z" fill="#F8AB08"/>
<path d="M27.9291 40.676C28.0112 40.726 28.1114 40.7761 28.2116 40.8242C28.4661 40.9475 28.7277 41.0559 28.9949 41.1487L27.9291 40.676ZM27.9291 40.676C27.7158 40.563 27.5144 40.4288 27.3281 40.2753L27.9291 40.676ZM45.5254 40.0106L45.5252 40.0103L45.5166 40.0182C45.433 40.0955 45.345 40.1679 45.2531 40.2351C45.0341 40.3898 44.802 40.525 44.5594 40.6393L44.6447 40.8202L44.5601 40.639C44.5475 40.6448 44.5351 40.6506 44.5228 40.6564C44.444 40.6933 44.3685 40.7286 44.2886 40.7612L44.2886 40.7612L44.2864 40.7622C43.9205 40.9168 43.5452 41.0478 43.1626 41.1544L43.1626 41.1544L43.1601 41.1551L42.8819 41.2366C42.4231 41.3591 41.9247 41.4718 41.3904 41.5668C41.3904 41.5668 41.3904 41.5668 41.3903 41.5668L41.1094 41.6167C40.6705 41.6881 40.2114 41.7537 39.7319 41.8154L39.4542 41.8432L39.4531 41.8433C39.1346 41.877 38.8093 41.9008 38.4754 41.9228L38.4744 41.9228L38.1936 41.9428C37.7766 41.9652 37.3508 41.9798 36.9164 41.9865H36.4351C36.0288 41.9865 35.6307 41.9792 35.2406 41.9646L35.2406 41.9644H35.2331H34.9577C34.5616 41.9445 34.1652 41.9168 33.7822 41.885L33.5006 41.8591L33.5002 41.8591C33.2371 41.8353 32.9775 41.8056 32.7248 41.7738C32.7245 41.7737 32.7242 41.7737 32.724 41.7737L32.4434 41.7359C32.4434 41.7359 32.4433 41.7358 32.4433 41.7358C32.1218 41.6922 31.8064 41.6426 31.507 41.5891C31.4827 41.5845 31.4593 41.5802 31.4363 41.576C31.3653 41.5629 31.2996 41.5508 31.233 41.5363L31.233 41.5361L31.226 41.5349C30.9644 41.4877 30.714 41.4325 30.4706 41.3731L30.4706 41.3731L30.4688 41.3727C30.3739 41.3505 30.2842 41.3295 30.1971 41.3049L30.1972 41.3048L30.1913 41.3033C29.8904 41.2281 29.5995 41.1454 29.3419 41.0576L29.3419 41.0575L29.337 41.056C29.2409 41.026 29.1444 40.9942 29.0715 40.964L29.0716 40.9637L29.0605 40.9598C28.8007 40.8695 28.5463 40.7641 28.2987 40.6442L28.2981 40.6439C28.1984 40.596 28.1061 40.5496 28.0332 40.5052L28.0334 40.5049L28.0227 40.4992C27.8216 40.3927 27.6318 40.2662 27.4561 40.1216C27.3631 40.0431 27.2777 39.9559 27.2013 39.8612L27.2014 39.8611L27.1962 39.8552C27.0649 39.705 26.9897 39.514 26.9832 39.3147V36.3365H45.893V39.2936C45.8842 39.4309 45.8474 39.565 45.7849 39.6877C45.7216 39.8121 45.6332 39.922 45.5254 40.0106Z" fill="#FDC400" stroke="black" stroke-width="0.4"/>
<path d="M45.8932 36.1358C45.8932 36.3771 45.7037 36.66 45.2285 36.9568C44.7639 37.247 44.0784 37.5162 43.2136 37.7454C41.4869 38.2031 39.0905 38.49 36.4353 38.49C33.78 38.49 31.3831 38.2051 29.6559 37.7484C28.7909 37.5196 28.1052 37.2507 27.6406 36.9602C27.1655 36.6633 26.9754 36.3794 26.9754 36.1358C26.9754 35.8921 27.1655 35.6083 27.6406 35.3113C28.1052 35.0208 28.7909 34.7519 29.6559 34.5231C31.3831 34.0664 33.78 33.7815 36.4353 33.7815C39.0906 33.7815 41.4871 34.0654 43.2137 34.5216C44.0785 34.7501 44.7639 35.0189 45.2283 35.3095C45.703 35.6066 45.8932 35.8909 45.8932 36.1358Z" fill="#FFDE00" stroke="black" stroke-width="0.4"/>
<path d="M44.364 35.7999C44.364 36.7695 40.8142 37.5548 36.4349 37.5548C32.0557 37.5548 28.5059 36.7695 28.5059 35.7999C28.5059 34.8303 32.0557 34.043 36.4349 34.043C40.8142 34.043 44.364 34.8283 44.364 35.7999Z" fill="#FFD000"/>
<path d="M28.7483 36.2306C29.6177 35.4693 32.7288 34.9064 36.4349 34.9064C40.141 34.9064 43.2462 35.4693 44.1216 36.2306C44.1902 36.1801 44.2473 36.1155 44.2891 36.0413C44.3309 35.967 44.3564 35.8847 44.364 35.7999C44.364 34.8283 40.8142 34.043 36.4349 34.043C32.0557 34.043 28.5059 34.8283 28.5059 35.7999C28.5134 35.8847 28.5389 35.967 28.5807 36.0413C28.6225 36.1155 28.6796 36.1801 28.7483 36.2306Z" fill="#F8AB08"/>
<path d="M29.128 36.5994C29.3764 36.7189 29.6314 36.8243 29.8917 36.9149L29.8952 36.9162L29.8952 36.9162C29.9881 36.9505 30.0755 36.9828 30.166 37.0111L30.1705 37.0125L30.1705 37.0125C30.4306 37.1005 30.7196 37.1832 31.022 37.2583L31.0293 37.2601L31.0293 37.2602C31.1137 37.2846 31.2027 37.3055 31.2978 37.3278L31.2996 37.3282L31.2996 37.3282C31.543 37.3875 31.7937 37.4428 32.0561 37.4921C32.0562 37.4922 32.0563 37.4922 32.0565 37.4922L32.335 37.5439C32.3352 37.544 32.3355 37.544 32.3357 37.5441C32.6374 37.5977 32.951 37.6473 33.2725 37.6909L33.2736 37.6911L33.5537 37.7308C33.8094 37.7608 34.0666 37.7904 34.3293 37.8141L34.3295 37.8141L34.6124 37.84C34.6126 37.8401 34.6129 37.8401 34.6132 37.8401C34.9953 37.8719 35.393 37.8998 35.7903 37.9197L36.0713 37.9296L36.0717 37.9296C36.4617 37.9442 36.8599 37.9515 37.2662 37.9515H37.7471C38.1828 37.9436 38.6099 37.9296 39.0248 37.9078L39.3054 37.8879L39.3065 37.8879C39.6423 37.8659 39.9677 37.842 40.2862 37.8084L40.2886 37.8082L40.5636 37.7825C41.043 37.7208 41.5038 37.6552 41.9424 37.5838L42.2233 37.534L29.128 36.5994ZM29.128 36.5994C29.0282 36.5505 28.9335 36.5039 28.8592 36.4604L28.8592 36.4603L28.8528 36.4568C28.6519 36.3489 28.4617 36.2222 28.2847 36.0783C28.1919 35.9999 28.1067 35.9128 28.0303 35.8182L28.0304 35.8182L28.0261 35.8132C27.8957 35.6621 27.821 35.471 27.8143 35.2716V32.3016H46.7261V35.2589C46.7176 35.3963 46.6808 35.5305 46.6181 35.6532C46.5545 35.7774 46.4657 35.887 46.3574 35.9749L46.3515 35.9797L46.3459 35.9849C46.264 36.0624 46.1769 36.1341 46.0851 36.1995C45.8664 36.3545 45.6346 36.49 45.3923 36.6045L45.3849 36.6079C45.2971 36.6489 45.2088 36.6901 45.1172 36.7294C44.7509 36.8831 44.3755 37.0141 43.9932 37.1216L43.9932 37.1216L43.9899 37.1226L43.7123 37.2059C43.2542 37.3282 42.756 37.4389 42.2235 37.5339L29.128 36.5994Z" fill="#FDC400" stroke="black" stroke-width="0.4"/>
<path d="M46.7253 32.104C46.7253 32.3453 46.5357 32.6281 46.0602 32.925C45.5954 33.2152 44.9097 33.4844 44.0446 33.7136C42.3175 34.1713 39.9205 34.4582 37.2653 34.4582C34.6101 34.4582 32.2136 34.1733 30.487 33.7166C29.6222 33.4879 28.9368 33.2189 28.4723 32.9285C27.9974 32.6315 27.8074 32.3477 27.8074 32.104C27.8074 31.8603 27.9974 31.5766 28.4723 31.2798C28.9367 30.9895 29.6221 30.7208 30.4869 30.4924C32.2136 30.0361 34.61 29.7518 37.2653 29.7518C39.9206 29.7518 42.3176 30.0361 44.0448 30.4924C44.9098 30.7209 45.5955 30.9895 46.0602 31.2798C46.5352 31.5766 46.7253 31.8603 46.7253 32.104Z" fill="#FFDE00" stroke="black" stroke-width="0.4"/>
<path d="M45.195 31.7632C45.195 32.7328 41.6452 33.5201 37.2659 33.5201C32.8867 33.5201 29.3389 32.7328 29.3389 31.7632C29.3389 30.7936 32.8887 30.0063 37.2659 30.0063C41.6432 30.0063 45.195 30.7936 45.195 31.7632Z" fill="#FFD000"/>
<path d="M29.5793 32.194C30.4487 31.4327 33.5598 30.8698 37.2659 30.8698C40.9721 30.8698 44.0772 31.4327 44.9526 32.194C45.0212 32.1434 45.0783 32.0789 45.1201 32.0047C45.1619 31.9304 45.1875 31.8481 45.195 31.7632C45.195 30.7936 41.6452 30.0063 37.2659 30.0063C32.8867 30.0063 29.3389 30.7936 29.3389 31.7632C29.3462 31.848 29.3714 31.9301 29.4128 32.0044C29.4543 32.0786 29.511 32.1433 29.5793 32.194Z" fill="#F8AB08"/>
<path d="M47.3964 32.1348L47.3961 32.1344L47.3859 32.1439C47.3031 32.2213 47.2155 32.2934 47.1236 32.3598C46.9051 32.5146 46.6734 32.65 46.4313 32.7644L46.4239 32.7678C46.3361 32.8088 46.2477 32.85 46.1561 32.8893C45.7902 33.0436 45.415 33.1746 45.0326 33.2815L45.0326 33.2814L45.0289 33.2825L44.7514 33.3658C44.2932 33.4881 43.7969 33.5988 43.2626 33.6938C43.2625 33.6938 43.2625 33.6938 43.2625 33.6938L42.9815 33.7437C42.5427 33.8151 42.0836 33.8807 41.604 33.9424L41.3263 33.9702L41.3252 33.9703C41.0068 34.0039 40.6814 34.0278 40.3456 34.0498L40.3444 34.0499L40.0658 34.0698C39.6489 34.0916 39.2218 34.1055 38.7882 34.1135H38.3072C37.8955 34.1135 37.5006 34.1134 37.1165 34.0917L37.1165 34.0917L37.1123 34.0915L36.8313 34.0816C36.434 34.0617 36.0364 34.0339 35.6543 34.002L35.3727 33.9761L35.3722 33.976C35.1076 33.9523 34.8504 33.9227 34.5948 33.8927L34.3147 33.853L34.3135 33.8528C33.9918 33.8092 33.678 33.7595 33.376 33.7059L33.3746 33.7056C33.2831 33.69 33.192 33.6726 33.1031 33.6533L33.1031 33.6531L33.0964 33.6519C32.8366 33.6047 32.5862 33.5495 32.3427 33.4901L32.3427 33.4901L32.34 33.4895C32.2447 33.4676 32.1565 33.4465 32.0693 33.4218L32.0693 33.4217L32.0631 33.4202C31.7606 33.3451 31.4718 33.2625 31.214 33.1746L31.214 33.1745L31.208 33.1726C31.1384 33.1514 31.0734 33.1284 31.0048 33.1042C30.9815 33.0959 30.9577 33.0875 30.9332 33.079C30.6734 32.9871 30.4188 32.881 30.1707 32.7611L30.1702 32.7609C30.0712 32.7134 29.9762 32.6657 29.8984 32.6213L29.8985 32.6212L29.8933 32.6185C29.6922 32.5113 29.5022 32.3846 29.3258 32.2403C29.2321 32.1617 29.1461 32.0744 29.0688 31.9795L29.0689 31.9795L29.0651 31.9751C28.9347 31.8241 28.86 31.6329 28.8533 31.4335V28.4615H47.7652V31.4188C47.7566 31.5562 47.7199 31.6904 47.6571 31.8131C47.5936 31.9373 47.5048 32.0469 47.3964 32.1348Z" fill="#FDC400" stroke="black" stroke-width="0.4"/>
<path d="M47.7653 28.2588C47.7653 28.5001 47.5757 28.7829 47.1003 29.0798C46.6355 29.37 45.9498 29.6392 45.0849 29.8684C43.358 30.3261 40.9615 30.613 38.3074 30.613C35.6531 30.613 33.2561 30.3281 31.5287 29.8714C30.6636 29.6426 29.9777 29.3737 29.5129 29.0832C29.0376 28.7862 28.8475 28.5024 28.8475 28.2588C28.8475 28.0151 29.0375 27.7314 29.5126 27.4346C29.9772 27.1443 30.6629 26.8756 31.528 26.6471C33.2551 26.1909 35.6521 25.9065 38.3074 25.9065C40.9627 25.9065 43.3592 26.1909 45.0858 26.6471C45.9506 26.8756 46.636 27.1443 47.1005 27.4346C47.5753 27.7314 47.7653 28.0151 47.7653 28.2588Z" fill="#FFDE00" stroke="black" stroke-width="0.4"/>
<path d="M46.2351 27.9232C46.2351 28.8928 42.6852 29.6801 38.308 29.6801C33.9308 29.6801 30.3789 28.8928 30.3789 27.9232C30.3789 26.9536 33.9288 26.1663 38.308 26.1663C42.6872 26.1663 46.2351 26.9516 46.2351 27.9232Z" fill="#FFD000"/>
<path d="M30.6213 28.3539C31.4887 27.5926 34.6019 27.0297 38.308 27.0297C42.0141 27.0297 45.1192 27.5926 45.9927 28.3539C46.0613 28.3034 46.1184 28.2388 46.1602 28.1646C46.202 28.0903 46.2275 28.008 46.2351 27.9232C46.2351 26.9516 42.6852 26.1663 38.308 26.1663C33.9308 26.1663 30.3789 26.9516 30.3789 27.9232C30.3865 28.008 30.412 28.0903 30.4538 28.1646C30.4956 28.2388 30.5527 28.3034 30.6213 28.3539Z" fill="#F8AB08"/>
<path d="M46.98 27.5566L46.9802 27.5568C47.0864 27.4681 47.1735 27.3587 47.2359 27.2352C47.2975 27.1135 47.3339 26.9806 47.343 26.8445V23.8856L28.4412 23.8797V26.8416C28.4482 27.0411 28.523 27.2322 28.6532 27.3835L28.6562 27.387L28.6561 27.387C28.7335 27.4811 28.8191 27.5681 28.9121 27.6468C29.0882 27.791 29.2782 27.9176 29.4791 28.0246L29.4894 28.0301L29.4892 28.0304C29.5613 28.0743 29.6548 28.1205 29.7525 28.1663L29.7547 28.1674L29.7547 28.1674C30.0033 28.2877 30.2584 28.3938 30.519 28.4852L30.5222 28.4863L30.5222 28.4863C30.6119 28.5195 30.7008 28.5504 30.793 28.5792L30.7987 28.581L30.7987 28.5811C31.0572 28.6705 31.3452 28.751 31.6492 28.8285L31.9267 28.8963L31.9281 28.8967C32.1696 28.9575 32.4199 29.0108 32.6834 29.0603L32.689 29.0614L32.689 29.0614C32.776 29.0804 32.8641 29.0957 32.9598 29.1117L32.9632 29.1122L32.9632 29.1123C33.2643 29.1677 33.5776 29.2173 33.8993 29.261C33.8993 29.261 33.8994 29.261 33.8994 29.261L34.1799 29.2988C34.218 29.3033 34.256 29.3078 34.294 29.3123C34.5131 29.3381 34.7322 29.364 34.9557 29.3842C34.9559 29.3842 34.956 29.3842 34.9562 29.3842L35.2396 29.4082L35.2404 29.4082C35.6225 29.4421 36.0203 29.4699 36.4177 29.4878L36.4259 29.4882L36.434 29.4892C36.5135 29.4993 36.593 29.4996 36.6911 29.4996H36.6986L36.6986 29.4998C37.0887 29.5143 37.4868 29.5216 37.8931 29.5216H38.3716C38.8092 29.5116 39.2363 29.4997 39.6506 29.4759L39.6537 29.4757L39.6537 29.4757C39.6894 29.4743 39.7241 29.4712 39.7637 29.4678C39.7713 29.4671 39.779 29.4665 39.787 29.4658C39.8324 29.4619 39.8839 29.4579 39.9376 29.4576C40.2702 29.4357 40.5943 29.41 40.9121 29.3784L46.98 27.5566ZM46.98 27.5566L46.9728 27.5633M46.98 27.5566L46.9728 27.5633M46.9728 27.5633C46.889 27.6405 46.801 27.7129 46.7092 27.7803C46.4901 27.9344 46.2585 28.0697 46.0167 28.1848L46.0139 28.1861C45.9243 28.2279 45.836 28.2691 45.7446 28.3064L45.7428 28.3072M46.9728 27.5633L45.7428 28.3072M45.7428 28.3072C45.3763 28.461 45.0007 28.5921 44.6181 28.6997L44.6161 28.7003M45.7428 28.3072L44.6161 28.7003M44.6161 28.7003L44.3379 28.7818M44.6161 28.7003L44.3379 28.7818M44.3379 28.7818C43.8792 28.9043 43.3807 29.0171 42.8484 29.112L44.3379 28.7818ZM41.1891 29.3505L40.9124 29.3784L42.8482 29.1121L42.5674 29.1619C42.128 29.2334 41.6676 29.2989 41.1899 29.3504C41.1896 29.3505 41.1894 29.3505 41.1891 29.3505Z" fill="#FDC400" stroke="black" stroke-width="0.4"/>
<path d="M47.3434 23.6892C47.3434 23.9305 47.1539 24.2134 46.6784 24.5103C46.2136 24.8004 45.5278 25.0696 44.6628 25.2989C42.9356 25.7566 40.5387 26.0434 37.8835 26.0434C35.2282 26.0434 32.8318 25.7586 31.1051 25.3018C30.2404 25.0731 29.5549 24.8042 29.0905 24.5137C28.6156 24.2168 28.4256 23.9329 28.4256 23.6892C28.4256 23.4455 28.6156 23.1617 29.0905 22.8647C29.5549 22.5743 30.2404 22.3053 31.1051 22.0766C32.8318 21.6199 35.2282 21.335 37.8835 21.335C40.5388 21.335 42.9358 21.6199 44.6629 22.0766C45.5279 22.3053 46.2136 22.5743 46.6783 22.8647C47.1534 23.1617 47.3434 23.4456 47.3434 23.6892Z" fill="#FFDE00" stroke="black" stroke-width="0.4"/>
<path d="M45.8122 23.3513C45.8122 24.3229 42.2623 25.1082 37.8831 25.1082C33.5039 25.1082 29.9561 24.3229 29.9561 23.3513C29.9561 22.3797 33.5039 21.5964 37.8831 21.5964C42.2623 21.5964 45.8122 22.3817 45.8122 23.3513Z" fill="#FFD000"/>
<path d="M30.1965 23.784C31.0659 23.0228 34.177 22.4599 37.8831 22.4599C41.5892 22.4599 44.6944 23.0228 45.5698 23.784C45.6387 23.7333 45.6959 23.6685 45.7377 23.5939C45.7795 23.5192 45.8049 23.4366 45.8122 23.3513C45.8122 22.3817 42.2623 21.5964 37.8831 21.5964C33.5039 21.5964 29.9561 22.3817 29.9561 23.3513C29.9631 23.4364 29.9882 23.519 30.0296 23.5936C30.0711 23.6682 30.128 23.7331 30.1965 23.784Z" fill="#F8AB08"/>
<path d="M46.14 23.7227L46.1401 23.7229C46.2478 23.6339 46.3361 23.5238 46.3995 23.3994C46.462 23.2766 46.4989 23.1426 46.5082 23.0052V20.0465L27.6004 20.0544V23.0165C27.6071 23.2159 27.6824 23.4069 27.8136 23.5573L27.8181 23.5625L27.818 23.5626C27.8946 23.6568 27.98 23.7434 28.073 23.8214C28.2488 23.966 28.4387 24.0926 28.6399 24.1992L28.6506 24.2048L28.6504 24.2051C28.7229 24.2493 28.815 24.2957 28.9123 24.3404L28.9164 24.3423L28.9163 24.3423C29.1639 24.4629 29.4182 24.569 29.6781 24.6599L29.6826 24.6615L29.6826 24.6615C29.7706 24.6947 29.8608 24.7254 29.9529 24.7536L29.9604 24.7558L29.9603 24.756C30.2164 24.8452 30.5059 24.9256 30.8084 25.0032L31.0876 25.071L31.0893 25.0714C31.3308 25.1323 31.5811 25.1856 31.8446 25.2351L31.8511 25.2363L31.851 25.2364C31.9353 25.2551 32.0245 25.2704 32.121 25.2864L32.1246 25.287L32.1246 25.2871C32.4234 25.3425 32.7386 25.3921 33.0605 25.4358C33.0605 25.4358 33.0606 25.4358 33.0606 25.4358L33.3412 25.4736C33.3729 25.4774 33.4046 25.4811 33.4363 25.4849C33.6601 25.5115 33.8854 25.5382 34.1169 25.5589C34.117 25.559 34.1171 25.559 34.1173 25.559L34.3989 25.5829L34.3995 25.583C34.7837 25.6168 35.1815 25.6447 35.5789 25.6626L35.5873 25.6629L35.5957 25.664C35.6728 25.6741 35.7539 25.6744 35.8503 25.6744H35.8578L35.8578 25.6745C36.2479 25.6891 36.646 25.6964 37.0523 25.6964H37.5328C37.9684 25.6864 38.3955 25.6745 38.8118 25.6507L38.8147 25.6505L38.8147 25.6505C38.8494 25.649 38.8838 25.646 38.9232 25.6426C38.931 25.6419 38.9389 25.6412 38.9472 25.6405C38.9925 25.6367 39.0439 25.6327 39.0968 25.6323C39.4294 25.6105 39.7536 25.5848 40.0714 25.5532L46.14 23.7227ZM46.14 23.7227L46.1327 23.7293C46.049 23.8057 45.9614 23.8777 45.8702 23.9451C45.6512 24.0986 45.4197 24.2336 45.1782 24.3485C45.1394 24.3658 45.1043 24.3821 45.0705 24.3978C45.016 24.4233 44.9647 24.4471 44.9058 24.4712L44.904 24.472C44.5375 24.6258 44.1619 24.7569 43.7793 24.8645L43.7773 24.8651L43.4991 24.9466C43.0403 25.0691 42.5418 25.1818 42.0076 25.2768C42.0076 25.2768 42.0076 25.2768 42.0075 25.2768L41.7265 25.3266C41.2898 25.3981 40.8287 25.4637 40.3491 25.5254L40.0715 25.5532L46.14 23.7227Z" fill="#FDC400" stroke="black" stroke-width="0.4"/>
<path d="M46.5075 19.8454C46.5075 20.0868 46.318 20.3696 45.8427 20.6665C45.3781 20.9566 44.6926 21.2258 43.8278 21.4551C42.1012 21.9128 39.7047 22.1996 37.0496 22.1996C34.3943 22.1996 31.9973 21.9148 30.2702 21.458C29.4052 21.2293 28.7195 20.9604 28.2548 20.6699C27.7797 20.3729 27.5896 20.0891 27.5896 19.8454C27.5896 19.6018 27.7797 19.3181 28.2551 19.0213C28.7199 18.731 29.4058 18.4623 30.2711 18.2338C31.9988 17.7776 34.3963 17.4932 37.0516 17.4932C39.7069 17.4932 42.1029 17.7776 43.829 18.2338C44.6935 18.4623 45.3787 18.731 45.8429 19.0212C46.3176 19.318 46.5075 19.6017 46.5075 19.8454Z" fill="#FFDE00" stroke="black" stroke-width="0.4"/>
<path d="M44.9812 19.4996C44.9812 20.4712 41.4313 21.2565 37.0521 21.2565C32.6729 21.2565 29.123 20.4712 29.123 19.4996C29.123 18.528 32.6729 17.7427 37.0521 17.7427C41.4313 17.7427 44.9812 18.538 44.9812 19.4996Z" fill="#FFD000"/>
<path d="M29.3654 19.9374C30.2349 19.1762 33.346 18.6132 37.0521 18.6132C40.7582 18.6132 43.8634 19.1762 44.7388 19.9374C44.8077 19.8867 44.8649 19.8218 44.9067 19.7472C44.9485 19.6726 44.9739 19.5899 44.9812 19.5047C44.9812 18.5351 41.4313 17.7478 37.0521 17.7478C32.6729 17.7478 29.123 18.5351 29.123 19.4967C29.1292 19.5833 29.1541 19.6675 29.1959 19.7436C29.2378 19.8197 29.2956 19.8858 29.3654 19.9374Z" fill="#F8AB08"/>
<path d="M46.974 19.6862L46.9743 19.6866C47.0827 19.5986 47.1715 19.4891 47.235 19.3648C47.2977 19.2422 47.3345 19.108 47.343 18.9705V16.0132H28.4412V18.9932C28.4482 19.1926 28.523 19.3838 28.6532 19.5351L28.6569 19.5394L28.6568 19.5394C28.7333 19.6335 28.8187 19.7201 28.9117 19.798C29.088 19.9424 29.278 20.0691 29.4791 20.1762L29.4894 20.1817L29.4892 20.182C29.5613 20.2259 29.6548 20.272 29.7525 20.3179L29.7547 20.3189L29.7547 20.3189C30.0032 20.4393 30.2584 20.5454 30.5189 20.6367C30.519 20.6367 30.519 20.6368 30.519 20.6368L30.7984 20.7345C31.0576 20.8222 31.3461 20.9028 31.6498 20.9802C31.6499 20.9802 31.65 20.9802 31.6501 20.9803L31.9266 21.0499C31.9268 21.0499 31.9271 21.05 31.9273 21.0501C32.1706 21.1094 32.4207 21.1645 32.682 21.2116L32.689 21.2129L32.689 21.213C32.7556 21.2275 32.8214 21.2396 32.8924 21.2527C32.9153 21.257 32.9387 21.2613 32.9629 21.2658C33.2645 21.3194 33.5779 21.369 33.8993 21.4126C33.8993 21.4126 33.8994 21.4126 33.8994 21.4126L34.1807 21.4505C34.4354 21.4824 34.6929 21.512 34.9557 21.5358C34.9559 21.5358 34.956 21.5358 34.9562 21.5358L35.2396 21.5597L35.2405 21.5598C35.6262 21.5942 36.0173 21.6213 36.4137 21.6412H36.6911H36.6986L36.6986 21.6413C37.0887 21.6559 37.4868 21.6632 37.8931 21.6632H38.3641C38.7997 21.6552 39.2269 21.6413 39.6417 21.6195L39.9223 21.5996L39.9234 21.5995C40.2581 21.5776 40.5843 21.5518 40.9041 21.52L46.974 19.6862ZM46.974 19.6862L46.9638 19.6957M46.974 19.6862L46.9638 19.6957M46.9638 19.6957C46.881 19.773 46.7935 19.845 46.7017 19.9114C46.4825 20.0657 46.2507 20.2011 46.0087 20.3164L46.0059 20.3177C45.9163 20.3595 45.828 20.4007 45.7366 20.438L45.7366 20.438M46.9638 19.6957L45.7366 20.438M45.7366 20.438L45.7343 20.4389M45.7366 20.438L45.7343 20.4389M45.7343 20.4389C45.3685 20.5935 44.9931 20.7245 44.6106 20.8312L44.6106 20.8312M45.7343 20.4389L44.6106 20.8312M44.6106 20.8312L44.6081 20.8319M44.6106 20.8312L44.6081 20.8319M44.6081 20.8319L44.3299 20.9134M44.6081 20.8319L44.3299 20.9134M44.3299 20.9134C43.8712 21.0359 43.3727 21.1486 42.8404 21.2436L44.3299 20.9134ZM41.1798 21.4922L40.9043 21.52L42.8402 21.2436L42.5593 21.2934C42.1206 21.3649 41.6595 21.4305 41.1798 21.4922Z" fill="#FDC400" stroke="black" stroke-width="0.4"/>
<path d="M47.3425 15.8125C47.3425 16.0563 47.1524 16.3402 46.6774 16.6371C46.2127 16.9276 45.5271 17.1965 44.6621 17.4253C42.935 17.8819 40.538 18.1667 37.8826 18.1667C35.2272 18.1667 32.8302 17.8819 31.1031 17.4253C30.2381 17.1965 29.5524 16.9276 29.0878 16.6371C28.6127 16.3402 28.4227 16.0563 28.4227 15.8125C28.4227 15.5687 28.6127 15.2849 29.0878 14.9879C29.5524 14.6974 30.2381 14.4285 31.1031 14.1998C32.8302 13.7431 35.2272 13.4583 37.8826 13.4583C40.538 13.4583 42.935 13.7431 44.6621 14.1998C45.5271 14.4285 46.2127 14.6974 46.6774 14.9879C47.1524 15.2849 47.3425 15.5687 47.3425 15.8125Z" fill="#FFDE00" stroke="black" stroke-width="0.4"/>
<path d="M45.8122 15.4732C45.8122 16.4428 42.2623 17.2281 37.8831 17.2281C33.5039 17.2281 29.9561 16.4428 29.9561 15.4732C29.9561 14.5036 33.5039 13.7163 37.8831 13.7163C42.2623 13.7163 45.8122 14.5016 45.8122 15.4732Z" fill="#FFD000"/>
<path d="M30.1965 15.9039C31.0659 15.1427 34.177 14.5797 37.8831 14.5797C41.5892 14.5797 44.6944 15.1427 45.5698 15.9039C45.6384 15.8534 45.6955 15.7889 45.7373 15.7146C45.7791 15.6404 45.8046 15.5581 45.8122 15.4732C45.8122 14.5016 42.2623 13.7163 37.8831 13.7163C33.5039 13.7163 29.9561 14.5016 29.9561 15.4732C29.9634 15.5579 29.9886 15.6401 30.03 15.7144C30.0715 15.7886 30.1282 15.8532 30.1965 15.9039Z" fill="#F8AB08"/>
<path d="M48.0146 15.8416L48.0143 15.8413L48.0041 15.8508C47.9213 15.9281 47.8338 16.0001 47.742 16.0665C47.5228 16.2207 47.2909 16.3562 47.0489 16.4715L47.0461 16.4728C46.9566 16.5146 46.8683 16.5558 46.7769 16.5931L46.7748 16.594C46.4087 16.7483 46.0333 16.8794 45.6507 16.9863L45.6507 16.9863L45.6484 16.987L45.3702 17.0684C44.9113 17.191 44.4148 17.3037 43.8807 17.3987C43.8807 17.3987 43.8807 17.3987 43.8806 17.3987L43.5996 17.4485C43.1608 17.52 42.7017 17.5856 42.2222 17.6473L41.9445 17.675L41.9434 17.6752C41.6249 17.7088 41.2996 17.7326 40.9637 17.7546L40.9625 17.7547L40.684 17.7746C40.2671 17.7964 39.8399 17.8103 39.4063 17.8183H38.9254C38.5238 17.8183 38.1287 17.8182 37.7344 17.7966L37.7344 17.7963H37.7234C37.6253 17.7963 37.5458 17.796 37.4663 17.7858L37.4581 17.7848L37.4499 17.7844C37.0528 17.7666 36.6551 17.7387 36.2725 17.7069L35.9909 17.6809L35.9904 17.6809C35.7641 17.6606 35.5438 17.6346 35.3236 17.6086C35.2865 17.6042 35.2493 17.5998 35.2122 17.5955L34.9317 17.5577C34.9317 17.5577 34.9316 17.5577 34.9316 17.5577C34.6099 17.514 34.2965 17.4644 33.9954 17.4089L33.9954 17.4089L33.9928 17.4084C33.8978 17.3923 33.8082 17.377 33.7212 17.3581L33.7212 17.358L33.716 17.357C33.4545 17.3075 33.2037 17.2542 32.9614 17.1951C32.9613 17.195 32.9611 17.195 32.9609 17.1949L32.6824 17.1253C32.6823 17.1253 32.6821 17.1253 32.682 17.1252C32.3778 17.0477 32.0898 16.9672 31.8334 16.8779L31.8335 16.8777L31.8261 16.8755C31.7326 16.8468 31.6442 16.8161 31.5545 16.783L31.5545 16.7829L31.5512 16.7818C31.2913 16.6908 31.037 16.5848 30.7894 16.4642L30.7895 16.4642L30.7854 16.4623C30.6884 16.4177 30.5953 16.3709 30.5197 16.3259L30.5198 16.3257L30.5109 16.321C30.3095 16.2145 30.1194 16.0878 29.9436 15.9428L29.9435 15.9427C29.8496 15.8655 29.7638 15.779 29.6872 15.6846L29.6873 15.6846L29.6835 15.6802C29.5532 15.5289 29.4785 15.3377 29.4715 15.1382V12.1663H48.3833V15.1256C48.3748 15.2631 48.338 15.3973 48.2753 15.5199C48.2118 15.6441 48.1229 15.7537 48.0146 15.8416Z" fill="#FDC400" stroke="black" stroke-width="0.4"/>
<path d="M48.3825 11.9707C48.3825 12.212 48.1929 12.4949 47.7175 12.7918C47.2527 13.0819 46.567 13.3511 45.7021 13.5804C43.9752 14.0381 41.5787 14.3249 38.9246 14.3249C36.2703 14.3249 33.8733 14.04 32.1459 13.5833C31.2808 13.3546 30.5949 13.0857 30.1301 12.7952C29.6548 12.4982 29.4646 12.2143 29.4646 11.9707C29.4646 11.727 29.6547 11.4432 30.1298 11.1462C30.5945 10.8558 31.2802 10.5868 32.1452 10.3581C33.8723 9.90138 36.2693 9.6165 38.9246 9.6165C41.5799 9.6165 43.9763 9.90139 45.7029 10.3581C46.5677 10.5868 47.2531 10.8558 47.7176 11.1462C48.1925 11.4432 48.3825 11.727 48.3825 11.9707Z" fill="#FFDE00" stroke="black" stroke-width="0.4"/>
<path d="M46.8522 11.6302C46.8522 12.5998 43.3024 13.3851 38.9252 13.3851C34.5479 13.3851 30.9961 12.5998 30.9961 11.6302C30.9961 10.6606 34.5459 9.88135 38.9252 9.88135C43.3044 9.88135 46.8522 10.6586 46.8522 11.6302Z" fill="#FFD000"/>
<path d="M31.2385 12.0604C32.1059 11.2992 35.2191 10.7362 38.9252 10.7362C42.6313 10.7362 45.7364 11.2992 46.6098 12.0604C46.6785 12.0099 46.7356 11.9454 46.7774 11.8711C46.8192 11.7969 46.8447 11.7146 46.8522 11.6297C46.8522 10.6581 43.3024 9.8728 38.9252 9.8728C34.5479 9.8728 30.9961 10.6581 30.9961 11.6297C31.0037 11.7146 31.0292 11.7969 31.071 11.8711C31.1128 11.9454 31.1699 12.0099 31.2385 12.0604Z" fill="#F8AB08"/>
<path d="M53.3768 46.0134L53.3765 46.0137C53.2512 46.1147 53.133 46.2099 53.0122 46.293C52.9777 46.3167 52.9471 46.338 52.919 46.3576C52.8376 46.4142 52.7767 46.4567 52.7 46.5027L52.7 46.5025L52.6932 46.5069C52.4622 46.6585 52.2231 46.7973 51.9769 46.9227L51.9769 46.9227L51.9747 46.9238C51.86 46.9841 51.7451 47.0406 51.6277 47.0954C51.1427 47.3143 50.638 47.4864 50.1203 47.6095L50.1203 47.6094L50.1161 47.6105C49.9845 47.6448 49.8436 47.6739 49.7073 47.6996C49.3799 47.7597 49.049 47.7995 48.7167 47.8187L48.7167 47.8187L48.7133 47.8189C48.556 47.8307 48.4012 47.8383 48.2484 47.8345L48.2484 47.8343L48.2401 47.8344C47.8712 47.8406 47.5023 47.8184 47.1368 47.7682L47.1368 47.7681L47.1334 47.7677C46.9398 47.7445 46.7609 47.7134 46.5762 47.6761L46.5752 47.6759C46.1398 47.5903 45.7122 47.4687 45.2969 47.3124L45.2955 47.3118C45.0435 47.2191 44.7966 47.1129 44.5559 46.9938L44.5551 46.9933C43.4678 46.4617 42.5115 45.6964 41.7545 44.7521L41.7545 44.7521L40.6775 43.4094L53.5675 33.0426L54.6442 34.3848L54.6445 34.3851C55.4661 35.4055 56.0314 36.6079 56.293 37.8916L56.293 37.8916L56.2939 37.8956C56.3494 38.1418 56.3896 38.3912 56.4142 38.6424L56.4142 38.6424L56.4145 38.6456C56.4659 39.095 56.4784 39.5479 56.4516 39.9994L56.4513 39.9993V40.0112C56.4513 40.1692 56.4326 40.3281 56.412 40.5025C56.4102 40.5178 56.4084 40.5333 56.4066 40.5489C56.3337 41.1539 56.1948 41.7491 55.9922 42.3238C55.9885 42.3339 55.9849 42.3439 55.9813 42.354C55.9346 42.4828 55.8895 42.6075 55.8379 42.7303L55.8375 42.7311C55.6218 43.2506 55.3538 43.7467 55.0375 44.2118L55.0374 44.212C54.9625 44.3224 54.8885 44.4275 54.8092 44.5319L54.8085 44.5328C54.5567 44.8684 54.2784 45.1833 53.9763 45.4744L53.9762 45.4743L53.9706 45.4802C53.8875 45.567 53.7978 45.6511 53.7027 45.7345C53.6938 45.7424 53.6848 45.7503 53.6756 45.7584C53.5821 45.8405 53.4752 45.9344 53.3768 46.0134Z" fill="#CC9007" stroke="black" stroke-width="0.4"/>
<path d="M52.1755 44.5201C50.901 45.5446 49.3513 46.1682 47.7224 46.312C46.0935 46.4559 44.4586 46.1134 43.0243 45.328C41.59 44.5427 40.4208 43.3496 39.6646 41.8997C38.9084 40.4499 38.5991 38.8083 38.7758 37.1827C38.9525 35.557 39.6073 34.0202 40.6574 32.7667C41.7074 31.5132 43.1057 30.5992 44.6752 30.1404C46.2447 29.6815 47.9151 29.6983 49.475 30.1888C51.035 30.6792 52.4145 31.6212 53.4391 32.8957C54.1194 33.7419 54.6264 34.7138 54.9311 35.756C55.2358 36.7982 55.3322 37.8901 55.2149 38.9696C55.0975 40.049 54.7687 41.0948 54.2472 42.0471C53.7257 42.9995 53.0218 43.8398 52.1755 44.5201Z" fill="#FFDE00" stroke="black" stroke-width="0.4"/>
<path d="M51.3974 43.5541C50.3137 44.4251 48.996 44.9553 47.611 45.0774C46.2261 45.1996 44.836 44.9083 43.6165 44.2403C42.3971 43.5724 41.4031 42.5579 40.7603 41.3251C40.1175 40.0922 39.8547 38.6965 40.0052 37.3143C40.1556 35.9321 40.7126 34.6255 41.6056 33.5599C42.4986 32.4942 43.6876 31.7173 45.0222 31.3275C46.3568 30.9376 47.777 30.9522 49.1033 31.3695C50.4295 31.7868 51.6023 32.588 52.4732 33.6718C53.0516 34.3912 53.4826 35.2176 53.7416 36.1037C54.0006 36.9897 54.0825 37.9181 53.9826 38.8358C53.8827 39.7535 53.603 40.6426 53.1594 41.4522C52.7158 42.2617 52.1171 42.976 51.3974 43.5541Z" fill="#FCBC00"/>
<path d="M42.3428 42.5651C41.4951 41.5092 40.9705 40.231 40.8321 38.8841C40.6936 37.5371 40.9472 36.1789 41.5624 34.9726C42.1776 33.7664 43.1281 32.7636 44.2997 32.0848C45.4713 31.406 46.814 31.0801 48.1664 31.1463C47.2223 30.9874 46.2556 31.0231 45.3258 31.2512C44.3959 31.4794 43.5225 31.8951 42.759 32.4729C41.9956 33.0507 41.3583 33.7785 40.8863 34.6114C40.4142 35.4444 40.1173 36.365 40.0138 37.3169C39.9103 38.2687 40.0024 39.2316 40.2845 40.1466C40.5665 41.0615 41.0325 41.9092 41.654 42.6376C42.2754 43.366 43.0391 43.9597 43.8982 44.3823C44.7573 44.8049 45.6937 45.0475 46.6499 45.0953C44.9523 44.8092 43.4192 43.9087 42.3428 42.5651Z" fill="#C57F0C"/>
<path d="M49.4241 41.7841L49.424 41.7841L49.4236 41.7889C49.3958 42.0639 49.3541 42.3373 49.2984 42.6081L49.2981 42.6097C49.2726 42.739 49.2454 42.8637 49.2143 42.9878C49.0819 43.5035 48.8992 44.005 48.669 44.485L48.6689 44.485L48.6666 44.49C48.6109 44.615 48.5487 44.739 48.4784 44.8536L48.4782 44.8535L48.4729 44.8632C48.3147 45.1566 48.1384 45.44 47.9451 45.7116L47.9451 45.7116L47.9426 45.7152C47.8555 45.8433 47.762 45.9669 47.6624 46.0856L47.6623 46.0855L47.6573 46.0919C47.4324 46.383 47.185 46.6558 46.9172 46.908L46.9172 46.908L46.9149 46.9102C46.7769 47.0444 46.6364 47.1692 46.4934 47.2888L46.4927 47.2893C46.1535 47.5753 45.7907 47.8322 45.4083 48.0571L45.4083 48.0571L45.406 48.0585C45.1763 48.1979 44.9389 48.3241 44.6949 48.4365L44.6949 48.4365L44.6933 48.4373C43.5985 48.9533 42.4031 49.2205 41.1928 49.2195H41.1927H39.4715V32.6775L41.1927 32.6775L41.1929 32.6775C42.5032 32.6756 43.7948 32.9882 44.9593 33.5888L44.9593 33.5889L44.9624 33.5904C45.1891 33.7024 45.4091 33.8276 45.6212 33.9654L45.6212 33.9655L45.6234 33.9669C46.0058 34.2081 46.3666 34.4819 46.7017 34.7854L46.7017 34.7854L46.7046 34.7879C46.8394 34.9054 46.9705 35.0327 47.0898 35.1616L47.0898 35.1616L47.0939 35.1658C47.5211 35.6013 47.8989 36.0826 48.2203 36.6012C48.2966 36.7256 48.3715 36.8487 48.4382 36.9745L48.4382 36.9745L48.4395 36.9769C48.7095 37.47 48.9283 37.9894 49.0925 38.5271C49.1306 38.6554 49.1675 38.7799 49.2004 38.9076C49.3035 39.3134 49.3741 39.7269 49.4113 40.144L49.4112 40.144L49.4121 40.151C49.4273 40.273 49.437 40.3959 49.4428 40.5239C49.4456 40.5862 49.45 40.6436 49.4542 40.6992C49.4606 40.7828 49.4666 40.8622 49.4666 40.9475C49.4666 41.1091 49.4665 41.2576 49.4552 41.405C49.4512 41.4563 49.4482 41.5006 49.4455 41.541C49.4394 41.6302 49.4346 41.7002 49.4241 41.7841Z" fill="#CC9007" stroke="black" stroke-width="0.4"/>
<path d="M47.5455 40.9452V40.9453C47.5459 42.5806 47.0613 44.1793 46.1531 45.5392C45.2448 46.8991 43.9536 47.9592 42.4429 48.5853C40.9322 49.2113 39.2697 49.3753 37.6657 49.0565C36.0618 48.7377 34.5884 47.9505 33.4319 46.7942C32.2754 45.638 31.4878 44.1648 31.1686 42.5609C30.8494 40.957 31.013 39.2945 31.6387 37.7837C32.2645 36.2728 33.3242 34.9814 34.6839 34.0728C36.0436 33.1642 37.6422 32.6792 39.2775 32.6792H39.2776C40.3633 32.679 41.4383 32.8926 42.4414 33.3079C43.4445 33.7232 44.356 34.332 45.1238 35.0996C45.8915 35.8672 46.5006 36.7785 46.9161 37.7815C47.3316 38.7845 47.5455 39.8595 47.5455 40.9452Z" fill="#FFDE00" stroke="black" stroke-width="0.4"/>
<path d="M46.3072 40.9469C46.3084 42.3375 45.8971 43.6972 45.1255 44.854C44.3538 46.0108 43.2563 46.9127 41.9719 47.4457C40.6875 47.9787 39.2739 48.1187 37.9099 47.8482C36.5459 47.5776 35.2928 46.9086 34.3091 45.9257C33.3254 44.9429 32.6553 43.6903 32.3836 42.3266C32.1118 40.9628 32.2507 39.5491 32.7826 38.2642C33.3144 36.9794 34.2154 35.8811 35.3716 35.1085C36.5277 34.3358 37.8871 33.9233 39.2776 33.9233C41.141 33.9233 42.9281 34.6631 44.2462 35.9801C45.5643 37.2971 46.3056 39.0836 46.3072 40.9469Z" fill="#FCBC00"/>
<path d="M39.8648 47.3891C38.5101 47.3894 37.1841 46.998 36.0466 46.2622C34.9092 45.5263 34.0086 44.4774 33.4534 43.2417C32.8982 42.0059 32.712 40.636 32.9172 39.2969C33.1224 37.9578 33.7103 36.7066 34.6101 35.6938C33.8945 36.3301 33.3164 37.106 32.9114 37.9738C32.5064 38.8415 32.283 39.7829 32.255 40.7401C32.2269 41.6974 32.3948 42.6502 32.7484 43.5402C33.1019 44.4302 33.6336 45.2385 34.3108 45.9156C34.988 46.5927 35.7965 47.1242 36.6865 47.4776C37.5766 47.8309 38.5295 47.9986 39.4867 47.9704C40.4439 47.9422 41.3852 47.7186 42.2529 47.3134C43.1206 46.9083 43.8964 46.33 44.5325 45.6142C43.2478 46.7596 41.586 47.3915 39.8648 47.3891Z" fill="#C57F0C"/>
</svg>
