<svg width="56" height="56" viewBox="0 0 56 56" fill="none" xmlns="http://www.w3.org/2000/svg">
<g clip-path="url(#clip0_8896_139383)">
<mask id="path-1-inside-1_8896_139383" fill="white">
<path fill-rule="evenodd" clip-rule="evenodd" d="M47.8344 14.9998C49.2185 14.9998 56.0003 16.0378 56.0003 24.5497C56.0003 31.3592 50.5564 40.397 47.8344 44.0648L46.3255 44.0648C46.3255 44.0648 39.4609 30.4263 39.4609 24.5497C39.4609 18.511 46.2525 14.9998 46.2525 14.9998L47.8344 14.9998ZM47.4037 27.0417C49.5439 27.0417 51.279 25.3066 51.279 23.1663C51.279 21.0261 49.5439 19.291 47.4037 19.291C45.2634 19.291 43.5283 21.0261 43.5283 23.1663C43.5283 25.3066 45.2634 27.0417 47.4037 27.0417Z"/>
</mask>
<path fill-rule="evenodd" clip-rule="evenodd" d="M47.8344 14.9998C49.2185 14.9998 56.0003 16.0378 56.0003 24.5497C56.0003 31.3592 50.5564 40.397 47.8344 44.0648L46.3255 44.0648C46.3255 44.0648 39.4609 30.4263 39.4609 24.5497C39.4609 18.511 46.2525 14.9998 46.2525 14.9998L47.8344 14.9998ZM47.4037 27.0417C49.5439 27.0417 51.279 25.3066 51.279 23.1663C51.279 21.0261 49.5439 19.291 47.4037 19.291C45.2634 19.291 43.5283 21.0261 43.5283 23.1663C43.5283 25.3066 45.2634 27.0417 47.4037 27.0417Z" fill="#26AD4F"/>
<path d="M47.8344 44.0648L47.8344 44.4648L48.0357 44.4648L48.1556 44.3031L47.8344 44.0648ZM46.3255 44.0648L45.9682 44.2446L46.0791 44.4648L46.3255 44.4648L46.3255 44.0648ZM46.2525 14.9998L46.2525 14.5998L46.1552 14.5998L46.0688 14.6444L46.2525 14.9998ZM56.4003 24.5497C56.4003 20.1684 54.6455 17.6573 52.6676 16.2564C50.7154 14.8735 48.587 14.5998 47.8344 14.5998L47.8344 15.3998C48.4659 15.3998 50.4205 15.645 52.2052 16.9092C53.9642 18.1552 55.6003 20.4191 55.6003 24.5497L56.4003 24.5497ZM48.1556 44.3031C49.5305 42.4505 51.5858 39.2521 53.2992 35.6575C55.0082 32.0721 56.4003 28.0449 56.4003 24.5497L55.6003 24.5497C55.6003 27.864 54.2705 31.7605 52.577 35.3133C50.8879 38.8569 48.8603 42.0113 47.5132 43.8264L48.1556 44.3031ZM46.3255 44.4648L47.8344 44.4648L47.8344 43.6648L46.3255 43.6648L46.3255 44.4648ZM39.0609 24.5497C39.0609 26.0808 39.505 28.082 40.151 30.195C40.7997 32.3169 41.663 34.5855 42.5237 36.664C43.3848 38.7434 44.2455 40.6377 44.8909 42.0119C45.2136 42.6992 45.4827 43.2568 45.6711 43.6428C45.7654 43.8358 45.8395 43.9859 45.8901 44.0879C45.9154 44.139 45.9349 44.178 45.9481 44.2043C45.9546 44.2175 45.9596 44.2274 45.963 44.2342C45.9647 44.2376 45.966 44.2401 45.9669 44.2419C45.9673 44.2427 45.9676 44.2434 45.9679 44.2438C45.968 44.2441 45.9681 44.2443 45.9681 44.2444C45.9682 44.2445 45.9682 44.2446 46.3255 44.0648C46.6828 43.8849 46.6828 43.8849 46.6828 43.8848C46.6827 43.8847 46.6827 43.8846 46.6826 43.8844C46.6824 43.884 46.6821 43.8835 46.6817 43.8827C46.6809 43.8811 46.6797 43.8787 46.6781 43.8755C46.6749 43.8691 46.67 43.8594 46.6636 43.8466C46.6508 43.821 46.6317 43.7827 46.6068 43.7324C46.5568 43.6317 46.4835 43.4831 46.39 43.2917C46.2031 42.9089 45.9358 42.3551 45.615 41.6719C44.9732 40.3053 44.1179 38.4227 43.2628 36.3579C42.4074 34.2922 41.5545 32.0493 40.9161 29.9612C40.2749 27.8642 39.8609 25.9569 39.8609 24.5497L39.0609 24.5497ZM46.2525 14.9998C46.0688 14.6444 46.0687 14.6445 46.0685 14.6446C46.0684 14.6446 46.0682 14.6448 46.068 14.6448C46.0676 14.645 46.0672 14.6453 46.0666 14.6456C46.0654 14.6462 46.0639 14.647 46.0619 14.648C46.058 14.6501 46.0524 14.653 46.0453 14.6568C46.0311 14.6643 46.0107 14.6753 45.9844 14.6897C45.9318 14.7184 45.8558 14.7608 45.7599 14.8165C45.568 14.9279 45.2957 15.0929 44.9698 15.3097C44.3187 15.7428 43.4498 16.385 42.5795 17.2219C40.8461 18.8886 39.0609 21.3737 39.0609 24.5497L39.8609 24.5497C39.8609 21.6871 41.4715 19.3971 43.134 17.7986C43.9615 17.0028 44.7905 16.3898 45.4129 15.9758C45.7237 15.769 45.982 15.6126 46.1615 15.5084C46.2512 15.4563 46.3212 15.4173 46.3681 15.3916C46.3915 15.3788 46.4092 15.3694 46.4207 15.3632C46.4265 15.3602 46.4307 15.358 46.4333 15.3566C46.4346 15.3559 46.4355 15.3555 46.436 15.3552C46.4362 15.3551 46.4363 15.355 46.4364 15.355C46.4364 15.355 46.4364 15.355 46.4364 15.355C46.4363 15.355 46.4362 15.3551 46.2525 14.9998ZM47.8344 14.5998L46.2525 14.5998L46.2525 15.3998L47.8344 15.3998L47.8344 14.5998ZM50.879 23.1663C50.879 25.0857 49.323 26.6417 47.4037 26.6417L47.4037 27.4417C49.7649 27.4417 51.679 25.5275 51.679 23.1663L50.879 23.1663ZM47.4037 19.691C49.323 19.691 50.879 21.247 50.879 23.1663L51.679 23.1663C51.679 20.8051 49.7649 18.891 47.4037 18.891L47.4037 19.691ZM43.9283 23.1663C43.9283 21.247 45.4843 19.691 47.4037 19.691L47.4037 18.891C45.0425 18.891 43.1283 20.8051 43.1283 23.1663L43.9283 23.1663ZM47.4037 26.6417C45.4843 26.6417 43.9283 25.0857 43.9283 23.1663L43.1283 23.1663C43.1283 25.5275 45.0425 27.4417 47.4037 27.4417L47.4037 26.6417Z" fill="#1F2226" mask="url(#path-1-inside-1_8896_139383)"/>
<mask id="path-3-inside-2_8896_139383" fill="white">
<path fill-rule="evenodd" clip-rule="evenodd" d="M46.3735 44.0648C43.5823 40.5354 38 31.6914 38 24.5497C38 15.6226 44.9894 14.9998 46.3735 14.9998C47.7575 14.9998 54.5394 16.0378 54.5394 24.5497C54.5394 31.3592 49.0954 40.397 46.3735 44.0648ZM46.2345 27.0417C48.3748 27.0417 50.1099 25.3066 50.1099 23.1663C50.1099 21.0261 48.3748 19.291 46.2345 19.291C44.0942 19.291 42.3592 21.0261 42.3592 23.1663C42.3592 25.3066 44.0942 27.0417 46.2345 27.0417Z"/>
</mask>
<path fill-rule="evenodd" clip-rule="evenodd" d="M46.3735 44.0648C43.5823 40.5354 38 31.6914 38 24.5497C38 15.6226 44.9894 14.9998 46.3735 14.9998C47.7575 14.9998 54.5394 16.0378 54.5394 24.5497C54.5394 31.3592 49.0954 40.397 46.3735 44.0648ZM46.2345 27.0417C48.3748 27.0417 50.1099 25.3066 50.1099 23.1663C50.1099 21.0261 48.3748 19.291 46.2345 19.291C44.0942 19.291 42.3592 21.0261 42.3592 23.1663C42.3592 25.3066 44.0942 27.0417 46.2345 27.0417Z" fill="#26AD4F"/>
<path d="M46.3735 44.0648L46.0597 44.3129L46.3836 44.7224L46.6947 44.3031L46.3735 44.0648ZM37.6 24.5497C37.6 28.2116 39.0269 32.2737 40.7812 35.8385C42.5391 39.4107 44.648 42.5278 46.0597 44.3129L46.6872 43.8166C45.3078 42.0723 43.23 39.0028 41.499 35.4852C39.7642 31.9602 38.4 28.0295 38.4 24.5497L37.6 24.5497ZM46.3735 14.5998C45.6421 14.5998 43.4592 14.7611 41.4469 16.0935C39.4061 17.4449 37.6 19.9625 37.6 24.5497L38.4 24.5497C38.4 20.2097 40.0886 17.9524 41.8886 16.7606C43.717 15.5498 45.7208 15.3998 46.3735 15.3998L46.3735 14.5998ZM54.9394 24.5497C54.9394 20.1684 53.1845 17.6573 51.2067 16.2564C49.2544 14.8735 47.1261 14.5998 46.3735 14.5998L46.3735 15.3998C47.005 15.3998 48.9595 15.645 50.7442 16.9092C52.5033 18.1552 54.1394 20.4191 54.1394 24.5497L54.9394 24.5497ZM46.6947 44.3031C48.0696 42.4505 50.1249 39.2521 51.8382 35.6575C53.5472 32.0721 54.9394 28.0449 54.9394 24.5497L54.1394 24.5497C54.1394 27.864 52.8095 31.7605 51.1161 35.3133C49.427 38.8569 47.3993 42.0113 46.0523 43.8264L46.6947 44.3031ZM49.7099 23.1663C49.7099 25.0857 48.1539 26.6417 46.2345 26.6417L46.2345 27.4417C48.5957 27.4417 50.5099 25.5275 50.5099 23.1663L49.7099 23.1663ZM46.2345 19.691C48.1539 19.691 49.7099 21.247 49.7099 23.1663L50.5099 23.1663C50.5099 20.8051 48.5957 18.891 46.2345 18.891L46.2345 19.691ZM42.7592 23.1663C42.7592 21.247 44.3152 19.691 46.2345 19.691L46.2345 18.891C43.8733 18.891 41.9592 20.8051 41.9592 23.1663L42.7592 23.1663ZM46.2345 26.6417C44.3152 26.6417 42.7592 25.0857 42.7592 23.1663L41.9592 23.1663C41.9592 25.5275 43.8733 27.4417 46.2345 27.4417L46.2345 26.6417Z" fill="#1F2226" mask="url(#path-3-inside-2_8896_139383)"/>
<mask id="path-5-inside-3_8896_139383" fill="white">
<path fill-rule="evenodd" clip-rule="evenodd" d="M9.09001 4.00073C9.94715 4.00073 14.1472 4.64359 14.1472 9.91502C14.1472 14.1322 10.7757 19.7293 9.09001 22.0007L8.15555 22.0007C8.15555 22.0007 3.9043 13.5544 3.9043 9.91502C3.9043 6.17527 8.11033 4.00073 8.11033 4.00073L9.09001 4.00073ZM8.82334 11.4582C10.1488 11.4582 11.2233 10.3837 11.2233 9.0582C11.2233 7.73272 10.1488 6.6582 8.82334 6.6582C7.49786 6.6582 6.42334 7.73272 6.42334 9.0582C6.42334 10.3837 7.49786 11.4582 8.82334 11.4582Z"/>
</mask>
<path fill-rule="evenodd" clip-rule="evenodd" d="M9.09001 4.00073C9.94715 4.00073 14.1472 4.64359 14.1472 9.91502C14.1472 14.1322 10.7757 19.7293 9.09001 22.0007L8.15555 22.0007C8.15555 22.0007 3.9043 13.5544 3.9043 9.91502C3.9043 6.17527 8.11033 4.00073 8.11033 4.00073L9.09001 4.00073ZM8.82334 11.4582C10.1488 11.4582 11.2233 10.3837 11.2233 9.0582C11.2233 7.73272 10.1488 6.6582 8.82334 6.6582C7.49786 6.6582 6.42334 7.73272 6.42334 9.0582C6.42334 10.3837 7.49786 11.4582 8.82334 11.4582Z" fill="#B88915"/>
<path d="M9.09001 22.0007L9.09001 22.3007L9.24096 22.3007L9.33092 22.1795L9.09001 22.0007ZM8.15555 22.0007L7.88758 22.1356L7.97069 22.3007L8.15555 22.3007L8.15555 22.0007ZM8.11033 4.00073L8.11033 3.70073L8.03736 3.70073L7.97255 3.73424L8.11033 4.00073ZM14.4472 9.91502C14.4472 7.1853 13.3526 5.61405 12.1134 4.73628C10.8935 3.87215 9.56399 3.70073 9.09001 3.70073L9.09001 4.30073C9.47317 4.30073 10.6723 4.45074 11.7666 5.2259C12.8417 5.98742 13.8471 7.37331 13.8471 9.91502L14.4472 9.91502ZM9.33092 22.1795C10.1842 21.0297 11.4589 19.046 12.5215 16.8166C13.5809 14.594 14.4472 12.0914 14.4472 9.91502L13.8471 9.91502C13.8471 11.9558 13.0277 14.3603 11.9799 16.5584C10.9354 18.7497 9.68152 20.7003 8.8491 21.8219L9.33092 22.1795ZM8.15555 22.3007L9.09001 22.3007L9.09001 21.7007L8.15555 21.7007L8.15555 22.3007ZM3.6043 9.91502C3.6043 10.8713 3.88127 12.1168 4.28166 13.4265C4.68407 14.7427 5.21937 16.1494 5.75275 17.4374C6.28642 18.7261 6.81985 19.9001 7.21974 20.7516C7.41974 21.1775 7.58647 21.5231 7.7033 21.7623C7.76172 21.882 7.80767 21.975 7.83907 22.0383C7.85477 22.07 7.86684 22.0942 7.87501 22.1105C7.8791 22.1187 7.88221 22.1249 7.88432 22.1291C7.88537 22.1312 7.88617 22.1328 7.88671 22.1339C7.88699 22.1344 7.8872 22.1348 7.88734 22.1351C7.88741 22.1353 7.88747 22.1354 7.88751 22.1355C7.88755 22.1355 7.88758 22.1356 8.15555 22.0007C8.42352 21.8658 8.42352 21.8658 8.4235 21.8658C8.42347 21.8657 8.42343 21.8657 8.42337 21.8656C8.42326 21.8653 8.42308 21.865 8.42284 21.8645C8.42236 21.8635 8.42162 21.8621 8.42063 21.8601C8.41864 21.8561 8.41566 21.8502 8.4117 21.8423C8.40378 21.8264 8.39198 21.8027 8.37654 21.7716C8.34567 21.7094 8.30029 21.6175 8.24246 21.4991C8.1268 21.2622 7.9614 20.9194 7.76284 20.4966C7.36563 19.6507 6.83624 18.4856 6.3071 17.2079C5.77766 15.9294 5.25015 14.5421 4.85545 13.2511C4.45873 11.9534 4.2043 10.7784 4.2043 9.91502L3.6043 9.91502ZM8.11033 4.00073C7.97255 3.73424 7.97244 3.7343 7.97232 3.73436C7.97225 3.73439 7.97212 3.73447 7.97199 3.73453C7.97174 3.73466 7.97143 3.73482 7.97105 3.73502C7.97029 3.73541 7.96928 3.73594 7.96802 3.7366C7.9655 3.73792 7.96198 3.73978 7.95749 3.74216C7.94852 3.74693 7.93566 3.75383 7.91919 3.76283C7.88626 3.78083 7.83883 3.80728 7.77898 3.84202C7.65933 3.91148 7.48979 4.01424 7.28698 4.14915C6.88191 4.4186 6.34118 4.81824 5.79937 5.33922C4.72129 6.37588 3.6043 7.92761 3.6043 9.91502L4.2043 9.91502C4.2043 8.16267 5.19032 6.75726 6.21525 5.77172C6.72495 5.2816 7.23573 4.90387 7.61929 4.64872C7.81079 4.52133 7.96985 4.42499 8.08021 4.36093C8.13537 4.3289 8.17831 4.30498 8.20699 4.2893C8.22132 4.28147 8.23209 4.2757 8.23903 4.27201C8.2425 4.27017 8.24501 4.26884 8.24653 4.26804C8.24729 4.26765 8.24781 4.26738 8.24807 4.26724C8.2482 4.26717 8.24827 4.26714 8.24828 4.26713C8.24828 4.26713 8.24824 4.26715 8.24824 4.26715C8.24818 4.26718 8.2481 4.26722 8.11033 4.00073ZM9.09001 3.70073L8.11033 3.70073L8.11033 4.30073L9.09001 4.30073L9.09001 3.70073ZM10.9233 9.0582C10.9233 10.218 9.98314 11.1582 8.82334 11.1582L8.82334 11.7582C10.3145 11.7582 11.5233 10.5494 11.5233 9.0582L10.9233 9.0582ZM8.82334 6.9582C9.98314 6.9582 10.9233 7.89841 10.9233 9.0582L11.5233 9.0582C11.5233 7.56703 10.3145 6.3582 8.82334 6.3582L8.82334 6.9582ZM6.72334 9.0582C6.72334 7.89841 7.66354 6.9582 8.82334 6.9582L8.82334 6.3582C7.33217 6.3582 6.12334 7.56703 6.12334 9.0582L6.72334 9.0582ZM8.82334 11.1582C7.66354 11.1582 6.72334 10.218 6.72334 9.0582L6.12334 9.0582C6.12334 10.5494 7.33217 11.7582 8.82334 11.7582L8.82334 11.1582Z" fill="#1F2226" mask="url(#path-5-inside-3_8896_139383)"/>
<mask id="path-7-inside-4_8896_139383" fill="white">
<path fill-rule="evenodd" clip-rule="evenodd" d="M8.18571 22.0007C6.45714 19.815 3 14.3379 3 9.91502C3 4.38645 7.32857 4.00073 8.18571 4.00073C9.04285 4.00073 13.2428 4.64359 13.2428 9.91502C13.2428 14.1322 9.87142 19.7293 8.18571 22.0007ZM8.09977 11.4582C9.42525 11.4582 10.4998 10.3837 10.4998 9.0582C10.4998 7.73272 9.42525 6.6582 8.09977 6.6582C6.77428 6.6582 5.69977 7.73272 5.69977 9.0582C5.69977 10.3837 6.77428 11.4582 8.09977 11.4582Z"/>
</mask>
<path fill-rule="evenodd" clip-rule="evenodd" d="M8.18571 22.0007C6.45714 19.815 3 14.3379 3 9.91502C3 4.38645 7.32857 4.00073 8.18571 4.00073C9.04285 4.00073 13.2428 4.64359 13.2428 9.91502C13.2428 14.1322 9.87142 19.7293 8.18571 22.0007ZM8.09977 11.4582C9.42525 11.4582 10.4998 10.3837 10.4998 9.0582C10.4998 7.73272 9.42525 6.6582 8.09977 6.6582C6.77428 6.6582 5.69977 7.73272 5.69977 9.0582C5.69977 10.3837 6.77428 11.4582 8.09977 11.4582Z" fill="#F8BD2D"/>
<path d="M8.18571 22.0007L7.9504 22.1868L8.19328 22.4939L8.42661 22.1795L8.18571 22.0007ZM2.7 9.91502C2.7 12.1947 3.58779 14.719 4.67547 16.9293C5.76591 19.1451 7.07403 21.0787 7.9504 22.1868L8.42101 21.8146C7.56882 20.7371 6.28408 18.8392 5.21381 16.6643C4.14078 14.4839 3.3 12.0582 3.3 9.91502L2.7 9.91502ZM8.18571 3.70073C7.72763 3.70073 6.36402 3.80138 5.1058 4.63453C3.82619 5.48183 2.7 7.05803 2.7 9.91502L3.3 9.91502C3.3 7.24343 4.33809 5.86249 5.43706 5.13479C6.5574 4.39294 7.78664 4.30073 8.18571 4.30073L8.18571 3.70073ZM13.5428 9.91502C13.5428 7.1853 12.4483 5.61405 11.2091 4.73628C9.98916 3.87215 8.65969 3.70073 8.18571 3.70073L8.18571 4.30073C8.56887 4.30073 9.76797 4.45074 10.8623 5.2259C11.9374 5.98742 12.9428 7.37331 12.9428 9.91502L13.5428 9.91502ZM8.42661 22.1795C9.27991 21.0297 10.5546 19.046 11.6172 16.8166C12.6766 14.594 13.5428 12.0914 13.5428 9.91502L12.9428 9.91502C12.9428 11.9558 12.1233 14.3603 11.0756 16.5584C10.0311 18.7497 8.77721 20.7003 7.9448 21.8219L8.42661 22.1795ZM10.1998 9.0582C10.1998 10.218 9.25957 11.1582 8.09977 11.1582L8.09977 11.7582C9.59094 11.7582 10.7998 10.5494 10.7998 9.0582L10.1998 9.0582ZM8.09977 6.9582C9.25957 6.9582 10.1998 7.89841 10.1998 9.0582L10.7998 9.0582C10.7998 7.56703 9.59094 6.3582 8.09977 6.3582L8.09977 6.9582ZM5.99977 9.0582C5.99977 7.89841 6.93997 6.9582 8.09977 6.9582L8.09977 6.3582C6.6086 6.3582 5.39977 7.56703 5.39977 9.0582L5.99977 9.0582ZM8.09977 11.1582C6.93997 11.1582 5.99977 10.218 5.99977 9.0582L5.39977 9.0582C5.39977 10.5494 6.6086 11.7582 8.09977 11.7582L8.09977 11.1582Z" fill="#1F2226" mask="url(#path-7-inside-4_8896_139383)"/>
<path d="M44.0318 43.4925L43.8042 43.9378L44.0318 43.4925ZM12.2002 35.8507L12.1423 35.3541L12.2002 35.8507ZM7.09139 21.5898C6.48195 22.0145 5.92022 22.4328 5.40404 22.8446L6.02764 23.6263C6.52556 23.2292 7.06986 22.8236 7.66312 22.4102L7.09139 21.5898ZM2.3816 25.769C1.26161 27.1573 0.664754 28.4725 0.529721 29.6955L1.52368 29.8053C1.63175 28.8265 2.11996 27.6859 3.1599 26.3969L2.3816 25.769ZM2.15095 33.7881C3.12959 34.6998 4.46329 35.3805 5.94691 35.8251L6.23395 34.8672C4.85064 34.4526 3.6678 33.8345 2.83259 33.0564L2.15095 33.7881ZM10.1391 36.4523C10.8456 36.4634 11.5565 36.4291 12.258 36.3474L12.1423 35.3541C11.4857 35.4306 10.8187 35.4628 10.1548 35.4524L10.1391 36.4523ZM12.258 36.3474C12.9685 36.2646 13.6574 36.1943 14.3268 36.1363L14.2404 35.14C13.5606 35.199 12.8619 35.2703 12.1423 35.3541L12.258 36.3474ZM18.4579 35.9276C19.9147 35.9129 21.2788 35.9683 22.5784 36.0899L22.6715 35.0942C21.3351 34.9692 19.9365 34.9126 18.4479 34.9276L18.4579 35.9276ZM26.6433 36.7193C27.99 37.0141 29.2972 37.3883 30.6055 37.8375L30.9302 36.8916C29.5893 36.4313 28.245 36.0463 26.8572 35.7425L26.6433 36.7193ZM34.4523 39.3518C35.6644 39.8825 36.9089 40.4702 38.2158 41.112L38.6566 40.2143C37.3415 39.5686 36.0831 38.9742 34.8534 38.4358L34.4523 39.3518ZM41.941 42.9855C42.5462 43.2943 43.1662 43.6116 43.8042 43.9378L44.2594 43.0473C43.622 42.7215 43.0011 42.4038 42.3955 42.0948L41.941 42.9855ZM43.8042 43.9378C44.3748 44.2294 44.8719 44.5127 45.301 44.7875L45.8402 43.9453C45.3793 43.6502 44.8534 43.3509 44.2594 43.0473L43.8042 43.9378ZM47.4465 46.9946C47.5547 47.3674 47.4988 47.7176 47.2765 48.0782C47.0439 48.4556 46.6262 48.8454 46.0147 49.2355L46.5524 50.0786C47.2291 49.647 47.7848 49.1594 48.1278 48.6029C48.481 48.0298 48.6025 47.3899 48.4069 46.7159L47.4465 46.9946ZM42.9409 50.6321C41.9342 50.9806 40.8113 51.301 39.6181 51.5929L39.8557 52.5642C41.0709 52.267 42.2248 51.9382 43.268 51.5771L42.9409 50.6321ZM36.217 52.3193C35.0784 52.5319 33.9214 52.7212 32.7797 52.8871L32.9235 53.8767C34.077 53.7091 35.2473 53.5176 36.4006 53.3023L36.217 52.3193ZM29.3187 53.3279C28.7242 53.3931 28.1455 53.4511 27.5882 53.5021L27.6792 54.4979C28.2425 54.4464 28.8273 54.3878 29.4277 54.3219L29.3187 53.3279Z" fill="black"/>
<mask id="path-10-inside-5_8896_139383" fill="white">
<path fill-rule="evenodd" clip-rule="evenodd" d="M31.0924 7.13672C33.41 7.13672 45.0256 8.87499 45.0256 23.1288C45.0256 34.5318 35.6505 49.6664 31.0924 55.8082H29.0419C29.0419 55.8082 17.0703 33.2284 17.0703 23.1288C17.0703 14.0062 28.6536 7.13672 28.6536 7.13672L31.0924 7.13672ZM30.3364 27.3451C33.4457 27.3451 35.9663 24.4189 35.9663 20.8093C35.9663 17.1996 33.4457 14.2734 30.3364 14.2734C27.2271 14.2734 24.7065 17.1996 24.7065 20.8093C24.7065 24.4189 27.2271 27.3451 30.3364 27.3451Z"/>
</mask>
<path fill-rule="evenodd" clip-rule="evenodd" d="M31.0924 7.13672C33.41 7.13672 45.0256 8.87499 45.0256 23.1288C45.0256 34.5318 35.6505 49.6664 31.0924 55.8082H29.0419C29.0419 55.8082 17.0703 33.2284 17.0703 23.1288C17.0703 14.0062 28.6536 7.13672 28.6536 7.13672L31.0924 7.13672ZM30.3364 27.3451C33.4457 27.3451 35.9663 24.4189 35.9663 20.8093C35.9663 17.1996 33.4457 14.2734 30.3364 14.2734C27.2271 14.2734 24.7065 17.1996 24.7065 20.8093C24.7065 24.4189 27.2271 27.3451 30.3364 27.3451Z" fill="#D5787C"/>
<path d="M31.0924 55.8082V56.3082H31.3439L31.4939 56.1062L31.0924 55.8082ZM29.0419 55.8082L28.6001 56.0425L28.7411 56.3082L29.0419 56.3082V55.8082ZM28.6536 7.13672V6.63672H28.5165L28.3986 6.70666L28.6536 7.13672ZM45.5256 23.1288C45.5256 15.8405 42.5434 11.6879 39.2132 9.3768C35.9158 7.08848 32.3256 6.63672 31.0924 6.63672V7.63672C32.1768 7.63672 35.5532 8.05409 38.643 10.1984C41.7 12.3198 44.5256 16.1633 44.5256 23.1288H45.5256ZM31.4939 56.1062C33.7883 53.0146 37.2886 47.6692 40.2177 41.6605C43.1408 35.6643 45.5256 28.9463 45.5256 23.1288H44.5256C44.5256 28.7143 42.2228 35.2651 39.3188 41.2224C36.4208 47.1672 32.9546 52.46 30.6908 55.5103L31.4939 56.1062ZM29.0419 56.3082H31.0924V55.3082H29.0419V56.3082ZM16.5703 23.1288C16.5703 25.7334 17.3383 29.0984 18.4643 32.647C19.5937 36.2062 21.0972 39.9925 22.5973 43.4547C24.0979 46.918 25.5981 50.0639 26.7229 52.3436C27.2855 53.4836 27.7543 54.4075 28.0828 55.0468C28.247 55.3664 28.3761 55.6149 28.4643 55.7837C28.5084 55.8681 28.5422 55.9326 28.5651 55.9761C28.5766 55.9978 28.5853 56.0143 28.5911 56.0254C28.5941 56.031 28.5963 56.0352 28.5978 56.038C28.5985 56.0394 28.5991 56.0405 28.5995 56.0413C28.5997 56.0416 28.5999 56.0419 28.6 56.0421C28.6001 56.0423 28.6001 56.0425 29.0419 55.8082C29.4836 55.574 29.4836 55.574 29.4836 55.5739C29.4835 55.5737 29.4834 55.5735 29.4832 55.5732C29.4829 55.5725 29.4823 55.5715 29.4816 55.5702C29.4802 55.5676 29.4781 55.5636 29.4753 55.5583C29.4697 55.5476 29.4612 55.5316 29.45 55.5103C29.4276 55.4677 29.3942 55.4041 29.3506 55.3207C29.2634 55.1538 29.1354 54.9073 28.9722 54.5898C28.646 53.9548 28.1796 53.0357 27.6197 51.9011C26.4999 49.6315 25.0072 46.5011 23.5149 43.0571C22.0221 39.6118 20.5328 35.8595 19.4175 32.3445C18.2988 28.8188 17.5703 25.574 17.5703 23.1288H16.5703ZM28.6536 7.13672C28.3986 6.70666 28.3984 6.70676 28.3982 6.70688C28.3981 6.70696 28.3978 6.70711 28.3976 6.70726C28.397 6.70757 28.3964 6.70798 28.3955 6.7085C28.3938 6.70953 28.3913 6.71098 28.3882 6.71285C28.382 6.71659 28.373 6.72199 28.3613 6.72905C28.3381 6.74315 28.3041 6.76385 28.2603 6.79101C28.1726 6.84532 28.0451 6.92548 27.8836 7.03035C27.5606 7.24007 27.1011 7.54884 26.5504 7.94767C25.45 8.7447 23.9813 9.90467 22.5108 11.3559C19.5883 14.2399 16.5703 18.3611 16.5703 23.1288H17.5703C17.5703 18.7739 20.344 14.8991 23.2132 12.0677C24.6384 10.6612 26.0656 9.53362 27.137 8.75755C27.6723 8.36983 28.1177 8.07066 28.4282 7.86906C28.5834 7.76828 28.7048 7.69195 28.7868 7.64118C28.8278 7.6158 28.8589 7.59681 28.8795 7.58436C28.8897 7.57814 28.8974 7.57355 28.9023 7.57061C28.9047 7.56914 28.9065 7.56809 28.9076 7.56745C28.9081 7.56713 28.9085 7.56691 28.9086 7.5668C28.9087 7.56675 28.9087 7.56674 28.9088 7.56671C28.9088 7.56673 28.9087 7.56678 28.6536 7.13672ZM31.0924 6.63672L28.6536 6.63672V7.63672L31.0924 7.63672V6.63672ZM35.4663 20.8093C35.4663 24.2154 33.1022 26.8451 30.3364 26.8451V27.8451C33.7893 27.8451 36.4663 24.6224 36.4663 20.8093H35.4663ZM30.3364 14.7734C33.1022 14.7734 35.4663 17.4032 35.4663 20.8093H36.4663C36.4663 16.9961 33.7893 13.7734 30.3364 13.7734V14.7734ZM25.2065 20.8093C25.2065 17.4032 27.5707 14.7734 30.3364 14.7734V13.7734C26.8836 13.7734 24.2065 16.9961 24.2065 20.8093L25.2065 20.8093ZM30.3364 26.8451C27.5707 26.8451 25.2065 24.2154 25.2065 20.8093L24.2065 20.8093C24.2065 24.6224 26.8836 27.8451 30.3364 27.8451V26.8451Z" fill="#1F2226" mask="url(#path-10-inside-5_8896_139383)"/>
<mask id="path-12-inside-6_8896_139383" fill="white">
<path fill-rule="evenodd" clip-rule="evenodd" d="M29.022 55.8082C24.348 49.8981 15 35.0881 15 23.1288C15 8.17968 26.7043 7.13672 29.022 7.13672C31.3397 7.13672 42.6964 8.87499 42.6964 23.1288C42.6964 34.5318 33.5802 49.6664 29.022 55.8082ZM28.7903 27.2952C32.3744 27.2952 35.2799 24.3898 35.2799 20.8057C35.2799 17.2216 32.3744 14.3162 28.7903 14.3162C25.2062 14.3162 22.3008 17.2216 22.3008 20.8057C22.3008 24.3898 25.2062 27.2952 28.7903 27.2952Z"/>
</mask>
<path fill-rule="evenodd" clip-rule="evenodd" d="M29.022 55.8082C24.348 49.8981 15 35.0881 15 23.1288C15 8.17968 26.7043 7.13672 29.022 7.13672C31.3397 7.13672 42.6964 8.87499 42.6964 23.1288C42.6964 34.5318 33.5802 49.6664 29.022 55.8082ZM28.7903 27.2952C32.3744 27.2952 35.2799 24.3898 35.2799 20.8057C35.2799 17.2216 32.3744 14.3162 28.7903 14.3162C25.2062 14.3162 22.3008 17.2216 22.3008 20.8057C22.3008 24.3898 25.2062 27.2952 28.7903 27.2952Z" fill="#FF9499"/>
<path d="M29.022 55.8082L28.6299 56.1184L29.0347 56.6302L29.4235 56.1062L29.022 55.8082ZM14.5 23.1288C14.5 29.2222 16.8762 35.9967 19.8096 41.9577C22.7477 47.9281 26.2727 53.1379 28.6299 56.1184L29.4142 55.4981C27.0974 52.5685 23.6113 47.4182 20.7069 41.5162C17.7978 35.6048 15.5 28.9946 15.5 23.1288H14.5ZM29.022 6.63672C27.814 6.63672 24.1965 6.90449 20.8658 9.10995C17.4995 11.339 14.5 15.4997 14.5 23.1288H15.5C15.5 15.8087 18.3527 11.9734 21.4179 9.94373C24.5188 7.89043 27.9124 7.63672 29.022 7.63672V6.63672ZM43.1964 23.1288C43.1964 15.8452 40.283 11.6927 37.0174 9.37957C33.7838 7.08912 30.2566 6.63672 29.022 6.63672V7.63672C30.1052 7.63672 33.4152 8.05345 36.4394 10.1956C39.4315 12.315 42.1964 16.1586 42.1964 23.1288H43.1964ZM29.4235 56.1062C31.72 53.0118 35.1559 47.6652 38.0199 41.6566C40.8784 35.6595 43.1964 28.9434 43.1964 23.1288H42.1964C42.1964 28.7173 39.9563 35.27 37.1172 41.2263C34.2835 47.1712 30.8822 52.4628 28.6205 55.5103L29.4235 56.1062ZM34.7799 20.8057C34.7799 24.1136 32.0983 26.7952 28.7903 26.7952V27.7952C32.6505 27.7952 35.7799 24.6659 35.7799 20.8057L34.7799 20.8057ZM28.7903 14.8162C32.0983 14.8162 34.7799 17.4978 34.7799 20.8057L35.7799 20.8057C35.7799 16.9455 32.6505 13.8162 28.7903 13.8162L28.7903 14.8162ZM22.8008 20.8057C22.8008 17.4978 25.4824 14.8162 28.7903 14.8162L28.7903 13.8162C24.9301 13.8162 21.8008 16.9455 21.8008 20.8057L22.8008 20.8057ZM28.7903 26.7952C25.4824 26.7952 22.8008 24.1136 22.8008 20.8057L21.8008 20.8057C21.8008 24.6659 24.9301 27.7952 28.7903 27.7952V26.7952Z" fill="#1F2226" mask="url(#path-12-inside-6_8896_139383)"/>
</g>
<defs>
<clipPath id="clip0_8896_139383">
<rect width="56" height="56" fill="white" transform="matrix(-1 8.74228e-08 8.74228e-08 1 56 0)"/>
</clipPath>
</defs>
</svg>
