<svg width="56" height="56" viewBox="0 0 56 56" fill="none" xmlns="http://www.w3.org/2000/svg">
<g clip-path="url(#clip0_8896_139489)">
<path d="M11.3894 13.2863H7.62793V14.4078H11.3894V13.2863Z" fill="#1F2226"/>
<path d="M53.3503 11.2183C53.4759 11.3581 53.5465 11.5476 53.5465 11.7453V44.2547C53.5465 44.4524 53.4759 44.6419 53.3503 44.7817C53.2247 44.9215 53.0543 45 52.8767 45H3.09657C2.91892 45 2.74855 44.9215 2.62294 44.7817C2.49733 44.6419 2.42676 44.4524 2.42676 44.2547V14.3956C2.42676 14.1979 2.49733 14.0084 2.62294 13.8686C2.74855 13.7288 2.91892 13.6503 3.09657 13.6503H17.8344L20.445 11M53.3503 11.2183L53.1643 11.3854C53.2464 11.4768 53.2965 11.6058 53.2965 11.7453V44.2547C53.2965 44.3942 53.2464 44.5233 53.1643 44.6146C53.083 44.7051 52.9789 44.75 52.8767 44.75H3.09657C2.99437 44.75 2.89019 44.7051 2.80889 44.6146C2.72679 44.5233 2.67676 44.3942 2.67676 44.2547V14.3956C2.67676 14.2561 2.72679 14.127 2.80889 14.0357C2.89018 13.9452 2.99437 13.9003 3.09657 13.9003H17.8344H17.9391L18.0125 13.8257L20.5497 11.25M53.3503 11.2183L53.1643 11.3854C53.083 11.2949 52.9789 11.25 52.8767 11.25H20.5497M53.3503 11.2183C53.2247 11.0785 53.0543 11 52.8767 11H20.445M20.445 11V11.25H20.5497M20.445 11L20.6231 11.1754L20.5497 11.25" fill="#FF9499" stroke="#1F2226" stroke-width="0.5"/>
<path d="M52.7083 19.6976H3.26465V44.2093H52.7083V19.6976Z" fill="#F8BD2D"/>
<path d="M48.4555 12.8262H42.305C41.9375 12.8262 41.6396 13.1056 41.6396 13.4503V17.582C41.6396 17.9267 41.9375 18.2061 42.305 18.2061H48.4555C48.8229 18.2061 49.1208 17.9267 49.1208 17.582V13.4503C49.1208 13.1056 48.8229 12.8262 48.4555 12.8262Z" fill="#1F2226"/>
<path d="M48.3478 13.6389H43.9529C43.6898 13.6389 43.4766 13.839 43.4766 14.0857V17.0382C43.4766 17.285 43.6898 17.485 43.9529 17.485H48.3478C48.6109 17.485 48.8241 17.285 48.8241 17.0382V14.0857C48.8241 13.839 48.6109 13.6389 48.3478 13.6389Z" fill="#F7F7F7"/>
<path d="M14.5546 15.7606V15.1951C14.5513 15.1309 14.5257 15.0704 14.4829 15.0255C14.4401 14.9807 14.3831 14.9547 14.3233 14.9528H13.9605C13.9292 14.9528 13.8981 14.9594 13.8691 14.9723C13.8402 14.9852 13.8139 15.0041 13.7917 15.0279C13.7695 15.0517 13.7519 15.08 13.7399 15.1111C13.7279 15.1422 13.7218 15.1756 13.7218 15.2093V15.7606C13.3598 15.8227 13.0325 16.0278 12.8041 16.3356C12.5756 16.6435 12.4624 17.0319 12.4866 17.4248C12.514 17.8161 12.6743 18.183 12.9371 18.4556C13.1998 18.7282 13.5467 18.8875 13.9116 18.9032C13.9852 18.9047 14.0587 18.8999 14.1316 18.8891C14.1789 18.8968 14.2266 18.9015 14.2745 18.9032C14.6551 18.9286 15.03 18.794 15.32 18.528C15.61 18.2619 15.7925 17.8852 15.8288 17.4774C15.8652 17.0696 15.7526 16.6625 15.5148 16.3422C15.2771 16.0219 14.9328 15.8134 14.5546 15.7606Z" fill="#1F2226"/>
<path d="M11.2472 16.5338H5.7793V17.8466H11.2472V16.5338Z" fill="#1F2226"/>
<path d="M7.61621 11.6373H11.4524C11.8666 11.6373 12.2024 11.9731 12.2024 12.3873V12.5015C12.2024 12.9157 11.8666 13.2515 11.4524 13.2515H7.61621C7.202 13.2515 6.86621 12.9157 6.86621 12.5015V12.3873C6.86621 11.9731 7.202 11.6373 7.61621 11.6373Z" fill="#FF9499" stroke="#1F2226" stroke-width="0.5"/>
<path d="M29.2427 40.2561C22.7741 40.2561 17.5117 35.2897 17.5117 29.1851C17.5117 23.0805 22.7741 18.1166 29.2427 18.1166C35.7113 18.1166 40.9765 23.083 40.9765 29.1776C40.9765 35.2723 35.7141 40.2561 29.2427 40.2561Z" fill="#C57F0C"/>
<path d="M29.2438 38.6744C23.701 38.6744 19.1875 34.4173 19.1875 29.186C19.1875 23.9547 23.701 19.6976 29.2438 19.6976C34.7867 19.6976 39.3002 23.9547 39.3002 29.1784C39.3002 34.4022 34.7896 38.6744 29.2438 38.6744Z" fill="#1F2226"/>
<path d="M25.6309 29.8616V27.2292C25.6309 27.0814 25.6935 26.9396 25.8049 26.8351C25.9163 26.7306 26.0674 26.6719 26.225 26.6719H30.7476C30.7476 26.6719 29.5912 29.2858 25.6309 29.8616Z" fill="#F7F7F7"/>
</g>
<defs>
<clipPath id="clip0_8896_139489">
<rect width="51" height="34" fill="white" transform="translate(2.66602 11)"/>
</clipPath>
</defs>
</svg>
