<svg width="130" height="132" viewBox="0 0 130 132" fill="none" xmlns="http://www.w3.org/2000/svg">
<path d="M30.0923 91.3134C30.1986 91.3236 30.3055 91.3022 30.3997 91.2518C30.4938 91.2015 30.5709 91.1244 30.6214 91.0303C30.6719 90.9363 30.6935 90.8294 30.6834 90.7231C30.6733 90.6168 30.6321 90.5159 30.5648 90.433C26.3632 85.2491 25.2779 79.0748 25.2663 79.0128C25.2556 78.9417 25.2308 78.8734 25.1934 78.812C25.156 78.7506 25.1067 78.6973 25.0485 78.6551C24.9902 78.613 24.9242 78.5828 24.8542 78.5664C24.7842 78.55 24.7116 78.5478 24.6407 78.5597C24.5698 78.5717 24.502 78.5976 24.4412 78.636C24.3805 78.6745 24.328 78.7246 24.2868 78.7836C24.2456 78.8425 24.2165 78.909 24.2013 78.9793C24.1861 79.0496 24.1851 79.1222 24.1982 79.1929C24.243 79.4561 25.3448 85.7103 29.7214 91.1152C29.7669 91.1713 29.8232 91.2177 29.8869 91.2518C29.9506 91.2858 30.0204 91.3067 30.0923 91.3134Z" fill="#5BCB7D"/>
<path d="M34.3533 89.671L30.8285 89.3389C30.4179 89.3219 30.0147 89.4513 29.6907 89.704L28.994 90.3065C28.8635 90.4223 28.7818 90.5834 28.7654 90.7572C28.749 90.931 28.7992 91.1045 28.9058 91.2427L29.4774 91.9669C29.7494 92.2746 30.121 92.4768 30.527 92.538L34.0519 92.8701C34.2236 92.8863 34.3946 92.8337 34.5274 92.7237C34.6602 92.6138 34.7439 92.4556 34.7601 92.284L34.9395 90.3792C34.9557 90.2075 34.903 90.0365 34.7931 89.9037C34.6832 89.7709 34.525 89.6872 34.3533 89.671ZM30.1627 91.4155C30.0593 91.4062 29.961 91.3664 29.8803 91.3012C29.7995 91.236 29.74 91.1483 29.7091 91.0492C29.6782 90.9501 29.6775 90.844 29.7069 90.7445C29.7364 90.645 29.7947 90.5564 29.8746 90.49C29.9544 90.4237 30.0521 90.3825 30.1553 90.3718C30.2586 90.361 30.3627 90.3811 30.4545 90.4295C30.5463 90.478 30.6216 90.5526 30.671 90.6439C30.7204 90.7352 30.7415 90.8391 30.7318 90.9425C30.7256 91.011 30.706 91.0777 30.674 91.1387C30.6421 91.1997 30.5984 91.2538 30.5456 91.298C30.4927 91.3421 30.4317 91.3754 30.3659 91.3959C30.3002 91.4165 30.2311 91.4239 30.1625 91.4177L30.1627 91.4155Z" fill="#5BCB7D"/>
<path d="M89.5757 95.527L89.3963 97.4319C89.3801 97.6035 89.4328 97.7745 89.5427 97.9073C89.6526 98.0401 89.8108 98.1238 89.9824 98.14L93.5052 98.4719C93.9162 98.4876 94.3196 98.3585 94.6451 98.1071L95.3398 97.5022C95.4703 97.3863 95.5521 97.2253 95.5684 97.0515C95.5848 96.8777 95.5346 96.7042 95.428 96.566L94.8583 95.8442C94.5867 95.5349 94.2139 95.3323 93.8066 95.2728L90.2839 94.9409C90.1122 94.9247 89.9412 94.9774 89.8084 95.0873C89.6756 95.1972 89.5919 95.3554 89.5757 95.527ZM93.6062 96.8688C93.6159 96.7655 93.656 96.6675 93.7215 96.587C93.7869 96.5066 93.8748 96.4473 93.9739 96.4168C94.073 96.3863 94.1789 96.3858 94.2783 96.4155C94.3777 96.4452 94.466 96.5037 94.5321 96.5836C94.5983 96.6635 94.6392 96.7612 94.6498 96.8643C94.6604 96.9675 94.6402 97.0715 94.5917 97.1632C94.5432 97.2548 94.4686 97.3301 94.3773 97.3793C94.2861 97.4286 94.1823 97.4497 94.079 97.44C94.0105 97.4335 93.9438 97.4136 93.883 97.3814C93.8221 97.3492 93.7682 97.3053 93.7243 97.2523C93.6804 97.1993 93.6473 97.1381 93.6271 97.0723C93.6068 97.0065 93.5997 96.9373 93.6062 96.8688Z" fill="#5BCB7D"/>
<path d="M54.8656 86.591L45.0762 85.6686L44.8168 88.4212L54.6062 89.3436L54.8656 86.591Z" fill="#8990A6"/>
<path d="M42.9293 85.4665L37.2149 84.9281L36.9555 87.6807L42.67 88.2191L42.9293 85.4665Z" fill="#8990A6"/>
<path d="M29.1797 91.4219L26.9491 115.095C26.9251 115.38 27.0139 115.664 27.1966 115.885C27.3792 116.105 27.6412 116.246 27.9261 116.275L87.5297 121.891C87.815 121.915 88.0982 121.826 88.3188 121.643C88.5393 121.461 88.6797 121.199 88.7099 120.914L90.9405 97.2412L29.1797 91.4219Z" fill="#E4F8EA" stroke="#1F2226"/>
<path d="M31.5859 95.0469L29.4042 118.202C29.3788 118.484 29.4656 118.763 29.6457 118.981C29.8257 119.198 30.0845 119.336 30.3655 119.364L88.6575 124.856C88.9387 124.881 89.2186 124.795 89.4361 124.615C89.6537 124.435 89.7912 124.176 89.8188 123.895L92.0006 100.739L31.5859 95.0469Z" fill="url(#paint0_linear_114_4)"/>
<path d="M31.0996 92.9375L28.869 116.611C28.845 116.896 28.9338 117.18 29.1165 117.4C29.2992 117.621 29.5611 117.761 29.846 117.791L89.4496 123.407C89.7349 123.43 90.0181 123.341 90.2387 123.159C90.4592 122.976 90.5996 122.715 90.6298 122.43L92.8604 98.7568L31.0996 92.9375Z" fill="#E4F8EA" stroke="#1F2226"/>
<path d="M91.8 87.0138C91.8269 86.7278 91.7391 86.4427 91.5559 86.2214C91.3727 86 91.1091 85.8606 90.823 85.8336L54.3231 82.3945C53.6324 82.3671 52.9532 82.5765 52.3977 82.9878L50.3443 84.6856C49.7888 85.097 49.1096 85.3063 48.4189 85.279L30.8959 83.6279C30.6105 83.6038 30.327 83.6927 30.1063 83.8753C29.8856 84.058 29.7454 84.3199 29.7157 84.6049L29.1214 90.9125L31.6474 92.97L90.8843 96.732L91.8 87.0138Z" fill="#E4F8EA" stroke="#1F2226"/>
<path d="M93.7863 89.0392C93.8133 88.7532 93.7255 88.4681 93.5423 88.2468C93.359 88.0254 93.0954 87.8859 92.8093 87.859L56.3094 84.4198C55.6188 84.3925 54.9395 84.6018 54.384 85.0132L52.3306 86.711C51.7752 87.1224 51.0959 87.3317 50.4052 87.3044L32.8823 85.6533C32.5968 85.6292 32.3133 85.7181 32.0926 85.9007C31.8719 86.0834 31.7317 86.3453 31.702 86.6303L31.1077 92.9379L92.8706 98.7574L93.7863 89.0392Z" fill="#E4F8EA" stroke="#1F2226"/>
<path d="M67.7074 121.99C75.6272 120.189 80.5879 112.31 78.7875 104.39C76.9871 96.4703 69.1074 91.5096 61.1877 93.31C53.268 95.1103 48.3072 102.99 50.1076 110.91C51.908 118.829 59.7877 123.79 67.7074 121.99Z" fill="#1F2226"/>
<path d="M78.0838 108.828C77.8316 111.504 76.7916 114.045 75.0953 116.13C73.3989 118.215 71.1224 119.75 68.5537 120.541C65.9849 121.332 63.2392 121.344 60.6639 120.574C58.0885 119.805 55.7991 118.289 54.0852 116.219C52.3713 114.148 51.3098 111.616 51.035 108.942C50.7603 106.268 51.2845 103.573 52.5415 101.197C53.7985 98.8216 55.7318 96.8719 58.0969 95.5948C60.462 94.3178 63.1526 93.7707 65.8286 94.0229C69.417 94.361 72.7241 96.1107 75.0224 98.8872C77.3207 101.664 78.4219 105.239 78.0838 108.828Z" fill="#5BCB7D"/>
<path d="M54.9419 115.908C53.366 113.704 52.4608 111.092 52.3352 108.385C52.2095 105.679 52.8689 102.994 54.2338 100.653C55.5987 98.3129 57.611 96.4168 60.0284 95.1932C62.4458 93.9697 65.1653 93.4709 67.8595 93.7569C65.992 93.3326 64.0574 93.2945 62.1745 93.6448C60.2916 93.9952 58.5002 94.7267 56.9101 95.7944C55.3201 96.862 53.965 98.2434 52.9281 99.8536C51.8912 101.464 51.1944 103.269 50.8803 105.158C50.5662 107.048 50.6416 108.981 51.1018 110.84C51.562 112.699 52.3973 114.444 53.5564 115.969C54.7155 117.493 56.174 118.765 57.8423 119.705C59.5107 120.646 61.3536 121.235 63.258 121.437C59.9003 120.679 56.9397 118.711 54.9419 115.908Z" fill="#222733"/>
<path d="M68.184 108.008C68.1142 108.749 67.8262 109.453 67.3564 110.03C66.8866 110.608 66.2561 111.033 65.5447 111.252C64.8333 111.471 64.0729 111.474 63.3597 111.261C62.6464 111.048 62.0124 110.628 61.5378 110.055C61.0631 109.481 60.7691 108.78 60.693 108.04C60.6169 107.299 60.7621 106.553 61.1102 105.895C61.4584 105.237 61.9938 104.697 62.6488 104.343C63.3038 103.989 64.0489 103.838 64.79 103.908C65.7838 104.001 66.6997 104.486 67.3362 105.255C67.9727 106.024 68.2777 107.014 68.184 108.008Z" fill="#E4F8EA"/>
<path d="M43.7196 89.6156L37.7247 89.0508C37.5531 89.0346 37.401 89.1606 37.3848 89.3321L37.2996 90.236C37.2835 90.4076 37.4094 90.5597 37.581 90.5759L43.5759 91.1408C43.7474 91.1569 43.8996 91.0309 43.9158 90.8594L44.0009 89.9555C44.0171 89.784 43.8911 89.6318 43.7196 89.6156Z" fill="#5BCB7D"/>
<path d="M56.7718 89.2347C56.5457 89.2134 56.3309 89.1255 56.1548 88.9822C55.9786 88.8388 55.8489 88.6464 55.782 88.4294C55.7152 88.2123 55.7142 87.9803 55.7792 87.7627C55.8442 87.545 55.9723 87.3516 56.1473 87.2068C56.3222 87.0619 56.5362 86.9722 56.7621 86.949C56.9881 86.9258 57.2158 86.9701 57.4166 87.0763C57.6173 87.1825 57.7821 87.3459 57.89 87.5458C57.9979 87.7456 58.0442 87.973 58.0228 88.1991C57.9937 88.5021 57.8457 88.7812 57.6112 88.9753C57.3767 89.1694 57.0749 89.2627 56.7718 89.2347Z" fill="#5BCB7D"/>
<path d="M88.4739 89.5025L77.7968 88.4965C77.7106 88.4883 77.6351 88.5415 77.6281 88.6152L77.032 94.9419C77.0251 95.0156 77.0893 95.0819 77.1756 95.09L87.8526 96.0961C87.9388 96.1042 88.0144 96.051 88.0213 95.9773L88.6174 89.6506C88.6244 89.5769 88.5601 89.5106 88.4739 89.5025Z" fill="#5BCB7D"/>
<path d="M101.376 87.439C100.784 87.2505 100.57 86.758 100.375 86.2827L100.345 86.2102C100.145 85.7409 99.3855 83.6672 99.3083 83.4706L100.162 83.1397C100.179 83.1871 100.992 85.3962 101.186 85.852L101.218 85.9268C101.396 86.3484 101.478 86.5129 101.654 86.5686C101.829 86.6243 101.992 86.5373 102.38 86.2953L102.45 86.254C102.87 85.9933 107.149 83.1515 107.193 83.123L107.698 83.8866C107.522 84.0027 103.364 86.7623 102.929 87.0304L102.862 87.072C102.423 87.3462 101.97 87.6277 101.376 87.439Z" fill="#5BCB7D"/>
<path d="M99.0912 78.7656L100.141 9.46189L109.117 12.3165L108.07 81.618L99.0912 78.7656Z" fill="#E4F8EA" stroke="#009959" stroke-width="2"/>
<path d="M127.743 19.1159L127.611 19.5278" stroke="white" stroke-miterlimit="10" stroke-linecap="round"/>
<path d="M119.148 16.8391L119.28 16.4272" stroke="white" stroke-miterlimit="10" stroke-linecap="round"/>
<path d="M109.416 83.1627C109.413 83.2529 109.392 83.3417 109.355 83.424C109.318 83.5063 109.265 83.5804 109.199 83.6422C109.133 83.704 109.056 83.7522 108.972 83.7841C108.887 83.8159 108.797 83.8309 108.707 83.828L97.6979 83.4721C97.5162 83.4654 97.3445 83.3871 97.2203 83.2543C97.0961 83.1215 97.0294 82.945 97.0348 82.7632L97.2015 77.666C97.2077 77.4841 97.2858 77.3121 97.4187 77.1878C97.5516 77.0635 97.7285 76.997 97.9104 77.0029L108.917 77.3591C109.008 77.3617 109.096 77.382 109.178 77.419C109.261 77.4559 109.335 77.5087 109.397 77.5743C109.458 77.6399 109.507 77.7171 109.538 77.8014C109.57 77.8857 109.585 77.9754 109.582 78.0655L109.416 83.1627Z" fill="#009959"/>
<path d="M94.1611 97.3499C94.0548 97.3401 93.9537 97.2991 93.8706 97.232C93.7876 97.1649 93.7262 97.0748 93.6941 96.973C93.6621 96.8712 93.6609 96.7621 93.6906 96.6596C93.7204 96.5571 93.7798 96.4656 93.8613 96.3967C98.9573 92.0889 101.177 86.226 101.198 86.167C101.221 86.0992 101.259 86.0368 101.307 85.9834C101.355 85.9301 101.413 85.8869 101.478 85.8563C101.543 85.8258 101.614 85.8085 101.686 85.8055C101.758 85.8025 101.829 85.8138 101.897 85.8388C101.964 85.8638 102.026 85.9019 102.079 85.951C102.131 86.0001 102.173 86.0592 102.203 86.1248C102.232 86.1904 102.248 86.2612 102.25 86.3331C102.252 86.4049 102.239 86.4764 102.213 86.5434C102.12 86.7936 99.8716 92.7322 94.5624 97.2245C94.5073 97.2711 94.4434 97.3062 94.3744 97.3277C94.3055 97.3493 94.233 97.3568 94.1611 97.3499Z" fill="#5BCB7D"/>
<mask id="path-24-inside-1_114_4" fill="white">
<path d="M18.2746 73.7066C18.2982 73.8862 18.3918 74.0492 18.535 74.1601C18.6782 74.271 18.8595 74.3208 19.0393 74.2988L29.1037 73.0881C29.1933 73.0775 29.2799 73.0492 29.3586 73.0051C29.4373 72.9609 29.5066 72.9016 29.5624 72.8307C29.6182 72.7598 29.6595 72.6785 29.6838 72.5916C29.7082 72.5047 29.7152 72.4139 29.7045 72.3242L21.9243 7.64763C21.9139 7.55767 21.8858 7.47065 21.8416 7.39162C21.7974 7.31259 21.7379 7.24311 21.6667 7.18721C21.5954 7.13132 21.5138 7.0901 21.4265 7.06597C21.3393 7.04183 21.2481 7.03525 21.1582 7.0466L11.0915 8.2592C10.9115 8.28186 10.7478 8.37457 10.6357 8.51721C10.5237 8.65985 10.4724 8.84091 10.493 9.02112L18.2746 73.7066Z"/>
</mask>
<path d="M18.2746 73.7066C18.2982 73.8862 18.3918 74.0492 18.535 74.1601C18.6782 74.271 18.8595 74.3208 19.0393 74.2988L29.1037 73.0881C29.1933 73.0775 29.2799 73.0492 29.3586 73.0051C29.4373 72.9609 29.5066 72.9016 29.5624 72.8307C29.6182 72.7598 29.6595 72.6785 29.6838 72.5916C29.7082 72.5047 29.7152 72.4139 29.7045 72.3242L21.9243 7.64763C21.9139 7.55767 21.8858 7.47065 21.8416 7.39162C21.7974 7.31259 21.7379 7.24311 21.6667 7.18721C21.5954 7.13132 21.5138 7.0901 21.4265 7.06597C21.3393 7.04183 21.2481 7.03525 21.1582 7.0466L11.0915 8.2592C10.9115 8.28186 10.7478 8.37457 10.6357 8.51721C10.5237 8.65985 10.4724 8.84091 10.493 9.02112L18.2746 73.7066Z" fill="#E4F8EA"/>
<path d="M18.2746 73.7066L16.2889 73.9454L16.2902 73.9564L16.2917 73.9673L18.2746 73.7066ZM19.0393 74.2988L18.8004 72.3131L18.7956 72.3137L19.0393 74.2988ZM29.1037 73.0881L28.8674 71.1021L28.8648 71.1024L29.1037 73.0881ZM29.7045 72.3242L31.6902 72.086L31.6902 72.0854L29.7045 72.3242ZM21.9243 7.64763L19.9373 7.87624L19.9386 7.8865L21.9243 7.64763ZM21.1582 7.0466L21.3974 9.03228L21.4089 9.03082L21.1582 7.0466ZM11.0915 8.2592L10.8523 6.27352L10.8416 6.27487L11.0915 8.2592ZM10.493 9.02112L8.50593 9.24837L8.50733 9.25999L10.493 9.02112ZM16.2917 73.9673C16.384 74.6698 16.7502 75.3075 17.3104 75.7413L19.7596 72.5788C20.0334 72.7909 20.2124 73.1025 20.2575 73.4458L16.2917 73.9673ZM17.3104 75.7413C17.8707 76.1752 18.5796 76.3702 19.283 76.2839L18.7956 72.3137C19.1393 72.2715 19.4858 72.3668 19.7596 72.5788L17.3104 75.7413ZM19.2781 76.2845L29.3425 75.0738L28.8648 71.1024L18.8004 72.3131L19.2781 76.2845ZM29.3399 75.0741C29.6905 75.0324 30.0294 74.922 30.3374 74.7492L28.3799 71.2609C28.5304 71.1765 28.6961 71.1225 28.8674 71.1021L29.3399 75.0741ZM30.3374 74.7492C30.6453 74.5764 30.9161 74.3447 31.1344 74.0672L27.9904 71.5942C28.0971 71.4586 28.2294 71.3454 28.3799 71.2609L30.3374 74.7492ZM31.1344 74.0672C31.3527 73.7896 31.5141 73.4718 31.6095 73.1319L27.7582 72.0513C27.8048 71.8852 27.8837 71.7299 27.9904 71.5942L31.1344 74.0672ZM31.6095 73.1319C31.7049 72.792 31.7323 72.4366 31.6902 72.086L27.7187 72.5625C27.6982 72.3912 27.7116 72.2175 27.7582 72.0513L31.6095 73.1319ZM31.6902 72.0854L23.9099 7.40876L19.9386 7.8865L27.7188 72.5631L31.6902 72.0854ZM23.9111 7.41902C23.8706 7.06628 23.7604 6.72509 23.5871 6.41521L20.0961 8.36803C20.0112 8.21622 19.9572 8.04906 19.9374 7.87624L23.9111 7.41902ZM23.5871 6.41521C23.4137 6.10533 23.1806 5.83291 22.9013 5.61373L20.4321 8.7607C20.2953 8.65331 20.1811 8.51985 20.0961 8.36803L23.5871 6.41521ZM22.9013 5.61373C22.6219 5.39455 22.3019 5.23296 21.9596 5.13832L20.8935 8.99361C20.7258 8.94725 20.569 8.86808 20.4321 8.7607L22.9013 5.61373ZM21.9596 5.13832C21.6174 5.04368 21.2598 5.01786 20.9075 5.06237L21.4089 9.03082C21.2363 9.05263 21.0611 9.03998 20.8935 8.99361L21.9596 5.13832ZM20.919 5.06095L10.8523 6.27355L11.3307 10.2448L21.3974 9.03224L20.919 5.06095ZM10.8416 6.27487C10.1393 6.36333 9.50015 6.72513 9.0629 7.2818L12.2085 9.75262C11.9954 10.024 11.6838 10.2004 11.3414 10.2435L10.8416 6.27487ZM9.0629 7.2818C8.62565 7.83847 8.42554 8.54509 8.50597 9.24837L12.4801 8.79387C12.5193 9.13673 12.4217 9.48123 12.2085 9.75262L9.0629 7.2818ZM8.50733 9.25999L16.2889 73.9454L20.2603 73.4677L12.4787 8.78224L8.50733 9.25999Z" fill="#009959" mask="url(#path-24-inside-1_114_4)"/>
<path d="M11.7168 8.18311L11.7699 8.6125" stroke="white" stroke-miterlimit="10" stroke-linecap="round"/>
<path d="M20.5844 7.55244L20.5312 7.12305" stroke="white" stroke-miterlimit="10" stroke-linecap="round"/>
<path d="M18.0373 75.4057C18.0467 75.496 18.0739 75.5835 18.1173 75.6632C18.1607 75.7429 18.2194 75.8132 18.2902 75.87C18.3609 75.9269 18.4422 75.9692 18.5294 75.9944C18.6165 76.0197 18.7078 76.0274 18.798 76.0171L29.7341 74.7015C29.8237 74.6908 29.9104 74.6626 29.9891 74.6184C30.0678 74.5742 30.137 74.515 30.1928 74.4441C30.2486 74.3731 30.2899 74.2919 30.3143 74.205C30.3387 74.1181 30.3457 74.0272 30.3349 73.9376L29.7238 68.8744C29.7018 68.6937 29.6089 68.5292 29.4657 68.417C29.3224 68.3047 29.1404 68.2539 28.9598 68.2757L18.0253 69.5741C17.8451 69.5963 17.681 69.6888 17.5688 69.8316C17.4567 69.9744 17.4056 70.1557 17.4268 70.3361L18.0373 75.4057Z" fill="#009959"/>
<path d="M24.8586 80.2294C25.475 80.1547 25.7779 79.711 26.0579 79.2803L26.1011 79.2148C26.3848 78.791 29.0256 74.5543 29.1382 74.3756L28.3612 73.8911C28.3354 73.9343 25.6155 78.2941 25.3416 78.7058L25.2961 78.7733C25.0426 79.1542 24.9287 79.3002 24.7482 79.3223C24.5676 79.3445 24.4218 79.2285 24.0854 78.9182L24.0252 78.8646C23.6606 78.53 19.988 74.939 19.95 74.9027L19.3115 75.5586C19.463 75.7056 23.0323 79.1933 23.409 79.5378L23.4671 79.5912C23.8475 79.9426 24.24 80.3039 24.8586 80.2294Z" fill="#5BCB7D"/>
<defs>
<linearGradient id="paint0_linear_114_4" x1="61.5331" y1="100.654" x2="59.7044" y2="120.063" gradientUnits="userSpaceOnUse">
<stop stop-color="#EBF0FF"/>
<stop offset="1" stop-color="#D8DEF2"/>
</linearGradient>
</defs>
</svg>
