<svg width="107" height="63" viewBox="0 0 107 63" fill="none" xmlns="http://www.w3.org/2000/svg">
<path d="M74.868 32.7196L74.8681 32.7197L74.8605 32.729C74.5856 33.0656 74.328 33.416 74.0888 33.7789L74.0888 33.7789L74.0865 33.7823C73.9709 33.9547 73.8629 34.1233 73.7598 34.2951C73.3337 35.0156 72.9793 35.7761 72.7017 36.5657L72.7019 36.5658L72.6969 36.5787C72.6207 36.7778 72.5538 36.9799 72.5061 37.1785L72.5029 37.1919L72.4989 37.2052C72.3487 37.7074 72.2296 38.2184 72.1425 38.7353L72.1426 38.7353L72.1406 38.7459C72.0954 38.9826 72.0623 39.2214 72.0414 39.4615L72.0405 39.4716L72.0392 39.4816C71.9658 40.054 71.9376 40.6312 71.9549 41.208L71.955 41.208L71.9551 41.2159C71.9594 41.5177 71.9767 41.8123 72.0029 42.1046L72.0031 42.1068C72.0622 42.8017 72.1799 43.4903 72.3548 44.1654L72.3549 44.1654L72.3565 44.172C72.4568 44.5815 72.5802 44.985 72.7262 45.3805L72.7262 45.3805L72.7277 45.3846C73.3712 47.1759 74.4035 48.8024 75.7505 50.1472L75.7508 50.1475L77.5637 51.9604L95.9616 33.5625L94.1487 31.7496L94.1481 31.7491C92.6932 30.2899 90.9093 29.2011 88.9464 28.5741L88.9464 28.5742L88.9382 28.5714C88.5629 28.4443 88.1804 28.3394 87.7928 28.2571L87.7928 28.2571L87.7863 28.2557C87.0933 28.0988 86.388 28.0022 85.6783 27.9669L85.6783 27.967L85.6689 27.9664C85.3906 27.9472 85.1058 27.943 84.8324 27.9536L84.8251 27.9539L84.8178 27.954C83.8585 27.963 82.9032 28.0782 81.9692 28.2974C81.7425 28.3518 81.5245 28.4049 81.3136 28.4696L81.3136 28.4697L81.3072 28.4716C80.4587 28.7196 79.6379 29.0538 78.8575 29.4691C78.6697 29.5709 78.4909 29.6679 78.3133 29.7727C77.7478 30.1091 77.21 30.4901 76.7051 30.9122L76.6984 30.9179L76.6914 30.9233C76.541 31.0403 76.3952 31.1648 76.2472 31.2999C76.1647 31.3753 76.0924 31.4372 76.0247 31.4952C75.9285 31.5775 75.8418 31.6518 75.7485 31.7451C75.5655 31.9282 75.4031 32.0909 75.255 32.2636C75.1988 32.3292 75.151 32.3841 75.1081 32.4332C75.0165 32.5382 74.9476 32.6172 74.868 32.7196Z" fill="#E4F8EA" stroke="#1F2226"/>
<path d="M77.9182 33.9091L77.9181 33.9092C76.0989 35.7276 74.8598 38.0446 74.3574 40.5672C73.8551 43.0899 74.1121 45.7048 75.0961 48.0814C76.08 50.4579 77.7465 52.4893 79.885 53.9187C82.0235 55.348 84.5378 56.1111 87.11 56.1114C89.6821 56.1117 92.1966 55.3492 94.3354 53.9204C96.4742 52.4916 98.1413 50.4606 99.1258 48.0842C100.11 45.7079 100.368 43.093 99.8661 40.5703C99.3644 38.0475 98.1258 35.7302 96.307 33.9114L96.3069 33.9113C95.0998 32.7036 93.6665 31.7454 92.089 31.0917C90.5115 30.4379 88.8206 30.1013 87.113 30.1011C85.4054 30.1009 83.7145 30.4371 82.1368 31.0905C80.5592 31.7439 79.1257 32.7017 77.9182 33.9091Z" fill="#E4F8EA" stroke="#1F2226"/>
<path d="M79.5385 35.5328C78.039 37.0297 77.0172 38.9377 76.6023 41.0154C76.1874 43.0931 76.398 45.2472 77.2076 47.2052C78.0171 49.1632 79.3892 50.8371 81.1503 52.0151C82.9113 53.1932 84.9822 53.8225 87.1009 53.8234C89.2197 53.8243 91.2911 53.1968 93.0531 52.0202C94.8152 50.8437 96.1887 49.171 96.9999 47.2137C97.8112 45.2564 98.0237 43.1025 97.6105 41.0244C97.1974 38.9463 96.1772 37.0374 94.679 35.5393C92.6715 33.5318 89.9491 32.4034 87.1101 32.4022C84.2711 32.401 81.5477 33.527 79.5385 35.5328Z" fill="#5BCB7D" stroke="#1F2226"/>
<path d="M90.9548 45.7488L90.6064 44.4487L88.2774 45.0728L88.587 46.2284L87.11 46.6242L86.8004 45.4686L85.2666 45.8795C84.3198 46.1332 83.5039 46.0422 82.8189 45.6065C82.1313 45.1611 81.643 44.3991 81.354 43.3206C81.0702 42.2613 81.1116 41.3935 81.4784 40.7172C81.8331 40.0338 82.4314 39.5587 83.2731 39.2919L83.8537 41.4586C83.5421 41.5834 83.3256 41.7601 83.2043 41.9888C83.0734 42.2199 83.0531 42.504 83.1434 42.8411C83.257 43.2648 83.4437 43.5451 83.7036 43.6819C83.9609 43.809 84.2884 43.8193 84.686 43.7128L86.2198 43.3018L85.5812 40.9184L87.0581 40.5226L87.6968 42.9061L90.0258 42.282L88.826 37.804L90.587 37.3321L92.7158 45.2769L90.9548 45.7488Z" fill="#E4F8EA"/>
<path d="M79.4184 49.0638C80.9001 50.5459 82.7786 51.5681 84.8278 52.0075C86.877 52.4468 89.0095 52.2844 90.9687 51.5399C92.9278 50.7954 94.6301 49.5005 95.8705 47.8111C97.1109 46.1217 97.8366 44.1098 97.9602 42.0176C98.047 43.4966 97.8306 44.9776 97.3244 46.3699C96.8181 47.7623 96.0326 49.0364 95.0161 50.1142C93.9996 51.192 92.7736 52.0508 91.4133 52.6376C90.053 53.2245 88.5871 53.5272 87.1056 53.5271C85.6242 53.527 84.1584 53.2242 82.7982 52.6371C81.4381 52.0501 80.2123 51.1912 79.1961 50.1133C78.18 49.0353 77.3948 47.761 76.8889 46.3687C76.383 44.9763 76.1671 43.4952 76.2543 42.0163C76.4066 44.6746 77.533 47.1836 79.4184 49.0638Z" fill="#222733"/>
<path d="M21.2923 34.1169L21.2923 34.1169L21.2881 34.1111C21.1168 33.8732 20.9334 33.6441 20.7387 33.4249L20.7371 33.4231C20.645 33.3177 20.5539 33.2178 20.4599 33.1205C20.0648 32.7171 19.6311 32.3534 19.165 32.0346L19.1649 32.0347L19.1582 32.0298C19.0415 31.9452 18.9206 31.8657 18.7983 31.7992L18.791 31.7953L18.7839 31.7909C18.4829 31.6053 18.1707 31.4385 17.8491 31.2915L17.8491 31.2916L17.8433 31.2888C17.6965 31.2178 17.5461 31.1543 17.3929 31.0986L17.3928 31.0988L17.3815 31.0942C17.0212 30.9463 16.6497 30.8271 16.2706 30.7376L16.2706 30.7377L16.266 30.7365C16.0685 30.6866 15.8734 30.6464 15.6784 30.6124L15.6771 30.6122C15.214 30.5294 14.7447 30.4858 14.2742 30.482L14.2742 30.482L14.2701 30.4819C13.9856 30.4757 13.701 30.4857 13.4176 30.5118L13.415 30.512C12.1355 30.6186 10.8955 31.0073 9.78418 31.6501L9.78397 31.6502L8.26138 32.5293L17.0363 47.7279L18.5589 46.8488L18.5593 46.8486C19.764 46.1554 20.7849 45.1832 21.5361 44.0137L21.536 44.0136L21.5389 44.0093C21.6874 43.7867 21.8227 43.5556 21.9441 43.3172L21.9441 43.3172L21.946 43.3136C22.1692 42.8894 22.3553 42.4466 22.5022 41.9903L22.5022 41.9903L22.504 41.9849C22.5652 41.8065 22.6178 41.6212 22.6588 41.4407L22.6587 41.4406L22.6608 41.4321C22.8224 40.8056 22.9141 40.163 22.9344 39.5163C22.9385 39.3597 22.942 39.2079 22.9366 39.0585L22.9366 39.0585L22.9365 39.0545C22.923 38.4583 22.8485 37.8651 22.7142 37.2842C22.6808 37.1446 22.6488 37.0111 22.6114 36.8768C22.4909 36.4495 22.3365 36.0325 22.1496 35.6297L22.1495 35.6298L22.1454 35.6201C22.0952 35.5011 22.0393 35.384 21.977 35.2638C21.9436 35.1993 21.9162 35.1422 21.8903 35.0882C21.853 35.0102 21.8188 34.9388 21.774 34.8614C21.6872 34.711 21.6092 34.5761 21.5219 34.4487C21.4896 34.4015 21.4626 34.3612 21.4382 34.325C21.3856 34.2468 21.3455 34.1872 21.2923 34.1169Z" fill="#E4F8EA" stroke="#1F2226" stroke-width="0.6"/>
<path d="M19.991 35.8923L19.991 35.8923C19.1239 34.3895 17.8306 33.1777 16.2747 32.41C14.7188 31.6423 12.9702 31.3533 11.25 31.5795C9.52989 31.8056 7.91543 32.5368 6.61084 33.6805C5.30626 34.8243 4.37015 36.3292 3.92091 38.005C3.47167 39.6808 3.52947 41.4522 4.08701 43.0951C4.64456 44.7381 5.67679 46.1788 7.05316 47.235C8.42954 48.2913 10.0882 48.9157 11.8195 49.0292C13.5507 49.1427 15.2768 48.7403 16.7793 47.8728L16.7793 47.8728C17.777 47.2971 18.6514 46.5305 19.3528 45.6169C20.0541 44.7032 20.5686 43.6603 20.8668 42.5478C21.1651 41.4353 21.2412 40.2749 21.091 39.1329C20.9407 37.991 20.5669 36.8898 19.991 35.8923Z" fill="#E4F8EA" stroke="#1F2226" stroke-width="0.6"/>
<path d="M18.657 36.6613C17.9429 35.422 16.8772 34.4223 15.5949 33.7887C14.3125 33.1551 12.871 32.9161 11.4527 33.1019C10.0345 33.2877 8.70317 33.8899 7.62725 34.8324C6.55134 35.775 5.77914 37.0155 5.40834 38.3969C5.03754 39.7784 5.0848 41.2388 5.54415 42.5934C6.00349 43.948 6.85428 45.136 7.98888 46.007C9.12349 46.878 10.4909 47.3929 11.9182 47.4866C13.3455 47.5803 14.7686 47.2486 16.0073 46.5334C17.6672 45.5751 18.8786 43.9969 19.3755 42.1458C19.8724 40.2947 19.6139 38.322 18.657 36.6613Z" fill="#5BCB7D" stroke="#1F2226" stroke-width="0.6"/>
<path d="M10.0117 42.3111L10.9159 42.3111L10.9159 40.6913L10.1122 40.6913L10.1122 39.6642L10.9159 39.6642L10.9159 38.5975C10.9159 37.9391 11.1168 37.4255 11.5186 37.0568C11.9272 36.688 12.5065 36.5037 13.2566 36.5037C13.9933 36.5037 14.5491 36.6815 14.9242 37.037C15.3059 37.386 15.5102 37.8568 15.537 38.4494L14.0301 38.4494C14.0033 38.2255 13.9263 38.0543 13.799 37.9358C13.6718 37.8107 13.491 37.7481 13.2566 37.7481C12.9619 37.7481 12.7476 37.8206 12.6136 37.9654C12.4864 38.1103 12.4228 38.321 12.4228 38.5975L12.4228 39.6642L14.0803 39.6642L14.0803 40.6913L12.4228 40.6913L12.4228 42.3111L15.537 42.3111L15.537 43.5358L10.0117 43.5358L10.0117 42.3111Z" fill="#E4F8EA"/>
<path d="M9.8665 34.2495C8.64719 34.9532 7.65729 35.9943 7.01596 37.2476C6.37463 38.5009 6.10922 39.9129 6.25167 41.3135C6.39413 42.7142 6.93839 44.0439 7.81892 45.1425C8.69944 46.241 9.87871 47.0617 11.2147 47.5057C10.24 47.3049 9.31665 46.907 8.50125 46.3364C7.68585 45.7658 6.99565 45.0346 6.47302 44.1876C5.9504 43.3407 5.60637 42.3959 5.46207 41.4112C5.31776 40.4265 5.37622 39.4227 5.63385 38.4614C5.89148 37.5002 6.34285 36.6017 6.96025 35.8213C7.57765 35.0408 8.34806 34.3947 9.22417 33.9228C10.1003 33.4508 11.0636 33.1629 12.055 33.0768C13.0465 32.9906 14.045 33.1079 14.9895 33.4217C13.2381 33.0583 11.4143 33.353 9.8665 34.2495Z" fill="#222733"/>
<path d="M61.3874 25.2494L61.3864 25.2576L61.3855 25.266C61.3108 26.0074 61.1982 26.7444 61.0482 27.4743L61.0482 27.4743L61.0471 27.48C60.9784 27.8288 60.9049 28.1644 60.8215 28.4983C60.4645 29.8884 59.9721 31.2402 59.3513 32.5342L59.3471 32.5429L59.3432 32.5517C59.1936 32.8871 59.0278 33.2172 58.8417 33.5209L58.8316 33.5374L58.8224 33.5544C58.3958 34.3454 57.9206 35.1093 57.3995 35.8415L57.3952 35.8477L57.3909 35.8539C57.1575 36.1975 56.9067 36.5289 56.6397 36.8471L56.6305 36.8579L56.6218 36.8692C56.0163 37.6529 55.35 38.3876 54.629 39.0666L54.6289 39.0665L54.621 39.0742C54.2494 39.4354 53.8711 39.7718 53.4851 40.0943L53.4828 40.0963C52.5685 40.8671 51.5909 41.5593 50.5602 42.1657L50.5602 42.1657L50.5521 42.1706C49.9335 42.5459 49.294 42.8857 48.6369 43.1885L48.6369 43.1885L48.6313 43.1911C45.6799 44.5824 42.457 45.3026 39.1941 45.3H39.1935H34.6773V0.700024L39.1935 0.700025L39.1945 0.700023C42.7271 0.694895 46.2092 1.53742 49.3487 3.15684L49.3486 3.15693L49.3595 3.1623C49.9696 3.46375 50.5615 3.80072 51.1321 4.17149L51.1321 4.17155L51.14 4.17657C52.1706 4.82663 53.1429 5.56469 54.0462 6.38248L54.0461 6.38258L54.0561 6.39131C54.4181 6.70679 54.77 7.04833 55.0901 7.39422L55.097 7.40174L55.1042 7.40906C56.2561 8.58294 57.2746 9.88069 58.141 11.2786C58.3483 11.6168 58.5491 11.9469 58.7276 12.2835L58.7276 12.2835L58.7321 12.2918C59.46 13.621 60.0499 15.0212 60.4924 16.4706C60.596 16.8193 60.6953 17.1542 60.7838 17.4976C61.0617 18.5913 61.2517 19.7055 61.3521 20.8295L61.3532 20.8418L61.3548 20.854C61.3956 21.1806 61.4215 21.51 61.4371 21.8542C61.4453 22.0339 61.4575 22.1929 61.4691 22.3441C61.486 22.5649 61.5017 22.7692 61.5017 22.9973C61.5017 23.437 61.5013 23.8343 61.4711 24.2273C61.4601 24.3703 61.4518 24.4924 61.4442 24.6026C61.4279 24.842 61.4153 25.0259 61.3874 25.2494Z" fill="#E4F8EA" stroke="#1F2226" stroke-width="1.4"/>
<path d="M56.2844 22.992V22.9921C56.2854 27.4013 54.9789 31.7117 52.5301 35.3782C50.0813 39.0448 46.6001 41.9028 42.5269 43.5909C38.4537 45.2789 33.9714 45.7211 29.6469 44.8615C25.3223 44.002 21.3498 41.8793 18.2317 38.762C15.1136 35.6446 12.99 31.6726 12.1294 27.3483C11.2689 23.0239 11.71 18.5415 13.3971 14.4679C15.0841 10.3943 17.9413 6.91249 21.6073 4.4628C25.2733 2.01311 29.5834 0.705585 33.9925 0.705585L33.9927 0.705585C36.9198 0.704893 39.8184 1.28083 42.5229 2.40052C45.2275 3.5202 47.6849 5.1617 49.755 7.23125C51.825 9.3008 53.4671 11.7579 54.5874 14.4621C55.7077 17.1664 56.2844 20.0648 56.2844 22.992Z" fill="#E4F8EA" stroke="#1F2226" stroke-width="1.4"/>
<path d="M52.3798 22.9955C52.3829 26.6327 51.3072 30.189 49.2888 33.2147C47.2703 36.2404 44.3999 38.5995 41.0405 39.9935C37.681 41.3876 33.9837 41.7539 30.416 41.0463C26.8484 40.3386 23.5707 38.5887 20.9978 36.0179C18.4248 33.4472 16.6721 30.1711 15.9614 26.604C15.2507 23.037 15.6139 19.3393 17.005 15.9787C18.3962 12.6181 20.7528 9.74559 23.7768 7.72457C26.8008 5.70355 30.3562 4.62481 33.9934 4.6248C38.867 4.6248 43.5413 6.55978 46.989 10.0045C50.4366 13.4492 52.3756 18.1218 52.3798 22.9955Z" fill="#5BCB7D" stroke="#1F2226" stroke-width="1.4"/>
<path d="M29.3732 31.6434L31.6141 30.3497L29.2963 26.3352L27.3045 27.4852L25.8347 24.9394L27.8265 23.7894L26.3002 21.1457C25.358 19.5138 25.1211 17.9534 25.5894 16.4646C26.0743 14.9661 27.2463 13.6802 29.1053 12.6069C30.9312 11.5527 32.5633 11.1979 34.0016 11.5425C35.4471 11.8611 36.627 12.7357 37.5414 14.166L33.8066 16.3223C33.4199 15.8058 32.9841 15.4917 32.4991 15.38C32.0047 15.252 31.467 15.3558 30.8861 15.6912C30.1557 16.1128 29.7282 16.599 29.6035 17.1497C29.4954 17.6908 29.6392 18.3041 30.0349 18.9895L31.5612 21.6332L35.6695 19.2613L37.1393 21.807L33.0311 24.1789L35.3488 28.1934L43.0673 23.7372L44.8197 26.7725L31.1257 34.6788L29.3732 31.6434Z" fill="#E4F8EA"/>
<path d="M35.0119 40.4995C31.4439 40.5001 27.9517 39.4693 24.9559 37.5311C21.96 35.593 19.5882 32.8302 18.1259 29.5754C16.6636 26.3205 16.1732 22.7123 16.7137 19.1852C17.2542 15.658 18.8026 12.3623 21.1725 9.69482C19.2876 11.3708 17.7651 13.4143 16.6984 15.7C15.6317 17.9856 15.0434 20.4652 14.9696 22.9865C14.8957 25.5077 15.3379 28.0175 16.269 30.3617C17.2001 32.7058 18.6005 34.835 20.3841 36.6184C22.1677 38.4018 24.2969 39.8018 26.6411 40.7325C28.9853 41.6631 31.4949 42.1049 34.016 42.0305C36.5371 41.9562 39.0163 41.3673 41.3016 40.3001C43.5869 39.2329 45.63 37.7099 47.3054 35.8245C43.9217 38.8414 39.5451 40.5058 35.0119 40.4995Z" fill="#222733"/>
</svg>
