<svg width="99" height="66" viewBox="0 0 99 66" fill="none" xmlns="http://www.w3.org/2000/svg">
<mask id="path-1-inside-1_114_38" fill="white">
<path fill-rule="evenodd" clip-rule="evenodd" d="M88.38 15.0009C90.1225 15.0009 98.6607 16.3078 98.6607 27.0241C98.6607 35.5971 91.8069 46.9755 88.38 51.5931L86.4804 51.5931C86.4804 51.5931 77.838 34.4226 77.838 27.0241C77.838 19.4216 86.3884 15.0009 86.3884 15.0009L88.38 15.0009ZM87.8361 30.1617C90.5307 30.1617 92.7151 27.9773 92.7151 25.2827C92.7151 22.5882 90.5307 20.4038 87.8361 20.4038C85.1415 20.4038 82.9572 22.5882 82.9572 25.2827C82.9572 27.9773 85.1415 30.1617 87.8361 30.1617Z"/>
</mask>
<path d="M88.38 51.5931L88.38 52.5931L88.8832 52.5931L89.1831 52.189L88.38 51.5931ZM86.4804 51.5931L85.5871 52.0427L85.8642 52.5931L86.4804 52.5931L86.4804 51.5931ZM86.3884 15.0009L86.3884 14.0009L86.1452 14.0009L85.9292 14.1126L86.3884 15.0009ZM99.6607 27.0241C99.6607 21.3526 97.3777 18.0379 94.7518 16.1779C92.1901 14.3633 89.4026 14.0009 88.38 14.0009L88.38 16.0009C89.0999 16.0009 91.4528 16.292 93.5958 17.8099C95.6746 19.2824 97.6607 21.9793 97.6607 27.0241L99.6607 27.0241ZM89.1831 52.189C90.9313 49.8333 93.536 45.7792 95.7081 41.2221C97.8694 36.6879 99.6607 31.5367 99.6607 27.0241L97.6607 27.0241C97.6607 31.0845 96.0251 35.9089 93.9027 40.3616C91.7913 44.7914 89.2556 48.7353 87.577 50.9971L89.1831 52.189ZM86.4804 52.5931L88.38 52.5931L88.38 50.5931L86.4804 50.5931L86.4804 52.5931ZM76.838 27.0241C76.838 29.0286 77.4157 31.6064 78.2321 34.2766C79.0552 36.9688 80.1484 39.841 81.2353 42.4656C82.3231 45.0926 83.4102 47.4848 84.2248 49.2197C84.6324 50.0875 84.9722 50.7917 85.2104 51.2796C85.3296 51.5236 85.4233 51.7136 85.4875 51.8429C85.5196 51.9076 85.5443 51.9571 85.5611 51.9907C85.5695 52.0075 85.5759 52.0203 85.5803 52.029C85.5824 52.0333 85.5841 52.0366 85.5853 52.0389C85.5858 52.0401 85.5863 52.041 85.5866 52.0416C85.5868 52.0419 85.5869 52.0422 85.587 52.0423C85.5871 52.0425 85.5871 52.0427 86.4804 51.5931C87.3736 51.1435 87.3736 51.1435 87.3736 51.1434C87.3735 51.1433 87.3735 51.1432 87.3734 51.143C87.3732 51.1426 87.3728 51.1419 87.3723 51.141C87.3714 51.1391 87.3699 51.1362 87.368 51.1322C87.364 51.1244 87.358 51.1124 87.3501 51.0965C87.3341 51.0646 87.3103 51.0168 87.2791 50.954C87.2167 50.8282 87.1248 50.642 87.0076 50.4021C86.7732 49.9221 86.4379 49.2271 86.0352 48.3695C85.2294 46.6537 84.1558 44.2909 83.0831 41.7004C82.0094 39.1076 80.9421 36.3 80.1447 33.6919C79.3406 31.0618 78.838 28.7188 78.838 27.0241L76.838 27.0241ZM86.3884 15.0009C85.9292 14.1126 85.9288 14.1128 85.9285 14.113C85.9283 14.1131 85.9279 14.1133 85.9276 14.1135C85.9269 14.1138 85.9261 14.1142 85.9252 14.1147C85.9233 14.1157 85.9209 14.1169 85.9181 14.1184C85.9123 14.1215 85.9045 14.1256 85.8947 14.1308C85.8751 14.1412 85.8476 14.1559 85.8128 14.175C85.743 14.2131 85.6437 14.2685 85.519 14.3409C85.2697 14.4856 84.9182 14.6987 84.4986 14.9778C83.6611 15.5349 82.5424 16.3616 81.4201 17.4407C79.1939 19.5814 76.838 22.8311 76.838 27.0241L78.838 27.0241C78.838 23.6146 80.7573 20.8527 82.8063 18.8824C83.8216 17.9061 84.8405 17.1525 85.6063 16.6431C85.9882 16.389 86.3048 16.1973 86.5231 16.0706C86.6322 16.0073 86.7165 15.9603 86.7721 15.9299C86.7998 15.9147 86.8203 15.9037 86.8331 15.8969C86.8395 15.8935 86.844 15.8912 86.8464 15.8899C86.8476 15.8893 86.8484 15.8889 86.8486 15.8888C86.8487 15.8887 86.8487 15.8887 86.8485 15.8888C86.8484 15.8889 86.8482 15.889 86.8482 15.889C86.848 15.8891 86.8477 15.8892 86.3884 15.0009ZM88.38 14.0009L86.3884 14.0009L86.3884 16.0009L88.38 16.0009L88.38 14.0009ZM91.7151 25.2827C91.7151 27.425 89.9784 29.1617 87.8361 29.1617L87.8361 31.1617C91.083 31.1617 93.7151 28.5296 93.7151 25.2827L91.7151 25.2827ZM87.8361 21.4038C89.9784 21.4038 91.7151 23.1404 91.7151 25.2827L93.7151 25.2827C93.7151 22.0359 91.083 19.4038 87.8361 19.4038L87.8361 21.4038ZM83.9572 25.2827C83.9572 23.1404 85.6938 21.4038 87.8361 21.4038L87.8361 19.4038C84.5893 19.4038 81.9572 22.0359 81.9572 25.2827L83.9572 25.2827ZM87.8361 29.1617C85.6938 29.1617 83.9572 27.425 83.9572 25.2827L81.9572 25.2827C81.9572 28.5296 84.5893 31.1617 87.8361 31.1617L87.8361 29.1617Z" fill="#1F2226" mask="url(#path-1-inside-1_114_38)"/>
<mask id="path-3-inside-2_114_38" fill="white">
<path fill-rule="evenodd" clip-rule="evenodd" d="M86.542 51.5921C83.028 47.1488 76 36.0143 76 27.0231C76 15.7841 84.7995 15 86.542 15C88.2845 15 96.8227 16.3069 96.8227 27.0231C96.8227 35.5961 89.9689 46.9746 86.542 51.5921ZM86.3653 30.1612C89.0599 30.1612 91.2442 27.9768 91.2442 25.2823C91.2442 22.5877 89.0599 20.4033 86.3653 20.4033C83.6707 20.4033 81.4863 22.5877 81.4863 25.2823C81.4863 27.9768 83.6707 30.1612 86.3653 30.1612Z"/>
</mask>
<path fill-rule="evenodd" clip-rule="evenodd" d="M86.542 51.5921C83.028 47.1488 76 36.0143 76 27.0231C76 15.7841 84.7995 15 86.542 15C88.2845 15 96.8227 16.3069 96.8227 27.0231C96.8227 35.5961 89.9689 46.9746 86.542 51.5921ZM86.3653 30.1612C89.0599 30.1612 91.2442 27.9768 91.2442 25.2823C91.2442 22.5877 89.0599 20.4033 86.3653 20.4033C83.6707 20.4033 81.4863 22.5877 81.4863 25.2823C81.4863 27.9768 83.6707 30.1612 86.3653 30.1612Z" fill="#E4F8EA"/>
<path d="M86.542 51.5921L85.7577 52.2124L86.5672 53.2361L87.345 52.1881L86.542 51.5921ZM75 27.0231C75 31.7463 76.8354 36.9421 79.056 41.4546C81.2859 45.9859 83.9604 49.9398 85.7577 52.2124L87.3264 50.9718C85.6097 48.8011 83.0131 44.9661 80.8505 40.5715C78.6787 36.1582 77 31.2911 77 27.0231L75 27.0231ZM86.542 14C85.5724 14 82.713 14.2101 80.0655 15.9632C77.3467 17.7634 75 21.0946 75 27.0231L77 27.0231C77 21.7126 79.053 19.0323 81.1697 17.6307C83.3576 16.182 85.7691 16 86.542 16L86.542 14ZM97.8227 27.0231C97.8227 21.3516 95.5397 18.0369 92.9138 16.1769C90.3521 14.3624 87.5646 14 86.542 14L86.542 16C87.2619 16 89.6148 16.291 91.7578 17.809C93.8366 19.2815 95.8227 21.9783 95.8227 27.0231L97.8227 27.0231ZM87.345 52.1881C89.0933 49.8324 91.698 45.7783 93.8701 41.2212C96.0314 36.687 97.8227 31.5357 97.8227 27.0231L95.8227 27.0231C95.8227 31.0836 94.1871 35.908 92.0647 40.3606C89.9533 44.7904 87.4176 48.7343 85.739 50.9962L87.345 52.1881ZM90.2442 25.2823C90.2442 27.4246 88.5076 29.1612 86.3653 29.1612L86.3653 31.1612C89.6121 31.1612 92.2442 28.5291 92.2442 25.2823L90.2442 25.2823ZM86.3653 21.4033C88.5076 21.4033 90.2442 23.14 90.2442 25.2823L92.2442 25.2823C92.2442 22.0354 89.6121 19.4033 86.3653 19.4033L86.3653 21.4033ZM82.4863 25.2823C82.4863 23.14 84.223 21.4033 86.3653 21.4033L86.3653 19.4033C83.1184 19.4033 80.4863 22.0354 80.4863 25.2823L82.4863 25.2823ZM86.3653 29.1612C84.223 29.1612 82.4863 27.4246 82.4863 25.2823L80.4863 25.2823C80.4863 28.5291 83.1184 31.1612 86.3653 31.1612L86.3653 29.1612Z" fill="#1F2226" mask="url(#path-3-inside-2_114_38)"/>
<mask id="path-5-inside-3_114_38" fill="white">
<path fill-rule="evenodd" clip-rule="evenodd" d="M6.57072 8.3479C7.49569 8.3479 12.028 9.04163 12.028 14.7302C12.028 19.281 8.38983 25.3211 6.57072 27.7722L5.56232 27.7722C5.56232 27.7722 0.97467 18.6575 0.97467 14.7302C0.97467 10.6945 5.51352 8.3479 5.51352 8.3479L6.57072 8.3479ZM6.28138 16.3949C7.71174 16.3949 8.87129 15.2354 8.87129 13.805C8.87129 12.3746 7.71174 11.2151 6.28138 11.2151C4.85101 11.2151 3.69147 12.3746 3.69147 13.805C3.69147 15.2354 4.85101 16.3949 6.28138 16.3949Z"/>
</mask>
<path fill-rule="evenodd" clip-rule="evenodd" d="M6.57072 8.3479C7.49569 8.3479 12.028 9.04163 12.028 14.7302C12.028 19.281 8.38983 25.3211 6.57072 27.7722L5.56232 27.7722C5.56232 27.7722 0.97467 18.6575 0.97467 14.7302C0.97467 10.6945 5.51352 8.3479 5.51352 8.3479L6.57072 8.3479ZM6.28138 16.3949C7.71174 16.3949 8.87129 15.2354 8.87129 13.805C8.87129 12.3746 7.71174 11.2151 6.28138 11.2151C4.85101 11.2151 3.69147 12.3746 3.69147 13.805C3.69147 15.2354 4.85101 16.3949 6.28138 16.3949Z" fill="#E4F8EA"/>
<path d="M6.57072 8.3479L6.57072 7.3479L6.57072 8.3479ZM6.57072 27.7722L6.57072 28.7722L7.07388 28.7722L7.37374 28.3682L6.57072 27.7722ZM5.56232 27.7722L4.66909 28.2218L4.94612 28.7722L5.56232 28.7722L5.56232 27.7722ZM5.51352 8.3479L5.51352 7.3479L5.27031 7.3479L5.05426 7.4596L5.51352 8.3479ZM13.028 14.7302C13.028 11.5725 11.7465 9.66805 10.2243 8.58981C8.76618 7.557 7.18457 7.3479 6.57072 7.3479L6.57072 9.3479C6.88185 9.3479 8.02889 9.48566 9.06822 10.2219C10.0434 10.9126 11.028 12.1993 11.028 14.7302L13.028 14.7302ZM7.37374 28.3682C8.31811 27.0957 9.71696 24.9178 10.8842 22.4689C12.0406 20.0428 13.028 17.2317 13.028 14.7302L11.028 14.7302C11.028 16.7795 10.1963 19.2638 9.07884 21.6083C7.97224 23.9299 6.64244 25.9976 5.7677 27.1763L7.37374 28.3682ZM5.56232 28.7722L6.57072 28.7722L6.57072 26.7722L5.56232 26.7722L5.56232 28.7722ZM-0.0253296 14.7302C-0.0253296 15.8669 0.298962 17.2904 0.735185 18.7172C1.17813 20.166 1.76455 21.7059 2.34458 23.1066C2.92559 24.5096 3.50578 25.7864 3.94034 26.7118C4.1578 27.1748 4.33922 27.5508 4.4666 27.8117C4.53031 27.9421 4.58053 28.0439 4.61502 28.1134C4.63226 28.1481 4.64558 28.1748 4.65468 28.1931C4.65924 28.2022 4.66274 28.2092 4.66515 28.214C4.66635 28.2164 4.66729 28.2182 4.66795 28.2195C4.66828 28.2202 4.66854 28.2207 4.66873 28.2211C4.66882 28.2213 4.66891 28.2215 4.66896 28.2216C4.66903 28.2217 4.66909 28.2218 5.56232 27.7722C6.45556 27.3226 6.45558 27.3227 6.45558 27.3227C6.45556 27.3226 6.45555 27.3226 6.4555 27.3225C6.45541 27.3223 6.45526 27.322 6.45503 27.3216C6.45458 27.3207 6.45385 27.3192 6.45285 27.3172C6.45085 27.3133 6.44777 27.3071 6.44364 27.2988C6.43539 27.2823 6.42294 27.2574 6.40659 27.2244C6.37388 27.1585 6.32553 27.0606 6.26379 26.9341C6.14029 26.6812 5.9633 26.3144 5.75067 25.8616C5.32504 24.9553 4.75831 23.7079 4.19241 22.3414C3.62553 20.9724 3.06504 19.4972 2.6478 18.1325C2.22384 16.7458 1.97467 15.5571 1.97467 14.7302L-0.0253296 14.7302ZM5.51352 8.3479C5.05426 7.4596 5.05394 7.45976 5.0536 7.45994C5.05346 7.46001 5.05311 7.4602 5.05283 7.46034C5.05229 7.46062 5.05167 7.46094 5.05099 7.4613C5.04962 7.46201 5.04797 7.46287 5.04605 7.46388C5.04221 7.46589 5.03727 7.46849 5.03128 7.47167C5.01929 7.47804 5.00307 7.48675 4.98289 7.49778C4.94254 7.51984 4.8863 7.55122 4.81644 7.59178C4.67684 7.67281 4.48208 7.79094 4.25047 7.945C3.78911 8.25189 3.17183 8.70784 2.55097 9.30484C1.32767 10.4811 -0.0253296 12.3206 -0.0253296 14.7302L1.97467 14.7302C1.97467 13.1041 2.8911 11.7524 3.93722 10.7465C4.45107 10.2524 4.9685 9.86944 5.35818 9.61023C5.55209 9.48124 5.71192 9.38451 5.82054 9.32145C5.87479 9.28996 5.91606 9.26699 5.9422 9.2527C5.95526 9.24555 5.96453 9.24059 5.96972 9.23784C5.97231 9.23646 5.97389 9.23563 5.97441 9.23536C5.97467 9.23522 5.97467 9.23522 5.9744 9.23536C5.97426 9.23543 5.97406 9.23554 5.97379 9.23568C5.97365 9.23575 5.9734 9.23588 5.97333 9.23592C5.97306 9.23606 5.97278 9.2362 5.51352 8.3479ZM6.57072 7.3479L5.51352 7.3479L5.51352 9.3479L6.57072 9.3479L6.57072 7.3479ZM7.87129 13.805C7.87129 14.6831 7.15946 15.3949 6.28138 15.3949L6.28138 17.3949C8.26403 17.3949 9.87129 15.7877 9.87129 13.805L7.87129 13.805ZM6.28138 12.2151C7.15946 12.2151 7.87129 12.9269 7.87129 13.805L9.87129 13.805C9.87129 11.8223 8.26403 10.2151 6.28138 10.2151L6.28138 12.2151ZM4.69147 13.805C4.69147 12.9269 5.40329 12.2151 6.28138 12.2151L6.28138 10.2151C4.29872 10.2151 2.69147 11.8223 2.69147 13.805L4.69147 13.805ZM6.28138 15.3949C5.40329 15.3949 4.69147 14.6831 4.69147 13.805L2.69147 13.805C2.69147 15.7876 4.29872 17.3949 6.28138 17.3949L6.28138 15.3949Z" fill="#1F2226" mask="url(#path-5-inside-3_114_38)"/>
<mask id="path-7-inside-4_114_38" fill="white">
<path fill-rule="evenodd" clip-rule="evenodd" d="M5.59605 27.7721C3.7307 25.4134 0 19.5029 0 14.73C0 8.76398 4.67108 8.34775 5.59605 8.34775C6.52101 8.34775 11.0534 9.04147 11.0534 14.73C11.0534 19.2809 7.41515 25.3209 5.59605 27.7721ZM5.50202 16.3948C6.93239 16.3948 8.09193 15.2352 8.09193 13.8048C8.09193 12.3745 6.93239 11.2149 5.50202 11.2149C4.07165 11.2149 2.91211 12.3745 2.91211 13.8048C2.91211 15.2352 4.07165 16.3948 5.50202 16.3948Z"/>
</mask>
<path fill-rule="evenodd" clip-rule="evenodd" d="M5.59605 27.7721C3.7307 25.4134 0 19.5029 0 14.73C0 8.76398 4.67108 8.34775 5.59605 8.34775C6.52101 8.34775 11.0534 9.04147 11.0534 14.73C11.0534 19.2809 7.41515 25.3209 5.59605 27.7721ZM5.50202 16.3948C6.93239 16.3948 8.09193 15.2352 8.09193 13.8048C8.09193 12.3745 6.93239 11.2149 5.50202 11.2149C4.07165 11.2149 2.91211 12.3745 2.91211 13.8048C2.91211 15.2352 4.07165 16.3948 5.50202 16.3948Z" fill="#E4F8EA"/>
<path d="M5.59605 27.7721L4.81169 28.3924L5.62127 29.4161L6.39907 28.368L5.59605 27.7721ZM-1 14.73C-1 17.3441 0.0110269 20.1792 1.20128 22.5979C2.40075 25.0353 3.83873 27.1621 4.81169 28.3924L6.38041 27.1518C5.48802 26.0234 4.12797 24.0155 2.99576 21.7148C1.85432 19.3953 1 16.8888 1 14.73L-1 14.73ZM5.59605 7.34775C5.03521 7.34775 3.41225 7.46586 1.89906 8.46784C0.314609 9.51701 -1 11.438 -1 14.73L1 14.73C1 12.056 2.02093 10.7859 3.00326 10.1354C4.05685 9.43775 5.23192 9.34775 5.59605 9.34775L5.59605 7.34775ZM12.0534 14.73C12.0534 11.5724 10.7718 9.6679 9.24958 8.58966C7.79151 7.55685 6.20989 7.34775 5.59605 7.34775L5.59605 9.34775C5.90717 9.34775 7.05421 9.48551 8.09354 10.2217C9.06873 10.9125 10.0534 12.1991 10.0534 14.73L12.0534 14.73ZM6.39907 28.368C7.34343 27.0955 8.74229 24.9176 9.90956 22.4687C11.0659 20.0427 12.0534 17.2315 12.0534 14.73L10.0534 14.73C10.0534 16.7794 9.22166 19.2637 8.10416 21.6082C6.99756 23.9298 5.66776 25.9974 4.79303 27.1761L6.39907 28.368ZM7.09193 13.8048C7.09193 14.6829 6.3801 15.3948 5.50202 15.3948L5.50202 17.3948C7.48467 17.3948 9.09193 15.7875 9.09193 13.8048L7.09193 13.8048ZM5.50202 12.2149C6.3801 12.2149 7.09193 12.9268 7.09193 13.8048L9.09193 13.8048C9.09193 11.8222 7.48467 10.2149 5.50202 10.2149L5.50202 12.2149ZM3.91211 13.8048C3.91211 12.9268 4.62394 12.2149 5.50202 12.2149L5.50202 10.2149C3.51937 10.2149 1.91211 11.8222 1.91211 13.8048L3.91211 13.8048ZM5.50202 15.3948C4.62394 15.3948 3.91211 14.6829 3.91211 13.8048L1.91211 13.8048C1.91211 15.7875 3.51937 17.3948 5.50202 17.3948L5.50202 15.3948Z" fill="#1F2226" mask="url(#path-7-inside-4_114_38)"/>
<mask id="path-9-inside-5_114_38" fill="white">
<path fill-rule="evenodd" clip-rule="evenodd" d="M40.966 0C44.1077 0 59.8527 2.35625 59.8527 21.6775C59.8527 37.1344 47.1446 57.6495 40.966 65.9749L38.1866 65.9749C38.1866 65.9749 21.959 35.3676 21.959 21.6775C21.959 9.31162 37.6603 0 37.6603 0L40.966 0ZM39.9401 27.3924C44.1548 27.3924 47.5715 23.4259 47.5715 18.5329C47.5715 13.64 44.1548 9.67353 39.9401 9.67353C35.7254 9.67353 32.3087 13.64 32.3087 18.5329C32.3087 23.4259 35.7254 27.3924 39.9401 27.3924Z"/>
</mask>
<path fill-rule="evenodd" clip-rule="evenodd" d="M40.966 0C44.1077 0 59.8527 2.35625 59.8527 21.6775C59.8527 37.1344 47.1446 57.6495 40.966 65.9749L38.1866 65.9749C38.1866 65.9749 21.959 35.3676 21.959 21.6775C21.959 9.31162 37.6603 0 37.6603 0L40.966 0ZM39.9401 27.3924C44.1548 27.3924 47.5715 23.4259 47.5715 18.5329C47.5715 13.64 44.1548 9.67353 39.9401 9.67353C35.7254 9.67353 32.3087 13.64 32.3087 18.5329C32.3087 23.4259 35.7254 27.3924 39.9401 27.3924Z" fill="#E4F8EA"/>
<path d="M40.966 0V-1V0ZM40.966 65.9749V66.9749H41.4692L41.7691 66.5709L40.966 65.9749ZM38.1866 65.9749L37.3031 66.4433L37.585 66.9749H38.1866V65.9749ZM37.6603 0V-1L37.3861 -1L37.1502 -0.86012L37.6603 0ZM60.8527 21.6775C60.8527 11.694 56.7598 5.96556 52.1576 2.77173C47.6211 -0.376551 42.6856 -1 40.966 -1V1C42.3882 1 46.896 1.55467 51.0174 4.41482C55.0731 7.22942 58.8527 12.3397 58.8527 21.6775L60.8527 21.6775ZM41.7691 66.5709C44.8891 62.3668 49.6448 55.1041 53.6252 46.9387C57.5936 38.7981 60.8527 29.638 60.8527 21.6775L58.8527 21.6775C58.8527 29.1739 55.7578 37.9998 51.8275 46.0623C47.9093 54.1 43.2216 61.2576 40.163 65.3789L41.7691 66.5709ZM38.1866 66.9749L40.966 66.9749L40.966 64.9749L38.1866 64.9749L38.1866 66.9749ZM20.959 21.6775C20.959 25.2593 22.0128 29.8594 23.5414 34.6769C25.0768 39.5158 27.1195 44.6592 29.1552 49.3576C31.192 54.0584 33.228 58.3277 34.7543 61.4211C35.5176 62.9682 36.154 64.2221 36.5999 65.09C36.8228 65.5239 36.9982 65.8614 37.118 66.0909C37.178 66.2056 37.224 66.2933 37.2552 66.3525C37.2708 66.3821 37.2826 66.4046 37.2907 66.4198C37.2947 66.4274 37.2977 66.4332 37.2998 66.4371C37.3009 66.4391 37.3017 66.4406 37.3022 66.4416C37.3025 66.4421 37.3027 66.4426 37.3029 66.4428C37.303 66.4431 37.3031 66.4433 38.1866 65.9749C39.0701 65.5065 39.0701 65.5064 39.07 65.5063C39.0699 65.5061 39.0698 65.5058 39.0696 65.5054C39.0691 65.5046 39.0684 65.5033 39.0675 65.5015C39.0657 65.498 39.0628 65.4927 39.0591 65.4855C39.0515 65.4712 39.0401 65.4496 39.025 65.4209C38.9947 65.3634 38.9497 65.2776 38.8907 65.1648C38.7729 64.9392 38.5996 64.6057 38.3788 64.176C37.9373 63.3166 37.3058 62.0724 36.5478 60.5361C35.0315 57.4629 33.0105 53.2247 30.9904 48.5624C28.9692 43.8978 26.955 38.8224 25.4477 34.072C23.9336 29.3003 22.959 24.9407 22.959 21.6775L20.959 21.6775ZM37.6603 0C37.1502 -0.86012 37.1499 -0.859939 37.1496 -0.859723C37.1494 -0.859603 37.1489 -0.859351 37.1485 -0.859112C37.1477 -0.858633 37.1467 -0.858011 37.1454 -0.857248C37.1428 -0.85572 37.1393 -0.853624 37.1349 -0.850963C37.126 -0.84564 37.1134 -0.838053 37.0972 -0.828227C37.0647 -0.808575 37.0178 -0.779962 36.9575 -0.742577C36.8368 -0.667813 36.6621 -0.55793 36.4411 -0.414451C35.9992 -0.127566 35.3717 0.294071 34.6204 0.83828C33.1195 1.92542 31.1152 3.50822 29.1073 5.48976C25.1287 9.41596 20.959 15.0818 20.959 21.6775L22.959 21.6775C22.959 15.9073 26.64 10.7344 30.5121 6.91332C32.4294 5.02123 34.3505 3.50325 35.7936 2.45803C36.5142 1.93606 37.1134 1.53362 37.5302 1.26297C37.7386 1.12768 37.9012 1.02544 38.0105 0.957763C38.0651 0.923928 38.1064 0.898745 38.1334 0.882405C38.1469 0.874235 38.1568 0.868277 38.163 0.864555C38.1661 0.862694 38.1683 0.861392 38.1695 0.860652C38.1701 0.860282 38.1705 0.860052 38.1707 0.859963C38.1708 0.859919 38.1707 0.859958 38.1707 0.859936C38.1706 0.86001 38.1704 0.86012 37.6603 0ZM40.966 -1L37.6603 -1V1L40.966 1V-1ZM46.5715 18.5329C46.5715 23.0188 43.4677 26.3924 39.9401 26.3924L39.9401 28.3924C44.8419 28.3924 48.5715 23.8329 48.5715 18.5329L46.5715 18.5329ZM39.9401 10.6735C43.4677 10.6735 46.5715 14.0471 46.5715 18.5329L48.5715 18.5329C48.5715 13.233 44.8419 8.67353 39.9401 8.67353L39.9401 10.6735ZM33.3087 18.5329C33.3087 14.0471 36.4125 10.6735 39.9401 10.6735L39.9401 8.67353C35.0383 8.67353 31.3087 13.233 31.3087 18.5329L33.3087 18.5329ZM39.9401 26.3924C36.4125 26.3924 33.3087 23.0188 33.3087 18.5329L31.3087 18.5329C31.3087 23.8329 35.0383 28.3924 39.9401 28.3924L39.9401 26.3924Z" fill="#1F2226" mask="url(#path-9-inside-5_114_38)"/>
<mask id="path-11-inside-6_114_38" fill="white">
<path fill-rule="evenodd" clip-rule="evenodd" d="M38.1614 65.9749C31.8257 57.9637 19.1543 37.8884 19.1543 21.6775C19.1543 1.41375 35.0197 0 38.1614 0C41.303 0 56.6972 2.35625 56.6972 21.6775C56.6972 37.1344 44.34 57.6495 38.1614 65.9749ZM37.8494 27.3248C42.7077 27.3248 46.646 23.3864 46.646 18.5281C46.646 13.6698 42.7077 9.73145 37.8494 9.73145C32.9911 9.73145 29.0527 13.6698 29.0527 18.5281C29.0527 23.3864 32.9911 27.3248 37.8494 27.3248Z"/>
</mask>
<path fill-rule="evenodd" clip-rule="evenodd" d="M38.1614 65.9749C31.8257 57.9637 19.1543 37.8884 19.1543 21.6775C19.1543 1.41375 35.0197 0 38.1614 0C41.303 0 56.6972 2.35625 56.6972 21.6775C56.6972 37.1344 44.34 57.6495 38.1614 65.9749ZM37.8494 27.3248C42.7077 27.3248 46.646 23.3864 46.646 18.5281C46.646 13.6698 42.7077 9.73145 37.8494 9.73145C32.9911 9.73145 29.0527 13.6698 29.0527 18.5281C29.0527 23.3864 32.9911 27.3248 37.8494 27.3248Z" fill="#5BCB7D"/>
<path d="M38.1614 65.9749L37.377 66.5952L38.1866 67.6189L38.9644 66.5709L38.1614 65.9749ZM18.1543 21.6775C18.1543 30.0106 21.4005 39.2464 25.3847 47.3426C29.3781 55.4576 34.1689 62.5386 37.377 66.5952L38.9457 65.3546C35.8182 61.3999 31.1054 54.4378 27.1792 46.4595C23.2438 38.4626 20.1543 29.5553 20.1543 21.6775L18.1543 21.6775ZM38.1614 -1C36.4922 -1 31.5165 -0.632505 26.9276 2.40606C22.2675 5.49181 18.1543 11.2366 18.1543 21.6775L20.1543 21.6775C20.1543 11.8546 23.9738 6.76067 28.0318 4.07362C32.1611 1.33938 36.6889 1 38.1614 1V-1ZM57.6972 21.6775C57.6972 11.7035 53.7002 5.97521 49.1854 2.77725C44.7348 -0.375265 39.8835 -1 38.1614 -1V1C39.5808 1 43.9975 1.55339 48.0294 4.4093C51.9971 7.21977 55.6972 12.3302 55.6972 21.6775L57.6972 21.6775ZM38.9644 66.5709C42.0885 62.3612 46.757 55.096 50.6489 46.9308C54.53 38.7885 57.6972 29.632 57.6972 21.6775L55.6972 21.6775C55.6972 29.1799 52.6857 38.0095 48.8435 46.0703C45.0122 54.1082 40.4128 61.2632 37.3583 65.3789L38.9644 66.5709ZM45.646 18.5281C45.646 22.8341 42.1554 26.3248 37.8494 26.3248L37.8494 28.3248C43.2599 28.3248 47.646 23.9386 47.646 18.5281L45.646 18.5281ZM37.8494 10.7314C42.1554 10.7314 45.646 14.2221 45.646 18.5281L47.646 18.5281C47.646 13.1176 43.2599 8.73145 37.8494 8.73145L37.8494 10.7314ZM30.0527 18.5281C30.0527 14.2221 33.5434 10.7314 37.8494 10.7314L37.8494 8.73145C32.4388 8.73145 28.0527 13.1176 28.0527 18.5281L30.0527 18.5281ZM37.8494 26.3248C33.5434 26.3248 30.0527 22.8341 30.0527 18.5281L28.0527 18.5281C28.0527 23.9386 32.4388 28.3248 37.8494 28.3248L37.8494 26.3248Z" fill="#1F2226" mask="url(#path-11-inside-6_114_38)"/>
</svg>
