<svg width="134" height="30" viewBox="0 0 134 30" fill="none" xmlns="http://www.w3.org/2000/svg">
<g clip-path="url(#clip0_14668_258388)">
<path fill-rule="evenodd" clip-rule="evenodd" d="M65.4314 7.15467C65.3702 7.17468 65.309 7.19413 65.2468 7.21206C64.7241 7.36114 64.1906 7.43956 63.6254 7.40801C63.5287 7.40286 63.4312 7.39439 63.3328 7.38249C63.579 6.91375 63.8343 6.45362 64.1044 6.00592C64.9147 4.66291 65.8594 3.43312 67.0978 2.4241C65.7152 3.21081 64.6031 4.27876 63.6103 5.48268C63.279 5.88493 62.9617 6.30299 62.6515 6.7304C62.6512 6.7292 62.6519 6.72782 62.6515 6.72659C62.5836 6.35367 62.5977 6.00055 62.6346 5.65001C62.6399 5.59989 62.6455 5.54992 62.6515 5.49994C62.8263 4.01854 63.4242 2.79548 64.4132 1.82799C64.7431 1.50538 65.1163 1.21138 65.5316 0.945468C66.1721 0.534796 66.8713 0.292665 67.6021 0.156865C67.8937 0.102752 68.1902 0.0655281 68.4898 0.0412288C68.9063 0.00538317 69.3223 -0.0201224 69.7387 0.0255463C69.7532 0.026925 69.7676 0.028476 69.782 0.030027C69.9005 0.0448478 69.941 0.0967203 69.9522 0.200466C70.152 2.35362 69.6153 4.22515 67.9123 5.67415C67.811 5.7603 67.708 5.84374 67.6046 5.92612C66.9455 6.45398 66.2389 6.8924 65.4314 7.15467ZM56.8779 3.29353C56.8779 2.15353 55.9529 1.23241 54.8099 1.23241C53.6668 1.23241 52.7418 2.15353 52.7418 3.29353V3.30059H52.7348V22.2607H52.7418C52.7418 23.4007 53.6668 24.3254 54.8099 24.3254C55.9529 24.3254 56.8779 23.4041 56.8779 22.2641H56.8849V3.29715H56.8779V3.29353ZM49.6081 6.47346H42.9539L42.9574 6.46982C42.9117 6.46982 42.873 6.50879 42.873 6.5546V11.5346C42.873 11.5484 42.8765 11.5615 42.8825 11.5732C42.8906 11.5885 42.9029 11.6014 42.9176 11.6102C42.9296 11.6173 42.943 11.6218 42.9574 11.6228H49.3233C50.4804 11.6228 51.4194 12.5651 51.4194 13.7263C51.4194 14.8875 50.4804 15.8298 49.3233 15.8298C49.2705 15.8298 49.2177 15.8264 49.165 15.8228H42.9539C42.9307 15.8228 42.9088 15.8329 42.8934 15.8491C42.8786 15.8645 42.8695 15.8852 42.8695 15.9075V21.9604C42.88 22.0382 42.8835 22.1228 42.8835 22.204C42.8835 23.4322 41.8882 24.431 40.6643 24.431C39.4403 24.431 38.445 23.4358 38.445 22.204V22.0982V15.8228H38.438V11.6193H38.445V6.46982H38.438V5.22765C38.438 3.57218 39.7744 2.23108 41.4239 2.23108H49.6081C50.7723 2.23108 51.7149 3.17703 51.7149 4.34529C51.7149 5.51335 50.7723 6.4593 49.6081 6.4593V6.47346ZM18.7354 2.23453C17.6521 2.2416 16.7096 2.8558 16.2382 3.75574L16.2067 3.71332L10.822 12.4735C10.7868 12.5264 10.7095 12.5264 10.6778 12.4735L5.39521 3.71695L5.34945 3.73453C4.87116 2.84167 3.92852 2.23815 2.84885 2.23453C1.28369 2.23453 0 3.57581 0 5.14629V22.4228H0.014082C0.119611 23.5487 1.06568 24.431 2.21577 24.431C3.36585 24.431 4.31192 23.5487 4.41746 22.4228H4.42801V10.3804C4.42801 10.2922 4.54049 10.2639 4.58625 10.3381L10.6743 20.5063C10.7059 20.5628 10.7868 20.5628 10.8185 20.5063L17.0121 10.317C17.0577 10.2427 17.1703 10.2746 17.1703 10.3629V22.4228H17.1809C17.2863 23.5487 18.2325 24.431 19.3826 24.431C20.5326 24.431 21.4787 23.5487 21.5842 22.4228H21.5947V5.14629C21.5947 3.56875 20.3075 2.22402 18.7354 2.23453ZM35.8986 8.64401C34.8365 8.3157 33.7111 8.90526 33.3874 9.96045C33.3769 9.99578 33.3664 10.0346 33.3594 10.0699L30.4648 18.9711C30.4402 19.0487 30.3346 19.0487 30.303 18.9746L26.9478 10.4016C26.9371 10.3232 26.9219 10.2448 26.9018 10.1667C26.8821 10.0904 26.8577 10.0144 26.8281 9.93927C26.4272 8.93695 25.2701 8.45702 24.2431 8.86993C23.2161 9.28283 22.7097 10.4299 23.1106 11.4322C23.1176 11.4463 23.1247 11.4604 23.1282 11.478H23.1247L27.9712 22.7899C27.9712 22.7899 28.4987 23.7427 28.1822 24.3745C26.8141 27.4381 24.1798 26.8063 24.1798 26.8063C24.1798 27.6533 24.9184 29.9757 27.3381 29.9757C30.7075 29.9757 32.8142 23.4217 32.8142 23.4217L37.1894 11.2981L37.2017 11.2654C37.2126 11.2363 37.2239 11.2063 37.2316 11.1782L37.2386 11.1604V11.1463C37.5657 10.0911 36.9678 8.96868 35.9022 8.64055L35.8986 8.64401ZM96.0017 16.3982C96.0017 11.5065 99.3535 8.08287 104.161 8.08287V8.08633C108.885 8.08633 112.124 11.4393 112.314 15.9817C112.321 16.0337 112.325 16.0873 112.326 16.1412L112.328 16.1767L112.328 16.2217C112.328 16.2462 112.327 16.2706 112.326 16.2948L112.324 16.3284L112.321 16.377C112.243 17.3722 111.413 18.1558 110.404 18.1558H100.395C100.335 18.1558 100.293 18.2158 100.314 18.2723C100.975 19.9064 102.473 21.0464 104.218 21.0464C105.653 21.0464 106.634 20.8487 107.291 20.3829C107.633 20.0863 108.079 19.9099 108.565 19.9099C109.644 19.9099 110.52 20.7887 110.52 21.8722C110.52 22.7182 109.658 23.4051 109.393 23.6168C109.318 23.6762 109.29 23.6983 109.342 23.6759C108.062 24.4135 106.345 24.7135 104.161 24.7135C99.4343 24.7135 96.0017 21.2899 96.0017 16.3982ZM100.282 14.937H108.136C108.192 14.937 108.234 14.8804 108.216 14.8241C107.615 13.0275 106.068 11.7429 104.218 11.7429C102.368 11.7429 100.792 13.0275 100.201 14.8241C100.183 14.8804 100.226 14.937 100.282 14.937ZM66.1981 7.88882C61.4853 7.88882 57.6657 11.7217 57.6657 16.4511C57.6657 21.1807 61.4853 25.0135 66.1981 25.0135C70.911 25.0135 74.7305 21.1807 74.7305 16.4511C74.7305 11.7217 70.911 7.88882 66.1981 7.88882ZM66.2509 20.8348C63.8382 20.8348 61.8792 18.8724 61.8792 16.4476C61.8792 14.0229 63.8347 12.0605 66.2509 12.0605C68.6671 12.0605 70.6226 14.0229 70.6226 16.4476C70.6226 18.8724 68.6671 20.8348 66.2509 20.8348ZM117.385 11.2664C117.417 11.1499 118.3 8.20643 122.017 8.20643H122.021C122.021 8.20643 122.439 10.6383 121.177 11.9053C120.658 12.4276 120.011 12.7945 119.412 13.1338C118.798 13.4824 118.234 13.802 117.913 14.2311C117.366 14.9595 117.37 15.4538 117.382 16.8006C117.383 17.0133 117.385 17.2471 117.385 17.5065C117.385 19.0418 117.378 21.3359 117.378 22.1652C117.385 22.2147 117.385 22.2641 117.385 22.3136C117.385 22.3665 117.382 22.4194 117.378 22.4723V22.4794C117.294 23.5382 116.411 24.3747 115.331 24.3747C114.252 24.3747 113.369 23.5418 113.285 22.4794H113.277V10.5288C113.306 9.41346 114.213 8.52062 115.331 8.52062C116.45 8.52062 117.357 9.41346 117.385 10.5288V11.2664ZM128.421 14.705L128.415 14.7034C126.889 14.2947 125.812 14.0064 125.812 12.8583C125.812 11.8913 127.877 11.1006 129.196 12.1383C129.561 12.576 130.128 12.8548 130.761 12.8548C131.865 12.8548 132.762 12.0042 132.762 10.9524C132.762 10.1547 132.245 9.47 131.513 9.18772C131.513 9.18772 129.628 8.10062 127.406 8.10062C125.183 8.10062 121.782 9.40298 121.782 12.8548C121.782 15.997 123.46 16.6736 125.542 17.5125L125.544 17.513L125.546 17.5141C125.75 17.5963 125.957 17.68 126.168 17.7677C126.185 17.7748 126.208 17.7822 126.236 17.7899C126.274 17.8003 126.321 17.8112 126.376 17.8229C126.457 17.8401 126.556 17.8592 126.669 17.8811L126.678 17.8827C127.743 18.0878 129.986 18.5198 129.924 19.7794C129.832 21.6111 126.262 21.403 125.478 20.4641C125.119 19.9524 124.507 19.6171 123.815 19.6171C122.71 19.6171 121.813 20.4677 121.813 21.5194C121.813 21.9606 121.972 22.3665 122.235 22.6877C122.235 22.6877 123.378 24.83 127.743 24.83C132.108 24.83 134.049 22.303 133.958 19.7194C133.859 17.0158 132.758 15.9501 129.319 14.9442L129.312 14.9513C129.002 14.861 128.704 14.7808 128.421 14.705ZM94.9008 8.5275C95.9525 8.86647 96.5328 9.99941 96.2127 11.0758L96.2092 11.0793L92.8363 22.3665H92.8293C92.3721 23.8699 90.7824 24.724 89.2736 24.2687C88.2642 23.9652 87.5432 23.1535 87.311 22.1969L85.25 15.3006L83.189 22.2005C82.9569 23.1535 82.2359 23.9616 81.23 24.2653C79.7212 24.7206 78.135 23.8699 77.6743 22.3665H77.6673L74.2944 11.0758H74.3014C73.9849 9.99941 74.5617 8.86647 75.6133 8.5275C76.679 8.18526 77.822 8.78875 78.1702 9.87585L78.1807 9.90754H78.1843L80.4809 17.5911L82.7213 10.0911C82.7353 10.0416 82.7494 9.99235 82.767 9.94287C82.8208 9.78313 82.8992 9.63285 82.9977 9.49206C83.0171 9.46432 83.0371 9.43689 83.0582 9.40986C83.0765 9.38607 83.0955 9.36263 83.1152 9.33937C83.5794 8.78875 84.3673 8.42875 85.2571 8.42875C86.1469 8.42875 86.9347 8.79221 87.399 9.33937C87.5537 9.5229 87.6733 9.72401 87.7472 9.94287C87.7647 9.99235 87.7788 10.0416 87.7929 10.0911L90.0332 17.5911L92.3299 9.90754H92.3334L92.3359 9.90083L92.3404 9.89085C92.3422 9.88583 92.3439 9.88086 92.3439 9.87585C92.6921 8.78875 93.8352 8.18526 94.9008 8.5275Z" fill="#00AB45"/>
</g>
<defs>
<clipPath id="clip0_14668_258388">
<rect width="134" height="30" fill="white"/>
</clipPath>
</defs>
</svg>
