<svg xmlns="http://www.w3.org/2000/svg">
    <symbol id="time" viewBox="0 0 14 14">
        <path d="M7.00065 0.333496C10.6817 0.333496 13.6673 3.31811 13.6673 7.00016C13.6673 10.6822 10.6817 13.6668 7.00065 13.6668C3.3186 13.6668 0.333984 10.6822 0.333984 7.00016C0.333984 3.31811 3.3186 0.333496 7.00065 0.333496ZM7.00065 1.66683C4.05501 1.66683 1.66732 4.05452 1.66732 7.00016C1.66732 9.9458 4.05501 12.3335 7.00065 12.3335C9.94547 12.3335 12.334 9.9458 12.334 7.00016C12.334 4.05452 9.94547 1.66683 7.00065 1.66683ZM6.55988 3.6976C6.92807 3.6976 7.22655 3.99608 7.22655 4.36426V6.92022L9.73365 7.75742C10.0824 7.87548 10.2694 8.2539 10.1513 8.60265C10.0333 8.9514 9.65486 9.13841 9.30611 9.02034L6.34611 8.01829C6.0754 7.92665 5.89321 7.67264 5.89321 7.38683V4.36426C5.89321 3.99608 6.19169 3.6976 6.55988 3.6976Z"/>
    </symbol>

    <symbol id="heart" viewBox="0 0 20 19">
        <g style="mix-blend-mode:luminosity">
            <path d="M9.64645 2.35355L10 2.70711L10.3536 2.35355C11.2936 1.41346 12.8138 0.5 14.5 0.5C17.2316 0.5 19.5 2.74484 19.5 6C19.5 9.30661 17.7312 11.9341 15.5945 13.9487C13.7003 15.7347 11.5666 16.9937 10.2223 17.7868C10.1456 17.8321 10.0714 17.8759 10 17.9181C9.92859 17.8759 9.85441 17.8321 9.77766 17.7868C8.43342 16.9937 6.29969 15.7347 4.40551 13.9487C2.26881 11.9341 0.5 9.30661 0.5 6C0.5 2.74715 2.80427 0.5 5.5 0.5C7.18616 0.5 8.70636 1.41346 9.64645 2.35355Z"
            />
        </g>
    </symbol>

    <symbol id="star" viewBox="0 0 14 13">
        <path d="M7.2436 10.7877C7.09187 10.7028 6.9069 10.7028 6.75516 10.7877L3.83098 12.4246C3.45868 12.633 3.01321 12.3093 3.09634 11.8908L3.74934 8.60387C3.78323 8.43331 3.72606 8.25739 3.59839 8.13933L1.1377 5.86397C0.824434 5.5743 0.994572 5.0506 1.41827 5.00035L4.74631 4.60564C4.91898 4.58516 5.06861 4.47645 5.14144 4.31856L6.54536 1.27522C6.72408 0.887807 7.27469 0.887807 7.4534 1.27522L8.85732 4.31856C8.93016 4.47645 9.07979 4.58516 9.25245 4.60564L12.5805 5.00035C13.0042 5.0506 13.1743 5.5743 12.8611 5.86397L10.4004 8.13933C10.2727 8.25739 10.2155 8.43331 10.2494 8.60387L10.9024 11.8908C10.9856 12.3093 10.5401 12.633 10.1678 12.4246L7.2436 10.7877Z"
              fill="#FFCD1E"/>
    </symbol>

    <symbol id="bag" viewBox="0 0 16 17">
        <path d="M8 0.25C10.3012 0.25 12.1667 2.11548 12.1667 4.41667H13.6305C14.2806 4.41667 14.5163 4.48435 14.7539 4.61145C14.9916 4.73855 15.1781 4.92506 15.3052 5.16272C15.4323 5.40037 15.5 5.6361 15.5 6.28617V11.4936C15.5 13.1765 15.3163 13.8299 14.9713 14.475C14.6263 15.1201 14.1201 15.6263 13.475 15.9713C12.8299 16.3163 12.1765 16.5 10.4936 16.5H5.50639C3.82348 16.5 3.17005 16.3163 2.52499 15.9713C1.87993 15.6263 1.37368 15.1201 1.0287 14.475C0.683717 13.8299 0.5 13.1765 0.5 11.4936V6.28617C0.5 5.6361 0.567685 5.40037 0.694784 5.16272C0.821883 4.92506 1.0084 4.73855 1.24605 4.61145C1.4837 4.48435 1.71943 4.41667 2.3695 4.41667H3.83333C3.83333 2.11548 5.69881 0.25 8 0.25ZM11.4631 5.875H11.4119C11.2505 5.875 11.1299 5.90401 11.0281 5.95848C10.9262 6.01295 10.8463 6.09288 10.7918 6.19474C10.7373 6.29659 10.7083 6.41714 10.7083 6.5786V6.62973C10.7083 6.7912 10.7373 6.91175 10.7918 7.0136C10.8463 7.11545 10.9262 7.19538 11.0281 7.24985C11.1299 7.30433 11.2505 7.33333 11.4119 7.33333H11.4631C11.6245 7.33333 11.7451 7.30433 11.8469 7.24985C11.9488 7.19538 12.0287 7.11545 12.0832 7.0136C12.1377 6.91175 12.1667 6.7912 12.1667 6.62973V6.5786C12.1667 6.41714 12.1377 6.29659 12.0832 6.19474C12.0287 6.09288 11.9488 6.01295 11.8469 5.95848C11.7451 5.90401 11.6245 5.875 11.4631 5.875ZM4.58806 5.875H4.53694C4.37547 5.875 4.25492 5.90401 4.15307 5.95848C4.05122 6.01295 3.97128 6.09288 3.91681 6.19474C3.86234 6.29659 3.83333 6.41714 3.83333 6.5786V6.62973C3.83333 6.7912 3.86234 6.91175 3.91681 7.0136C3.97128 7.11545 4.05122 7.19538 4.15307 7.24985C4.25492 7.30433 4.37547 7.33333 4.53694 7.33333H4.58806C4.74953 7.33333 4.87008 7.30433 4.97193 7.24985C5.07378 7.19538 5.15372 7.11545 5.20819 7.0136C5.26266 6.91175 5.29167 6.7912 5.29167 6.62973V6.5786C5.29167 6.41714 5.26266 6.29659 5.20819 6.19474C5.15372 6.09288 5.07378 6.01295 4.97193 5.95848C4.87008 5.90401 4.74953 5.875 4.58806 5.875ZM8 1.70833C6.50423 1.70833 5.29167 2.9209 5.29167 4.41667H10.7083C10.7083 2.9209 9.49577 1.70833 8 1.70833Z"/>
    </symbol>

    <symbol id="whatsapp" viewBox="0 0 16 16">
        <path fill-rule="evenodd" clip-rule="evenodd"
              d="M16 8C16 12.4183 12.4183 16 8 16C3.58172 16 0 12.4183 0 8C0 3.58172 3.58172 0 8 0C12.4183 0 16 3.58172 16 8ZM8.17344 9.37673C7.1832 8.69558 6.48295 7.76547 5.92276 6.71519C5.93411 6.70235 5.94481 6.69028 5.95507 6.67871C5.97345 6.65798 5.99044 6.63882 6.0073 6.61958C6.08417 6.5317 6.16156 6.44426 6.23895 6.35682C6.41721 6.15538 6.59548 5.95395 6.76743 5.74726C7.005 5.46166 6.99815 5.19372 6.7361 4.93164C6.37814 4.57361 6.01523 4.22056 5.65231 3.86751C5.47943 3.69933 5.30656 3.53115 5.13421 3.36243C4.94458 3.17679 4.59597 3.12566 4.37101 3.30275C4.31644 3.34571 4.25818 3.38394 4.1999 3.42218C4.16069 3.44792 4.12146 3.47366 4.08333 3.50086C3.71632 3.76265 3.47008 4.11276 3.35021 4.54531C3.17335 5.18342 3.14349 5.82691 3.30996 6.47372C3.50538 7.23295 3.88807 7.89734 4.34071 8.52774C4.7664 9.12057 5.27398 9.63999 5.78139 10.1592C5.86081 10.2405 5.94023 10.3218 6.01933 10.4033C6.6482 11.0516 7.33213 11.6346 8.11133 12.0981C9.01239 12.634 9.96429 12.9331 11.0302 12.7552C11.6907 12.645 12.2306 12.3628 12.5906 11.7813C12.5942 11.7755 12.5977 11.7697 12.6013 11.7639C12.6315 11.715 12.6619 11.6659 12.6968 11.6205C12.862 11.406 12.8155 11.0766 12.6519 10.9072C12.6027 10.8563 12.5535 10.8054 12.5044 10.7544C12.0176 10.2503 11.5308 9.74609 11.0329 9.25305C10.7886 9.0111 10.5191 9.01231 10.2549 9.23158C9.95821 9.47779 9.67043 9.73497 9.38314 9.99225C9.3232 10.0459 9.28064 10.0616 9.20781 10.0161C9.08178 9.93721 8.95394 9.86107 8.82612 9.78494C8.60537 9.65346 8.38467 9.52201 8.17344 9.37673Z"
              fill="#26AD4F"/>
    </symbol>

    <symbol id="call-outline" viewBox="0 0 20 20">
        <path d="M11.6029 12.4684L11.0469 13.0245C10.8984 13.1733 10.6771 13.2222 10.4797 13.1499C9.92681 12.9465 9.23507 12.4302 8.40454 11.5994C7.57476 10.7693 7.05783 10.0773 6.85527 9.52348C6.78279 9.32623 6.83139 9.10483 6.97981 8.9561L7.5365 8.39998C8.5621 7.37405 8.65588 5.75823 7.75182 4.68577L7.0991 3.90976C6.3541 3.02342 5.01189 2.93411 4.10033 3.70937C3.76131 4.00162 3.50645 4.37911 3.36208 4.80285C3.29968 4.98731 3.25939 5.17852 3.24204 5.37248C2.90818 7.85137 4.10333 10.4533 6.82676 13.1776C9.55018 15.902 12.1506 17.0967 14.6294 16.7628C15.2734 16.7013 15.8689 16.3938 16.292 15.9042C17.0677 14.9931 16.9777 13.6497 16.0924 12.9045L15.3166 12.2508C14.243 11.3479 12.6285 11.4425 11.6029 12.4684ZM9.47565 10.5281C9.87237 10.9249 10.2183 11.2259 10.498 11.4309C12.1061 9.82232 14.6083 9.67571 16.2925 11.0921L17.0677 11.7453C18.6046 13.039 18.7583 15.3443 17.4379 16.895C16.7599 17.6796 15.8055 18.1725 14.8316 18.2643C11.8157 18.6706 8.78281 17.2771 5.75565 14.2489C2.72841 11.2207 1.33468 8.18617 1.73335 5.23746C1.76138 4.92413 1.82647 4.61524 1.92834 4.31411C2.15971 3.63503 2.56815 3.03005 3.11914 2.55513C4.66208 1.24289 6.96562 1.39661 8.25817 2.93437L8.90983 3.70912C10.3277 5.39112 10.1825 7.89591 8.60688 9.47199C8.778 9.78515 9.07878 10.1311 9.47565 10.5281Z"
              fill="#1F2226"/>
    </symbol>

    <symbol id="location" viewBox="0 0 14 14">
        <path d="M13.467 0.931611L9.28839 13.4683C9.26689 13.5332 9.22595 13.5899 9.17113 13.6307C9.11631 13.6716 9.05026 13.6945 8.98192 13.6966C8.91359 13.6986 8.84629 13.6796 8.78913 13.6421C8.73198 13.6046 8.68773 13.5504 8.66239 13.4869L6.33373 7.66494L0.433732 4.71494C0.373652 4.68492 0.324043 4.63746 0.291403 4.57876C0.258762 4.52006 0.244615 4.45288 0.250812 4.386C0.257009 4.31913 0.283263 4.25568 0.326135 4.20399C0.369005 4.15229 0.426493 4.11474 0.491065 4.09628L13.0597 0.504944C13.1181 0.488309 13.1799 0.487937 13.2385 0.503868C13.2971 0.5198 13.3502 0.55143 13.3921 0.595344C13.4341 0.639259 13.4632 0.69379 13.4764 0.753051C13.4896 0.812313 13.4864 0.874054 13.467 0.931611Z"/>
    </symbol>

    <symbol id="arrow" viewBox="0 0 12 6">
        <path d="M6 4.18934L1.8413 0.21967C1.53446 -0.0732237 1.03697 -0.0732238 0.730131 0.219669C0.423291 0.512563 0.423291 0.987437 0.730131 1.28033L5.44442 5.78033C5.75126 6.07322 6.24874 6.07322 6.55558 5.78033L11.2699 1.28033C11.5767 0.987438 11.5767 0.512564 11.2699 0.219671C10.963 -0.0732225 10.4655 -0.0732226 10.1587 0.219671L6 4.18934Z"/>
    </symbol>

    <symbol id="arrow-left" viewBox="0 0 12 16">
        <path d="M4.77282 7.99998L8.13642 4.63637C8.48789 4.2849 8.48789 3.71505 8.13642 3.36358C7.78495 3.01211 7.2151 3.01211 6.86363 3.36358L2.86363 7.36358C2.51216 7.71505 2.51216 8.2849 2.86363 8.63637L6.86363 12.6364C7.2151 12.9878 7.78495 12.9878 8.13642 12.6364C8.48789 12.2849 8.48789 11.7151 8.13642 11.3636L4.77282 7.99998Z"/>
    </symbol>

    <symbol id="opening-hours" viewBox="0 0 17 18">
        <path d="M8.71401 0.428711C11.0358 0.428711 13.202 1.35912 14.7856 2.94925L14.7854 1.85728L14.7902 1.77398C14.8315 1.41874 15.1334 1.143 15.4997 1.143C15.8942 1.143 16.214 1.46279 16.214 1.85728V4.71442L16.2092 4.79772C16.1679 5.15297 15.866 5.42871 15.4997 5.42871H12.6426L12.5593 5.4239C12.204 5.38264 11.9283 5.08074 11.9283 4.71442C11.9283 4.31994 12.2481 4.00014 12.6426 4.00014L13.8159 4.0004C12.4924 2.64873 10.6701 1.85728 8.71401 1.85728C4.76911 1.85728 1.57115 5.05525 1.57115 9.00014C1.57115 12.945 4.76911 16.143 8.71401 16.143C10.6352 16.143 12.4342 15.3819 13.7656 14.0501C14.0445 13.7711 14.4968 13.771 14.7757 14.0499C15.0547 14.3288 15.0548 14.7811 14.7759 15.0601C13.1792 16.6573 11.0181 17.5716 8.71401 17.5716C3.98014 17.5716 0.142578 13.734 0.142578 9.00014C0.142578 4.26627 3.98014 0.428711 8.71401 0.428711ZM8.35686 4.71442C8.75135 4.71442 9.07115 5.03422 9.07115 5.42871V8.70427L11.0048 10.6379C11.2837 10.9169 11.2837 11.3691 11.0048 11.6481C10.7259 11.927 10.2736 11.927 9.99464 11.6481L7.85179 9.50521C7.71783 9.37126 7.64258 9.18958 7.64258 9.00014V5.42871C7.64258 5.03422 7.96237 4.71442 8.35686 4.71442Z"/>
    </symbol>

    <symbol id="hart" viewBox="0 0 20 19">
        <path d="M14.5 0C17.538 0 20 2.5 20 6C20 13 12.5 17 10 18.5C7.5 17 0 13 0 6C0 2.5 2.5 0 5.5 0C7.36 0 9 1 10 2C11 1 12.64 0 14.5 0Z"/>
    </symbol>

    <symbol id="cart" viewBox="0 0 24 24">
        <path fill-rule="evenodd" clip-rule="evenodd"
              d="M4.5 6.88889H22L19.7802 14.9047C19.4368 16.145 18.3381 17 17.088 17H7.70612C6.27938 17 5.0808 15.8932 4.92325 14.4301L3.8 4H1"/>
        <path d="M4.5 6.88889H22L19.7802 14.9047C19.4368 16.145 18.3381 17 17.088 17H7.70612C6.27938 17 5.0808 15.8932 4.92325 14.4301L3.8 4H1"
              stroke="#979797" stroke-width="2" stroke-linecap="round" stroke-linejoin="round"/>
        <path d="M8 24C9.10457 24 10 23.1046 10 22C10 20.8954 9.10457 20 8 20C6.89543 20 6 20.8954 6 22C6 23.1046 6.89543 24 8 24Z"/>
        <path d="M17 24C18.1046 24 19 23.1046 19 22C19 20.8954 18.1046 20 17 20C15.8954 20 15 20.8954 15 22C15 23.1046 15.8954 24 17 24Z"/>
    </symbol>

    <symbol id="cart-outline" viewBox="0 0 20 20">
        <path d="M3.75004 5.74074H18.3334L16.4836 12.4206C16.1974 13.4541 15.2818 14.1667 14.24 14.1667H6.42181C5.23286 14.1667 4.23404 13.2443 4.10275 12.0251L3.16671 3.33334H0.833374"
              stroke="#1F2226" stroke-width="1.5" stroke-linecap="round" stroke-linejoin="round"/>
        <path d="M6.66667 20C7.58714 20 8.33333 19.2538 8.33333 18.3333C8.33333 17.4129 7.58714 16.6667 6.66667 16.6667C5.74619 16.6667 5 17.4129 5 18.3333C5 19.2538 5.74619 20 6.66667 20Z"
              fill="#1F2226"/>
        <path d="M14.1667 20C15.0871 20 15.8333 19.2538 15.8333 18.3333C15.8333 17.4129 15.0871 16.6667 14.1667 16.6667C13.2462 16.6667 12.5 17.4129 12.5 18.3333C12.5 19.2538 13.2462 20 14.1667 20Z"
              fill="#1F2226"/>
    </symbol>

    <symbol id="profile" viewBox="0 0 28 24">
        <path fill-rule="evenodd" clip-rule="evenodd"
              d="M19.5101 5.99953C19.5101 8.77473 17.059 11 13.9999 11C10.9418 11 8.4897 8.77473 8.4897 5.99953C8.4897 3.22432 10.9418 1 13.9999 1C17.059 1 19.5101 3.22432 19.5101 5.99953ZM13.9999 23C8.0246 23 2.97949 21.9672 2.97949 17.9824C2.97949 13.9962 8.05629 13 13.9999 13C19.9766 13 25.0203 14.0328 25.0203 18.0176C25.0203 22.0038 19.9435 23 13.9999 23Z"/>
    </symbol>

    <symbol id="tile" viewBox="0 0 20 20">
        <path d="M2.15417 2.15417C1.66602 2.64233 1.66602 3.428 1.66602 4.99935V5.83268C1.66602 7.40403 1.66602 8.1897 2.15417 8.67786C2.64233 9.16602 3.428 9.16602 4.99935 9.16602H5.83268C7.40403 9.16602 8.18971 9.16602 8.67786 8.67786C9.16602 8.1897 9.16602 7.40403 9.16602 5.83268V4.99935C9.16602 3.428 9.16602 2.64233 8.67786 2.15417C8.18971 1.66602 7.40403 1.66602 5.83268 1.66602H4.99935C3.428 1.66602 2.64233 1.66602 2.15417 2.15417Z"
        />
        <path d="M2.15417 11.3208C1.66602 11.809 1.66602 12.5947 1.66602 14.166V14.9993C1.66602 16.5707 1.66602 17.3564 2.15417 17.8445C2.64233 18.3327 3.428 18.3327 4.99935 18.3327H5.83268C7.40403 18.3327 8.18971 18.3327 8.67786 17.8445C9.16602 17.3564 9.16602 16.5707 9.16602 14.9993V14.166C9.16602 12.5947 9.16602 11.809 8.67786 11.3208C8.18971 10.8327 7.40403 10.8327 5.83268 10.8327H4.99935C3.428 10.8327 2.64233 10.8327 2.15417 11.3208Z"
        />
        <path d="M10.8327 4.99935C10.8327 3.428 10.8327 2.64233 11.3208 2.15417C11.809 1.66602 12.5947 1.66602 14.166 1.66602H14.9994C16.5707 1.66602 17.3564 1.66602 17.8445 2.15417C18.3327 2.64233 18.3327 3.428 18.3327 4.99935V5.83268C18.3327 7.40403 18.3327 8.1897 17.8445 8.67786C17.3564 9.16602 16.5707 9.16602 14.9994 9.16602H14.166C12.5947 9.16602 11.809 9.16602 11.3208 8.67786C10.8327 8.1897 10.8327 7.40403 10.8327 5.83268V4.99935Z"
        />
        <path d="M11.3208 11.3208C10.8327 11.809 10.8327 12.5947 10.8327 14.166V14.9993C10.8327 16.5707 10.8327 17.3564 11.3208 17.8445C11.809 18.3327 12.5947 18.3327 14.166 18.3327H14.9994C16.5707 18.3327 17.3564 18.3327 17.8445 17.8445C18.3327 17.3564 18.3327 16.5707 18.3327 14.9993V14.166C18.3327 12.5947 18.3327 11.809 17.8445 11.3208C17.3564 10.8327 16.5707 10.8327 14.9994 10.8327H14.166C12.5947 10.8327 11.809 10.8327 11.3208 11.3208Z"
        />
    </symbol>

    <symbol id="fire" viewBox="0 0 16 16">
        <path d="M7.31131 0.0219033C7.79291 0.130759 8.0955 0.611253 7.9871 1.09533C7.93709 1.31834 7.86872 1.50393 7.76887 1.65884C6.36451 3.83754 6.59038 5.27472 7.5273 5.41396C8.44329 5.55008 8.95529 4.96168 8.80773 3.59182C8.77308 3.27025 8.74411 2.99915 8.72081 2.77849C8.69943 2.57605 8.74871 2.37244 8.86021 2.20247C9.12591 1.79743 9.66811 1.68549 10.0712 1.95241C10.5557 2.27317 11.0984 2.81921 11.7184 3.59615C13.4795 5.80301 14.0239 7.73245 13.9992 9.70818C13.9533 13.389 11.2218 16 7.49962 16C3.76174 16 1 13.3734 1 9.69616C1.01901 6.44407 2.78138 2.91079 6.07736 0.547812C6.20501 0.456296 6.37368 0.332449 6.58276 0.176683C6.79164 0.0210661 7.05761 -0.0354402 7.31131 0.0219033Z"
              fill="#F95D77"/>
        <path d="M7.31131 0.0219033C7.79291 0.130759 8.0955 0.611253 7.9871 1.09533C7.93709 1.31834 7.86872 1.50393 7.76887 1.65884C6.36451 3.83754 6.59038 5.27472 7.5273 5.41396C8.44329 5.55008 8.95529 4.96168 8.80773 3.59182C8.77308 3.27025 8.74411 2.99915 8.72081 2.77849C8.69943 2.57605 8.74871 2.37244 8.86021 2.20247C9.12591 1.79743 9.66811 1.68549 10.0712 1.95241C10.5557 2.27317 11.0984 2.81921 11.7184 3.59615C13.4795 5.80301 14.0239 7.73245 13.9992 9.70818C13.9533 13.389 11.2218 16 7.49962 16C3.76174 16 1 13.3734 1 9.69616C1.01901 6.44407 2.78138 2.91079 6.07736 0.547812C6.20501 0.456296 6.37368 0.332449 6.58276 0.176683C6.79164 0.0210661 7.05761 -0.0354402 7.31131 0.0219033ZM5.96008 2.30003C3.5741 4.37346 2.31486 7.1583 2.3 9.7C2.3 12.6356 4.46425 14.6939 7.49962 14.6939C10.5207 14.6939 12.6624 12.6467 12.6993 9.69181C12.7204 7.99782 12.2587 6.36122 10.7041 4.41318C10.4974 4.15417 10.3033 3.92728 10.1229 3.73282C10.2288 5.73647 9.07416 6.96417 7.33708 6.70602C5.57777 6.44457 5.00858 4.58231 5.96008 2.30003Z"/>
    </symbol>

    <symbol id="user-hart" viewBox="0 0 18 18">
        <path d="M11.0019 8.35937C10.7342 8.2254 10.461 8.10998 10.183 8.0133C11.0833 7.30197 11.6667 6.16928 11.6667 4.89583C11.6667 2.74768 10.0066 1 7.96598 1C5.92541 1 4.2653 2.74768 4.2653 4.89583C4.2653 6.17069 4.85001 7.30449 5.75191 8.01568C4.92557 8.30208 4.1502 8.74772 3.47156 9.33536C2.22715 10.4129 1.36192 11.916 1.03531 13.5676C0.932942 14.0851 1.05558 14.6167 1.37172 15.0259C1.6863 15.4331 2.15278 15.6667 2.6515 15.6667H9.35374C9.65431 15.6667 9.89796 15.4102 9.89796 15.0937C9.89796 14.7773 9.65431 14.5208 9.35374 14.5208H2.6515C2.41917 14.5208 2.27901 14.3843 2.21615 14.303C2.10761 14.1624 2.0656 13.9795 2.10089 13.8011C2.66565 10.9453 5.05847 8.8591 7.82171 8.78874C7.86958 8.79069 7.91766 8.79167 7.96598 8.79167C8.01477 8.79167 8.06334 8.79066 8.11167 8.78869C8.95847 8.8096 9.7729 9.01304 10.5346 9.39426C10.8061 9.53004 11.1307 9.40855 11.2598 9.12276C11.3888 8.83698 11.2734 8.49521 11.0019 8.35937ZM8.09872 7.64231C8.05455 7.64148 8.01031 7.64105 7.96598 7.64105C7.92207 7.64105 7.87815 7.64151 7.83428 7.64237C6.45483 7.56992 5.35374 6.36571 5.35374 4.89583C5.35374 3.37947 6.52557 2.14583 7.96598 2.14583C9.40639 2.14583 10.5782 3.37947 10.5782 4.89583C10.5782 6.36534 9.47769 7.56932 8.09872 7.64231Z"
              fill="#1F2226" stroke="#1F2226" stroke-width="0.2"/>
        <path d="M14.3703 11.566C14.7463 11.214 15.1802 11.0228 15.6639 11.0015L15.7552 10.9995C16.8076 10.9995 17.6667 11.8529 17.6667 12.9053C17.6667 13.8915 17.3216 14.3808 15.809 15.5923L15.4979 15.8389L14.7099 16.4531C14.4885 16.6256 14.1782 16.6256 13.9568 16.4531L13.0608 15.7539C11.3758 14.4225 11 13.9344 11 12.9053C11 11.8529 11.8591 10.9995 12.9115 10.9995C13.4249 10.9995 13.8875 11.1915 14.2908 11.5645L14.3313 11.6038L14.3703 11.566Z"
              stroke="#1F2226" stroke-width="1.3" fill="none"/>
    </symbol>

    <symbol id="organizer" viewBox="0 0 16 16">
        <path d="M12.0625 7.1875C12.4077 7.1875 12.6875 6.90768 12.6875 6.5625C12.6875 6.21732 12.4077 5.9375 12.0625 5.9375C11.7173 5.9375 11.4375 6.21732 11.4375 6.5625C11.4375 6.90768 11.7173 7.1875 12.0625 7.1875Z"/>
        <path d="M13.5 1.25H12.6875V0.625C12.6875 0.279813 12.4077 0 12.0625 0C11.7173 0 11.4375 0.279813 11.4375 0.625V1.25H8.59375V0.625C8.59375 0.279813 8.31394 0 7.96875 0C7.62356 0 7.34375 0.279813 7.34375 0.625V1.25H4.53125V0.625C4.53125 0.279813 4.25144 0 3.90625 0C3.56106 0 3.28125 0.279813 3.28125 0.625V1.25H2.5C1.1215 1.25 0 2.3715 0 3.75V13.5C0 14.8785 1.1215 16 2.5 16H7.28125C7.62644 16 7.90625 15.7202 7.90625 15.375C7.90625 15.0298 7.62644 14.75 7.28125 14.75H2.5C1.81075 14.75 1.25 14.1892 1.25 13.5V3.75C1.25 3.06075 1.81075 2.5 2.5 2.5H3.28125V3.125C3.28125 3.47019 3.56106 3.75 3.90625 3.75C4.25144 3.75 4.53125 3.47019 4.53125 3.125V2.5H7.34375V3.125C7.34375 3.47019 7.62356 3.75 7.96875 3.75C8.31394 3.75 8.59375 3.47019 8.59375 3.125V2.5H11.4375V3.125C11.4375 3.47019 11.7173 3.75 12.0625 3.75C12.4077 3.75 12.6875 3.47019 12.6875 3.125V2.5H13.5C14.1892 2.5 14.75 3.06075 14.75 3.75V7.3125C14.75 7.65769 15.0298 7.9375 15.375 7.9375C15.7202 7.9375 16 7.65769 16 7.3125V3.75C16 2.3715 14.8785 1.25 13.5 1.25Z"/>
        <path d="M12.2188 8.4375C10.1337 8.4375 8.4375 10.1337 8.4375 12.2188C8.4375 14.3038 10.1337 16 12.2188 16C14.3038 16 16 14.3038 16 12.2188C16 10.1337 14.3038 8.4375 12.2188 8.4375ZM12.2188 14.75C10.823 14.75 9.6875 13.6145 9.6875 12.2188C9.6875 10.823 10.823 9.6875 12.2188 9.6875C13.6145 9.6875 14.75 10.823 14.75 12.2188C14.75 13.6145 13.6145 14.75 12.2188 14.75Z"/>
        <path d="M13.125 11.5938H12.8438V10.9375C12.8438 10.5923 12.5639 10.3125 12.2188 10.3125C11.8736 10.3125 11.5938 10.5923 11.5938 10.9375V12.2188C11.5938 12.5639 11.8736 12.8438 12.2188 12.8438H13.125C13.4702 12.8438 13.75 12.5639 13.75 12.2188C13.75 11.8736 13.4702 11.5938 13.125 11.5938Z"/>
        <path d="M9.34375 7.1875C9.68893 7.1875 9.96875 6.90768 9.96875 6.5625C9.96875 6.21732 9.68893 5.9375 9.34375 5.9375C8.99857 5.9375 8.71875 6.21732 8.71875 6.5625C8.71875 6.90768 8.99857 7.1875 9.34375 7.1875Z"/>
        <path d="M6.625 9.90625C6.97018 9.90625 7.25 9.62643 7.25 9.28125C7.25 8.93607 6.97018 8.65625 6.625 8.65625C6.27982 8.65625 6 8.93607 6 9.28125C6 9.62643 6.27982 9.90625 6.625 9.90625Z"/>
        <path d="M3.90625 7.1875C4.25143 7.1875 4.53125 6.90768 4.53125 6.5625C4.53125 6.21732 4.25143 5.9375 3.90625 5.9375C3.56107 5.9375 3.28125 6.21732 3.28125 6.5625C3.28125 6.90768 3.56107 7.1875 3.90625 7.1875Z"/>
        <path d="M3.90625 9.90625C4.25143 9.90625 4.53125 9.62643 4.53125 9.28125C4.53125 8.93607 4.25143 8.65625 3.90625 8.65625C3.56107 8.65625 3.28125 8.93607 3.28125 9.28125C3.28125 9.62643 3.56107 9.90625 3.90625 9.90625Z"/>
        <path d="M3.90625 12.625C4.25143 12.625 4.53125 12.3452 4.53125 12C4.53125 11.6548 4.25143 11.375 3.90625 11.375C3.56107 11.375 3.28125 11.6548 3.28125 12C3.28125 12.3452 3.56107 12.625 3.90625 12.625Z"/>
        <path d="M6.625 12.625C6.97018 12.625 7.25 12.3452 7.25 12C7.25 11.6548 6.97018 11.375 6.625 11.375C6.27982 11.375 6 11.6548 6 12C6 12.3452 6.27982 12.625 6.625 12.625Z"/>
        <path d="M6.625 7.1875C6.97018 7.1875 7.25 6.90768 7.25 6.5625C7.25 6.21732 6.97018 5.9375 6.625 5.9375C6.27982 5.9375 6 6.21732 6 6.5625C6 6.90768 6.27982 7.1875 6.625 7.1875Z"/>
    </symbol>

    <symbol id="rose" viewBox="0 0 11 16">
        <path d="M0 15.5313C0 15.7902 0.209875 16 0.46875 16H1.40625C2.73022 16 3.91347 15.3868 4.6875 14.4297V15.5313C4.6875 15.7902 4.89737 16 5.15625 16C5.41513 16 5.625 15.7902 5.625 15.5313V14.4297C6.39903 15.3868 7.58228 16 8.90625 16H9.84375C10.1026 16 10.3125 15.7902 10.3125 15.5313C10.3125 13.9058 9.38834 12.4923 8.03797 11.7881C9.38784 11.105 10.3116 9.73459 10.3116 8.15869C10.3116 8.12203 10.3115 8.66978 10.3125 2.8125C10.3125 1.26169 9.05081 0 7.5 0C7.14422 0 6.79994 0.0651563 6.47372 0.193406C6.06362 0.0670312 5.61669 3.125e-05 5.15625 3.125e-05C4.69581 3.125e-05 4.24884 0.0670312 3.83878 0.193438C3.51256 0.0651875 3.16828 3.125e-05 2.8125 3.125e-05C1.26169 3.125e-05 0 1.26172 0 2.81253V8.095C0 9.70256 0.911875 11.1028 2.26263 11.7944C0.91875 12.5007 0 13.9106 0 15.5313ZM9.34163 15.0625H8.90625C7.25609 15.0625 5.88653 13.8381 5.65837 12.25H6.09375C7.74391 12.25 9.11347 13.4745 9.34163 15.0625ZM9.375 8.15872C9.37409 9.89763 7.90203 11.3123 6.09244 11.3123C4.03547 11.3123 2.81159 10.6263 2.81159 8.50003C2.81159 7.21856 3.8225 6.85394 5.94662 6.56159C7.19403 6.38997 8.48778 5.91703 9.375 5.00253V8.15872ZM5.258 5.70525C4.70709 5.58278 3.7245 5.49119 2.8125 5.09881V3.99344C3.47703 4.47344 4.33619 4.68753 5.15625 4.68753C5.97628 4.68753 6.83534 4.4735 7.5 3.99344V5.15628C7.5 5.16006 7.50047 5.16372 7.50056 5.16747C6.62769 5.56025 5.85344 5.62175 5.27944 5.71119C5.27228 5.70922 5.26531 5.70688 5.258 5.70525V5.70525ZM9.375 2.81172L9.37422 3.26534C9.17231 3.82759 8.83606 4.25963 8.4375 4.59169V2.34378C8.4375 1.83644 8.22231 1.36041 7.82269 0.965906C8.70325 1.11934 9.375 1.88866 9.375 2.81172V2.81172ZM7.5 2.34378C7.5 2.79591 7.12238 3.20638 6.55003 3.46559C6.55797 3.40522 6.5625 3.34378 6.5625 3.28128C6.5625 2.50587 5.93166 1.87503 5.15625 1.87503C4.89737 1.87503 4.6875 2.08491 4.6875 2.34378C4.6875 2.60266 4.89737 2.81253 5.15625 2.81253C5.41472 2.81253 5.625 3.02281 5.625 3.28128C5.625 3.53975 5.41472 3.75003 5.15625 3.75003C3.88581 3.75003 2.8125 3.10606 2.8125 2.34378C2.8125 1.5815 3.88581 0.937531 5.15625 0.937531C6.42669 0.937531 7.5 1.5815 7.5 2.34378ZM2.48981 0.965906C2.09019 1.36041 1.875 1.83644 1.875 2.34378V4.53928C1.47784 4.21256 1.14434 3.78062 0.9375 3.20203V2.81253C0.9375 1.88872 1.60925 1.11938 2.48981 0.965906ZM0.9375 8.095V4.94944C1.57775 5.61113 2.39906 6.00459 3.28966 6.25491C3.26556 6.26669 3.24112 6.27806 3.21744 6.29034C2.32603 6.752 1.87406 7.49544 1.87406 8.50003C1.87406 9.59809 2.17162 10.3639 2.57509 10.8981C1.58391 10.339 0.9375 9.28434 0.9375 8.095V8.095ZM4.21875 12.25H4.65413C4.426 13.8381 3.05644 15.0625 1.40625 15.0625H0.970875C1.19903 13.4745 2.56859 12.25 4.21875 12.25Z"/>
    </symbol>

    <symbol id="percent" viewBox="0 0 16 16">
        <path d="M14.8074 1.19268C14.5508 0.935774 14.1345 0.935774 13.8779 1.19268L1.1926 13.878C0.935801 14.1346 0.935801 14.5506 1.1926 14.8073C1.32094 14.9358 1.48922 15 1.65739 15C1.82556 15 1.99384 14.9358 2.12208 14.8073L14.8074 2.12204C15.0642 1.86536 15.0642 1.44936 14.8074 1.19268Z"
              stroke-width="0.4"/>
        <path d="M4 1C2.34588 1 1 2.34596 1 4.00005C1 5.65414 2.34588 7 4 7C5.65423 7 7 5.65404 7 3.99995C7 2.34586 5.65412 1 4 1ZM4 5.73678C3.04226 5.73678 2.26314 4.95756 2.26314 3.99995C2.26314 3.04233 3.04237 2.26312 4 2.26312C4.95774 2.26312 5.73686 3.04233 5.73686 3.99995C5.73686 4.95756 4.95774 5.73678 4 5.73678Z"
              stroke-width="0.4"/>
        <path d="M12 9C10.3459 9 9 10.3459 9 12C9 13.6541 10.3459 15 12 15C13.6541 15 15 13.6542 15 12C15 10.3458 13.6541 9 12 9ZM12 13.7368C11.0423 13.7368 10.2631 12.9575 10.2631 11.9999C10.2631 11.0423 11.0424 10.263 12 10.263C12.9576 10.263 13.7369 11.0423 13.7369 11.9999C13.7369 12.9575 12.9577 13.7368 12 13.7368Z"
              stroke-width="0.4"/>
    </symbol>

    <symbol id="search" viewBox="0 0 18 18">
        <path d="M13.3374 12.2933L16.5 15.4552L15.4552 16.5L12.2933 13.3374C11.1168 14.2805 9.65349 14.7935 8.14566 14.7913C4.47726 14.7913 1.5 11.8141 1.5 8.14566C1.5 4.47726 4.47726 1.5 8.14566 1.5C11.8141 1.5 14.7913 4.47726 14.7913 8.14566C14.7935 9.65349 14.2805 11.1168 13.3374 12.2933ZM11.8562 11.7454C12.7933 10.7817 13.3166 9.48988 13.3145 8.14566C13.3145 5.2895 11.0011 2.97681 8.14566 2.97681C5.2895 2.97681 2.97681 5.2895 2.97681 8.14566C2.97681 11.0011 5.2895 13.3145 8.14566 13.3145C9.48988 13.3166 10.7817 12.7933 11.7454 11.8562L11.8562 11.7454V11.7454Z"
        />
    </symbol>

    <symbol id="close" viewBox="0 0 22 22">
        <polygon
                points="21.414 1.414 20 -1.20792265e-13 10.707 9.293 1.414 -1.20792265e-13 -1.20792265e-13 1.414 9.293 10.707 -1.20792265e-13 20 1.414 21.414 10.707 12.121 20 21.414 21.414 20 12.121 10.707"></polygon>

    </symbol>

    <symbol id="visa" viewBox="0 0 1000 324.68351">
        <path d="m 651.18503,0.50000002 c -70.93272,0 -134.32163,36.76584998 -134.32163,104.69357998 0,77.90028 112.42264,83.28082 112.42264,122.41576 0,16.47806 -18.88384,31.22851 -51.13668,31.22851 -45.77308,0 -79.98403,-20.61081 -79.98403,-20.61081 l -14.63836,68.54658 c 0,0 39.41037,17.40989 91.73375,17.40989 77.55217,0 138.57651,-38.57104 138.57651,-107.66029 0,-82.3157 -112.89106,-87.53633 -112.89106,-123.86008 0,-12.9082 15.50201,-27.05169 47.66251,-27.05169 36.28682,0 65.89216,14.98968 65.89216,14.98968 l 14.32608,-66.20444 c 0,0 -32.21317,-13.89668998 -77.64189,-13.89668998 z M 2.2175605,5.49657 0.49999253,15.48969 c 0,0 29.84159547,5.46149 56.71878047,16.35593 34.606624,12.4927 37.071853,19.7653 42.900167,42.35367 l 63.51098,244.83152 85.13673,0 131.15974,-313.53424 -84.94155,0 L 210.7069,218.67018 176.3165,37.97422 C 173.1626,17.29371 157.18709,5.49657 137.63219,5.49657 l -135.4146295,0 z m 411.8650095,0 -66.63383,313.53424 80.99895,0 66.39962,-313.53424 -80.76474,0 z m 451.75943,0 c -19.53181,0 -29.88045,10.45695 -37.47421,28.73022 l -118.66834,284.80402 84.94155,0 16.434,-47.46734 103.48348,0 9.99312,47.46734 74.94843,0 -65.3847,-313.53424 -68.27333,0 z m 11.04709,84.70733 25.17799,117.65341 -67.45359,0 42.2756,-117.65341 z"
              fill="#00248D"/>
    </symbol>

    <symbol id="mastercard" viewBox="0 0 49 28">
        <path fill-rule="evenodd" clip-rule="evenodd"
              d="M24.5279 24.3139C22.0086 26.3704 18.7406 27.6119 15.1696 27.6119C7.20155 27.6119 0.742188 21.4308 0.742188 13.806C0.742188 6.18114 7.20155 0 15.1696 0C18.7406 0 22.0086 1.2415 24.5279 3.29806C27.0472 1.2415 30.3152 0 33.8862 0C41.8542 0 48.3136 6.18114 48.3136 13.806C48.3136 21.4308 41.8542 27.6119 33.8862 27.6119C30.3152 27.6119 27.0472 26.3704 24.5279 24.3139Z"
              fill="#ED0006"/>
        <path fill-rule="evenodd" clip-rule="evenodd"
              d="M24.528 24.3138C27.63 21.7815 29.597 18.0136 29.597 13.806C29.597 9.59837 27.63 5.8304 24.528 3.29813C27.0473 1.24153 30.3153 0 33.8864 0C41.8544 0 48.3138 6.18114 48.3138 13.806C48.3138 21.4308 41.8544 27.6119 33.8864 27.6119C30.3153 27.6119 27.0473 26.3704 24.528 24.3138Z"
              fill="#F9A000"/>
        <path fill-rule="evenodd" clip-rule="evenodd"
              d="M24.5279 24.3138C21.4259 21.7816 19.4589 18.0136 19.4589 13.806C19.4589 9.59838 21.4259 5.83039 24.5279 3.29813C27.63 5.83039 29.597 9.59838 29.597 13.806C29.597 18.0136 27.63 21.7816 24.5279 24.3138Z"
              fill="#FF5E00"/>
    </symbol>

    <symbol id="paypal" viewBox="0 0 24 26">
        <path d="M7.21275 24.5377L7.66632 21.8127L6.65608 21.7905H1.83203L5.18453 1.68224C5.19476 1.62153 5.22871 1.56493 5.27814 1.52474C5.32756 1.48455 5.39097 1.4624 5.45687 1.4624H13.591C16.2915 1.4624 18.1549 1.99396 19.128 3.04313C19.584 3.53533 19.8746 4.04965 20.0151 4.61567C20.1624 5.20959 20.1652 5.91915 20.0211 6.78458L20.0107 6.84775V7.40226L20.467 7.64673C20.8511 7.83949 21.1562 8.06015 21.3903 8.31282C21.7808 8.73363 22.0331 9.26848 22.1397 9.90257C22.2498 10.5547 22.2134 11.3307 22.0331 12.2093C21.8249 13.2199 21.4884 14.1001 21.0341 14.8203C20.616 15.484 20.0835 16.0343 19.4515 16.461C18.8479 16.8662 18.1307 17.1739 17.3199 17.3708C16.5341 17.5642 15.6384 17.662 14.6559 17.662H14.0228C13.5703 17.662 13.1304 17.8162 12.7854 18.0927C12.4394 18.3748 12.2103 18.7602 12.1401 19.182L12.0925 19.4273L11.2912 24.23L11.2547 24.4064C11.2452 24.4624 11.2288 24.4902 11.2045 24.5091C11.1828 24.5261 11.1516 24.5377 11.1212 24.5377H7.21275Z"
              fill="#253B80"/>
        <path d="M20.8978 6.91284C20.8736 7.05967 20.8459 7.20978 20.8147 7.364C19.7418 12.5738 16.072 14.3736 11.3848 14.3736H8.99832C8.42518 14.3736 7.94215 14.7673 7.85278 15.3021L6.63086 22.6325L6.28487 24.7103C6.22671 25.0614 6.51303 25.3781 6.88747 25.3781H11.1204C11.6217 25.3781 12.0473 25.0335 12.1262 24.566L12.1678 24.3624L12.9649 19.5784L13.0161 19.316C13.094 18.8468 13.5206 18.5023 14.0218 18.5023H14.6549C18.7558 18.5023 21.9662 16.9273 22.9046 12.3695C23.2965 10.4656 23.0935 8.87585 22.0563 7.75775C21.7426 7.4206 21.3531 7.14088 20.8978 6.91284Z"
              fill="#179BD7"/>
        <path d="M19.7726 6.48824C19.6088 6.44311 19.4396 6.40209 19.2661 6.36519C19.0918 6.32911 18.9131 6.29711 18.7294 6.26922C18.0858 6.17078 17.3809 6.12402 16.6255 6.12402H10.25C10.093 6.12402 9.94398 6.15765 9.81043 6.21836C9.51637 6.35206 9.29795 6.6154 9.24503 6.93777L7.88855 15.0638L7.84961 15.3008C7.93898 14.766 8.42201 14.3722 8.99515 14.3722H11.3816C16.0688 14.3722 19.7389 12.5717 20.8115 7.36269C20.8435 7.20847 20.8704 7.05836 20.8946 6.91153C20.6233 6.77535 20.3292 6.65887 20.0127 6.5596C19.9348 6.53499 19.8542 6.51121 19.7726 6.48824Z"
              fill="#222D65"/>
        <path d="M9.24912 6.93837C9.30204 6.61598 9.52072 6.35267 9.81453 6.21977C9.94908 6.15906 10.0974 6.12544 10.2541 6.12544H16.6299C17.3852 6.12544 18.0902 6.17219 18.7335 6.27063C18.9174 6.29852 19.0962 6.33052 19.2704 6.3666C19.4439 6.40353 19.6129 6.44455 19.7769 6.48965C19.8583 6.51262 19.9389 6.5364 20.0178 6.56021C20.3343 6.65945 20.6284 6.77676 20.8997 6.91212C21.219 4.98684 20.8972 3.67599 19.7969 2.48899C18.5837 1.18225 16.394 0.622803 13.5921 0.622803H5.45778C4.88539 0.622803 4.39736 1.01653 4.30875 1.5522L0.920803 21.8672C0.853903 22.2691 1.18166 22.6318 1.61002 22.6318H6.63203L7.8929 15.0644L9.24912 6.93837Z"
              fill="#253B80"/>
    </symbol>

    <symbol id="googlepay" viewBox="0 0 54 21">
        <path fill-rule="evenodd" clip-rule="evenodd"
              d="M24.9502 16.5159V10.474H28.2468C29.5976 10.474 30.7378 10.0459 31.6672 9.20142L31.8903 8.98733C33.5882 7.23898 33.4766 4.51537 31.6672 2.89785C30.7626 2.04152 29.5233 1.57767 28.2468 1.60146H22.955V16.5159H24.9502ZM24.951 8.64295V3.43298H28.2977C29.0166 3.43298 29.6983 3.69467 30.2065 4.17047C31.2849 5.16964 31.3097 6.83492 30.2685 7.86978C29.7603 8.38126 29.0414 8.66674 28.2977 8.64295H24.951ZM41.1971 7.10816C40.342 6.35886 39.177 5.97827 37.7023 5.97827C35.8061 5.97827 34.381 6.64431 33.4391 7.96449L35.1989 9.02301C35.8433 8.11911 36.7232 7.66715 37.8386 7.66715C38.545 7.66715 39.2266 7.91692 39.7595 8.36887C40.28 8.79704 40.5775 9.4155 40.5775 10.0696V10.5097C39.8091 10.1053 38.8424 9.89124 37.6527 9.89124C36.2647 9.89124 35.1493 10.2005 34.319 10.8308C33.4887 11.4612 33.0673 12.2937 33.0673 13.3523C33.0425 14.3156 33.4763 15.2314 34.2446 15.8499C35.0254 16.5159 36.0168 16.849 37.1818 16.849C38.5574 16.849 39.648 16.2662 40.4783 15.1006H40.5651V16.5159H42.4736V10.2243C42.4736 8.90408 42.0522 7.85745 41.1971 7.10816ZM35.7817 14.6371C35.3727 14.3516 35.1248 13.8877 35.1248 13.3882C35.1248 12.8291 35.3975 12.3652 35.9304 11.9965C36.4758 11.6277 37.1576 11.4374 37.9632 11.4374C39.0788 11.4255 39.9464 11.6634 40.5662 12.1392C40.5662 12.948 40.2315 13.6498 39.5746 14.2446C38.9796 14.8155 38.1739 15.1367 37.3311 15.1367C36.7733 15.1486 36.2279 14.9702 35.7817 14.6371ZM46.762 20.9998L53.4294 6.31131H51.2607L48.1748 13.6377H48.1376L44.9774 6.31131H42.8086L47.1834 15.8618L44.7048 20.9998H46.762Z"
              fill="#3C4043"/>
        <path d="M18.0619 9.16585C18.0619 8.583 18.0123 8.00015 17.9131 7.4292H9.49829V10.7241H14.3192C14.1209 11.7827 13.4764 12.7343 12.5346 13.3291V15.4701H15.4098C17.0952 13.9833 18.0619 11.7827 18.0619 9.16585Z"
              fill="#4285F4"/>
        <path d="M9.498 17.5395C11.9022 17.5395 13.9347 16.7783 15.4095 15.4698L12.5343 13.3287C11.7287 13.8521 10.7001 14.1495 9.498 14.1495C7.16812 14.1495 5.19763 12.6388 4.49123 10.6167H1.5293V12.8291C3.04124 15.7196 6.1271 17.5395 9.498 17.5395Z"
              fill="#34A853"/>
        <path d="M4.49218 10.6173C4.12033 9.55869 4.12033 8.40489 4.49218 7.33434V5.13379H1.52978C0.253095 7.54845 0.253095 10.4032 1.52978 12.8179L4.49218 10.6173Z"
              fill="#FBBC04"/>
        <path d="M9.498 3.80218C10.7745 3.77839 12.0014 4.2423 12.9185 5.08683L15.4714 2.63648C13.8479 1.18531 11.7163 0.388349 9.498 0.412139C6.1271 0.412139 3.04124 2.24395 1.5293 5.13441L4.49123 7.34686C5.19763 5.31284 7.16812 3.80218 9.498 3.80218Z"
              fill="#EA4335"/>
    </symbol>

    <symbol id="applepay" viewBox="0 0 54 21">
        <path fill-rule="evenodd" clip-rule="evenodd"
              d="M7.6465 3.86636C8.6403 3.94567 9.6341 3.3905 10.2552 2.68663C10.866 1.96292 11.2697 0.991375 11.1662 0C10.2863 0.039655 9.19931 0.55517 8.57819 1.27887C8.00882 1.90344 7.52227 2.91464 7.6465 3.86636ZM19.4688 16.6333V1.17957H25.5247C28.6511 1.17957 30.8354 3.24139 30.8354 6.25482C30.8354 9.26824 28.6097 11.3499 25.4419 11.3499H21.974V16.6333H19.4688ZM11.1564 4.05425C10.2809 4.006 9.48199 4.30637 8.83672 4.549C8.42147 4.70513 8.06983 4.83734 7.80231 4.83734C7.50209 4.83734 7.13594 4.69806 6.72483 4.54167L6.72482 4.54167C6.18614 4.33676 5.57027 4.10248 4.92442 4.11372C3.44408 4.13355 2.06725 4.93647 1.31154 6.21519C-0.24127 8.77264 0.907813 12.5593 2.40887 14.6409C3.14386 15.6718 4.02379 16.8018 5.18323 16.7622C5.69331 16.7438 6.06023 16.5947 6.43996 16.4404C6.87713 16.2628 7.33128 16.0782 8.0404 16.0782C8.72494 16.0782 9.15923 16.2579 9.57612 16.4305C9.97251 16.5945 10.3532 16.752 10.9183 16.7424C12.1191 16.7225 12.8748 15.7115 13.6098 14.6806C14.403 13.5741 14.7516 12.4943 14.8045 12.3304L14.8107 12.3114C14.8094 12.3102 14.7996 12.3059 14.7823 12.2984C14.5172 12.1821 12.4905 11.2937 12.4711 8.91142C12.4516 6.91183 14.0786 5.89871 14.3347 5.73923L14.3347 5.73922L14.3347 5.73919C14.3503 5.72951 14.3608 5.72297 14.3655 5.71956C13.3303 4.2525 11.7154 4.0939 11.1564 4.05425ZM35.4115 16.7523C36.9851 16.7523 38.4447 15.989 39.1072 14.7797H39.159V16.6333H41.4779V8.94116C41.4779 6.71083 39.6145 5.2735 36.747 5.2735C34.0865 5.2735 32.1196 6.73066 32.0471 8.733H34.3039C34.4902 7.78139 35.4115 7.1569 36.6745 7.1569C38.2066 7.1569 39.0658 7.84087 39.0658 9.09977V9.95225L35.9395 10.1307C33.0306 10.2992 31.457 11.4391 31.457 13.4217C31.457 15.424 33.0823 16.7523 35.4115 16.7523ZM36.0847 14.9188C34.7493 14.9188 33.9004 14.3042 33.9004 13.3624C33.9004 12.3908 34.7182 11.8258 36.2814 11.7365L39.0661 11.568V12.4404C39.0661 13.8878 37.7824 14.9188 36.0847 14.9188ZM49.1697 17.2381C48.1655 19.9442 47.0164 20.8363 44.5734 20.8363C44.387 20.8363 43.7659 20.8165 43.621 20.7768V18.9232C43.7762 18.943 44.1593 18.9628 44.356 18.9628C45.4636 18.9628 46.0848 18.5168 46.4678 17.357L46.6955 16.673L42.4512 5.42224H45.0703L48.0206 14.5517H48.0724L51.0227 5.42224H53.5693L49.1697 17.2381ZM21.9746 3.20178H24.8628C27.0368 3.20178 28.279 4.31212 28.279 6.26513C28.279 8.21814 27.0368 9.33839 24.8525 9.33839H21.9746V3.20178Z"
              fill="black"/>
    </symbol>

    <symbol id="call" viewBox="0 0 20 20">
        <path d="M11.603 12.4684L11.0471 13.0246C10.8985 13.1733 10.6772 13.2222 10.4799 13.1499C9.92693 12.9465 9.2352 12.4302 8.40466 11.5994C7.57488 10.7693 7.05796 10.0774 6.85539 9.52348C6.78291 9.32623 6.83151 9.10484 6.97993 8.95611L7.53662 8.39999C8.56222 7.37406 8.656 5.75824 7.75194 4.68578L7.09922 3.90976C6.35422 3.02343 5.01201 2.93412 4.10045 3.70938C3.76144 4.00162 3.50658 4.37912 3.3622 4.80286C3.29981 4.98731 3.25951 5.17853 3.24216 5.37248C2.9083 7.85138 4.10345 10.4534 6.82688 13.1777C9.5503 15.902 12.1507 17.0968 14.6295 16.7628C15.2735 16.7013 15.869 16.3938 16.2921 15.9042C17.0679 14.9931 16.9778 13.6497 16.0925 12.9045L15.3168 12.2508C14.2431 11.3479 12.6286 11.4425 11.603 12.4684ZM9.47577 10.5281C9.87249 10.9249 10.2185 11.2259 10.4981 11.4309C12.1062 9.82233 14.6084 9.67571 16.2927 11.0921L17.0679 11.7453C18.6047 13.039 18.7584 15.3443 17.438 16.895C16.76 17.6796 15.8056 18.1725 14.8317 18.2643C11.8159 18.6706 8.78293 17.2771 5.75577 14.2489C2.72854 11.2207 1.33481 8.18618 1.73347 5.23747C1.7615 4.92414 1.82659 4.61525 1.92846 4.31412C2.15983 3.63504 2.56828 3.03006 3.11927 2.55514C4.6622 1.2429 6.96575 1.39662 8.25829 2.93437L8.90995 3.70913C10.3278 5.39113 10.1826 7.89592 8.60701 9.47199C8.77812 9.78516 9.0789 10.1311 9.47577 10.5281Z"/>
    </symbol>

    <symbol id="cashback" viewBox="0 0 14 12">
        <path d="M13.1264 6.58463L13.1263 6.58462L13.1258 6.58938C13.1064 6.78219 13.0771 6.97389 13.0381 7.16371L13.0378 7.16532C13.0199 7.25608 13.0008 7.34335 12.9791 7.43013C12.8863 7.79162 12.7582 8.14314 12.5968 8.47965L12.5967 8.47962L12.5945 8.48467C12.5556 8.5717 12.5128 8.6571 12.4647 8.7355L12.4644 8.73534L12.4592 8.74507C12.3482 8.95079 12.2247 9.14944 12.0892 9.33989L12.0891 9.33986L12.0867 9.34342C12.0261 9.43256 11.9611 9.51856 11.8918 9.60109L11.8916 9.60099L11.8867 9.60741C11.7293 9.81113 11.5561 10.0021 11.3686 10.1786L11.3686 10.1786L11.3664 10.1808C11.2698 10.2747 11.1714 10.3621 11.071 10.446L11.0703 10.4466C10.8326 10.647 10.5784 10.8271 10.3103 10.9848L10.3103 10.9848L10.308 10.9862C10.1472 11.0837 9.98097 11.1721 9.81014 11.2508L9.81013 11.2508L9.80855 11.2515C9.04095 11.6134 8.20271 11.8007 7.35409 11.8H7.35393H6.19316V0.200006L7.35393 0.200006L7.35422 0.200006C8.27296 0.198672 9.17861 0.417797 9.99512 0.838979L9.99511 0.839006L9.99822 0.84054C10.1568 0.918877 10.3106 1.00645 10.4589 1.1028L10.4589 1.10281L10.4611 1.10425C10.7291 1.2733 10.982 1.46522 11.2169 1.67789L11.2168 1.67791L11.2197 1.68041C11.3137 1.7623 11.405 1.85097 11.4881 1.94074L11.488 1.9408L11.4921 1.94498C11.7917 2.25026 12.0566 2.58776 12.2819 2.9513C12.336 3.03957 12.3881 3.12527 12.4344 3.21254L12.4344 3.21255L12.4357 3.21491C12.625 3.5606 12.7784 3.92477 12.8935 4.30173C12.9205 4.39269 12.9463 4.47971 12.9693 4.5689C13.0416 4.85331 13.091 5.14304 13.1171 5.43533L13.117 5.43534L13.1179 5.44233C13.1284 5.527 13.1352 5.61247 13.1392 5.70188C13.1414 5.74994 13.1446 5.79173 13.1477 5.83118C13.152 5.88812 13.156 5.9402 13.156 5.99929C13.156 6.11413 13.156 6.21709 13.1481 6.31882C13.1452 6.35655 13.143 6.38856 13.1411 6.41738C13.1368 6.47952 13.1336 6.52684 13.1264 6.58463Z"
              fill="#A47B00" stroke="black" stroke-width="0.4"/>
        <path d="M5.99787 0.20293L5.99792 0.20293C6.75923 0.20275 7.51313 0.352545 8.21654 0.643763C8.91996 0.934982 9.55912 1.36192 10.0975 1.90018C10.6359 2.43845 11.063 3.07751 11.3544 3.78085C11.6458 4.4842 11.7957 5.23806 11.7957 5.99938H11.9957L11.7957 5.99942C11.796 7.14619 11.4562 8.26728 10.8193 9.22092C10.1824 10.1746 9.27697 10.9179 8.21757 11.3569C7.15817 11.796 5.99237 11.911 4.8676 11.6874C3.74284 11.4639 2.70963 10.9118 1.89864 10.101C1.08766 9.2902 0.535331 8.25712 0.311507 7.13241C0.0876843 6.00769 0.202421 4.84187 0.641208 3.78237C1.07999 2.72286 1.82312 1.81728 2.77661 1.18014C3.73009 0.543002 4.8511 0.20293 5.99787 0.20293Z"
              fill="#FFED74" stroke="black" stroke-width="0.4"/>
        <path d="M10.9767 5.99727C10.9775 6.98222 10.6862 7.94529 10.1396 8.76465C9.59304 9.58401 8.81571 10.2229 7.90598 10.6004C6.99625 10.9779 5.99499 11.0771 5.02887 10.8854C4.06274 10.6938 3.17516 10.2199 2.4784 9.52376C1.78164 8.8276 1.307 7.94042 1.11454 6.97446C0.922076 6.0085 1.02043 5.00716 1.39716 4.09711C1.77389 3.18705 2.41206 2.40918 3.23096 1.86188C4.04985 1.31459 5.01267 1.02246 5.99762 1.02246C7.31741 1.02246 8.58321 1.54645 9.51685 2.47929C10.4505 3.41213 10.9756 4.67748 10.9767 5.99727V5.99727Z"
              fill="#FCBC00"/>
        <path d="M6.41367 10.5601C5.45411 10.5603 4.51496 10.2831 3.70927 9.76192C2.90359 9.24073 2.26571 8.49778 1.87245 7.6225C1.47919 6.74722 1.34731 5.77693 1.49267 4.82844C1.63804 3.87995 2.05445 2.9937 2.69179 2.27637C2.18487 2.72705 1.77542 3.27658 1.48855 3.89123C1.20169 4.50587 1.04347 5.17266 1.02362 5.85066C1.00376 6.52867 1.12269 7.20357 1.37309 7.83395C1.62349 8.46433 2.00009 9.03688 2.47976 9.51646C2.95943 9.99604 3.53206 10.3725 4.16249 10.6228C4.79292 10.8731 5.46785 10.9919 6.14585 10.9719C6.82384 10.9519 7.4906 10.7935 8.10519 10.5065C8.71978 10.2195 9.26923 9.80997 9.71981 9.30297C8.80982 10.1143 7.63281 10.5618 6.41367 10.5601V10.5601Z"
              fill="#C57F0C"/>
    </symbol>

    <symbol id="like" viewBox="0 0 16 14">
        <path d="M1.33366 5.22664H3.33366V13.2266H1.33366C1.15685 13.2266 0.987279 13.1564 0.862254 13.0314C0.73723 12.9063 0.666992 12.7368 0.666992 12.56V5.8933C0.666992 5.71649 0.73723 5.54692 0.862254 5.4219C0.987279 5.29687 1.15685 5.22664 1.33366 5.22664ZM4.86233 4.36464L9.12899 0.0979702C9.1857 0.0410995 9.26103 0.00661472 9.34114 0.000857903C9.42124 -0.00489891 9.50074 0.0184593 9.56499 0.0666368L10.1337 0.493303C10.2916 0.611867 10.4109 0.774539 10.4765 0.960807C10.5421 1.14708 10.5511 1.3486 10.5023 1.53997L9.73366 4.55997H14.0003C14.3539 4.55997 14.6931 4.70045 14.9431 4.95049C15.1932 5.20054 15.3337 5.53968 15.3337 5.8933V7.29597C15.3338 7.47021 15.2999 7.6428 15.2337 7.80397L13.1703 12.814C13.12 12.9361 13.0345 13.0406 12.9247 13.114C12.8149 13.1875 12.6858 13.2267 12.5537 13.2266H5.33366C5.15685 13.2266 4.98728 13.1564 4.86225 13.0314C4.73723 12.9063 4.66699 12.7368 4.66699 12.56V4.83597C4.66703 4.65917 4.73729 4.48963 4.86233 4.36464Z"/>
    </symbol>

    <symbol id="lightning" viewBox="0 0 10 14">
        <path d="M3.26831 12.2706C2.86957 13.8001 3.46824 14.1169 4.53922 13.0003L9.03795 8.07725C10.0788 6.8673 9.81811 5.89517 8.31917 5.65214L6.15014 5.26957C6.02343 5.24723 5.93973 5.13128 5.9632 5.0106C5.96397 5.00662 5.96486 5.00266 5.96586 4.99872L6.80056 1.71878C7.20042 0.179613 6.53396 -0.0991276 5.53426 0.991621C4.09786 2.53409 3.00628 3.6993 2.25953 4.48726C1.99918 4.76197 1.58011 5.19077 1.00232 5.77365C-0.263979 7.11192 0.402484 8.08246 1.86716 8.32549L3.94008 8.67939C4.06693 8.70105 4.15132 8.81654 4.12858 8.93734C4.12771 8.94199 4.12668 8.94661 4.12549 8.9512L3.26831 12.2706Z" fill="#FCBC00"/>
    </symbol>
</svg>
