<svg width="226" height="229" viewBox="0 0 226 229" fill="none" xmlns="http://www.w3.org/2000/svg">
<path d="M53.381 145.071C53.5405 145.114 53.7092 145.109 53.8658 145.056C54.0224 145.004 54.1601 144.906 54.2614 144.776C54.3627 144.645 54.4233 144.488 54.4354 144.323C54.4475 144.158 54.4107 143.994 54.3295 143.85C49.2598 134.856 49.2001 125.156 49.1985 125.058C49.2004 124.947 49.1802 124.836 49.139 124.733C49.0978 124.63 49.0365 124.536 48.9585 124.456C48.8806 124.377 48.7876 124.314 48.6851 124.271C48.5825 124.228 48.4724 124.205 48.3611 124.205C48.2499 124.205 48.1397 124.227 48.0371 124.27C47.9345 124.313 47.8414 124.376 47.7633 124.455C47.6853 124.534 47.6238 124.628 47.5824 124.732C47.541 124.835 47.5206 124.945 47.5224 125.057C47.5228 125.47 47.5868 135.296 52.8665 144.673C52.9214 144.77 52.9952 144.855 53.0835 144.924C53.1719 144.992 53.2731 145.042 53.381 145.071Z" fill="#5BCB7D"/>
<path d="M60.3034 143.666L55.0118 142.249C54.3899 142.116 53.7413 142.21 53.1817 142.511L51.9632 143.25C51.7341 143.393 51.5678 143.618 51.4979 143.879C51.428 144.14 51.4597 144.417 51.5866 144.656L52.2714 145.908C52.6067 146.448 53.1213 146.853 53.725 147.051L59.0165 148.469C59.2742 148.538 59.5487 148.502 59.7797 148.368C60.0108 148.235 60.1793 148.015 60.2484 147.758L61.0146 144.898C61.0836 144.641 61.0475 144.366 60.9141 144.135C60.7807 143.904 60.561 143.735 60.3034 143.666ZM53.4594 145.244C53.3041 145.204 53.1644 145.117 53.058 144.997C52.9517 144.877 52.8835 144.727 52.862 144.568C52.8406 144.409 52.8669 144.247 52.9375 144.103C53.0082 143.959 53.1201 143.839 53.259 143.758C53.3979 143.678 53.5576 143.64 53.7179 143.65C53.8782 143.66 54.0318 143.718 54.1593 143.816C54.2869 143.913 54.3825 144.047 54.4342 144.199C54.486 144.351 54.4914 144.515 54.4498 144.67C54.4226 144.773 54.3755 144.87 54.311 144.954C54.2464 145.039 54.1659 145.11 54.0738 145.164C53.9818 145.218 53.88 145.253 53.7745 145.267C53.6689 145.281 53.5615 145.275 53.4585 145.248L53.4594 145.244Z" fill="#5BCB7D"/>
<path d="M143.037 166.876L142.271 169.735C142.202 169.993 142.238 170.267 142.371 170.498C142.504 170.729 142.724 170.898 142.982 170.967L148.27 172.384C148.893 172.514 149.542 172.421 150.103 172.122L151.32 171.379C151.549 171.236 151.715 171.011 151.785 170.75C151.855 170.489 151.823 170.212 151.696 169.973L151.014 168.725C150.679 168.183 150.163 167.777 149.557 167.581L144.269 166.164C144.011 166.095 143.736 166.131 143.505 166.265C143.274 166.398 143.106 166.618 143.037 166.876ZM148.839 169.964C148.88 169.809 148.967 169.67 149.087 169.564C149.208 169.458 149.357 169.391 149.516 169.37C149.675 169.349 149.837 169.376 149.981 169.447C150.125 169.518 150.245 169.63 150.325 169.769C150.405 169.908 150.442 170.067 150.432 170.227C150.421 170.387 150.364 170.541 150.266 170.668C150.168 170.796 150.035 170.891 149.883 170.943C149.731 170.994 149.567 171 149.412 170.958C149.309 170.93 149.213 170.883 149.128 170.818C149.044 170.753 148.973 170.672 148.92 170.58C148.866 170.488 148.832 170.386 148.818 170.28C148.804 170.175 148.811 170.067 148.839 169.964Z" fill="#5BCB7D"/>
<path d="M92.3933 144.271L77.6975 140.333L76.5903 144.465L91.2861 148.403L92.3933 144.271Z" fill="#8990A6"/>
<path d="M74.4752 139.47L65.8967 137.172L64.7895 141.304L73.368 143.602L74.4752 139.47Z" fill="#8990A6"/>
<path d="M51.9572 145L42.4348 180.538C42.3243 180.967 42.3866 181.423 42.6082 181.807C42.8298 182.19 43.1932 182.472 43.6202 182.591L133.097 206.566C133.526 206.676 133.981 206.613 134.365 206.392C134.749 206.17 135.03 205.807 135.15 205.381L144.673 169.843L51.9572 145Z" fill="#E4F8EA" stroke="#1F2226" stroke-width="2"/>
<path d="M54.6916 151.152L45.3775 185.913C45.2661 186.336 45.3262 186.785 45.5446 187.163C45.7631 187.542 46.1222 187.818 46.5438 187.933L134.052 211.381C134.474 211.492 134.924 211.432 135.302 211.214C135.68 210.995 135.957 210.636 136.072 210.215L145.386 175.454L54.6916 151.152Z" fill="url(#paint0_linear_104_3)"/>
<path d="M54.4963 147.809L44.9739 183.347C44.8634 183.777 44.9256 184.232 45.1473 184.616C45.3689 185 45.7322 185.282 46.1592 185.401L135.636 209.376C136.065 209.485 136.52 209.423 136.904 209.201C137.288 208.98 137.569 208.617 137.689 208.19L147.212 172.652L54.4963 147.809Z" fill="#E4F8EA" stroke="#1F2226" stroke-width="2"/>
<path d="M148.629 154.463C148.744 154.033 148.683 153.576 148.461 153.191C148.239 152.806 147.873 152.525 147.443 152.41L92.6496 137.728C91.603 137.508 90.5126 137.651 89.5589 138.135L85.9875 140.195C85.0338 140.679 83.9433 140.822 82.8968 140.602L56.5913 133.554C56.162 133.443 55.7065 133.505 55.3227 133.727C54.9388 133.949 54.6572 134.312 54.5382 134.739L52.001 144.208L55.3227 148L144.72 169.052L148.629 154.463Z" fill="#E4F8EA" stroke="#1F2226" stroke-width="2"/>
<path d="M151.136 158.067C151.251 157.638 151.191 157.18 150.969 156.795C150.747 156.41 150.381 156.129 149.951 156.014L95.1574 141.332C94.1109 141.112 93.0205 141.256 92.0667 141.74L88.4953 143.799C87.5416 144.283 86.4512 144.427 85.4046 144.207L59.0991 137.158C58.6698 137.048 58.2144 137.11 57.8305 137.331C57.4466 137.553 57.165 137.916 57.046 138.343L54.5088 147.812L147.227 172.656L151.136 158.067Z" fill="#E4F8EA" stroke="#1F2226" stroke-width="2"/>
<path d="M102.834 201.594C115.381 200.894 124.986 190.156 124.287 177.608C123.587 165.061 112.849 155.456 100.301 156.155C87.7539 156.855 78.1491 167.593 78.8485 180.141C79.5478 192.688 90.2864 202.293 102.834 201.594Z" fill="#1F2226"/>
<path d="M122.065 184.196C120.989 188.213 118.745 191.821 115.618 194.563C112.492 197.305 108.622 199.058 104.499 199.601C100.375 200.144 96.1835 199.452 92.4535 197.613C88.7235 195.773 85.6227 192.869 83.5433 189.267C81.4638 185.666 80.4991 181.528 80.7711 177.378C81.0431 173.228 82.5396 169.252 85.0714 165.952C87.6032 162.653 91.0565 160.178 94.9947 158.842C98.9329 157.505 103.179 157.366 107.196 158.442C112.583 159.886 117.176 163.41 119.964 168.239C122.753 173.069 123.508 178.809 122.065 184.196V184.196Z" fill="#5BCB7D"/>
<path d="M84.9314 189.015C83.097 185.245 82.3914 181.026 82.8993 176.865C83.4072 172.704 85.1072 168.778 87.7944 165.56C90.4817 162.342 94.0417 159.97 98.0459 158.728C102.05 157.487 106.328 157.429 110.364 158.562C107.625 157.431 104.683 156.873 101.72 156.921C98.7572 156.969 95.8351 157.621 93.1335 158.839C90.4318 160.057 88.0075 161.814 86.0094 164.003C84.0113 166.191 82.4815 168.765 81.514 171.566C80.5465 174.367 80.1617 177.336 80.3832 180.291C80.6047 183.246 81.4278 186.124 82.8021 188.749C84.1763 191.375 86.0726 193.692 88.3746 195.557C90.6766 197.423 93.3358 198.799 96.1888 199.6C91.2623 197.576 87.2546 193.807 84.9314 189.015V189.015Z" fill="#222733"/>
<path d="M107.173 180.386C106.875 181.498 106.253 182.498 105.387 183.257C104.522 184.016 103.45 184.502 102.308 184.652C101.166 184.803 100.005 184.611 98.9721 184.102C97.9391 183.592 97.0803 182.788 96.5044 181.79C95.9285 180.793 95.6614 179.647 95.7367 178.498C95.812 177.348 96.2265 176.247 96.9276 175.334C97.6288 174.42 98.5852 173.734 99.6758 173.364C100.767 172.994 101.942 172.955 103.055 173.254C104.547 173.653 105.819 174.629 106.591 175.967C107.363 177.304 107.573 178.894 107.173 180.386Z" fill="#E4F8EA"/>
<path d="M74.6086 146.003L65.6091 143.592C65.3516 143.523 65.0868 143.676 65.0178 143.933L64.6543 145.29C64.5853 145.548 64.7381 145.813 64.9956 145.882L73.9951 148.293C74.2527 148.362 74.5174 148.209 74.5864 147.952L74.95 146.595C75.019 146.337 74.8662 146.072 74.6086 146.003Z" fill="#5BCB7D"/>
<path d="M94.619 148.797C94.2796 148.706 93.9747 148.517 93.743 148.252C93.5113 147.988 93.3631 147.661 93.3172 147.313C93.2714 146.964 93.3298 146.61 93.4853 146.295C93.6407 145.98 93.8861 145.718 94.1905 145.542C94.4948 145.366 94.8445 145.285 95.1951 145.308C95.5458 145.331 95.8818 145.457 96.1606 145.671C96.4395 145.885 96.6486 146.177 96.7615 146.51C96.8745 146.842 96.8862 147.201 96.7953 147.541C96.6725 147.995 96.3746 148.383 95.9667 148.618C95.5588 148.854 95.0742 148.918 94.619 148.797V148.797Z" fill="#5BCB7D"/>
<path d="M142.913 157.401L126.885 153.106C126.756 153.071 126.627 153.133 126.597 153.244L124.052 162.741C124.022 162.852 124.103 162.97 124.233 163.004L140.261 167.299C140.391 167.334 140.52 167.272 140.549 167.162L143.094 157.664C143.124 157.553 143.043 157.435 142.913 157.401Z" fill="#5BCB7D"/>
<path d="M163.129 157.588C162.276 157.147 162.075 156.341 161.901 155.565L161.874 155.447C161.691 154.679 161.068 151.319 161.001 150.999L162.389 150.715C162.403 150.792 163.071 154.372 163.25 155.118L163.28 155.24C163.442 155.929 163.525 156.202 163.778 156.332C164.032 156.462 164.302 156.372 164.957 156.103L165.074 156.058C165.783 155.769 173.045 152.539 173.119 152.507L173.692 153.803C173.393 153.934 166.337 157.069 165.605 157.366L165.492 157.412C164.751 157.717 163.987 158.029 163.129 157.588Z" fill="#5BCB7D"/>
<path d="M161.273 144.065L161.274 144.066L175.219 151.246L161.273 144.065ZM161.273 144.065C161.265 144.062 161.259 144.056 161.253 144.05C161.248 144.044 161.244 144.037 161.242 144.029C161.239 144.021 161.238 144.013 161.239 144.004C161.239 143.996 161.242 143.988 161.246 143.981L161.313 143.85M161.273 144.065L161.313 143.85M161.313 143.85L161.34 143.705M161.313 143.85L161.34 143.705M161.34 143.705L180.995 37.4965C180.999 37.496 181.003 37.496 181.007 37.4963C181.015 37.497 181.023 37.4993 181.031 37.503C181.031 37.503 181.031 37.503 181.031 37.5031L194.968 44.684L194.97 44.6847M161.34 143.705L194.97 44.6847M194.97 44.6847C194.977 44.6885 194.983 44.6937 194.989 44.7C194.994 44.7063 194.998 44.7136 195.001 44.7214C195.003 44.7292 195.004 44.7375 195.003 44.7458C195.003 44.754 195 44.762 194.997 44.7693L194.929 44.9002M194.97 44.6847L194.929 44.9002M194.929 44.9002L194.903 45.0449M194.929 44.9002L194.903 45.0449M194.903 45.0449L175.251 151.252M194.903 45.0449L175.251 151.252M175.251 151.252C175.248 151.252 175.244 151.252 175.241 151.252C175.233 151.251 175.226 151.249 175.219 151.246L175.251 151.252Z" fill="#E4F8EA" stroke="#009959" stroke-width="2"/>
<path d="M221.014 60.1728L220.706 60.767" stroke="white" stroke-miterlimit="10" stroke-linecap="round"/>
<path d="M208.491 54.4779L208.8 53.8837" stroke="white" stroke-miterlimit="10" stroke-linecap="round"/>
<path d="M176.498 153.142C176.47 153.279 176.416 153.409 176.338 153.525C176.26 153.641 176.16 153.74 176.044 153.817C175.927 153.895 175.797 153.948 175.66 153.975C175.523 154.002 175.382 154.001 175.245 153.974L158.542 150.585C158.266 150.527 158.025 150.364 157.87 150.129C157.714 149.894 157.658 149.608 157.714 149.332L159.285 141.599C159.342 141.323 159.506 141.081 159.741 140.926C159.975 140.77 160.262 140.714 160.538 140.771L177.238 144.159C177.375 144.187 177.505 144.241 177.621 144.318C177.737 144.396 177.836 144.495 177.913 144.611C177.991 144.728 178.044 144.858 178.071 144.995C178.098 145.131 178.098 145.272 178.07 145.409L176.498 153.142Z" fill="#20232A"/>
<path d="M149.561 170.842C149.401 170.8 149.257 170.711 149.148 170.587C149.039 170.464 148.968 170.31 148.946 170.147C148.923 169.983 148.949 169.816 149.021 169.668C149.093 169.519 149.207 169.395 149.35 169.311C158.237 164.056 163.139 155.686 163.186 155.601C163.24 155.504 163.313 155.418 163.4 155.349C163.487 155.28 163.587 155.23 163.695 155.2C163.802 155.17 163.914 155.162 164.024 155.176C164.135 155.19 164.241 155.226 164.338 155.281C164.434 155.337 164.518 155.411 164.586 155.499C164.653 155.588 164.702 155.689 164.73 155.797C164.758 155.904 164.764 156.016 164.749 156.126C164.733 156.237 164.695 156.342 164.638 156.438C164.431 156.796 159.466 165.274 150.205 170.755C150.109 170.812 150.002 170.849 149.892 170.864C149.781 170.879 149.668 170.871 149.561 170.842V170.842Z" fill="#5BCB7D"/>
<path d="M40.9607 115.258L40.9631 115.258L56.6298 116.013L56.6311 116.013C56.6394 116.014 56.6476 116.012 56.6554 116.01C56.6631 116.007 56.6703 116.003 56.6764 115.997C56.6825 115.992 56.6875 115.985 56.691 115.977C56.6945 115.97 56.6965 115.962 56.6969 115.954L40.9607 115.258ZM40.9607 115.258C40.9441 115.258 40.9286 115.25 40.9174 115.238C40.9066 115.227 40.9007 115.211 40.9008 115.195C40.9008 115.195 40.9008 115.194 40.9008 115.193L45.7501 14.5173C45.7502 14.5169 45.7502 14.5165 45.7502 14.5161C45.7514 14.4992 45.7591 14.4833 45.7717 14.4719C45.7843 14.4604 45.8009 14.4543 45.8179 14.4547C45.8183 14.4548 45.8186 14.4548 45.819 14.4548L61.4844 15.2069L61.4844 15.2069L61.4902 15.2072C61.4981 15.2075 61.5058 15.2094 61.5129 15.2127C61.52 15.2161 61.5264 15.2208 61.5317 15.2266C61.537 15.2324 61.5411 15.2392 61.5437 15.2466C61.5463 15.254 61.5475 15.2619 61.547 15.2697L61.5468 15.2749L56.697 115.954L40.9607 115.258Z" fill="#E4F8EA" stroke="#009959" stroke-width="2"/>
<path d="M46.8362 13.5012L46.8062 14.17" stroke="white" stroke-miterlimit="10" stroke-linecap="round"/>
<path d="M60.5291 14.8313L60.559 14.1625" stroke="white" stroke-miterlimit="10" stroke-linecap="round"/>
<path d="M39.1035 117.687C39.0945 117.828 39.1133 117.968 39.1589 118.101C39.2046 118.234 39.276 118.356 39.3692 118.461C39.4625 118.566 39.5755 118.652 39.702 118.713C39.8284 118.774 39.9657 118.809 40.1059 118.817L57.1297 119.637C57.2692 119.644 57.4087 119.623 57.5402 119.576C57.6717 119.529 57.7926 119.456 57.8961 119.363C57.9995 119.269 58.0835 119.155 58.1431 119.029C58.2028 118.903 58.237 118.766 58.2438 118.627L58.6203 110.744C58.6334 110.463 58.5342 110.188 58.3447 109.98C58.1552 109.772 57.8907 109.647 57.6094 109.634L40.5926 108.788C40.312 108.775 40.0377 108.874 39.8297 109.063C39.6217 109.251 39.4969 109.515 39.4827 109.795L39.1035 117.687Z" fill="#5BCB7D"/>
<path d="M48.2581 126.808C49.2178 126.854 49.7947 126.255 50.3332 125.671L50.416 125.582C50.9583 125.009 56.0822 119.228 56.3002 118.984L55.2401 118.044C55.1895 118.104 49.9131 124.052 49.389 124.609L49.302 124.7C48.8168 125.216 48.6054 125.409 48.3242 125.396C48.043 125.383 47.8506 125.168 47.4177 124.608L47.3396 124.511C46.87 123.906 42.1954 117.478 42.1469 117.413L41.0032 118.249C41.1964 118.512 45.7399 124.756 46.2255 125.379L46.3003 125.475C46.7898 126.109 47.2952 126.762 48.2581 126.808Z" fill="#5BCB7D"/>
<defs>
<linearGradient id="paint0_linear_104_3" x1="98.9282" y1="167.448" x2="91.1213" y2="196.584" gradientUnits="userSpaceOnUse">
<stop stop-color="#EBF0FF"/>
<stop offset="1" stop-color="#D8DEF2"/>
</linearGradient>
</defs>
</svg>
