<svg width="158" height="86" viewBox="0 0 158 86" fill="none" xmlns="http://www.w3.org/2000/svg">
<path d="M111.371 42.0689L111.364 42.0783L111.356 42.0875C110.955 42.579 110.579 43.0907 110.23 43.6206L110.23 43.6206L110.225 43.6274C110.056 43.8794 109.899 44.125 109.749 44.3747C109.127 45.4265 108.61 46.5368 108.204 47.6896L108.2 47.7026L108.195 47.7156C108.084 48.0033 107.989 48.2914 107.922 48.5712L107.916 48.5981L107.908 48.6245C107.688 49.3577 107.515 50.1039 107.387 50.8586L107.386 50.8692L107.384 50.8798C107.318 51.2216 107.271 51.5664 107.24 51.913L107.239 51.9332L107.236 51.9534C107.129 52.7872 107.088 53.6281 107.113 54.4684L107.113 54.4762L107.114 54.4841C107.12 54.9234 107.145 55.3529 107.183 55.7804L107.184 55.7848C107.27 56.7989 107.442 57.804 107.697 58.7893L107.697 58.7893L107.7 58.8024C107.846 59.3991 108.026 59.9871 108.239 60.5634L108.239 60.5634L108.242 60.5716C109.182 63.1875 110.689 65.5626 112.656 67.5265L112.657 67.527L115.157 70.0273L142.027 43.1572L139.527 40.657L139.526 40.656C137.401 38.5251 134.796 36.9351 131.93 36.0195L131.922 36.0169L131.913 36.0141C131.367 35.8293 130.811 35.6766 130.247 35.5569L130.247 35.557L130.234 35.554C129.223 35.325 128.193 35.184 127.158 35.1326L127.148 35.1321L127.139 35.1315C126.736 35.1038 126.324 35.0977 125.928 35.113L125.914 35.1136L125.899 35.1137C124.498 35.127 123.103 35.2952 121.739 35.6152C121.403 35.6958 121.088 35.7727 120.785 35.8658L120.785 35.8658L120.772 35.8696C119.533 36.2317 118.335 36.7196 117.196 37.3258C116.917 37.4767 116.657 37.6179 116.399 37.7701C115.574 38.261 114.789 38.817 114.053 39.4329L114.039 39.4442L114.025 39.455C113.809 39.6232 113.598 39.803 113.383 39.9994C113.248 40.1233 113.137 40.2174 113.038 40.3027C112.903 40.4176 112.787 40.5164 112.654 40.6503C112.381 40.9225 112.148 41.1565 111.936 41.4034C111.849 41.5052 111.777 41.5884 111.713 41.6617C111.58 41.8136 111.485 41.9231 111.371 42.0689Z" fill="#E4F8EA" stroke="#1F2226" stroke-width="2"/>
<path d="M142.72 43.8576L142.72 43.8574C140.957 42.0935 138.864 40.6942 136.56 39.7394C134.256 38.7846 131.786 38.293 129.292 38.2927C126.799 38.2924 124.329 38.7835 122.025 39.7377C119.721 40.692 117.627 42.0908 115.864 43.8543L115.156 43.1471L115.863 43.8544C113.206 46.5101 111.397 49.8941 110.663 53.5784C109.929 57.2627 110.305 61.0818 111.742 64.5527C113.179 68.0237 115.613 70.9905 118.736 73.078C121.859 75.1656 125.531 76.28 129.288 76.2805C133.045 76.2809 136.717 75.1673 139.841 73.0805C142.964 70.9937 145.399 68.0275 146.837 64.5569C148.275 61.0863 148.651 57.2673 147.918 53.5828C147.186 49.8983 145.377 46.5139 142.72 43.8576Z" fill="#E4F8EA" stroke="#1F2226" stroke-width="2"/>
<path d="M118.263 46.2578C116.08 48.4376 114.592 51.216 113.987 54.2417C113.383 57.2673 113.69 60.4041 114.869 63.2553C116.048 66.1066 118.046 68.5441 120.61 70.2596C123.175 71.9751 126.19 72.8915 129.276 72.8928C132.361 72.8941 135.377 71.9803 137.943 70.267C140.509 68.5537 142.509 66.1179 143.691 63.2676C144.872 60.4174 145.181 57.2809 144.58 54.2547C143.978 51.2286 142.493 48.4489 140.311 46.2672C137.388 43.3439 133.423 41.7008 129.289 41.699C125.155 41.6972 121.189 43.337 118.263 46.2578Z" fill="#5BCB7D" stroke="#1F2226" stroke-width="2"/>
<path d="M134.98 61.1987L134.464 59.274L131.016 60.1979L131.474 61.9087L129.288 62.4946L128.829 60.7838L126.559 61.3922C125.157 61.7678 123.949 61.633 122.935 60.9879C121.917 60.3286 121.194 59.2005 120.766 57.6037C120.346 56.0355 120.407 54.7507 120.95 53.7495C121.476 52.7378 122.361 52.0345 123.607 51.6394L124.467 54.8472C124.006 55.032 123.685 55.2936 123.506 55.632C123.312 55.9743 123.282 56.3949 123.415 56.8939C123.584 57.5212 123.86 57.9361 124.245 58.1386C124.626 58.3269 125.111 58.3421 125.699 58.1844L127.97 57.576L127.024 54.0474L129.211 53.4615L130.157 56.9901L133.605 56.0661L131.828 49.4367L134.435 48.7381L137.587 60.5001L134.98 61.1987Z" fill="#E4F8EA"/>
<path d="M117.902 66.1063C120.096 68.3005 122.877 69.8139 125.911 70.4643C128.945 71.1147 132.102 70.8743 135.002 69.7721C137.903 68.6699 140.423 66.7528 142.259 64.2517C144.096 61.7506 145.17 58.7721 145.353 55.6748C145.481 57.8642 145.161 60.0569 144.412 62.1182C143.662 64.1795 142.499 66.0658 140.994 67.6615C139.489 69.2571 137.674 70.5284 135.66 71.3973C133.647 72.2662 131.476 72.7143 129.283 72.7142C127.09 72.714 124.92 72.2656 122.906 71.3965C120.893 70.5274 119.078 69.2559 117.573 67.66C116.069 66.0642 114.907 64.1777 114.158 62.1163C113.409 60.0549 113.089 57.8622 113.218 55.6727C113.444 59.6084 115.111 63.3228 117.902 66.1063V66.1063Z" fill="#222733"/>
<path d="M31.4773 46.2715L31.4772 46.2716L31.4702 46.2619C31.2177 45.9112 30.9474 45.5736 30.6604 45.2505L30.6604 45.2505L30.6577 45.2474C30.5219 45.092 30.3878 44.9449 30.2494 44.8017C29.667 44.2071 29.0278 43.671 28.3409 43.2012L28.3408 43.2013L28.3295 43.1932C28.158 43.0688 27.9812 42.9525 27.8028 42.8557L27.7907 42.8491L27.7789 42.8419C27.3353 42.5683 26.8751 42.3225 26.4011 42.1057L26.401 42.1059L26.3913 42.1012C26.1757 41.9969 25.9549 41.9036 25.7297 41.8218L25.7202 41.8183L25.7108 41.8145C25.18 41.5967 24.6329 41.4211 24.0745 41.2893L24.0745 41.2893L24.0669 41.2874C23.7759 41.2139 23.4886 41.1547 23.201 41.1046L23.1989 41.1042C22.5163 40.9822 21.8246 40.918 21.1313 40.9123L21.1313 40.9123L21.1245 40.9122C20.7054 40.9031 20.2861 40.9178 19.8687 40.9562L19.8687 40.9563L19.8643 40.9566C17.9784 41.1137 16.1506 41.6866 14.5124 42.6342L14.512 42.6344L12.3063 43.9079L25.2414 66.3121L27.4471 65.0386L27.4478 65.0382C29.2236 64.0164 30.7284 62.5833 31.8357 60.8594L31.8356 60.8594L31.8404 60.8522C32.0591 60.5245 32.2583 60.1842 32.437 59.8332L32.437 59.8331L32.4401 59.8272C32.7691 59.202 33.0434 58.5495 33.2599 57.877L33.2598 57.877L33.2629 57.868C33.3528 57.6057 33.4302 57.3333 33.4903 57.0681L33.492 57.0609L33.4938 57.0538C33.732 56.1301 33.8672 55.1829 33.897 54.2295C33.9031 53.9977 33.9082 53.7748 33.9003 53.5557L33.9002 53.5557L33.9001 53.549C33.8803 52.6703 33.7705 51.7959 33.5725 50.9396C33.523 50.7329 33.4758 50.5363 33.4209 50.3387C33.2433 49.709 33.0158 49.0945 32.7404 48.501L32.7367 48.4931L32.7332 48.4849C32.6596 48.3104 32.5775 48.1384 32.4858 47.9614C32.4346 47.8626 32.3937 47.7771 32.3554 47.6972C32.3011 47.5838 32.2522 47.4815 32.1866 47.3679C32.0579 47.145 31.9434 46.9472 31.8156 46.7606C31.7671 46.6896 31.7267 46.6296 31.6905 46.5757C31.6132 46.4607 31.5551 46.3743 31.4773 46.2715Z" fill="#E4F8EA" stroke="#1F2226"/>
<path d="M24.8149 66.5545L24.815 66.5544C26.2856 65.7059 27.5746 64.5759 28.6085 63.2291C29.6423 61.8822 30.4007 60.3449 30.8403 58.705C31.28 57.065 31.3922 55.3545 31.1707 53.6711C30.9492 51.9878 30.3983 50.3645 29.5493 48.8941L29.9823 48.6441L29.5493 48.894C28.271 46.6788 26.3646 44.8925 24.0711 43.7609C21.7776 42.6292 19.2 42.2032 16.6643 42.5365C14.1286 42.8699 11.7487 43.9477 9.82563 45.6337C7.90255 47.3197 6.52263 49.5382 5.86041 52.0084C5.19819 54.4787 5.2834 57.0899 6.10527 59.5118C6.92713 61.9336 8.44874 64.0573 10.4777 65.6144C12.5066 67.1714 14.9517 68.0918 17.5037 68.2591C20.0557 68.4265 22.6 67.8333 24.8149 66.5545Z" fill="#E4F8EA" stroke="#1F2226"/>
<path d="M27.5733 50.0326C26.5216 48.2074 24.9522 46.735 23.0636 45.8019C21.1749 44.8688 19.052 44.5168 16.9633 44.7904C14.8745 45.064 12.9139 45.951 11.3293 47.3391C9.7448 48.7272 8.60755 50.5541 8.06146 52.5887C7.51537 54.6232 7.58497 56.774 8.26147 58.769C8.93796 60.764 10.191 62.5135 11.8619 63.7963C13.5329 65.079 15.5468 65.8374 17.6488 65.9754C19.7509 66.1134 21.8466 65.6249 23.671 64.5716C26.1155 63.1602 27.8997 60.836 28.6315 58.1098C29.3632 55.3836 28.9826 52.4784 27.5733 50.0326Z" fill="#5BCB7D" stroke="#1F2226"/>
<path d="M14.8235 58.369L16.162 58.369L16.162 55.971L14.9722 55.971L14.9722 54.4503L16.162 54.4503L16.162 52.8711C16.162 51.8964 16.4595 51.136 17.0544 50.5901C17.6592 50.0442 18.5168 49.7713 19.6273 49.7713C20.718 49.7713 21.5409 50.0345 22.0962 50.5609C22.6613 51.0775 22.9637 51.7745 23.0034 52.6518L20.7725 52.6518C20.7328 52.3204 20.6188 52.0669 20.4304 51.8915C20.242 51.7063 19.9743 51.6137 19.6273 51.6137C19.1911 51.6137 18.8738 51.7209 18.6755 51.9353C18.4871 52.1498 18.3929 52.4617 18.3929 52.8711L18.3929 54.4503L20.8469 54.4503L20.8469 55.971L18.3929 55.971L18.3929 58.369L23.0034 58.369L23.0034 60.1821L14.8235 60.1821L14.8235 58.369Z" fill="#E4F8EA"/>
<path d="M14.6068 46.4337C12.8017 47.4755 11.3362 49.0169 10.3867 50.8723C9.43723 52.7278 9.04429 54.8182 9.25519 56.8918C9.4661 58.9655 10.2719 60.934 11.5754 62.5604C12.879 64.1868 14.6249 65.4018 16.6028 66.0591C15.1598 65.7618 13.7928 65.1727 12.5856 64.3279C11.3784 63.4832 10.3566 62.4007 9.5829 61.1468C8.80917 59.8929 8.29985 58.4942 8.08621 57.0363C7.87257 55.5785 7.95911 54.0925 8.34053 52.6694C8.72194 51.2463 9.39018 49.9162 10.3042 48.7607C11.2183 47.6052 12.3588 46.6488 13.6559 45.9501C14.9529 45.2513 16.3791 44.8251 17.8469 44.6975C19.3146 44.57 20.793 44.7437 22.1912 45.2082C19.5984 44.6702 16.8982 45.1065 14.6068 46.4337V46.4337Z" fill="#222733"/>
<path d="M94.0768 35.1263L94.0753 35.1381L94.0741 35.15C93.9702 36.1806 93.8137 37.2053 93.6052 38.2199L93.6051 38.2199L93.6036 38.2279C93.508 38.713 93.4059 39.1796 93.2899 39.6437C92.7937 41.576 92.1092 43.4549 91.2463 45.2536L91.2403 45.2661L91.2347 45.2787C91.0268 45.7446 90.7968 46.2029 90.5385 46.6242L90.5241 46.6477L90.511 46.672C89.9179 47.7716 89.2574 48.8334 88.5331 49.8514L88.5268 49.8601L88.5208 49.8691C88.1964 50.3463 87.8481 50.8068 87.4771 51.2487L87.4641 51.2642L87.4517 51.2803C86.61 52.3696 85.6839 53.3908 84.6817 54.3345L84.676 54.3399L84.6703 54.3454C84.1538 54.8474 83.628 55.315 83.0914 55.7633L83.0881 55.7661C81.8172 56.8376 80.4582 57.7999 79.0255 58.6429L79.0254 58.6428L79.0139 58.6498C78.154 59.1714 77.2653 59.6438 76.3519 60.0647L76.3519 60.0647L76.344 60.0684C72.2412 62.0025 67.7608 63.0037 63.225 63H63.2242H56.9668V1.00003L63.2242 1.00003L63.2257 1.00003C68.1363 0.992903 72.9769 2.16411 77.3411 4.41531L77.3488 4.41928L77.3566 4.42311C78.2045 4.84206 79.0271 5.3104 79.8202 5.82569L79.8201 5.82577L79.8315 5.83294C81.264 6.73657 82.6157 7.76253 83.8712 8.89931L83.8783 8.90569L83.8854 8.91192C84.3884 9.35024 84.8773 9.82478 85.322 10.3053L85.3319 10.3161L85.3422 10.3265C86.9435 11.9583 88.3592 13.7623 89.5637 15.7056C89.852 16.1761 90.1311 16.6348 90.379 17.1023L90.3789 17.1024L90.3854 17.1142C91.3973 18.9619 92.2173 20.9085 92.8326 22.9234C92.9766 23.4084 93.1146 23.8738 93.2375 24.3509C93.6238 25.8713 93.888 27.42 94.0276 28.9825L94.0292 29L94.0313 29.0175C94.088 29.4711 94.124 29.9287 94.1457 30.407C94.1572 30.6588 94.1742 30.8804 94.1903 31.0908C94.2138 31.3971 94.2355 31.6795 94.2355 31.9962C94.2355 32.6082 94.235 33.16 94.1931 33.7055C94.1777 33.9051 94.1661 34.0752 94.1556 34.2287C94.1329 34.5613 94.1155 34.8162 94.0768 35.1263Z" fill="#E4F8EA" stroke="#1F2226" stroke-width="2"/>
<path d="M55.9886 1.00794L55.9889 1.00794C60.058 1.00697 64.0874 1.80761 67.8471 3.36412C71.6067 4.92063 75.0229 7.20253 77.9005 10.0795C80.7782 12.9564 83.0609 16.3721 84.6183 20.1314C86.1757 23.8906 86.9773 27.9199 86.9773 31.989H87.9773L86.9773 31.9892C86.9787 38.1185 85.1625 44.1106 81.7583 49.2076C78.3541 54.3046 73.5149 58.2776 67.8525 60.6242C62.1902 62.9708 55.9592 63.5855 49.9476 62.3906C43.9359 61.1958 38.4135 58.2449 34.079 53.9114C29.7444 49.5779 26.7923 44.0562 25.596 38.0448C24.3997 32.0334 25.0129 25.8023 27.3582 20.1394C29.7034 14.4766 33.6753 9.63636 38.7715 6.23096C43.8677 2.82557 49.8594 1.00794 55.9886 1.00794Z" fill="#E4F8EA" stroke="#1F2226" stroke-width="2"/>
<path d="M81.5436 31.9941C81.548 37.0493 80.0529 41.9923 77.2475 46.1977C74.4421 50.403 70.4524 53.6819 65.7832 55.6194C61.1141 57.557 55.9751 58.0662 51.0165 57.0826C46.0579 56.099 41.5023 53.6669 37.9262 50.0938C34.3501 46.5207 31.9141 41.9673 30.9262 37.0095C29.9384 32.0518 30.4432 26.9124 32.3768 22.2415C34.3103 17.5707 37.5858 13.5782 41.7887 10.7693C45.9917 7.96027 50.9334 6.46094 55.9886 6.46094C62.7624 6.46093 69.2591 9.15033 74.051 13.9381C78.8429 18.7259 81.5378 25.2203 81.5436 31.9941Z" fill="#5BCB7D" stroke="#1F2226" stroke-width="2"/>
<path d="M49.5618 44.0256L52.6795 42.2256L49.4548 36.6402L46.6835 38.2402L44.6385 34.6983L47.4098 33.0983L45.2862 29.4201C43.9754 27.1496 43.6457 24.9787 44.2973 22.9072C44.9719 20.8224 46.6025 19.0333 49.189 17.54C51.7294 16.0733 54.0001 15.5797 56.0013 16.0591C58.0124 16.5024 59.654 17.7192 60.9262 19.7093L55.73 22.7093C55.1919 21.9906 54.5855 21.5536 53.9108 21.3983C53.2229 21.2202 52.4749 21.3645 51.6666 21.8312C50.6504 22.4179 50.0556 23.0943 49.8821 23.8605C49.7317 24.6133 49.9318 25.4665 50.4824 26.4201L52.606 30.0983L58.3217 26.7983L60.3667 30.3402L54.6509 33.6402L57.8756 39.2256L68.6144 33.0256L71.0526 37.2487L52 48.2487L49.5618 44.0256Z" fill="#E4F8EA"/>
<path d="M58.896 54.8587C53.9318 54.8595 49.0732 53.4253 44.905 50.7288C40.7369 48.0323 37.4369 44.1884 35.4024 39.6599C33.3679 35.1314 32.6856 30.1113 33.4376 25.204C34.1897 20.2967 36.344 15.7113 39.6412 12C37.0187 14.3317 34.9004 17.1749 33.4163 20.355C31.9323 23.535 31.1138 26.9849 31.011 30.4927C30.9083 34.0006 31.5236 37.4924 32.819 40.7539C34.1144 44.0153 36.0627 46.9776 38.5443 49.4588C41.0258 51.9401 43.9882 53.8879 47.2497 55.1828C50.5112 56.4777 54.0029 57.0922 57.5104 56.9888C61.018 56.8854 64.4674 56.0661 67.6469 54.5813C70.8264 53.0965 73.669 50.9774 76 48.3543C71.2923 52.5518 65.2031 54.8674 58.896 54.8587V54.8587Z" fill="#222733"/>
</svg>
