<svg width="194" height="128" viewBox="0 0 194 128" fill="none" xmlns="http://www.w3.org/2000/svg">
<path d="M83.4689 105.231C130.429 117.303 209.241 139.03 182.022 100.294C161.145 70.5835 130.511 68.41 89.8903 71.9992C62.7373 86.2361 -15.0297 71.6112 12.358 52.3232" stroke="black" stroke-dasharray="4 4"/>
<mask id="path-2-inside-1_113_26" fill="white">
<path fill-rule="evenodd" clip-rule="evenodd" d="M134.308 19.2134C137.307 19.2134 152.001 21.4624 152.001 39.9047C152.001 54.6586 140.206 74.2404 134.308 82.1871L131.039 82.1871C131.039 82.1871 116.166 52.6373 116.166 39.9047C116.166 26.8211 130.881 19.2134 130.881 19.2134L134.308 19.2134ZM133.373 45.3037C138.01 45.3037 141.77 41.5445 141.77 36.9072C141.77 32.27 138.01 28.5107 133.373 28.5107C128.736 28.5107 124.977 32.27 124.977 36.9072C124.977 41.5445 128.736 45.3037 133.373 45.3037Z"/>
</mask>
<path fill-rule="evenodd" clip-rule="evenodd" d="M134.308 19.2134C137.307 19.2134 152.001 21.4624 152.001 39.9047C152.001 54.6586 140.206 74.2404 134.308 82.1871L131.039 82.1871C131.039 82.1871 116.166 52.6373 116.166 39.9047C116.166 26.8211 130.881 19.2134 130.881 19.2134L134.308 19.2134ZM133.373 45.3037C138.01 45.3037 141.77 41.5445 141.77 36.9072C141.77 32.27 138.01 28.5107 133.373 28.5107C128.736 28.5107 124.977 32.27 124.977 36.9072C124.977 41.5445 128.736 45.3037 133.373 45.3037Z" fill="#222733"/>
<path d="M134.308 82.1871L134.308 83.7871L135.113 83.7871L135.593 83.1406L134.308 82.1871ZM131.039 82.1871L129.61 82.9065L130.053 83.7871L131.039 83.7871L131.039 82.1871ZM130.881 19.2134L130.881 17.6134L130.492 17.6134L130.146 17.7921L130.881 19.2134ZM153.601 39.9047C153.601 30.1822 149.69 24.5151 145.204 21.3376C140.821 18.2327 136.05 17.6134 134.308 17.6134L134.308 20.8134C135.566 20.8134 139.641 21.3186 143.354 23.9488C146.965 26.5064 150.401 31.185 150.401 39.9047L153.601 39.9047ZM135.593 83.1406C138.598 79.0922 143.076 72.1219 146.811 64.2871C150.528 56.4888 153.601 47.6434 153.601 39.9047L150.401 39.9047C150.401 46.9199 147.577 55.2424 143.922 62.9102C140.285 70.5414 135.917 77.3353 133.024 81.2336L135.593 83.1406ZM131.039 83.7871L134.308 83.7871L134.308 80.5871L131.039 80.5871L131.039 83.7871ZM114.566 39.9047C114.566 43.3358 115.556 47.7578 116.96 52.3507C118.375 56.9788 120.255 61.9179 122.124 66.4328C123.996 70.9515 125.865 75.0666 127.267 78.0511C127.968 79.5439 128.553 80.7553 128.962 81.5946C129.167 82.0142 129.329 82.3409 129.439 82.5633C129.494 82.6745 129.537 82.7597 129.565 82.8173C129.58 82.8462 129.591 82.8681 129.598 82.883C129.602 82.8905 129.605 82.8962 129.607 82.9001C129.608 82.9021 129.609 82.9036 129.609 82.9046C129.609 82.9052 129.61 82.9056 129.61 82.9059C129.61 82.9062 129.61 82.9065 131.039 82.1871C132.468 81.4678 132.468 81.4678 132.468 81.4677C132.468 81.4675 132.468 81.4673 132.468 81.4669C132.468 81.4662 132.467 81.465 132.466 81.4634C132.464 81.4601 132.462 81.4551 132.459 81.4483C132.452 81.4347 132.441 81.4141 132.428 81.3866C132.4 81.3316 132.359 81.2493 132.305 81.141C132.198 80.9243 132.04 80.6037 131.838 80.1905C131.434 79.364 130.857 78.1673 130.164 76.6909C128.776 73.7369 126.928 69.6688 125.081 65.2085C123.232 60.7444 121.394 55.9087 120.02 51.4151C118.635 46.8864 117.766 42.84 117.766 39.9047L114.566 39.9047ZM130.881 19.2134C130.146 17.7921 130.146 17.7924 130.145 17.7927C130.145 17.7928 130.144 17.7932 130.144 17.7935C130.142 17.794 130.141 17.7947 130.14 17.7955C130.136 17.7971 130.132 17.7992 130.128 17.8018C130.118 17.8069 130.105 17.8138 130.088 17.8227C130.055 17.8404 130.008 17.8655 129.948 17.8981C129.829 17.9632 129.659 18.058 129.445 18.1821C129.018 18.43 128.415 18.7954 127.696 19.2743C126.259 20.2301 124.339 21.6484 122.414 23.4994C118.594 27.1731 114.566 32.7361 114.566 39.9047L117.766 39.9047C117.766 33.9897 121.095 29.2071 124.632 25.806C126.386 24.1196 128.146 22.8182 129.468 21.9387C130.128 21.4999 130.674 21.1688 131.052 20.9496C131.241 20.84 131.387 20.7586 131.483 20.7059C131.531 20.6796 131.567 20.6604 131.589 20.6485C131.601 20.6426 131.609 20.6384 131.613 20.6361C131.615 20.635 131.617 20.6343 131.617 20.634C131.617 20.6339 131.617 20.6339 131.617 20.634C131.617 20.6341 131.617 20.6342 131.617 20.6342C131.616 20.6344 131.616 20.6347 130.881 19.2134ZM134.308 17.6134L130.881 17.6134L130.881 20.8134L134.308 20.8134L134.308 17.6134ZM140.17 36.9072C140.17 40.6608 137.127 43.7037 133.373 43.7037L133.373 46.9037C138.894 46.9037 143.37 42.4282 143.37 36.9072L140.17 36.9072ZM133.373 30.1107C137.127 30.1107 140.17 33.1536 140.17 36.9072L143.37 36.9072C143.37 31.3863 138.894 26.9107 133.373 26.9107L133.373 30.1107ZM126.577 36.9072C126.577 33.1536 129.619 30.1107 133.373 30.1107L133.373 26.9107C127.852 26.9107 123.377 31.3863 123.377 36.9072L126.577 36.9072ZM133.373 43.7037C129.619 43.7037 126.577 40.6608 126.577 36.9072L123.377 36.9072C123.377 42.4282 127.852 46.9037 133.373 46.9037L133.373 43.7037Z" fill="#1F2226" mask="url(#path-2-inside-1_113_26)"/>
<mask id="path-4-inside-2_113_26" fill="white">
<path fill-rule="evenodd" clip-rule="evenodd" d="M131.142 82.1871C125.095 74.5403 113 55.3783 113 39.9048C113 20.5628 128.144 19.2134 131.142 19.2134C134.141 19.2134 148.835 21.4624 148.835 39.9048C148.835 54.6586 137.04 74.2404 131.142 82.1871ZM130.842 45.3037C135.479 45.3037 139.238 41.5445 139.238 36.9072C139.238 32.27 135.479 28.5107 130.842 28.5107C126.205 28.5107 122.445 32.27 122.445 36.9072C122.445 41.5445 126.205 45.3037 130.842 45.3037Z"/>
</mask>
<path fill-rule="evenodd" clip-rule="evenodd" d="M131.142 82.1871C125.095 74.5403 113 55.3783 113 39.9048C113 20.5628 128.144 19.2134 131.142 19.2134C134.141 19.2134 148.835 21.4624 148.835 39.9048C148.835 54.6586 137.04 74.2404 131.142 82.1871ZM130.842 45.3037C135.479 45.3037 139.238 41.5445 139.238 36.9072C139.238 32.27 135.479 28.5107 130.842 28.5107C126.205 28.5107 122.445 32.27 122.445 36.9072C122.445 41.5445 126.205 45.3037 130.842 45.3037Z" fill="#E4F8EA"/>
<path d="M131.142 82.1871L129.887 83.1796L131.183 84.8175L132.427 83.1406L131.142 82.1871ZM111.4 39.9048C111.4 48.0057 114.549 56.9275 118.368 64.6874C122.201 72.4773 126.799 79.2747 129.887 83.1796L132.397 81.1946C129.438 77.4527 124.965 70.8457 121.239 63.2745C117.498 55.6733 114.6 47.2774 114.6 39.9048L111.4 39.9048ZM131.142 17.6134C129.486 17.6134 124.592 17.9732 120.063 20.9718C115.421 24.0459 111.4 29.7394 111.4 39.9048L114.6 39.9048C114.6 30.7282 118.151 26.076 121.83 23.6399C125.623 21.1282 129.8 20.8134 131.142 20.8134L131.142 17.6134ZM150.435 39.9048C150.435 30.1822 146.524 24.5151 142.038 21.3376C137.655 18.2327 132.884 17.6134 131.142 17.6134L131.142 20.8134C132.4 20.8134 136.475 21.3186 140.188 23.9488C143.799 26.5064 147.235 31.185 147.235 39.9048L150.435 39.9048ZM132.427 83.1406C135.432 79.0922 139.91 72.1219 143.645 64.2871C147.362 56.4888 150.435 47.6434 150.435 39.9048L147.235 39.9048C147.235 46.9199 144.411 55.2424 140.756 62.9102C137.119 70.5414 132.751 77.3353 129.858 81.2336L132.427 83.1406ZM137.638 36.9072C137.638 40.6608 134.595 43.7037 130.842 43.7037L130.842 46.9037C136.363 46.9037 140.838 42.4282 140.838 36.9072L137.638 36.9072ZM130.842 30.1107C134.595 30.1107 137.638 33.1536 137.638 36.9072L140.838 36.9072C140.838 31.3863 136.363 26.9107 130.842 26.9107L130.842 30.1107ZM124.045 36.9072C124.045 33.1536 127.088 30.1107 130.842 30.1107L130.842 26.9107C125.321 26.9107 120.845 31.3863 120.845 36.9072L124.045 36.9072ZM130.842 43.7037C127.088 43.7037 124.045 40.6608 124.045 36.9072L120.845 36.9072C120.845 42.4282 125.321 46.9037 130.842 46.9037L130.842 43.7037Z" fill="#1F2226" mask="url(#path-4-inside-2_113_26)"/>
<mask id="path-6-inside-3_113_26" fill="white">
<path fill-rule="evenodd" clip-rule="evenodd" d="M15.3104 14.6558C16.9022 14.6558 24.7022 15.8496 24.7022 25.6394C24.7022 33.4713 18.441 43.8659 15.3104 48.0843L13.5749 48.0843C13.5749 48.0843 5.67975 32.3983 5.67975 25.6394C5.67975 18.6942 13.4909 14.6558 13.4909 14.6558L15.3104 14.6558ZM14.8146 28.5051C17.2762 28.5051 19.2718 26.5096 19.2718 24.048C19.2718 21.5864 17.2762 19.5908 14.8146 19.5908C12.353 19.5908 10.3575 21.5864 10.3575 24.048C10.3575 26.5096 12.353 28.5051 14.8146 28.5051Z"/>
</mask>
<path fill-rule="evenodd" clip-rule="evenodd" d="M15.3104 14.6558C16.9022 14.6558 24.7022 15.8496 24.7022 25.6394C24.7022 33.4713 18.441 43.8659 15.3104 48.0843L13.5749 48.0843C13.5749 48.0843 5.67975 32.3983 5.67975 25.6394C5.67975 18.6942 13.4909 14.6558 13.4909 14.6558L15.3104 14.6558ZM14.8146 28.5051C17.2762 28.5051 19.2718 26.5096 19.2718 24.048C19.2718 21.5864 17.2762 19.5908 14.8146 19.5908C12.353 19.5908 10.3575 21.5864 10.3575 24.048C10.3575 26.5096 12.353 28.5051 14.8146 28.5051Z" fill="#E4F8EA"/>
<path d="M15.3104 14.6558L15.3104 16.6558L15.3104 14.6558ZM15.3104 48.0843L15.3104 50.0843L16.3167 50.0843L16.9164 49.2762L15.3104 48.0843ZM13.5749 48.0843L11.7885 48.9835L12.3425 50.0843L13.5749 50.0843L13.5749 48.0843ZM13.4909 14.6558L13.4909 12.6558L13.0045 12.6558L12.5724 12.8792L13.4909 14.6558ZM26.7022 25.6394C26.7022 20.1178 24.4553 16.7541 21.7592 14.8444C19.1915 13.0256 16.409 12.6558 15.3104 12.6558L15.3104 16.6558C15.8036 16.6558 17.7169 16.8829 19.4472 18.1085C21.0491 19.2432 22.7022 21.3712 22.7022 25.6394L26.7022 25.6394ZM16.9164 49.2762C18.5513 47.0732 20.9683 43.3097 22.9856 39.0775C24.9812 34.891 26.7022 30.0075 26.7022 25.6394L22.7022 25.6394C22.7022 29.1032 21.2926 33.333 19.3748 37.3564C17.4789 41.334 15.2 44.877 13.7043 46.8924L16.9164 49.2762ZM13.5749 50.0843L15.3104 50.0843L15.3104 46.0843L13.5749 46.0843L13.5749 50.0843ZM3.67975 25.6394C3.67975 27.639 4.24832 30.1214 5.00076 32.5826C5.76664 35.0877 6.77946 37.7467 7.77951 40.1616C8.78152 42.5813 9.78187 44.7827 10.531 46.3779C10.9059 47.1762 11.2187 47.8246 11.4385 48.2747C11.5484 48.4997 11.6351 48.6754 11.6947 48.7955C11.7245 48.8555 11.7475 48.9017 11.7633 48.9333C11.7712 48.9491 11.7773 48.9613 11.7815 48.9696C11.7836 48.9738 11.7853 48.9771 11.7864 48.9794C11.787 48.9806 11.7875 48.9815 11.7878 48.9822C11.788 48.9825 11.7881 48.9828 11.7882 48.983C11.7884 48.9833 11.7885 48.9835 13.5749 48.0843C15.3614 47.1851 15.3615 47.1852 15.3615 47.1853C15.3614 47.1852 15.3614 47.1852 15.3613 47.185C15.3612 47.1847 15.361 47.1842 15.3606 47.1835C15.3598 47.182 15.3586 47.1796 15.3569 47.1762C15.3535 47.1694 15.3483 47.159 15.3412 47.1449C15.3272 47.1167 15.3059 47.074 15.2778 47.0175C15.2218 46.9046 15.1389 46.7366 15.0329 46.5195C14.8209 46.0854 14.5169 45.4554 14.1516 44.6776C13.4204 43.1205 12.447 40.9779 11.4752 38.6312C10.5014 36.2798 9.54045 33.75 8.82598 31.4131C8.09807 29.0322 7.67975 27.0193 7.67975 25.6394L3.67975 25.6394ZM13.4909 14.6558C12.5724 12.8792 12.5718 12.8795 12.5711 12.8798C12.5709 12.88 12.5702 12.8803 12.5696 12.8806C12.5686 12.8812 12.5674 12.8818 12.5661 12.8824C12.5635 12.8838 12.5605 12.8854 12.5569 12.8872C12.5498 12.8909 12.5409 12.8957 12.5301 12.9014C12.5085 12.9129 12.4796 12.9284 12.4439 12.9479C12.3725 12.9869 12.2736 13.0421 12.1512 13.1132C11.9066 13.2551 11.5666 13.4614 11.1627 13.7301C10.3588 14.2649 9.28251 15.0597 8.1991 16.1015C6.06912 18.1496 3.67975 21.3833 3.67975 25.6394L7.67975 25.6394C7.67975 22.9503 9.19598 20.6922 10.9716 18.9848C11.841 18.1488 12.7175 17.5 13.3781 17.0605C13.7066 16.842 13.9768 16.6785 14.1594 16.5725C14.2506 16.5196 14.3195 16.4812 14.3625 16.4577C14.384 16.446 14.399 16.438 14.407 16.4337C14.411 16.4316 14.4132 16.4304 14.4136 16.4302C14.4139 16.4301 14.4136 16.4302 14.4129 16.4306C14.4126 16.4307 14.4121 16.431 14.4115 16.4313C14.4113 16.4314 14.4107 16.4317 14.4106 16.4318C14.41 16.4321 14.4095 16.4324 13.4909 14.6558ZM15.3104 12.6558L13.4909 12.6558L13.4909 16.6558L15.3104 16.6558L15.3104 12.6558ZM17.2718 24.048C17.2718 25.405 16.1717 26.5051 14.8146 26.5051L14.8146 30.5051C18.3808 30.5051 21.2718 27.6141 21.2718 24.048L17.2718 24.048ZM14.8146 21.5908C16.1717 21.5908 17.2718 22.6909 17.2718 24.048L21.2718 24.048C21.2718 20.4818 18.3808 17.5908 14.8146 17.5908L14.8146 21.5908ZM12.3575 24.048C12.3575 22.6909 13.4576 21.5908 14.8146 21.5908L14.8146 17.5908C11.2484 17.5908 8.35748 20.4818 8.35748 24.048L12.3575 24.048ZM14.8146 26.5051C13.4576 26.5051 12.3575 25.405 12.3575 24.048L8.35748 24.048C8.35748 27.6141 11.2484 30.5051 14.8146 30.5051L14.8146 26.5051Z" fill="#1F2226" mask="url(#path-6-inside-3_113_26)"/>
<mask id="path-8-inside-4_113_26" fill="white">
<path fill-rule="evenodd" clip-rule="evenodd" d="M13.6306 48.0843C10.4204 44.0251 4 33.8533 4 25.6394C4 15.3721 12.0388 14.6558 13.6306 14.6558C15.2224 14.6558 23.0224 15.8496 23.0224 25.6394C23.0224 33.4713 16.7612 43.866 13.6306 48.0843ZM13.471 28.5053C15.9326 28.5053 17.9281 26.5098 17.9281 24.0482C17.9281 21.5866 15.9326 19.5911 13.471 19.5911C11.0094 19.5911 9.01385 21.5866 9.01385 24.0482C9.01385 26.5098 11.0094 28.5053 13.471 28.5053Z"/>
</mask>
<path fill-rule="evenodd" clip-rule="evenodd" d="M13.6306 48.0843C10.4204 44.0251 4 33.8533 4 25.6394C4 15.3721 12.0388 14.6558 13.6306 14.6558C15.2224 14.6558 23.0224 15.8496 23.0224 25.6394C23.0224 33.4713 16.7612 43.866 13.6306 48.0843ZM13.471 28.5053C15.9326 28.5053 17.9281 26.5098 17.9281 24.0482C17.9281 21.5866 15.9326 19.5911 13.471 19.5911C11.0094 19.5911 9.01385 21.5866 9.01385 24.0482C9.01385 26.5098 11.0094 28.5053 13.471 28.5053Z" fill="#E4F8EA"/>
<path d="M13.6306 48.0843L12.8462 48.7046L13.6558 49.7283L14.4336 48.6803L13.6306 48.0843ZM3 25.6394C3 29.974 4.68345 34.7347 6.71423 38.8614C8.75424 43.0069 11.2008 46.6241 12.8462 48.7046L14.415 47.464C12.8501 45.4854 10.4815 41.9871 8.50871 37.9783C6.52675 33.9508 5 29.5188 5 25.6394L3 25.6394ZM13.6306 13.6558C12.7363 13.6558 10.1047 13.8489 7.66626 15.4636C5.15653 17.1254 3 20.1968 3 25.6394L5 25.6394C5 20.8148 6.86285 18.3943 8.77046 17.1311C10.7493 15.8208 12.933 15.6558 13.6306 15.6558L13.6306 13.6558ZM24.0224 25.6394C24.0224 20.4312 21.924 17.3763 19.5015 15.6604C17.1431 13.9899 14.5779 13.6558 13.6306 13.6558L13.6306 15.6558C14.2752 15.6558 16.4058 15.9186 18.3454 17.2924C20.2209 18.6209 22.0224 21.0579 22.0224 25.6394L24.0224 25.6394ZM14.4336 48.6803C16.0337 46.5242 18.4162 42.8158 20.4032 38.6472C22.3792 34.5015 24.0224 29.7814 24.0224 25.6394L22.0224 25.6394C22.0224 29.3293 20.535 33.7225 18.5978 37.7867C16.6715 41.828 14.3581 45.4261 12.8276 47.4884L14.4336 48.6803ZM16.9281 24.0482C16.9281 25.9575 15.3803 27.5053 13.471 27.5053L13.471 29.5053C16.4849 29.5053 18.9281 27.0621 18.9281 24.0482L16.9281 24.0482ZM13.471 20.5911C15.3803 20.5911 16.9281 22.1389 16.9281 24.0482L18.9281 24.0482C18.9281 21.0343 16.4849 18.5911 13.471 18.5911L13.471 20.5911ZM10.0139 24.0482C10.0139 22.1389 11.5617 20.5911 13.471 20.5911L13.471 18.5911C10.4571 18.5911 8.01385 21.0343 8.01385 24.0482L10.0139 24.0482ZM13.471 27.5053C11.5617 27.5053 10.0139 25.9575 10.0139 24.0482L8.01385 24.0482C8.01385 27.0621 10.4571 29.5053 13.471 29.5053L13.471 27.5053Z" fill="#1F2226" mask="url(#path-8-inside-4_113_26)"/>
<mask id="path-10-inside-5_113_26" fill="white">
<path fill-rule="evenodd" clip-rule="evenodd" d="M74.4976 0.288574C79.9043 0.288574 107.001 4.34359 107.001 37.5947C107.001 64.1956 85.1307 99.5013 74.4976 113.829L69.7143 113.829C69.7143 113.829 41.7871 61.155 41.7871 37.5947C41.7871 16.3135 68.8085 0.288574 68.8085 0.288574L74.4976 0.288574ZM72.7329 47.4305C79.9863 47.4305 85.8662 40.6043 85.8662 32.1837C85.8662 23.7632 79.9863 16.937 72.7329 16.937C65.4796 16.937 59.5996 23.7632 59.5996 32.1837C59.5996 40.6043 65.4796 47.4305 72.7329 47.4305Z"/>
</mask>
<path fill-rule="evenodd" clip-rule="evenodd" d="M74.4976 0.288574C79.9043 0.288574 107.001 4.34359 107.001 37.5947C107.001 64.1956 85.1307 99.5013 74.4976 113.829L69.7143 113.829C69.7143 113.829 41.7871 61.155 41.7871 37.5947C41.7871 16.3135 68.8085 0.288574 68.8085 0.288574L74.4976 0.288574ZM72.7329 47.4305C79.9863 47.4305 85.8662 40.6043 85.8662 32.1837C85.8662 23.7632 79.9863 16.937 72.7329 16.937C65.4796 16.937 59.5996 23.7632 59.5996 32.1837C59.5996 40.6043 65.4796 47.4305 72.7329 47.4305Z" fill="#E4F8EA"/>
<path d="M74.4976 113.829V115.829H75.5039L76.1036 115.021L74.4976 113.829ZM69.7143 113.829L67.9473 114.766L68.511 115.829L69.7143 115.829L69.7143 113.829ZM68.8085 0.288574V-1.71143L68.2601 -1.71143L67.7884 -1.43167L68.8085 0.288574ZM109.001 37.5947C109.001 20.3234 101.913 10.3788 93.917 4.82937C86.0518 -0.628897 77.4983 -1.71143 74.4976 -1.71143V2.28857C76.9035 2.28857 84.6016 3.23355 91.6364 8.11557C98.54 12.9065 105.001 21.6149 105.001 37.5947L109.001 37.5947ZM76.1036 115.021C81.4816 107.774 89.6755 95.2609 96.5344 81.1907C103.369 67.17 109.001 51.3592 109.001 37.5947L105.001 37.5947C105.001 50.4311 99.6975 65.5735 92.9389 79.4379C86.2045 93.2527 78.1467 105.556 72.8915 112.637L76.1036 115.021ZM69.7143 115.829L74.4976 115.829L74.4976 111.829L69.7143 111.829L69.7143 115.829ZM39.7871 37.5947C39.7871 43.8034 41.6117 51.7536 44.2444 60.0507C46.8907 68.3906 50.41 77.2516 53.9156 85.3421C57.4232 93.4374 60.929 100.789 63.5571 106.115C64.8716 108.78 65.9674 110.939 66.7354 112.434C67.1194 113.181 67.4214 113.762 67.628 114.158C67.7312 114.355 67.8106 114.507 67.8644 114.609C67.8913 114.66 67.9118 114.699 67.9257 114.725C67.9326 114.738 67.9379 114.748 67.9415 114.755C67.9433 114.758 67.9447 114.761 67.9457 114.763C67.9462 114.764 67.9466 114.764 67.9468 114.765C67.9471 114.765 67.9473 114.766 69.7143 113.829C71.4813 112.892 71.4813 112.892 71.4812 112.892C71.481 112.892 71.4807 112.891 71.4804 112.89C71.4796 112.889 71.4785 112.887 71.4769 112.884C71.4737 112.878 71.4689 112.869 71.4624 112.856C71.4495 112.832 71.4299 112.795 71.404 112.746C71.3521 112.647 71.2746 112.499 71.1733 112.306C70.9708 111.918 70.6729 111.345 70.2932 110.606C69.5339 109.128 68.448 106.988 67.1442 104.346C64.536 99.0594 61.06 91.77 57.5858 83.7518C54.1096 75.7288 50.6471 67.0037 48.0571 58.8409C45.4534 50.6353 43.7871 43.1662 43.7871 37.5947L39.7871 37.5947ZM68.8085 0.288574C67.7884 -1.43167 67.7878 -1.43131 67.7871 -1.4309C67.7867 -1.43068 67.7859 -1.43021 67.7852 -1.42977C67.7837 -1.42889 67.7818 -1.42776 67.7795 -1.4264C67.7749 -1.42366 67.7687 -1.41994 67.7609 -1.41525C67.7452 -1.40586 67.7231 -1.39258 67.6948 -1.37544C67.6382 -1.34116 67.5568 -1.29143 67.4521 -1.2266C67.2427 -1.09695 66.9404 -0.906777 66.5583 -0.658711C65.7944 -0.162727 64.7106 0.565573 63.4132 1.50524C60.8221 3.38202 57.3613 6.115 53.893 9.53765C47.0311 16.3092 39.7871 26.1286 39.7871 37.5947L43.7871 37.5947C43.7871 27.7797 50.0538 18.946 56.7026 12.3848C59.9897 9.14102 63.2843 6.53768 65.7596 4.74475C66.9956 3.84955 68.0228 3.15965 68.7366 2.69613C69.0934 2.46445 69.3716 2.28956 69.5581 2.17408C69.6513 2.11634 69.7216 2.07348 69.7672 2.04583C69.7901 2.032 69.8067 2.02197 69.8171 2.01579C69.8222 2.0127 69.8258 2.01057 69.8277 2.0094C69.8287 2.00882 69.8293 2.00848 69.8295 2.00838C69.8295 2.00833 69.8294 2.00844 69.8294 2.00842C69.8291 2.00859 69.8287 2.00881 68.8085 0.288574ZM74.4976 -1.71143L68.8085 -1.71143V2.28857L74.4976 2.28857V-1.71143ZM83.8662 32.1837C83.8662 39.7902 78.612 45.4305 72.7329 45.4305L72.7329 49.4305C81.3605 49.4305 87.8662 41.4184 87.8662 32.1837L83.8662 32.1837ZM72.7329 18.937C78.612 18.937 83.8662 24.5773 83.8662 32.1837L87.8662 32.1837C87.8662 22.9491 81.3605 14.937 72.7329 14.937V18.937ZM61.5996 32.1837C61.5996 24.5773 66.8538 18.937 72.7329 18.937V14.937C64.1054 14.937 57.5996 22.9491 57.5996 32.1837L61.5996 32.1837ZM72.7329 45.4305C66.8538 45.4305 61.5996 39.7902 61.5996 32.1837L57.5996 32.1837C57.5996 41.4184 64.1054 49.4305 72.7329 49.4305L72.7329 45.4305Z" fill="#1F2226" mask="url(#path-10-inside-5_113_26)"/>
<mask id="path-12-inside-6_113_26" fill="white">
<path fill-rule="evenodd" clip-rule="evenodd" d="M69.6733 113.829C58.7699 100.042 36.9629 65.4932 36.9629 37.5947C36.9629 2.72158 64.2667 0.288574 69.6733 0.288574C75.08 0.288574 101.573 4.34359 101.573 37.5947C101.573 64.1956 80.3065 99.5013 69.6733 113.829ZM69.1329 47.3136C77.4938 47.3136 84.2716 40.5357 84.2716 32.1749C84.2716 23.814 77.4938 17.0361 69.1329 17.0361C60.772 17.0361 53.9941 23.814 53.9941 32.1749C53.9941 40.5357 60.772 47.3136 69.1329 47.3136Z"/>
</mask>
<path fill-rule="evenodd" clip-rule="evenodd" d="M69.6733 113.829C58.7699 100.042 36.9629 65.4932 36.9629 37.5947C36.9629 2.72158 64.2667 0.288574 69.6733 0.288574C75.08 0.288574 101.573 4.34359 101.573 37.5947C101.573 64.1956 80.3065 99.5013 69.6733 113.829ZM69.1329 47.3136C77.4938 47.3136 84.2716 40.5357 84.2716 32.1749C84.2716 23.814 77.4938 17.0361 69.1329 17.0361C60.772 17.0361 53.9941 23.814 53.9941 32.1749C53.9941 40.5357 60.772 47.3136 69.1329 47.3136Z" fill="#5BCB7D"/>
<path d="M69.6733 113.829L68.1046 115.07L69.7238 117.117L71.2794 115.021L69.6733 113.829ZM34.9629 37.5947C34.9629 51.9992 40.5713 67.9397 47.4348 81.8867C54.3168 95.8713 62.5723 108.074 68.1046 115.07L71.2421 112.588C65.8709 105.797 57.7712 93.8317 51.0238 80.1206C44.2579 66.3719 38.9629 51.0887 38.9629 37.5947L34.9629 37.5947ZM69.6733 -1.71143C66.7733 -1.71143 58.1478 -1.07506 50.1864 4.19666C42.0825 9.56276 34.9629 19.5401 34.9629 37.5947L38.9629 37.5947C38.9629 20.7762 45.4952 12.1005 52.3948 7.53178C59.437 2.86871 67.1667 2.28857 69.6733 2.28857V-1.71143ZM103.573 37.5947C103.573 20.3424 96.6527 10.3981 88.8066 4.84042C81.0888 -0.626326 72.6794 -1.71143 69.6733 -1.71143V2.28857C72.074 2.28857 79.6143 3.23098 86.4945 8.10452C93.2465 12.8872 99.5728 21.5959 99.5728 37.5947L103.573 37.5947ZM71.2794 115.021C76.6656 107.763 84.7095 95.2446 91.4159 81.1748C98.1005 67.1508 103.573 51.3473 103.573 37.5947L99.5728 37.5947C99.5728 50.443 94.412 65.5928 87.8051 79.4537C81.2201 93.2689 73.3143 105.567 68.0673 112.637L71.2794 115.021ZM82.2716 32.1749C82.2716 39.4312 76.3892 45.3136 69.1329 45.3136L69.1329 49.3136C78.5983 49.3136 86.2716 41.6403 86.2716 32.1749L82.2716 32.1749ZM69.1329 19.0361C76.3892 19.0361 82.2716 24.9185 82.2716 32.1749L86.2716 32.1749C86.2716 22.7094 78.5983 15.0361 69.1329 15.0361L69.1329 19.0361ZM55.9941 32.1749C55.9941 24.9185 61.8765 19.0361 69.1329 19.0361L69.1329 15.0361C59.6674 15.0361 51.9941 22.7094 51.9941 32.1749L55.9941 32.1749ZM69.1329 45.3136C61.8765 45.3136 55.9941 39.4312 55.9941 32.1749L51.9941 32.1749C51.9941 41.6403 59.6674 49.3136 69.1329 49.3136L69.1329 45.3136Z" fill="#1F2226" mask="url(#path-12-inside-6_113_26)"/>
</svg>
