<svg width="20" height="20" viewBox="0 0 20 20" fill="none" xmlns="http://www.w3.org/2000/svg">
<g clip-path="url(#clip0_174_12560)">
<path d="M5.03844 16.16C4.43044 16.16 3.90244 16.08 3.45444 15.92C3.00644 15.7493 2.62777 15.5307 2.31844 15.264C2.01977 14.9867 1.79044 14.6773 1.63044 14.336C1.47044 13.9947 1.37977 13.6427 1.35844 13.28H2.86244C2.91577 13.6853 3.1291 14.0427 3.50244 14.352C3.88644 14.6613 4.39844 14.816 5.03844 14.816C5.76377 14.816 6.33444 14.592 6.75044 14.144C7.16644 13.6853 7.37444 13.0507 7.37444 12.24C7.37444 11.7813 7.3051 11.3867 7.16644 11.056C7.03844 10.7253 6.86244 10.4587 6.63844 10.256C6.4251 10.0533 6.17977 9.904 5.90244 9.808C5.6251 9.712 5.3371 9.664 5.03844 9.664C4.46244 9.664 4.0091 9.77067 3.67844 9.984C3.35844 10.1973 3.1131 10.4427 2.94244 10.72H1.59844V4.8H8.23844V6.112H3.10244V9.232C3.6571 8.624 4.38244 8.32 5.27844 8.32C6.38777 8.32 7.26244 8.656 7.90244 9.328C8.5531 10 8.87844 10.9707 8.87844 12.24C8.87844 12.8373 8.78244 13.3813 8.59044 13.872C8.4091 14.352 8.14777 14.7627 7.80644 15.104C7.47577 15.4453 7.07044 15.7067 6.59044 15.888C6.1211 16.0693 5.60377 16.16 5.03844 16.16ZM14.6397 16.16C14.0957 16.16 13.5784 16.0693 13.0877 15.888C12.6077 15.7067 12.1864 15.3973 11.8237 14.96C11.461 14.512 11.173 13.92 10.9597 13.184C10.7464 12.4373 10.6397 11.5093 10.6397 10.4V10.08C10.6397 9.04533 10.7464 8.18133 10.9597 7.488C11.173 6.79467 11.461 6.24 11.8237 5.824C12.1864 5.39733 12.6077 5.09333 13.0877 4.912C13.5784 4.73067 14.0957 4.64 14.6397 4.64C15.1837 4.64 15.6957 4.73067 16.1757 4.912C16.6664 5.09333 17.093 5.39733 17.4557 5.824C17.8184 6.24 18.1064 6.79467 18.3197 7.488C18.533 8.18133 18.6397 9.04533 18.6397 10.08V10.4C18.6397 11.5093 18.533 12.4373 18.3197 13.184C18.1064 13.92 17.8184 14.512 17.4557 14.96C17.093 15.3973 16.6664 15.7067 16.1757 15.888C15.6957 16.0693 15.1837 16.16 14.6397 16.16ZM14.6397 14.848C14.9704 14.848 15.285 14.7893 15.5837 14.672C15.893 14.544 16.1597 14.32 16.3837 14C16.6184 13.6693 16.7997 13.216 16.9277 12.64C17.0664 12.064 17.1357 11.3173 17.1357 10.4V10.08C17.1357 9.248 17.0664 8.56533 16.9277 8.032C16.7997 7.49867 16.6184 7.07733 16.3837 6.768C16.1597 6.45867 15.893 6.24533 15.5837 6.128C15.285 6.01067 14.9704 5.952 14.6397 5.952C14.2984 5.952 13.9784 6.01067 13.6797 6.128C13.381 6.24533 13.1144 6.45867 12.8797 6.768C12.6557 7.07733 12.4744 7.49867 12.3357 8.032C12.2077 8.56533 12.1437 9.248 12.1437 10.08V10.4C12.1437 11.3173 12.2077 12.064 12.3357 12.64C12.4744 13.216 12.6557 13.6693 12.8797 14C13.1144 14.32 13.381 14.544 13.6797 14.672C13.9784 14.7893 14.2984 14.848 14.6397 14.848Z" fill="#1F2226"/>
</g>
<defs>
<clipPath id="clip0_174_12560">
<rect width="20" height="20" fill="white"/>
</clipPath>
</defs>
</svg>
