<svg xmlns="http://www.w3.org/2000/svg" viewBox="0 0 54 21">
        <path fill-rule="evenodd" clip-rule="evenodd"
              d="M7.6465 3.86636C8.6403 3.94567 9.6341 3.3905 10.2552 2.68663C10.866 1.96292 11.2697 0.991375 11.1662 0C10.2863 0.039655 9.19931 0.55517 8.57819 1.27887C8.00882 1.90344 7.52227 2.91464 7.6465 3.86636ZM19.4688 16.6333V1.17957H25.5247C28.6511 1.17957 30.8354 3.24139 30.8354 6.25482C30.8354 9.26824 28.6097 11.3499 25.4419 11.3499H21.974V16.6333H19.4688ZM11.1564 4.05425C10.2809 4.006 9.48199 4.30637 8.83672 4.549C8.42147 4.70513 8.06983 4.83734 7.80231 4.83734C7.50209 4.83734 7.13594 4.69806 6.72483 4.54167L6.72482 4.54167C6.18614 4.33676 5.57027 4.10248 4.92442 4.11372C3.44408 4.13355 2.06725 4.93647 1.31154 6.21519C-0.24127 8.77264 0.907813 12.5593 2.40887 14.6409C3.14386 15.6718 4.02379 16.8018 5.18323 16.7622C5.69331 16.7438 6.06023 16.5947 6.43996 16.4404C6.87713 16.2628 7.33128 16.0782 8.0404 16.0782C8.72494 16.0782 9.15923 16.2579 9.57612 16.4305C9.97251 16.5945 10.3532 16.752 10.9183 16.7424C12.1191 16.7225 12.8748 15.7115 13.6098 14.6806C14.403 13.5741 14.7516 12.4943 14.8045 12.3304L14.8107 12.3114C14.8094 12.3102 14.7996 12.3059 14.7823 12.2984C14.5172 12.1821 12.4905 11.2937 12.4711 8.91142C12.4516 6.91183 14.0786 5.89871 14.3347 5.73923L14.3347 5.73922L14.3347 5.73919C14.3503 5.72951 14.3608 5.72297 14.3655 5.71956C13.3303 4.2525 11.7154 4.0939 11.1564 4.05425ZM35.4115 16.7523C36.9851 16.7523 38.4447 15.989 39.1072 14.7797H39.159V16.6333H41.4779V8.94116C41.4779 6.71083 39.6145 5.2735 36.747 5.2735C34.0865 5.2735 32.1196 6.73066 32.0471 8.733H34.3039C34.4902 7.78139 35.4115 7.1569 36.6745 7.1569C38.2066 7.1569 39.0658 7.84087 39.0658 9.09977V9.95225L35.9395 10.1307C33.0306 10.2992 31.457 11.4391 31.457 13.4217C31.457 15.424 33.0823 16.7523 35.4115 16.7523ZM36.0847 14.9188C34.7493 14.9188 33.9004 14.3042 33.9004 13.3624C33.9004 12.3908 34.7182 11.8258 36.2814 11.7365L39.0661 11.568V12.4404C39.0661 13.8878 37.7824 14.9188 36.0847 14.9188ZM49.1697 17.2381C48.1655 19.9442 47.0164 20.8363 44.5734 20.8363C44.387 20.8363 43.7659 20.8165 43.621 20.7768V18.9232C43.7762 18.943 44.1593 18.9628 44.356 18.9628C45.4636 18.9628 46.0848 18.5168 46.4678 17.357L46.6955 16.673L42.4512 5.42224H45.0703L48.0206 14.5517H48.0724L51.0227 5.42224H53.5693L49.1697 17.2381ZM21.9746 3.20178H24.8628C27.0368 3.20178 28.279 4.31212 28.279 6.26513C28.279 8.21814 27.0368 9.33839 24.8525 9.33839H21.9746V3.20178Z"
              fill="black"/>
	</svg>