<svg width="16" height="19" viewBox="0 0 16 19" fill="none" xmlns="http://www.w3.org/2000/svg">
<path d="M13.3634 10.1022C13.3427 7.70323 15.397 6.53389 15.4926 6.48164C14.3282 4.84214 12.5234 4.61711 11.8872 4.60103C10.3693 4.44835 8.90134 5.47706 8.12787 5.47706C7.34189 5.47706 6.15252 4.61711 4.86756 4.64124C3.21659 4.66533 1.67378 5.58958 0.829601 7.02013C-0.916997 9.94149 0.384645 14.2331 2.06054 16.5959C2.89637 17.7532 3.87367 19.0431 5.15451 18.9989C6.4062 18.9507 6.87613 18.2274 8.38568 18.2274C9.88276 18.2274 10.3235 18.9989 11.6294 18.9708C12.9726 18.9507 13.8209 17.8094 14.6277 16.6441C15.5966 15.3181 15.9834 14.0121 16 13.9478C15.9667 13.9277 13.3884 12.9754 13.3634 10.1022ZM10.8975 3.04592C11.5711 2.2302 12.0327 1.12515 11.9038 0C10.9307 0.0401623 9.70808 0.650958 9.00944 1.44662C8.38985 2.14983 7.83258 3.29907 7.97816 4.38003C9.06768 4.45637 10.1946 3.84557 10.8975 3.04592Z" fill="white"/>
</svg>
