<svg width="110" height="32" viewBox="0 0 110 32" fill="none" xmlns="http://www.w3.org/2000/svg">
<g clip-path="url(#clip0_9862_192792)">
<rect width="110" height="32" rx="6" fill="#F7F7F7"/>
<path d="M25.9521 15.2519C25.9314 12.7909 27.9885 11.5914 28.0843 11.5378C26.9183 9.85592 25.111 9.62507 24.4738 9.60858C22.9539 9.45196 21.4839 10.5072 20.7094 10.5072C19.9223 10.5072 18.7313 9.62507 17.4446 9.64983C15.7913 9.67454 14.2464 10.6227 13.4011 12.0902C11.6521 15.087 12.9555 19.4895 14.6337 21.9134C15.4707 23.1006 16.4493 24.4238 17.7319 24.3784C18.9853 24.329 19.4559 23.587 20.9675 23.587C22.4667 23.587 22.9081 24.3784 24.2157 24.3496C25.5607 24.329 26.4102 23.1583 27.2181 21.9628C28.1884 20.6025 28.5757 19.2628 28.5923 19.1968C28.559 19.1762 25.9772 18.1993 25.9521 15.2519ZM23.4828 8.01329C24.1573 7.17649 24.6196 6.04289 24.4905 4.88867C23.5161 4.92987 22.2917 5.55645 21.5921 6.37267C20.9717 7.09405 20.4137 8.27298 20.5594 9.38187C21.6505 9.46018 22.779 8.8336 23.4828 8.01329Z" fill="#1F2226"/>
<path d="M44.1195 25.3137H42.3663L41.4044 22.3292H38.0688L37.1526 25.3137H35.4453L38.7517 15.1484H40.7922L44.1195 25.3137ZM41.117 21.0761L40.2467 18.4214C40.1551 18.1493 39.9802 17.5104 39.7303 16.5046H39.7012C39.6012 16.9374 39.4347 17.5764 39.214 18.4214L38.3603 21.0761H41.117ZM52.6065 21.5584C52.6065 22.8033 52.2648 23.7885 51.5819 24.514C50.9695 25.1571 50.2076 25.4786 49.2997 25.4786C48.3169 25.4786 47.6134 25.1324 47.1846 24.4398V28.2859H45.5395V20.3918C45.5395 19.6086 45.5189 18.8048 45.4771 17.9844H46.926L47.018 19.1469H47.0468C47.5968 18.273 48.4296 17.8319 49.5453 17.8319C50.4199 17.8319 51.1486 18.1741 51.7319 18.8584C52.3146 19.5427 52.6065 20.4454 52.6065 21.5584ZM50.9322 21.6202C50.9322 20.9071 50.7697 20.3176 50.4451 19.856C50.0908 19.3736 49.6122 19.1345 49.0124 19.1345C48.6088 19.1345 48.2379 19.2706 47.9088 19.5344C47.5802 19.8024 47.3633 20.1528 47.2636 20.5814C47.2178 20.7422 47.1927 20.9112 47.1886 21.0761V22.3004C47.1886 22.8322 47.3552 23.2815 47.6843 23.6525C48.013 24.0194 48.4422 24.2048 48.9706 24.2048C49.5911 24.2048 50.0742 23.9658 50.4199 23.4959C50.7571 23.0177 50.9322 22.3952 50.9322 21.6202ZM61.1263 21.5584C61.1263 22.8033 60.7851 23.7885 60.1017 24.514C59.4898 25.1571 58.7279 25.4786 57.82 25.4786C56.8372 25.4786 56.1332 25.1324 55.7044 24.4398V28.2859H54.0594V20.3918C54.0594 19.6086 54.0387 18.8048 53.997 17.9844H55.4463L55.5379 19.1469H55.5671C56.1166 18.273 56.9495 17.8319 58.0656 17.8319C58.9402 17.8319 59.6689 18.1741 60.2517 18.8584C60.8309 19.5427 61.1263 20.4454 61.1263 21.5584ZM59.448 21.6202C59.448 20.9071 59.2859 20.3176 58.9609 19.856C58.6071 19.3736 58.128 19.1345 57.5286 19.1345C57.1246 19.1345 56.7537 19.2706 56.4206 19.5344C56.0919 19.8024 55.8751 20.1528 55.7754 20.5814C55.7251 20.7834 55.6964 20.9483 55.6964 21.0761V22.3004C55.6964 22.8322 55.8629 23.2815 56.1916 23.6525C56.5207 24.0194 56.9495 24.2048 57.4828 24.2048C58.1029 24.2048 58.586 23.9658 58.9317 23.4959C59.2774 23.0177 59.448 22.3952 59.448 21.6202ZM70.6501 22.4653C70.6501 23.331 70.3461 24.0359 69.7382 24.5759C69.0719 25.1695 68.1349 25.4663 66.9397 25.4663C65.8361 25.4663 64.9494 25.256 64.2786 24.8314L64.6575 23.4752C65.3782 23.8998 66.1733 24.11 67.0353 24.11C67.6558 24.11 68.1389 23.9699 68.4846 23.6937C68.8304 23.4175 69.005 23.0465 69.005 22.5848C69.005 22.1726 68.8595 21.8264 68.5762 21.5419C68.2929 21.2616 67.8224 20.9978 67.1606 20.7587C65.3615 20.095 64.4618 19.1222 64.4618 17.8484C64.4618 17.0157 64.7783 16.3315 65.4154 15.7997C66.0485 15.2679 66.8899 15 67.9391 15C68.8721 15 69.6506 15.1608 70.2711 15.4823L69.859 16.8096C69.2757 16.4964 68.622 16.3438 67.8848 16.3438C67.3061 16.3438 66.8481 16.484 66.523 16.7643C66.2483 17.0157 66.1109 17.3208 66.1109 17.6836C66.1109 18.0834 66.2694 18.4173 66.5859 18.677C66.8607 18.9161 67.3559 19.1799 68.0765 19.4602C68.9592 19.8147 69.6089 20.2228 70.0255 20.6969C70.4417 21.1709 70.6501 21.7604 70.6501 22.4653ZM76.1052 19.2088H74.2895V22.7662C74.2895 23.6731 74.6101 24.1224 75.2517 24.1224C75.5471 24.1224 75.7886 24.0977 75.9844 24.0482L76.0302 25.2849C75.7056 25.4044 75.2808 25.4663 74.7519 25.4663C74.1023 25.4663 73.594 25.2684 73.2277 24.8768C72.8613 24.4852 72.6781 23.8256 72.6781 22.9023V19.2088H71.5997V17.9886H72.6781V16.6448L74.294 16.1624V17.9886H76.1092L76.1052 19.2088ZM84.2712 21.5914C84.2712 22.7168 83.9466 23.6443 83.2969 24.3656C82.6181 25.1117 81.7147 25.4828 80.586 25.4828C79.499 25.4828 78.6329 25.1241 77.9873 24.4151C77.3421 23.702 77.0215 22.7992 77.0215 21.7151C77.0215 20.5773 77.3547 19.6498 78.021 18.9243C78.6873 18.1988 79.5825 17.8402 80.7108 17.8402C81.7978 17.8402 82.6724 18.1988 83.3302 18.912C83.9547 19.6004 84.2712 20.4949 84.2712 21.5914ZM82.5642 21.6285C82.5642 20.9566 82.4183 20.3795 82.1224 19.9013C81.7771 19.32 81.2855 19.0274 80.6444 19.0274C79.9862 19.0274 79.4784 19.32 79.1367 19.9013C78.8413 20.3836 78.6953 20.9689 78.6953 21.6615C78.6953 22.3334 78.8413 22.9105 79.1367 23.3928C79.4909 23.974 79.9906 24.2667 80.6318 24.2667C81.2608 24.2667 81.752 23.9699 82.1103 23.3804C82.4142 22.8816 82.5642 22.3004 82.5642 21.6285ZM89.6226 19.419C89.4515 19.3901 89.2769 19.3736 89.1018 19.3736C88.5231 19.3736 88.0777 19.588 87.7611 20.0208C87.4864 20.4042 87.349 20.8865 87.349 21.4677V25.3137H85.7039V20.2929C85.7039 19.522 85.6913 18.7553 85.6581 17.9844H87.0908L87.1487 19.386H87.1945C87.3696 18.9037 87.6404 18.5162 88.0193 18.2236C88.3605 17.968 88.7812 17.8319 89.21 17.8319C89.3644 17.8319 89.4973 17.8443 89.6226 17.8608V19.419ZM96.9809 21.3028C96.985 21.5502 96.9639 21.7975 96.9226 22.0407H91.9838C92.0004 22.7662 92.242 23.3186 92.6999 23.702C93.1161 24.0441 93.6535 24.2131 94.3158 24.2131C95.0485 24.2131 95.7148 24.0977 96.3146 23.8668L96.5728 24.9963C95.8728 25.2972 95.0445 25.4498 94.0908 25.4498C92.9415 25.4498 92.0417 25.1159 91.384 24.4481C90.7302 23.7803 90.4011 22.8816 90.4011 21.7563C90.4011 20.6515 90.7051 19.7323 91.3175 18.9985C91.9546 18.2153 92.8207 17.8237 93.9077 17.8237C94.9735 17.8237 95.7813 18.2153 96.3313 18.9985C96.76 19.621 96.9809 20.3877 96.9809 21.3028ZM95.4108 20.8824C95.4234 20.4001 95.3152 19.9837 95.0903 19.6292C94.807 19.1758 94.3656 18.9491 93.7784 18.9491C93.2414 18.9491 92.8041 19.1716 92.4664 19.6127C92.1917 19.9631 92.0296 20.3877 91.9793 20.8783L95.4108 20.8824Z" fill="#1F2226"/>
<path d="M37.92 12.08C37.584 12.08 37.28 12.032 37.008 11.936C36.7413 11.84 36.512 11.6933 36.32 11.496C36.128 11.2987 35.9787 11.0507 35.872 10.752C35.7707 10.448 35.72 10.0907 35.72 9.68V6.4H36.472V9.68C36.472 10.288 36.6 10.728 36.856 11C37.112 11.272 37.4667 11.408 37.92 11.408C38.3733 11.408 38.728 11.272 38.984 11C39.24 10.728 39.368 10.288 39.368 9.68V6.4H40.12V9.68C40.12 10.0907 40.0667 10.448 39.96 10.752C39.8587 11.0507 39.712 11.2987 39.52 11.496C39.328 11.6933 39.096 11.84 38.824 11.936C38.5573 12.032 38.256 12.08 37.92 12.08ZM41.3238 7.76H41.9798V8.56C42.1238 8.27733 42.3238 8.06133 42.5798 7.912C42.8411 7.75733 43.1424 7.68 43.4838 7.68C44.0171 7.68 44.4438 7.856 44.7638 8.208C45.0838 8.55467 45.2438 9.072 45.2438 9.76V9.92C45.2438 10.2827 45.2011 10.6 45.1158 10.872C45.0304 11.1387 44.9104 11.3627 44.7558 11.544C44.6011 11.72 44.4144 11.8533 44.1958 11.944C43.9824 12.0347 43.7451 12.08 43.4838 12.08C43.1211 12.08 42.8171 12 42.5718 11.84C42.3318 11.68 42.1504 11.48 42.0278 11.24V13.6H41.3238V7.76ZM43.3238 11.456C43.4944 11.456 43.6544 11.424 43.8038 11.36C43.9531 11.2907 44.0811 11.192 44.1878 11.064C44.2998 10.936 44.3851 10.776 44.4438 10.584C44.5078 10.392 44.5398 10.1707 44.5398 9.92V9.76C44.5398 9.53067 44.5078 9.32533 44.4438 9.144C44.3851 8.96267 44.2998 8.81067 44.1878 8.688C44.0811 8.56 43.9531 8.464 43.8038 8.4C43.6544 8.336 43.4944 8.304 43.3238 8.304C43.1318 8.304 42.9558 8.336 42.7958 8.4C42.6358 8.45867 42.4998 8.544 42.3878 8.656C42.2758 8.76267 42.1878 8.89067 42.1238 9.04C42.0598 9.18933 42.0278 9.34933 42.0278 9.52V10.16C42.0278 10.352 42.0598 10.528 42.1238 10.688C42.1878 10.848 42.2758 10.984 42.3878 11.096C42.4998 11.208 42.6358 11.296 42.7958 11.36C42.9558 11.424 43.1318 11.456 43.3238 11.456ZM47.3656 12.04C46.923 12.04 46.6056 11.9333 46.4136 11.72C46.2216 11.5067 46.1256 11.16 46.1256 10.68V6.4H46.8296V10.68C46.8296 10.9573 46.875 11.1467 46.9656 11.248C47.0563 11.3493 47.2163 11.4 47.4456 11.4C47.5043 11.4 47.555 11.4 47.5976 11.4C47.6403 11.3947 47.683 11.3893 47.7256 11.384V12.008C47.683 12.0187 47.6216 12.0267 47.5416 12.032C47.467 12.0373 47.4083 12.04 47.3656 12.04ZM50.17 12.08C49.898 12.08 49.6393 12.0373 49.394 11.952C49.1487 11.8613 48.9327 11.728 48.746 11.552C48.5593 11.3707 48.41 11.144 48.298 10.872C48.186 10.6 48.13 10.2827 48.13 9.92V9.76C48.13 9.41867 48.186 9.11733 48.298 8.856C48.41 8.59467 48.5593 8.37867 48.746 8.208C48.9327 8.032 49.1487 7.90133 49.394 7.816C49.6393 7.72533 49.898 7.68 50.17 7.68C50.442 7.68 50.7007 7.72533 50.946 7.816C51.1913 7.90133 51.4073 8.032 51.594 8.208C51.7807 8.37867 51.93 8.59467 52.042 8.856C52.154 9.11733 52.21 9.41867 52.21 9.76V9.92C52.21 10.2827 52.154 10.6 52.042 10.872C51.93 11.144 51.7807 11.3707 51.594 11.552C51.4073 11.728 51.1913 11.8613 50.946 11.952C50.7007 12.0373 50.442 12.08 50.17 12.08ZM50.17 11.44C50.33 11.44 50.49 11.4133 50.65 11.36C50.81 11.3013 50.9513 11.2133 51.074 11.096C51.1967 10.9733 51.2953 10.816 51.37 10.624C51.45 10.432 51.49 10.1973 51.49 9.92V9.76C51.49 9.504 51.45 9.28533 51.37 9.104C51.2953 8.92267 51.1967 8.77333 51.074 8.656C50.9513 8.53867 50.81 8.45333 50.65 8.4C50.49 8.34667 50.33 8.32 50.17 8.32C50.01 8.32 49.85 8.34667 49.69 8.4C49.53 8.45333 49.3887 8.53867 49.266 8.656C49.1433 8.77333 49.042 8.92267 48.962 9.104C48.8873 9.28533 48.85 9.504 48.85 9.76V9.92C48.85 10.1973 48.8873 10.432 48.962 10.624C49.042 10.816 49.1433 10.9733 49.266 11.096C49.3887 11.2133 49.53 11.3013 49.69 11.36C49.85 11.4133 50.01 11.44 50.17 11.44ZM54.2549 12.08C54.0202 12.08 53.8122 12.048 53.6309 11.984C53.4549 11.9147 53.3055 11.8213 53.1829 11.704C53.0602 11.5867 52.9669 11.448 52.9029 11.288C52.8389 11.128 52.8069 10.952 52.8069 10.76C52.8069 10.3387 52.9295 10.0347 53.1749 9.848C53.4255 9.66133 53.7829 9.568 54.2469 9.568H55.6229V9.28C55.6229 8.91733 55.5402 8.66667 55.3749 8.528C55.2149 8.38933 54.9722 8.32 54.6469 8.32C54.3429 8.32 54.1215 8.37867 53.9829 8.496C53.8442 8.608 53.7669 8.736 53.7509 8.88H53.0469C53.0575 8.70933 53.1029 8.552 53.1829 8.408C53.2682 8.25867 53.3802 8.13067 53.5189 8.024C53.6629 7.91733 53.8335 7.83467 54.0309 7.776C54.2282 7.712 54.4469 7.68 54.6869 7.68C55.1882 7.68 55.5855 7.8 55.8789 8.04C56.1775 8.27467 56.3269 8.66133 56.3269 9.2V10.92C56.3269 11.144 56.3269 11.3413 56.3269 11.512C56.3322 11.6773 56.3455 11.84 56.3669 12H55.7509C55.7349 11.8773 55.7242 11.7627 55.7189 11.656C55.7135 11.544 55.7109 11.4187 55.7109 11.28C55.5989 11.504 55.4175 11.6933 55.1669 11.848C54.9162 12.0027 54.6122 12.08 54.2549 12.08ZM54.4069 11.44C54.5722 11.44 54.7269 11.4187 54.8709 11.376C55.0202 11.328 55.1509 11.2613 55.2629 11.176C55.3749 11.0853 55.4629 10.976 55.5269 10.848C55.5909 10.72 55.6229 10.5707 55.6229 10.4V10.112H54.3669C54.1055 10.112 53.9002 10.1653 53.7509 10.272C53.6015 10.3733 53.5269 10.536 53.5269 10.76C53.5269 10.9573 53.5962 11.12 53.7349 11.248C53.8789 11.376 54.1029 11.44 54.4069 11.44ZM58.8903 12.08C58.629 12.08 58.389 12.0347 58.1703 11.944C57.957 11.8533 57.773 11.72 57.6183 11.544C57.4636 11.3627 57.3436 11.1387 57.2583 10.872C57.173 10.6 57.1303 10.2827 57.1303 9.92V9.76C57.1303 9.424 57.173 9.128 57.2583 8.872C57.349 8.61067 57.4716 8.392 57.6263 8.216C57.781 8.04 57.965 7.90667 58.1783 7.816C58.397 7.72533 58.6343 7.68 58.8903 7.68C59.2316 7.68 59.5276 7.75467 59.7783 7.904C60.0343 8.05333 60.2236 8.25867 60.3463 8.52V6.4H61.0503V12H60.3943V11.2C60.2876 11.4613 60.101 11.6747 59.8343 11.84C59.5676 12 59.253 12.08 58.8903 12.08ZM59.0503 11.456C59.2423 11.456 59.4183 11.424 59.5783 11.36C59.7383 11.296 59.8743 11.208 59.9863 11.096C60.0983 10.984 60.1863 10.848 60.2503 10.688C60.3143 10.528 60.3463 10.352 60.3463 10.16V9.52C60.3463 9.34933 60.3143 9.18933 60.2503 9.04C60.1863 8.89067 60.0983 8.76267 59.9863 8.656C59.8743 8.544 59.7383 8.45867 59.5783 8.4C59.4183 8.336 59.2423 8.304 59.0503 8.304C58.8796 8.304 58.7196 8.336 58.5703 8.4C58.421 8.464 58.2903 8.56 58.1783 8.688C58.0716 8.81067 57.9863 8.96267 57.9223 9.144C57.8636 9.32533 57.8343 9.53067 57.8343 9.76V9.92C57.8343 10.1707 57.8636 10.392 57.9223 10.584C57.9863 10.776 58.0716 10.936 58.1783 11.064C58.2903 11.192 58.421 11.2907 58.5703 11.36C58.7196 11.424 58.8796 11.456 59.0503 11.456ZM65.5722 12.04C65.1189 12.04 64.7909 11.9387 64.5882 11.736C64.3909 11.528 64.2922 11.216 64.2922 10.8V8.384H63.6522V7.76H64.2922V6.8H64.9962V7.76H66.1322V8.384H64.9962V10.72C64.9962 10.96 65.0469 11.1333 65.1482 11.24C65.2495 11.3467 65.4442 11.4 65.7322 11.4C65.8922 11.4 66.0522 11.392 66.2122 11.376V12C66.1109 12.0107 66.0095 12.0187 65.9082 12.024C65.8069 12.0347 65.6949 12.04 65.5722 12.04ZM68.8153 12.08C68.5433 12.08 68.2846 12.0373 68.0393 11.952C67.794 11.8613 67.578 11.728 67.3913 11.552C67.2046 11.3707 67.0553 11.144 66.9433 10.872C66.8313 10.6 66.7753 10.2827 66.7753 9.92V9.76C66.7753 9.41867 66.8313 9.11733 66.9433 8.856C67.0553 8.59467 67.2046 8.37867 67.3913 8.208C67.578 8.032 67.794 7.90133 68.0393 7.816C68.2846 7.72533 68.5433 7.68 68.8153 7.68C69.0873 7.68 69.346 7.72533 69.5913 7.816C69.8366 7.90133 70.0526 8.032 70.2393 8.208C70.426 8.37867 70.5753 8.59467 70.6873 8.856C70.7993 9.11733 70.8553 9.41867 70.8553 9.76V9.92C70.8553 10.2827 70.7993 10.6 70.6873 10.872C70.5753 11.144 70.426 11.3707 70.2393 11.552C70.0526 11.728 69.8366 11.8613 69.5913 11.952C69.346 12.0373 69.0873 12.08 68.8153 12.08ZM68.8153 11.44C68.9753 11.44 69.1353 11.4133 69.2953 11.36C69.4553 11.3013 69.5966 11.2133 69.7193 11.096C69.842 10.9733 69.9406 10.816 70.0153 10.624C70.0953 10.432 70.1353 10.1973 70.1353 9.92V9.76C70.1353 9.504 70.0953 9.28533 70.0153 9.104C69.9406 8.92267 69.842 8.77333 69.7193 8.656C69.5966 8.53867 69.4553 8.45333 69.2953 8.4C69.1353 8.34667 68.9753 8.32 68.8153 8.32C68.6553 8.32 68.4953 8.34667 68.3353 8.4C68.1753 8.45333 68.034 8.53867 67.9113 8.656C67.7886 8.77333 67.6873 8.92267 67.6073 9.104C67.5326 9.28533 67.4953 9.504 67.4953 9.76V9.92C67.4953 10.1973 67.5326 10.432 67.6073 10.624C67.6873 10.816 67.7886 10.9733 67.9113 11.096C68.034 11.2133 68.1753 11.3013 68.3353 11.36C68.4953 11.4133 68.6553 11.44 68.8153 11.44Z" fill="#1F2226"/>
</g>
<defs>
<clipPath id="clip0_9862_192792">
<rect width="110" height="32" fill="white"/>
</clipPath>
</defs>
</svg>
