<svg width="16" height="16" viewBox="0 0 16 16" fill="none" xmlns="http://www.w3.org/2000/svg">
<circle r="8" transform="matrix(1 0 0 -1 8 8)" fill="#009959"/>
<path d="M9.77933 8.42576L7.79234 10.4127C7.62574 10.5793 7.62574 10.8495 7.79234 11.016C7.95894 11.1826 8.22905 11.1826 8.39564 11.016L10.7055 8.7062C11.096 8.31567 11.096 7.68251 10.7055 7.29198L8.39564 4.98213C8.22905 4.81553 7.95894 4.81553 7.79234 4.98213C7.62574 5.14873 7.62574 5.41884 7.79234 5.58544L9.77933 7.57242H5.0126C4.77696 7.57242 4.58594 7.76345 4.58594 7.99909C4.58594 8.23473 4.77696 8.42576 5.0126 8.42576H9.77933Z" fill="white"/>
</svg>
