<svg width="24" height="24" viewBox="0 0 24 24" fill="none" xmlns="http://www.w3.org/2000/svg">
<path d="M15.0763 2.57129C16.9474 2.57129 17.8472 2.74504 18.7821 3.24502C19.6299 3.69842 20.3003 4.36889 20.7537 5.21668C21.2537 6.15155 21.4275 7.05132 21.4275 8.92247V15.0772C21.4275 16.9484 21.2537 17.8482 20.7537 18.783C20.3003 19.6308 19.6299 20.3013 18.7821 20.7547C17.8472 21.2547 16.9474 21.4284 15.0763 21.4284H8.92149C7.05035 21.4284 6.15058 21.2547 5.2157 20.7547C4.36792 20.3013 3.69744 19.6308 3.24404 18.783C2.74407 17.8482 2.57031 16.9484 2.57031 15.0772V8.92247C2.57031 7.05132 2.74407 6.15155 3.24404 5.21668C3.69744 4.36889 4.36792 3.69842 5.2157 3.24502C6.15058 2.74504 7.05035 2.57129 8.92149 2.57129H15.0763ZM15.0763 4.28557H8.92149C7.30914 4.28557 6.67673 4.4077 6.02416 4.7567C5.47512 5.05033 5.04935 5.47609 4.75572 6.02513C4.40672 6.6777 4.2846 7.31012 4.2846 8.92247V15.0772C4.2846 16.6896 4.40672 17.322 4.75572 17.9746C5.04935 18.5236 5.47512 18.9494 6.02416 19.243C6.67673 19.592 7.30914 19.7141 8.92149 19.7141H15.0763C16.6886 19.7141 17.321 19.592 17.9736 19.243C18.5227 18.9494 18.9484 18.5236 19.242 17.9746C19.591 17.322 19.7132 16.6896 19.7132 15.0772V8.92247C19.7132 7.31012 19.591 6.6777 19.242 6.02513C18.9484 5.47609 18.5227 5.05033 17.9736 4.7567C17.321 4.4077 16.6886 4.28557 15.0763 4.28557ZM11.1417 14.9999C11.6151 14.9999 11.9989 15.3836 11.9989 15.857C11.9989 16.3304 11.6151 16.7141 11.1417 16.7141H7.71317C7.23978 16.7141 6.85603 16.3304 6.85603 15.857C6.85603 15.3836 7.23978 14.9999 7.71317 14.9999H11.1417ZM16.2846 11.1427C16.758 11.1427 17.1417 11.5265 17.1417 11.9999C17.1417 12.4732 16.758 12.857 16.2846 12.857H7.71317C7.23978 12.857 6.85603 12.4732 6.85603 11.9999C6.85603 11.5265 7.23978 11.1427 7.71317 11.1427H16.2846ZM16.2846 7.28557C16.758 7.28557 17.1417 7.66933 17.1417 8.14272C17.1417 8.6161 16.758 8.99986 16.2846 8.99986H7.71317C7.23978 8.99986 6.85603 8.6161 6.85603 8.14272C6.85603 7.66933 7.23978 7.28557 7.71317 7.28557H16.2846Z" fill="#009959"/>
</svg>
