<svg width="24" height="26" viewBox="0 0 24 26" fill="none" xmlns="http://www.w3.org/2000/svg">
<path d="M11.3084 1.29216C10.9268 1.37496 10.3566 1.66008 9.97497 1.94976C8.64153 2.96136 7.37697 5.22816 6.38841 8.37336L6.17241 9.06312L4.15377 9.08616L2.13513 9.1092L1.87761 9.23784C1.56945 9.38496 1.27065 9.69768 1.13265 9.99648C0.916646 10.4839 0.898166 10.3414 2.14881 16.9994C3.39489 23.6162 3.32601 23.3218 3.74433 23.8553C3.97425 24.145 4.46169 24.4944 4.84785 24.637L5.12385 24.7428L12.2739 24.7565C17.4927 24.7656 19.4974 24.7565 19.6998 24.7198C20.4951 24.5681 21.1942 23.9335 21.4242 23.161C21.5622 22.6966 23.0012 11.045 22.9784 10.6174C22.9417 10.0289 22.5874 9.50928 22.0311 9.23784L21.769 9.1092L19.7504 9.08616L17.7363 9.06312L17.4238 8.1204C16.4859 5.25576 15.3409 3.15912 14.1776 2.1612C13.6856 1.73808 13.3362 1.53576 12.8257 1.36104C12.435 1.2324 11.7222 1.20024 11.3084 1.29216ZM12.3337 2.25792C13.8006 2.56608 15.2214 4.63968 16.4168 8.21256C16.5685 8.65392 16.688 9.03096 16.688 9.04944C16.688 9.06792 14.5544 9.08616 11.9473 9.08616H7.20681L7.23897 8.93448C7.25745 8.85624 7.38609 8.45616 7.52409 8.05152C8.27361 5.85816 9.10593 4.25352 10.0162 3.23736C10.5589 2.63496 11.3175 2.21664 11.906 2.1936C11.9706 2.19336 12.159 2.22096 12.3337 2.25792ZM5.62521 10.116C4.58145 10.4424 4.25505 11.7852 5.02737 12.5575C5.33553 12.8609 5.60673 12.9713 6.06657 12.9667C6.39753 12.9667 6.49425 12.9482 6.69657 12.8426C7.62081 12.3643 7.80465 11.1828 7.06905 10.4563C6.92649 10.3138 6.87129 10.231 6.88521 10.153L6.89913 10.0517L11.9432 10.0608L16.9873 10.0745L17.001 10.1758C17.0101 10.2446 16.9503 10.3414 16.8032 10.4885C16.4859 10.801 16.3892 11.0494 16.3892 11.5229C16.3892 11.9918 16.4905 12.2448 16.7893 12.5436C17.1066 12.8609 17.3732 12.9713 17.8376 12.9667C18.1686 12.9667 18.2653 12.9482 18.4676 12.8426C18.6008 12.7738 18.7849 12.6449 18.8768 12.5484C19.4286 12.0012 19.4286 11.0448 18.8768 10.4976C18.7112 10.332 18.4309 10.1618 18.2055 10.093C18.1412 10.0745 18.8401 10.0562 19.7598 10.0562C21.0702 10.0517 21.4611 10.0654 21.5761 10.116C21.7693 10.1942 21.967 10.4287 21.9992 10.6171C22.0177 10.709 21.7186 13.261 21.2727 16.8154C20.4498 23.4091 20.5095 23.0597 20.1507 23.4137C20.0588 23.5056 19.8886 23.6251 19.7737 23.6803L19.5622 23.7768H12.435H5.30793L5.05497 23.6573C4.75617 23.5147 4.45257 23.225 4.32393 22.9584C4.23657 22.7746 1.97433 10.8883 1.97433 10.608C1.97433 10.4333 2.13993 10.1942 2.30985 10.1206C2.42937 10.0699 2.79273 10.0562 4.13529 10.0562C5.57001 10.0562 5.78601 10.0654 5.62521 10.116ZM6.40689 11.1965C6.51273 11.3023 6.54033 11.3712 6.54033 11.5229C6.54033 12.0701 5.75865 12.1942 5.60241 11.67C5.45505 11.1643 6.03441 10.824 6.40689 11.1965ZM18.1779 11.1965C18.2838 11.3023 18.3114 11.3712 18.3114 11.5229C18.3114 12.0701 17.5297 12.1942 17.3734 11.67C17.2261 11.1643 17.8054 10.824 18.1779 11.1965Z" fill="#1F2226" stroke="#000B12" stroke-width="0.6"/>
<path d="M9.80969 12.2633C9.50609 12.3874 9.42353 12.8014 9.64865 13.0541L9.78209 13.2058L11.8238 13.2195C13.1848 13.2286 13.9159 13.2195 14.0308 13.1828C14.3481 13.0908 14.4952 12.7138 14.3159 12.4517C14.1549 12.2218 14.0815 12.2172 11.9203 12.2218C10.8122 12.222 9.86033 12.2405 9.80969 12.2633Z" fill="#1F2226" stroke="#1F2226" stroke-width="0.6"/>
</svg>
