<svg width="24" height="24" viewBox="0 0 24 24" fill="none" xmlns="http://www.w3.org/2000/svg">
<path d="M12 1.5C14.7614 1.5 17 3.73858 17 6.5H18.7566C19.5367 6.5 19.8196 6.58122 20.1047 6.73374C20.3899 6.88626 20.6137 7.11007 20.7663 7.39526C20.9188 7.68045 21 7.96332 21 8.7434V14.9923C21 17.0118 20.7795 17.7959 20.3656 18.57C19.9516 19.3441 19.3441 19.9516 18.57 20.3656C17.7959 20.7795 17.0118 21 14.9923 21H9.00767C6.98818 21 6.20407 20.7795 5.42999 20.3656C4.65592 19.9516 4.04842 19.3441 3.63444 18.57C3.22046 17.7959 3 17.0118 3 14.9923V8.7434C3 7.96332 3.08122 7.68045 3.23374 7.39526C3.38626 7.11007 3.61007 6.88626 3.89526 6.73374C4.18045 6.58122 4.46332 6.5 5.2434 6.5H7C7 3.73858 9.23858 1.5 12 1.5ZM16.1557 8.25H16.0943C15.9006 8.25 15.7559 8.28481 15.6337 8.35017C15.5115 8.41554 15.4155 8.51146 15.3502 8.63368C15.2848 8.75591 15.25 8.90056 15.25 9.09433V9.15567C15.25 9.34944 15.2848 9.49409 15.3502 9.61632C15.4155 9.73854 15.5115 9.83446 15.6337 9.89983C15.7559 9.96519 15.9006 10 16.0943 10H16.1557C16.3494 10 16.4941 9.96519 16.6163 9.89983C16.7385 9.83446 16.8345 9.73854 16.8998 9.61632C16.9652 9.49409 17 9.34944 17 9.15567V9.09433C17 8.90056 16.9652 8.75591 16.8998 8.63368C16.8345 8.51146 16.7385 8.41554 16.6163 8.35017C16.4941 8.28481 16.3494 8.25 16.1557 8.25ZM7.90567 8.25H7.84433C7.65056 8.25 7.5059 8.28481 7.38368 8.35017C7.26146 8.41554 7.16554 8.51146 7.10017 8.63368C7.03481 8.75591 7 8.90056 7 9.09433V9.15567C7 9.34944 7.03481 9.49409 7.10017 9.61632C7.16554 9.73854 7.26146 9.83446 7.38368 9.89983C7.5059 9.96519 7.65056 10 7.84433 10H7.90567C8.09944 10 8.24409 9.96519 8.36632 9.89983C8.48854 9.83446 8.58446 9.73854 8.64983 9.61632C8.71519 9.49409 8.75 9.34944 8.75 9.15567V9.09433C8.75 8.90056 8.71519 8.75591 8.64983 8.63368C8.58446 8.51146 8.48854 8.41554 8.36632 8.35017C8.24409 8.28481 8.09944 8.25 7.90567 8.25ZM12 3.25C10.2051 3.25 8.75 4.70507 8.75 6.5H15.25C15.25 4.70507 13.7949 3.25 12 3.25Z" fill="#1F2226"/>
</svg>
