<svg xmlns="http://www.w3.org/2000/svg" width="16" height="17" viewBox="0 0 16 17">
    <path d="M8 0.25C10.3012 0.25 12.1667 2.11548 12.1667 4.41667H13.6305C14.2806 4.41667 14.5163 4.48435 14.7539 4.61145C14.9916 4.73855 15.1781 4.92506 15.3052 5.16272C15.4323 5.40037 15.5 5.6361 15.5 6.28617V11.4936C15.5 13.1765 15.3163 13.8299 14.9713 14.475C14.6263 15.1201 14.1201 15.6263 13.475 15.9713C12.8299 16.3163 12.1765 16.5 10.4936 16.5H5.50639C3.82348 16.5 3.17005 16.3163 2.52499 15.9713C1.87993 15.6263 1.37368 15.1201 1.0287 14.475C0.683717 13.8299 0.5 13.1765 0.5 11.4936V6.28617C0.5 5.6361 0.567685 5.40037 0.694784 5.16272C0.821883 4.92506 1.0084 4.73855 1.24605 4.61145C1.4837 4.48435 1.71943 4.41667 2.3695 4.41667H3.83333C3.83333 2.11548 5.69881 0.25 8 0.25ZM11.4631 5.875H11.4119C11.2505 5.875 11.1299 5.90401 11.0281 5.95848C10.9262 6.01295 10.8463 6.09288 10.7918 6.19474C10.7373 6.29659 10.7083 6.41714 10.7083 6.5786V6.62973C10.7083 6.7912 10.7373 6.91175 10.7918 7.0136C10.8463 7.11545 10.9262 7.19538 11.0281 7.24985C11.1299 7.30433 11.2505 7.33333 11.4119 7.33333H11.4631C11.6245 7.33333 11.7451 7.30433 11.8469 7.24985C11.9488 7.19538 12.0287 7.11545 12.0832 7.0136C12.1377 6.91175 12.1667 6.7912 12.1667 6.62973V6.5786C12.1667 6.41714 12.1377 6.29659 12.0832 6.19474C12.0287 6.09288 11.9488 6.01295 11.8469 5.95848C11.7451 5.90401 11.6245 5.875 11.4631 5.875ZM4.58806 5.875H4.53694C4.37547 5.875 4.25492 5.90401 4.15307 5.95848C4.05122 6.01295 3.97128 6.09288 3.91681 6.19474C3.86234 6.29659 3.83333 6.41714 3.83333 6.5786V6.62973C3.83333 6.7912 3.86234 6.91175 3.91681 7.0136C3.97128 7.11545 4.05122 7.19538 4.15307 7.24985C4.25492 7.30433 4.37547 7.33333 4.53694 7.33333H4.58806C4.74953 7.33333 4.87008 7.30433 4.97193 7.24985C5.07378 7.19538 5.15372 7.11545 5.20819 7.0136C5.26266 6.91175 5.29167 6.7912 5.29167 6.62973V6.5786C5.29167 6.41714 5.26266 6.29659 5.20819 6.19474C5.15372 6.09288 5.07378 6.01295 4.97193 5.95848C4.87008 5.90401 4.74953 5.875 4.58806 5.875ZM8 1.70833C6.50423 1.70833 5.29167 2.9209 5.29167 4.41667H10.7083C10.7083 2.9209 9.49577 1.70833 8 1.70833Z"/>
</svg>
