<svg width="24" height="24" viewBox="0 0 24 24" fill="none" xmlns="http://www.w3.org/2000/svg">
<path d="M18.3074 1.23589C21.4292 1.82572 15.1857 0.645885 18.3074 1.23589V1.23589Z" fill="black" stroke="black" stroke-width="0.4"/>
<path d="M18.3075 1.23571C15.1857 0.645707 12.1661 2.70584 11.5763 5.82761C11.2844 7.37237 11.5173 9.56239 12.1694 11.407C12.7245 12.9772 13.504 14.1245 14.4273 14.7614C14.0934 15.0209 13.868 15.3883 13.7887 15.8076C13.7672 15.9217 13.7919 16.0399 13.8573 16.1359C13.9228 16.2319 14.0238 16.2979 14.138 16.3195L14.9413 16.478L14.418 19.2479C14.3731 19.4858 14.5294 19.715 14.7673 19.7599C14.7947 19.7651 14.8221 19.7677 14.8491 19.7677C15.0556 19.7677 15.2395 19.621 15.2792 19.4107L15.8026 16.6407C16.0213 16.682 16.8131 16.8699 17.0148 16.7324C17.1108 16.6669 17.1768 16.5659 17.1984 16.4517C17.2775 16.0326 17.2018 15.6085 16.9858 15.2451C18.0777 14.9889 19.222 14.2046 20.3116 12.9453C21.5918 11.4658 22.6075 9.51169 22.8994 7.96693C23.4891 4.84511 21.4292 1.82554 18.3075 1.23571ZM15.6361 15.7106L14.8491 15.5619C14.896 15.5089 14.9498 15.4613 15.0098 15.4204C15.1992 15.2911 15.4275 15.2435 15.6529 15.286C15.6734 15.2899 15.6936 15.2953 15.7135 15.3005C15.9131 15.3531 16.0854 15.4736 16.2028 15.6457C16.2437 15.7057 16.2764 15.7696 16.3007 15.836L15.6361 15.7106ZM22.0381 7.80417C21.7729 9.2079 20.8351 11.0008 19.6488 12.3717C18.3362 13.8887 16.939 14.637 15.8157 14.4248C14.6923 14.2125 13.6644 13.0061 12.9957 11.1148C12.3914 9.40555 12.1723 7.3941 12.4375 5.99033C12.88 3.64845 14.9348 2.01153 17.2359 2.01153C17.5356 2.01153 17.8397 2.03936 18.1447 2.09694C20.7916 2.59702 22.5382 5.15732 22.0381 7.80417Z" fill="black" stroke="black" stroke-width="0.4"/>
<path d="M10.1969 14.2605C10.1961 14.2627 10.1961 14.2627 10.1969 14.2605V14.2605Z" fill="black" stroke="black" stroke-width="0.4"/>
<path d="M10.8263 9.14341C10.319 6.45839 7.72188 4.68667 5.03695 5.19398C3.73629 5.4397 2.60922 6.17726 1.86325 7.27072C1.11732 8.36418 0.841839 9.68267 1.08756 10.9833C1.33723 12.3048 2.20508 13.9752 3.29845 15.2388C4.20416 16.2856 5.15607 16.9501 6.07068 17.1906C5.91252 17.4949 5.8605 17.8409 5.92518 18.1832C5.94674 18.2974 6.01283 18.3983 6.10885 18.4638C6.28445 18.5837 6.96075 18.386 7.15134 18.3501L7.93838 22.0029C7.97812 22.2133 8.16201 22.3599 8.36851 22.3599C8.39551 22.3599 8.4229 22.3574 8.45037 22.3522C8.68821 22.3073 8.84457 22.078 8.79965 21.8402L7.96836 18.1832L8.59964 18.1239C8.83747 18.0789 8.99384 17.8497 8.94892 17.6119C8.88257 17.2606 8.7007 16.96 8.45037 16.7411C9.21449 16.1836 9.85866 15.2179 10.3202 13.9125C10.2589 14.0861 10.2033 14.2432 10.1972 14.2605C10.2019 14.2474 10.2366 14.149 10.3202 13.9125C10.4395 13.5752 10.4864 13.4423 10.4913 13.4287C10.4845 13.4479 10.3978 13.6931 10.3202 13.9125C10.8771 12.3372 11.0759 10.4648 10.8263 9.14341ZM7.36897 17.4644L6.86793 17.5591C6.87494 17.5473 6.8823 17.5358 6.89006 17.5244C6.98971 17.3783 7.14034 17.2798 7.3141 17.2469C7.31857 17.2461 7.32308 17.2458 7.32755 17.245C7.36454 17.2388 7.40162 17.2352 7.43843 17.2352C7.57021 17.2352 7.69892 17.2746 7.81015 17.3506C7.82154 17.3583 7.83263 17.3664 7.84341 17.3748L7.36897 17.4644ZM7.15134 16.3857C6.22196 16.5612 5.05917 15.9342 3.96124 14.6653C2.96175 13.5102 2.17182 12.0011 1.94879 10.8206C1.7465 9.74998 1.97329 8.66472 2.58727 7.76466C3.20125 6.8646 4.12905 6.2575 5.19963 6.05525C5.45442 6.00709 5.70816 5.98391 5.95853 5.98391C7.87965 5.98391 9.59559 7.35083 9.96498 9.30613C10.4143 11.6843 9.21813 15.9952 7.15134 16.3857Z" fill="black"/>
<path d="M10.3202 13.9125C9.85866 15.2179 9.21449 16.1836 8.45037 16.7411C8.7007 16.96 8.88257 17.2606 8.94892 17.6119C8.99384 17.8497 8.83747 18.0789 8.59964 18.1239L7.96836 18.1832L8.79965 21.8402C8.84457 22.078 8.68821 22.3073 8.45037 22.3522C8.4229 22.3574 8.39551 22.3599 8.36851 22.3599C8.16201 22.3599 7.97812 22.2133 7.93838 22.0029L7.15134 18.3501C6.96075 18.386 6.28445 18.5837 6.10885 18.4638C6.01283 18.3983 5.94674 18.2974 5.92518 18.1832C5.8605 17.8409 5.91252 17.4949 6.07068 17.1906C5.15607 16.9501 4.20416 16.2856 3.29845 15.2388C2.20508 13.9752 1.33723 12.3048 1.08756 10.9833C0.841839 9.68267 1.11732 8.36418 1.86325 7.27072C2.60922 6.17726 3.73629 5.4397 5.03695 5.19398C7.72188 4.68667 10.319 6.45839 10.8263 9.14341C11.0759 10.4648 10.8771 12.3372 10.3202 13.9125ZM10.3202 13.9125C10.2589 14.0861 10.2033 14.2432 10.1972 14.2605C10.2019 14.2474 10.2366 14.149 10.3202 13.9125ZM10.3202 13.9125C10.4395 13.5752 10.4864 13.4423 10.4913 13.4287C10.4845 13.4479 10.3978 13.6931 10.3202 13.9125ZM7.36897 17.4644L6.86793 17.5591C6.87494 17.5473 6.8823 17.5358 6.89006 17.5244C6.98971 17.3783 7.14034 17.2798 7.3141 17.2469C7.31857 17.2461 7.32308 17.2458 7.32755 17.245C7.36454 17.2388 7.40162 17.2352 7.43843 17.2352C7.57021 17.2352 7.69892 17.2746 7.81015 17.3506C7.82154 17.3583 7.83263 17.3664 7.84341 17.3748L7.36897 17.4644ZM7.15134 16.3857C6.22196 16.5612 5.05917 15.9342 3.96124 14.6653C2.96175 13.5102 2.17182 12.0011 1.94879 10.8206C1.7465 9.74998 1.97329 8.66472 2.58727 7.76466C3.20125 6.8646 4.12905 6.2575 5.19963 6.05525C5.45442 6.00709 5.70816 5.98391 5.95853 5.98391C7.87965 5.98391 9.59559 7.35083 9.96498 9.30613C10.4143 11.6843 9.21813 15.9952 7.15134 16.3857Z" stroke="black" stroke-width="0.4"/>
<path d="M10.4912 13.4289C10.4918 13.4272 10.4918 13.4272 10.4912 13.4289V13.4289Z" fill="black" stroke="black" stroke-width="0.4"/>
</svg>
