<svg width="24" height="24" viewBox="0 0 24 24" fill="none" xmlns="http://www.w3.org/2000/svg">
<path d="M4.2015 19.2H19.7969C21.7772 19.2 22.7992 18.1828 22.7992 16.2564V6.53454C22.7992 4.60817 21.7772 3.59998 19.7969 3.59998H4.2015C2.2304 3.59998 1.19922 4.60817 1.19922 6.53454V16.2564C1.19922 18.1918 2.2304 19.2 4.2015 19.2ZM3.01519 6.69657C3.01519 5.8324 3.48059 5.40032 4.32013 5.40032H19.6783C20.5178 5.40032 20.9832 5.8324 20.9832 6.69657V7.3447H3.01519V6.69657ZM4.32013 17.3996C3.48059 17.3996 3.01519 16.9675 3.01519 16.1034V9.4601H20.9832V16.1034C20.9832 16.9675 20.5178 17.3996 19.6783 17.3996H4.32013ZM5.5612 15.7703H7.79694C8.33534 15.7703 8.70036 15.4192 8.70036 14.9152V13.2408C8.70036 12.7367 8.33534 12.3857 7.79694 12.3857H5.5612C5.03192 12.3857 4.6669 12.7367 4.6669 13.2408V14.9152C4.6669 15.4192 5.03192 15.7703 5.5612 15.7703Z" fill="#1F2226"/>
<path fill-rule="evenodd" clip-rule="evenodd" d="M21.2233 7.5847H2.77519V6.69657C2.77519 6.22286 2.9034 5.82774 3.18518 5.55265C3.46593 5.27856 3.86167 5.16032 4.32013 5.16032H19.6783C20.1368 5.16032 20.5325 5.27856 20.8133 5.55265C21.095 5.82774 21.2233 6.22286 21.2233 6.69657V7.5847ZM2.77519 9.2201H21.2233V16.1034C21.2233 16.5771 21.095 16.9722 20.8133 17.2473C20.5325 17.5214 20.1368 17.6396 19.6783 17.6396H4.32013C3.86167 17.6396 3.46593 17.5214 3.18518 17.2473C2.9034 16.9722 2.77519 16.5771 2.77519 16.1034V9.2201ZM4.2015 18.96H19.7969C20.7484 18.96 21.429 18.7159 21.8723 18.2795C22.315 17.8438 22.5592 17.179 22.5592 16.2564V6.53454C22.5592 5.612 22.315 4.94967 21.8727 4.5163C21.4295 4.08211 20.749 3.83998 19.7969 3.83998H4.2015C3.25431 3.83998 2.57348 4.08197 2.12896 4.51649C1.68538 4.9501 1.43922 5.61256 1.43922 6.53454V16.2564C1.43922 17.1832 1.68554 17.8479 2.12916 18.2825C2.57362 18.718 3.25431 18.96 4.2015 18.96ZM5.5612 15.5303H7.79694C8.0134 15.5303 8.17723 15.4605 8.28516 15.3579C8.39222 15.256 8.46036 15.107 8.46036 14.9152V13.2408C8.46036 13.049 8.39222 12.8999 8.28516 12.7981C8.17723 12.6955 8.0134 12.6257 7.79694 12.6257H5.5612C5.35034 12.6257 5.1888 12.6948 5.08158 12.7975C4.97511 12.8995 4.9069 13.0489 4.9069 13.2408V14.9152C4.9069 15.107 4.97511 15.2565 5.08158 15.3585C5.1888 15.4612 5.35034 15.5303 5.5612 15.5303ZM19.7969 19.2H4.2015C2.2304 19.2 1.19922 18.1918 1.19922 16.2564V6.53454C1.19922 4.60817 2.2304 3.59998 4.2015 3.59998H19.7969C21.7772 3.59998 22.7992 4.60817 22.7992 6.53454V16.2564C22.7992 18.1828 21.7772 19.2 19.7969 19.2ZM4.32013 5.40032C3.48059 5.40032 3.01519 5.8324 3.01519 6.69657V7.3447H20.9832V6.69657C20.9832 5.8324 20.5178 5.40032 19.6783 5.40032H4.32013ZM3.01519 16.1034C3.01519 16.9675 3.48059 17.3996 4.32013 17.3996H19.6783C20.5178 17.3996 20.9832 16.9675 20.9832 16.1034V9.4601H3.01519V16.1034ZM7.79694 15.7703H5.5612C5.03192 15.7703 4.6669 15.4192 4.6669 14.9152V13.2408C4.6669 12.7367 5.03192 12.3857 5.5612 12.3857H7.79694C8.33534 12.3857 8.70036 12.7367 8.70036 13.2408V14.9152C8.70036 15.4192 8.33534 15.7703 7.79694 15.7703Z" fill="#1F2226"/>
</svg>
