<svg width="21" height="21" viewBox="0 0 21 21" fill="none" xmlns="http://www.w3.org/2000/svg">
<path d="M19.6658 6.55638C19.6059 6.36867 19.5004 6.19868 19.3589 6.06156C19.2174 5.92443 19.0442 5.82443 18.8547 5.77044C18.5557 5.68286 18.2344 5.7137 17.9575 5.85657C18.0065 5.5479 17.9359 5.23215 17.7601 4.97374C17.6492 4.81091 17.5001 4.67765 17.326 4.58555C17.1518 4.49345 16.9577 4.44531 16.7607 4.44531C16.5636 4.44531 16.3696 4.49345 16.1954 4.58555C16.0212 4.67765 15.8722 4.81091 15.7612 4.97374C15.5867 5.23265 15.5174 5.54836 15.5674 5.85657C15.2892 5.71383 14.9669 5.68301 14.6666 5.77044C14.4016 5.84751 14.1709 6.01292 14.0128 6.23921C13.8548 6.46549 13.7789 6.73902 13.7977 7.01439C13.8166 7.28976 13.9291 7.5504 14.1165 7.75301C14.304 7.95563 14.5551 8.08804 14.8281 8.12826C14.6062 8.34808 14.4777 8.64503 14.4693 8.95726C14.465 9.11882 14.4929 9.27961 14.5514 9.43026C14.61 9.5809 14.6979 9.71837 14.8102 9.83464C14.9225 9.9509 15.0568 10.0436 15.2052 10.1074C15.3537 10.1712 15.5135 10.2048 15.6751 10.2061C15.8145 10.2053 15.9528 10.181 16.0842 10.1344C16.3743 10.026 16.6128 9.81189 16.7517 9.53505C16.8917 9.8137 17.1332 10.0282 17.4264 10.1344C17.559 10.1811 17.6985 10.2054 17.8391 10.2061C18.0793 10.2047 18.3136 10.1321 18.5124 9.99734C18.7113 9.86261 18.8656 9.67189 18.9559 9.44935C19.0463 9.22681 19.0685 8.98246 19.0198 8.74727C18.9711 8.51209 18.8537 8.29665 18.6825 8.12826C18.8566 8.10248 19.023 8.03902 19.17 7.94229C19.3171 7.84556 19.4412 7.7179 19.5338 7.56822C19.6264 7.41854 19.6853 7.25045 19.7062 7.07568C19.7271 6.90092 19.7097 6.72369 19.655 6.55638H19.6658Z" fill="white" stroke="#1F2226" stroke-width="1.4" stroke-linecap="round" stroke-linejoin="round"/>
<path d="M17.4299 3.64961C17.3682 3.46205 17.2613 3.29255 17.1186 3.1561C16.9759 3.01965 16.8018 2.92045 16.6116 2.86726C16.3112 2.78335 15.99 2.81804 15.7144 2.96416C15.7625 2.65452 15.6892 2.33828 15.5099 2.08133C15.3984 1.91923 15.2492 1.78667 15.0751 1.69509C14.9009 1.60352 14.7072 1.55566 14.5104 1.55566C14.3137 1.55566 14.1199 1.60352 13.9458 1.69509C13.7717 1.78667 13.6224 1.91923 13.511 2.08133C13.3383 2.34234 13.2716 2.6593 13.3243 2.96775C13.0457 2.82559 12.7227 2.79728 12.4236 2.8888C12.2316 2.94397 12.0563 3.04598 11.9135 3.18566C11.7707 3.32533 11.6648 3.4983 11.6054 3.68903C11.5459 3.87975 11.5348 4.08224 11.573 4.27832C11.6112 4.47439 11.6976 4.65791 11.8242 4.81237C12.0175 5.05766 12.2975 5.2195 12.6066 5.26455" fill="white"/>
<path d="M17.4299 3.64961C17.3682 3.46205 17.2613 3.29255 17.1186 3.1561C16.9759 3.01965 16.8018 2.92045 16.6116 2.86726C16.3112 2.78335 15.99 2.81804 15.7144 2.96416C15.7625 2.65452 15.6892 2.33828 15.5099 2.08133C15.3984 1.91923 15.2492 1.78667 15.0751 1.69509C14.9009 1.60352 14.7072 1.55566 14.5104 1.55566C14.3137 1.55566 14.1199 1.60352 13.9458 1.69509C13.7717 1.78667 13.6224 1.91923 13.511 2.08133C13.3383 2.34234 13.2716 2.6593 13.3243 2.96775C13.0457 2.82559 12.7227 2.79728 12.4236 2.8888C12.2316 2.94397 12.0563 3.04598 11.9135 3.18566C11.7707 3.32533 11.6648 3.4983 11.6054 3.68903C11.5459 3.87975 11.5348 4.08224 11.573 4.27832C11.6112 4.47439 11.6976 4.65791 11.8242 4.81237C12.0175 5.05766 12.2975 5.2195 12.6066 5.26455" stroke="#1F2226" stroke-width="1.4" stroke-linecap="round" stroke-linejoin="round"/>
<path d="M10.3927 5.46605C10.5456 5.25831 10.6263 5.00621 10.6224 4.74829C10.6194 4.55518 10.5698 4.36564 10.478 4.19572C10.3862 4.02581 10.2547 3.88052 10.0949 3.77215C9.83891 3.59349 9.5245 3.51906 9.21562 3.56401C9.3566 3.28527 9.38736 2.96363 9.30175 2.66323C9.24556 2.47235 9.14261 2.29853 9.00223 2.15752C8.86185 2.01651 8.68849 1.91279 8.49787 1.85576V1.85576C8.31095 1.79288 8.1113 1.77767 7.91702 1.81151C7.72275 1.84536 7.53999 1.92718 7.38535 2.04955C7.13702 2.23973 6.97231 2.51897 6.92599 2.82831C6.70554 2.60734 6.40898 2.47896 6.09699 2.46944C5.8999 2.46289 5.70426 2.50537 5.52763 2.59306C5.351 2.68075 5.1989 2.8109 5.08496 2.97186" fill="white"/>
<path d="M10.3927 5.46605C10.5456 5.25831 10.6263 5.00621 10.6224 4.74829C10.6194 4.55518 10.5698 4.36564 10.478 4.19572C10.3862 4.02581 10.2547 3.88052 10.0949 3.77215C9.83891 3.59349 9.5245 3.51906 9.21562 3.56401C9.3566 3.28527 9.38736 2.96363 9.30175 2.66323C9.24556 2.47235 9.14261 2.29853 9.00223 2.15752C8.86185 2.01651 8.68849 1.91279 8.49787 1.85576V1.85576C8.31095 1.79288 8.1113 1.77767 7.91702 1.81151C7.72275 1.84536 7.53999 1.92718 7.38535 2.04955C7.13702 2.23973 6.97231 2.51897 6.92599 2.82831C6.70554 2.60734 6.40898 2.47896 6.09699 2.46944C5.8999 2.46289 5.70426 2.50537 5.52763 2.59306C5.351 2.68075 5.1989 2.8109 5.08496 2.97186" stroke="#1F2226" stroke-width="1.4" stroke-linecap="round" stroke-linejoin="round"/>
<path d="M12.4449 6.57817C12.2857 6.46176 12.1 6.38672 11.9045 6.35979C11.7091 6.33286 11.5101 6.35487 11.3252 6.42385C11.0306 6.52963 10.7887 6.74584 10.6505 7.02676C10.5066 6.74922 10.263 6.5364 9.96869 6.43103C9.78278 6.36628 9.58392 6.34775 9.38925 6.37704C9.19459 6.40633 9.00997 6.48255 8.85135 6.59913C8.69273 6.71571 8.56487 6.86915 8.4788 7.04619C8.39273 7.22323 8.35104 7.41856 8.35733 7.61532C8.36793 7.92707 8.49615 8.22325 8.71621 8.44432C8.44465 8.48833 8.19611 8.62335 8.01138 8.82722C7.82666 9.03108 7.71672 9.29169 7.69961 9.56626C7.68251 9.84084 7.75924 10.1131 7.91723 10.3383C8.07522 10.5635 8.30507 10.7283 8.56907 10.8057C8.87022 10.8909 9.19257 10.8576 9.46985 10.7124C9.42171 11.0204 9.49365 11.3352 9.67082 11.5917C9.77971 11.7516 9.9257 11.8828 10.0963 11.974C10.2669 12.0652 10.4571 12.1138 10.6505 12.1156C10.8265 12.1145 11.0001 12.0751 11.1593 12.0002C11.3185 11.9253 11.4595 11.8166 11.5725 11.6817C11.6855 11.5469 11.7679 11.389 11.8138 11.2192C11.8597 11.0493 11.8681 10.8715 11.8384 10.6981C12.1171 10.8396 12.4394 10.8691 12.7392 10.7806C12.8675 10.7368 12.9885 10.6739 13.0981 10.594C13.2848 10.4509 13.4258 10.2567 13.5041 10.0349C13.5824 9.81312 13.5945 9.57336 13.539 9.34481C13.4835 9.11626 13.3627 8.90878 13.1914 8.74762C13.0201 8.58647 12.8056 8.4786 12.5741 8.43714C12.7954 8.2169 12.9238 7.92021 12.933 7.60814C12.9432 7.40949 12.904 7.2114 12.8188 7.03164C12.7336 6.85188 12.6051 6.69607 12.4449 6.57817Z" fill="white" stroke="#1F2226" stroke-width="1.4" stroke-linecap="round" stroke-linejoin="round"/>
<path d="M4.98415 4.19877C4.8108 4.16839 4.63291 4.17632 4.46296 4.22201C4.29301 4.26769 4.13511 4.35003 4.00037 4.46323C3.86562 4.57643 3.75729 4.71775 3.68297 4.87728C3.60865 5.0368 3.57015 5.21066 3.57018 5.38664C3.31987 5.20031 3.00829 5.11569 2.69811 5.14979C2.4226 5.1799 2.1658 5.30373 1.97067 5.50054C1.77555 5.69735 1.65394 5.95521 1.62619 6.23097C1.59845 6.50672 1.66626 6.78364 1.81827 7.01538C1.97028 7.24711 2.19727 7.41961 2.46125 7.50401C2.20496 7.68336 2.0276 7.95454 1.966 8.26124C1.92511 8.45483 1.93248 8.65552 1.98747 8.84559C2.04247 9.03567 2.14339 9.20929 2.28134 9.35114C2.41929 9.49299 2.59003 9.59871 2.7785 9.65899C2.96696 9.71926 3.16737 9.73222 3.36203 9.69674C3.67052 9.644 3.94615 9.4727 4.13002 9.21943C4.21672 9.52423 4.42059 9.78229 4.69705 9.93718C4.86803 10.0362 5.06111 10.0907 5.25861 10.0957C5.45611 10.1007 5.65172 10.0561 5.8275 9.96589C6.05517 9.85347 6.2421 9.67281 6.36223 9.44911C6.42597 9.32424 6.46842 9.18961 6.48783 9.05076C6.53136 8.74152 6.45285 8.42748 6.26892 8.17511C6.58223 8.18019 6.8855 8.06454 7.11587 7.85212C7.21865 7.75708 7.30478 7.64547 7.37067 7.52195C7.47913 7.30976 7.52268 7.07032 7.49589 6.83352C7.46911 6.59672 7.37316 6.37306 7.22004 6.19046C7.06691 6.00786 6.86339 5.87441 6.63489 5.80677C6.40638 5.73913 6.16301 5.74029 5.93517 5.81012C6.03622 5.51414 6.02082 5.19079 5.8921 4.90575C5.81166 4.72158 5.68647 4.56043 5.5279 4.43696C5.36933 4.31349 5.18241 4.23161 4.98415 4.19877V4.19877Z" fill="white" stroke="#1F2226" stroke-width="1.4" stroke-linecap="round" stroke-linejoin="round"/>
<path d="M15.9875 20H5.44221C5.28939 19.9994 5.14206 19.949 5.02777 19.8582C4.91347 19.7675 4.84002 19.6426 4.82116 19.5069L2.71879 10.6181C2.70898 10.5406 2.71751 10.4622 2.74381 10.3879C2.7701 10.3136 2.81359 10.245 2.87143 10.1867C2.92927 10.1285 3.00018 10.0817 3.07954 10.0495C3.1589 10.0174 3.24495 10.0005 3.33208 10H18.0976C18.1847 10.0005 18.2708 10.0174 18.3501 10.0495C18.4295 10.0817 18.5004 10.1285 18.5583 10.1867C18.6161 10.245 18.6596 10.3136 18.6859 10.3879C18.7122 10.4622 18.7207 10.5406 18.7109 10.6181L16.6085 19.5069C16.5897 19.6426 16.5162 19.7675 16.4019 19.8582C16.2876 19.949 16.1403 19.9994 15.9875 20Z" fill="white" stroke="#1F2226" stroke-width="1.5" stroke-linecap="round" stroke-linejoin="round"/>
</svg>
