<svg width="20" height="20" viewBox="0 0 20 20" fill="none" xmlns="http://www.w3.org/2000/svg">
<path d="M10 1C9.145 1 8.5735 1.61021 8.2567 2.14705C7.9318 2.70089 7.75 3.37642 7.75 3.90789C7.75 4.34989 7.8067 4.95832 8.1388 5.47011C8.5078 6.03737 9.1342 6.36842 10 6.36842C10.8658 6.36842 11.4922 6.03737 11.8612 5.47011C12.1942 4.95832 12.25 4.34989 12.25 3.90789C12.25 3.37642 12.0682 2.7 11.7433 2.14705C11.4274 1.61021 10.855 1 10 1ZM9.1 3.90789C9.1 3.63053 9.2089 3.18763 9.4222 2.82526C9.6454 2.44589 9.8605 2.34211 10 2.34211C10.1395 2.34211 10.3546 2.44589 10.5778 2.82526C10.7911 3.18763 10.9 3.63053 10.9 3.90789C10.9 4.27474 10.8442 4.56105 10.7263 4.74179C10.6453 4.86705 10.4833 5.02632 10 5.02632C9.5158 5.02632 9.3547 4.86705 9.2737 4.74179C9.1567 4.56105 9.1 4.27474 9.1 3.90789ZM17.65 9.27632V16.6579H18.325C18.504 16.6579 18.6757 16.7286 18.8023 16.8544C18.9289 16.9803 19 17.151 19 17.3289C19 17.5069 18.9289 17.6776 18.8023 17.8035C18.6757 17.9293 18.504 18 18.325 18H1.675C1.49598 18 1.32429 17.9293 1.1977 17.8035C1.07112 17.6776 1 17.5069 1 17.3289C1 17.151 1.07112 16.9803 1.1977 16.8544C1.32429 16.7286 1.49598 16.6579 1.675 16.6579H2.35V9.27632C2.35 8.74239 2.56335 8.23034 2.94311 7.8528C3.32287 7.47526 3.83794 7.26316 4.375 7.26316H15.625C16.1621 7.26316 16.6771 7.47526 17.0569 7.8528C17.4367 8.23034 17.65 8.74239 17.65 9.27632ZM3.7 9.27632V11.1472L5.9023 12.5609C6.08416 12.6776 6.29603 12.7397 6.5125 12.7397C6.72897 12.7397 6.94084 12.6776 7.1227 12.5609L8.695 11.5516C9.08264 11.3031 9.53241 11.1673 9.99358 11.1594C10.4548 11.1515 10.909 11.2718 11.305 11.5069L13.1131 12.5797C13.2996 12.6904 13.5143 12.7451 13.7313 12.7371C13.9483 12.7292 14.1584 12.659 14.3362 12.5349L16.3 11.1642V9.27632C16.3 9.09834 16.2289 8.92766 16.1023 8.80181C15.9757 8.67596 15.804 8.60526 15.625 8.60526H4.375C4.19598 8.60526 4.02429 8.67596 3.8977 8.80181C3.77112 8.92766 3.7 9.09834 3.7 9.27632V9.27632ZM15.112 13.6337C14.7209 13.9066 14.2587 14.0611 13.7811 14.0786C13.3036 14.096 12.8312 13.9757 12.421 13.7321L10.6138 12.6584C10.4337 12.5515 10.2271 12.4967 10.0173 12.5003C9.80753 12.504 9.60296 12.5659 9.4267 12.679L7.8544 13.6883C7.45443 13.9448 6.98851 14.0813 6.5125 14.0813C6.03649 14.0813 5.57057 13.9448 5.1706 13.6883L3.7 12.7443V16.6579H16.3V12.8043L15.112 13.6328V13.6337Z" fill="#1F2226"/>
</svg>
