<svg width="24" height="24" viewBox="0 0 24 24" fill="none" xmlns="http://www.w3.org/2000/svg">
<path d="M21.4577 13.298L21.4575 13.298L21.4562 13.3105C21.428 13.5754 21.3856 13.8388 21.329 14.0997L21.329 14.0997L21.3281 14.1039C21.3022 14.229 21.2746 14.3484 21.2435 14.4665C21.1089 14.9633 20.9232 15.4466 20.6889 15.9097L20.6857 15.9161L20.6827 15.9225C20.6275 16.0398 20.5681 16.1515 20.5032 16.2519L20.4955 16.2638L20.4885 16.2761C20.3274 16.5594 20.1478 16.8331 19.9508 17.0957L19.9507 17.0956L19.9443 17.1045C19.8582 17.2247 19.7656 17.3408 19.6669 17.4523L19.6601 17.46L19.6536 17.4679C19.4257 17.7477 19.1746 18.0102 18.9027 18.253L18.9026 18.253L18.8969 18.2583C18.757 18.3872 18.614 18.5078 18.4673 18.6241L18.4656 18.6254C18.1193 18.9023 17.7487 19.1512 17.3577 19.3693L17.3576 19.3693L17.352 19.3726C17.118 19.5071 16.8761 19.6291 16.6273 19.7378L16.6273 19.7377L16.6235 19.7395C15.5017 20.2409 14.2755 20.5009 13.0333 20.5H13.033H11.5V4.50001L13.033 4.50001L13.0336 4.50001C14.3785 4.49816 15.7032 4.80237 16.8961 5.3859L16.8961 5.38596L16.9037 5.38952C17.1339 5.49738 17.3571 5.61789 17.5722 5.7504L17.5722 5.75044L17.5778 5.75381C17.9686 5.98756 18.337 6.25276 18.6789 6.54634L18.6789 6.5464L18.6861 6.55241C18.821 6.66382 18.952 6.78442 19.0708 6.90615L19.0759 6.9114L19.0812 6.9165C19.5175 7.33816 19.9029 7.80384 20.2304 8.30489C20.3114 8.43021 20.3855 8.54592 20.4507 8.66241L20.4506 8.66243L20.4541 8.66842C20.729 9.14445 20.9516 9.64552 21.1186 10.1638C21.159 10.2928 21.1961 10.4116 21.229 10.5327C21.3336 10.9232 21.4051 11.3207 21.4428 11.7217L21.4437 11.731L21.4449 11.7402C21.4598 11.8527 21.4693 11.9672 21.4751 12.0887C21.4792 12.1742 21.4845 12.2368 21.4891 12.2918C21.4951 12.3625 21.5 12.4207 21.5 12.499C21.5 12.6633 21.4997 12.7997 21.4889 12.933C21.4841 12.9924 21.4807 13.0402 21.4777 13.0817C21.4717 13.1652 21.4675 13.223 21.4577 13.298Z" fill="#1F2226" stroke="white"/>
<path d="M9.5 4.5H9.50012C10.5506 4.49975 11.5908 4.70644 12.5614 5.10827C13.532 5.51009 14.4139 6.09918 15.1568 6.84189C15.8997 7.58459 16.489 8.46637 16.891 9.43685C17.2931 10.4073 17.5 11.4475 17.5 12.498H18L17.5 12.4981C17.5004 14.0804 17.0315 15.6273 16.1527 16.9432C15.2739 18.259 14.0246 19.2847 12.5628 19.8905C11.101 20.4963 9.49242 20.655 7.94044 20.3465C6.38847 20.038 4.96283 19.2763 3.84382 18.1575C2.72481 17.0388 1.9627 15.6133 1.65386 14.0614C1.34502 12.5095 1.50334 10.9009 2.10879 9.43897C2.71423 7.97705 3.73961 6.72751 5.05525 5.84837C6.37088 4.96924 7.91767 4.5 9.5 4.5Z" fill="#1F2226" stroke="white"/>
</svg>
