<svg width="24" height="26" viewBox="0 0 24 26" fill="none" xmlns="http://www.w3.org/2000/svg">
<path d="M4.39941 9.7457C4.87371 12.4428 10.0154 17.9783 11.7204 20.1212" stroke="#1F2226" stroke-width="1.4" stroke-linecap="round" stroke-linejoin="round"/>
<path d="M11.9659 19.5309L9.71164 23.4553C9.68218 23.5661 9.69543 23.684 9.74875 23.7855C9.80208 23.887 9.89159 23.9648 9.99956 24.0035C11.2438 24.4506 12.6048 24.4506 13.849 24.0035C13.957 23.9648 14.0465 23.887 14.0998 23.7855C14.1531 23.684 14.1664 23.5661 14.1369 23.4553L11.8827 19.5309" stroke="#1F2226" stroke-width="1.4" stroke-linecap="round" stroke-linejoin="round"/>
<path d="M21.8321 6.49605C21.7662 6.28975 21.6504 6.10293 21.4949 5.95222C21.3394 5.80152 21.149 5.69161 20.9407 5.63228C20.6121 5.53602 20.259 5.56992 19.9547 5.72694C20.0085 5.3877 19.931 5.04069 19.7378 4.75669C19.6158 4.57773 19.452 4.43127 19.2606 4.33006C19.0691 4.22884 18.8559 4.17593 18.6393 4.17593C18.4228 4.17593 18.2095 4.22884 18.0181 4.33006C17.8266 4.43127 17.6628 4.57773 17.5409 4.75669C17.349 5.04124 17.2729 5.38821 17.3279 5.72694C17.0221 5.57007 16.6679 5.53619 16.3379 5.63228C16.0466 5.71699 15.7931 5.89878 15.6194 6.14746C15.4457 6.39615 15.3623 6.69678 15.383 6.99941C15.4037 7.30205 15.5273 7.58849 15.7333 7.81118C15.9393 8.03386 16.2153 8.17938 16.5154 8.22357C16.2715 8.46516 16.1303 8.79152 16.121 9.13467C16.1163 9.31223 16.147 9.48894 16.2113 9.6545C16.2756 9.82006 16.3723 9.97115 16.4957 10.0989C16.6191 10.2267 16.7667 10.3286 16.9299 10.3987C17.0931 10.4688 17.2686 10.5057 17.4462 10.5072C17.5994 10.5063 17.7514 10.4796 17.8958 10.4283C18.2147 10.3092 18.4768 10.0739 18.6295 9.76967C18.7834 10.0759 19.0487 10.3116 19.3709 10.4283C19.5167 10.4797 19.67 10.5064 19.8245 10.5072C20.0885 10.5057 20.346 10.4258 20.5645 10.2777C20.783 10.1297 20.9527 9.92006 21.052 9.67548C21.1512 9.43091 21.1757 9.16236 21.1221 8.90389C21.0686 8.64541 20.9396 8.40864 20.7514 8.22357C20.9427 8.19525 21.1256 8.1255 21.2872 8.01919C21.4488 7.91288 21.5853 7.77258 21.6871 7.60808C21.7889 7.44358 21.8535 7.25884 21.8765 7.06677C21.8995 6.8747 21.8803 6.67993 21.8202 6.49605H21.8321Z" stroke="#1F2226" stroke-width="1.2" stroke-linecap="round" stroke-linejoin="round"/>
<path d="M19.3753 3.3013C19.3076 3.09516 19.1901 2.90888 19.0332 2.75892C18.8764 2.60896 18.685 2.49994 18.4761 2.44148C18.1459 2.34926 17.7929 2.38738 17.49 2.54797C17.5428 2.20767 17.4623 1.86011 17.2652 1.57772C17.1427 1.39956 16.9787 1.25388 16.7873 1.15324C16.596 1.05259 16.383 1 16.1668 1C15.9506 1 15.7376 1.05259 15.5462 1.15324C15.3549 1.25388 15.1909 1.39956 15.0683 1.57772C14.8786 1.86458 14.8053 2.21292 14.8632 2.55192C14.557 2.39567 14.202 2.36456 13.8733 2.46514C13.6623 2.52578 13.4696 2.63789 13.3127 2.7914C13.1557 2.94491 13.0394 3.13501 12.9741 3.34461C12.9087 3.55422 12.8965 3.77677 12.9385 3.99226C12.9805 4.20775 13.0754 4.40944 13.2146 4.5792C13.427 4.84878 13.7348 5.02664 14.0744 5.07616" stroke="#1F2226" stroke-width="1.2" stroke-linecap="round" stroke-linejoin="round"/>
<path d="M11.641 5.29703C11.809 5.06872 11.8977 4.79166 11.8934 4.50821C11.89 4.29597 11.8356 4.08766 11.7347 3.90092C11.6338 3.71418 11.4893 3.5545 11.3136 3.4354C11.0323 3.23905 10.6868 3.15725 10.3473 3.20664C10.5023 2.90031 10.5361 2.54682 10.442 2.21667C10.3802 2.00689 10.2671 1.81585 10.1128 1.66089C9.95851 1.50592 9.76798 1.39192 9.55848 1.32924V1.32924C9.35306 1.26014 9.13364 1.24342 8.92012 1.28062C8.7066 1.31781 8.50576 1.40773 8.3358 1.54222C8.06288 1.75124 7.88186 2.05813 7.83095 2.3981C7.58867 2.15525 7.26274 2.01415 6.91986 2.00369C6.70325 1.99649 6.48824 2.04318 6.29412 2.13955C6.1 2.23592 5.93283 2.37897 5.80762 2.55586" stroke="#1F2226" stroke-width="1.2" stroke-linecap="round" stroke-linejoin="round"/>
<path d="M13.8965 6.51971C13.7215 6.39177 13.5174 6.3093 13.3026 6.2797C13.0878 6.2501 12.8691 6.27429 12.6659 6.35011C12.3421 6.46636 12.0762 6.70398 11.9244 7.01272C11.7663 6.70769 11.4986 6.4738 11.1751 6.358C10.9707 6.28684 10.7522 6.26647 10.5382 6.29866C10.3243 6.33085 10.1214 6.41462 9.94708 6.54275C9.77275 6.67087 9.63222 6.8395 9.53763 7.03407C9.44304 7.22865 9.39723 7.44332 9.40414 7.65956C9.41579 8.00218 9.5567 8.32769 9.79855 8.57065C9.5001 8.61902 9.22695 8.76741 9.02393 8.99146C8.82092 9.21552 8.7001 9.50193 8.68129 9.80369C8.66249 10.1055 8.74682 10.4046 8.92046 10.6522C9.09409 10.8997 9.3467 11.0808 9.63685 11.1659C9.96781 11.2596 10.3221 11.2229 10.6268 11.0633C10.5739 11.4018 10.653 11.7477 10.8477 12.0296C10.9674 12.2054 11.1278 12.3496 11.3153 12.4499C11.5028 12.5501 11.7118 12.6035 11.9244 12.6055C12.1178 12.6043 12.3086 12.561 12.4836 12.4786C12.6586 12.3963 12.8135 12.2769 12.9377 12.1286C13.0619 11.9804 13.1524 11.807 13.2029 11.6203C13.2533 11.4336 13.2626 11.2382 13.2299 11.0476C13.5362 11.2031 13.8905 11.2356 14.2199 11.1383C14.361 11.0902 14.4939 11.021 14.6143 10.9332C14.8195 10.776 14.9746 10.5625 15.0606 10.3187C15.1466 10.075 15.16 9.81149 15.0989 9.56031C15.0379 9.30912 14.9052 9.0811 14.7169 8.90399C14.5286 8.72688 14.2929 8.60833 14.0385 8.56276C14.2817 8.32071 14.4228 7.99464 14.4329 7.65167C14.4441 7.43334 14.401 7.21564 14.3074 7.01808C14.2138 6.82053 14.0726 6.64928 13.8965 6.51971Z" stroke="#1F2226" stroke-width="1.2" stroke-linecap="round" stroke-linejoin="round"/>
<path d="M5.69715 3.90506C5.50664 3.87167 5.31113 3.88039 5.12435 3.9306C4.93757 3.98081 4.76404 4.0713 4.61595 4.19571C4.46786 4.32012 4.3488 4.47543 4.26712 4.65076C4.18545 4.82608 4.14314 5.01715 4.14316 5.21056C3.86807 5.00578 3.52563 4.91277 3.18474 4.95025C2.88195 4.98335 2.59972 5.11943 2.38527 5.33574C2.17082 5.55204 2.03717 5.83543 2.00668 6.13849C1.97619 6.44155 2.05071 6.74589 2.21777 7.00058C2.38483 7.25526 2.6343 7.44484 2.92443 7.5376C2.64275 7.73471 2.44783 8.03274 2.38014 8.36981C2.33519 8.58257 2.34329 8.80313 2.40373 9.01203C2.46417 9.22092 2.57509 9.41174 2.7267 9.56764C2.87831 9.72353 3.06596 9.83973 3.27309 9.90597C3.48022 9.9722 3.70046 9.98645 3.9144 9.94746C4.25344 9.8895 4.55637 9.70123 4.75844 9.42289C4.85373 9.75787 5.07779 10.0415 5.38162 10.2117C5.56953 10.3205 5.78173 10.3804 5.99879 10.3859C6.21585 10.3914 6.43082 10.3424 6.62402 10.2433C6.87423 10.1197 7.07967 9.92116 7.21169 9.67531C7.28175 9.53808 7.3284 9.39011 7.34974 9.23751C7.39757 8.89765 7.31129 8.55251 7.10914 8.27515C7.45349 8.28073 7.78678 8.15363 8.03996 7.92018C8.15293 7.81572 8.24758 7.69307 8.31999 7.55732C8.43919 7.32411 8.48706 7.06096 8.45762 6.80071C8.42818 6.54047 8.32273 6.29466 8.15444 6.09398C7.98616 5.89329 7.76248 5.74663 7.51135 5.67229C7.26022 5.59795 6.99275 5.59923 6.74234 5.67597C6.8534 5.35068 6.83648 4.99531 6.69501 4.68205C6.60661 4.47964 6.46902 4.30254 6.29474 4.16684C6.12047 4.03114 5.91505 3.94115 5.69715 3.90506V3.90506Z" stroke="#1F2226" stroke-width="1.2" stroke-linecap="round" stroke-linejoin="round"/>
<path d="M19.3128 10.4594C18.7722 12.8943 13.6837 18.1739 12.1299 20.125" stroke="#1F2226" stroke-width="1.4" stroke-linecap="round" stroke-linejoin="round"/>
</svg>
