<svg width="18" height="18" viewBox="0 0 18 18" fill="none" xmlns="http://www.w3.org/2000/svg">
<path d="M6.65376 1.27203L7.39504 2.15337C8.84754 3.8765 8.69532 6.44512 7.07817 8.06286L6.76377 8.37695C7.0026 8.77826 7.43416 9.30648 8.06612 9.93867C8.62712 10.4999 9.1069 10.9036 9.48855 11.1546L9.62704 11.2416L9.94148 10.9271C11.5574 9.31059 14.1235 9.15682 15.8489 10.6079L16.7303 11.3506C18.2757 12.6515 18.4258 14.9708 17.0961 16.5324C16.4595 17.269 15.5819 17.7532 14.6718 17.8968L14.136 17.9612C10.9555 18.2699 7.74576 16.7329 4.50979 13.4958C1.27549 10.2603 -0.263533 7.04884 0.0368748 3.93996L0.100935 3.39478C0.136922 3.15288 0.193306 2.91869 0.271555 2.68736C0.507103 1.996 0.923323 1.37963 1.47678 0.902518L1.65401 0.759786C3.20151 -0.412165 5.40109 -0.218347 6.65376 1.27203ZM2.51339 2.10553C2.17396 2.39813 1.9188 2.77609 1.77449 3.19965C1.7122 3.3838 1.67197 3.5747 1.65295 3.78352C1.28961 6.4814 2.60384 9.34296 5.63261 12.3728C8.66126 15.4026 11.5209 16.7166 14.2319 16.3516C14.8767 16.29 15.4729 15.9821 15.8948 15.4938C16.6555 14.6005 16.5681 13.2898 15.7079 12.5657L14.8259 11.8224L14.6749 11.7044C13.595 10.922 12.0594 11.0546 11.0643 12.05L10.4322 12.6823L10.34 12.7636C10.0825 12.9624 9.73819 13.0182 9.42715 12.9042C8.7413 12.6519 7.91898 12.0376 6.9433 11.0616C5.96665 10.0846 5.35296 9.26249 5.1022 8.57682C4.97384 8.22744 5.05991 7.8353 5.32317 7.57148L5.9561 6.93917L6.09237 6.7934C7.00507 5.7487 7.05198 4.21021 6.18112 3.17709L5.43873 2.29444L5.31979 2.16498C4.57866 1.42691 3.359 1.38633 2.51339 2.10553Z" fill="#1F2226"/>
</svg>
