<svg width="20" height="20" viewBox="0 0 20 20" fill="none" xmlns="http://www.w3.org/2000/svg">
<path d="M8.0448 3.56002L8.66253 4.29447C9.87295 5.73041 9.7461 7.87093 8.39848 9.21905L8.13647 9.48079C8.3355 9.81522 8.69513 10.2554 9.22177 10.7822C9.68927 11.2499 10.0891 11.5863 10.4071 11.7955L10.5225 11.868L10.7846 11.6059C12.1312 10.2588 14.2696 10.1307 15.7074 11.3399L16.4419 11.9588C17.7297 13.0429 17.8548 14.9756 16.7467 16.277C16.2163 16.8908 15.4849 17.2944 14.7265 17.414L14.28 17.4677C11.6296 17.7249 8.9548 16.4441 6.25816 13.7465C3.56291 11.0502 2.28039 8.37404 2.53073 5.7833L2.58411 5.32898C2.6141 5.1274 2.66109 4.93224 2.7263 4.73947C2.92259 4.16334 3.26944 3.6497 3.73065 3.2521L3.87834 3.13315C5.16793 2.15653 7.00091 2.31804 8.0448 3.56002ZM4.59449 4.25461C4.31164 4.49844 4.099 4.81341 3.97874 5.16638C3.92683 5.31984 3.89331 5.47892 3.87746 5.65294C3.57467 7.90117 4.66986 10.2858 7.19384 12.8107C9.71772 15.3355 12.1008 16.4305 14.3599 16.1263C14.8972 16.075 15.3941 15.8184 15.7457 15.4115C16.3795 14.6671 16.3067 13.5748 15.5899 12.9714L14.8549 12.352L14.729 12.2537C13.8292 11.6017 12.5495 11.7121 11.7203 12.5417L11.1935 13.0686L11.1166 13.1363C10.9021 13.302 10.6152 13.3485 10.356 13.2535C9.78442 13.0433 9.09915 12.5314 8.28608 11.718C7.47221 10.9038 6.9608 10.2187 6.75183 9.64735C6.64486 9.3562 6.71659 9.02942 6.93597 8.80957L7.46342 8.28264L7.57698 8.16116C8.33756 7.29059 8.37665 6.00851 7.65094 5.14757L7.03228 4.41203L6.93316 4.30415C6.31555 3.68909 5.29916 3.65528 4.59449 4.25461Z" fill="#1F2226"/>
</svg>
