<svg xmlns="http://www.w3.org/2000/svg" viewBox="0 0 20 20">
  <path d="M11.6029 12.4684L11.0469 13.0245C10.8984 13.1733 10.6771 13.2222 10.4797 13.1499C9.92681 12.9465 9.23507 12.4302 8.40454 11.5994C7.57476 10.7693 7.05783 10.0773 6.85527 9.52348C6.78279 9.32623 6.83139 9.10483 6.97981 8.9561L7.5365 8.39998C8.5621 7.37405 8.65588 5.75823 7.75182 4.68577L7.0991 3.90976C6.3541 3.02342 5.01189 2.93411 4.10033 3.70937C3.76131 4.00162 3.50645 4.37911 3.36208 4.80285C3.29968 4.98731 3.25939 5.17852 3.24204 5.37248C2.90818 7.85137 4.10333 10.4533 6.82676 13.1776C9.55018 15.902 12.1506 17.0967 14.6294 16.7628C15.2734 16.7013 15.8689 16.3938 16.292 15.9042C17.0677 14.9931 16.9777 13.6497 16.0924 12.9045L15.3166 12.2508C14.243 11.3479 12.6285 11.4425 11.6029 12.4684ZM9.47565 10.5281C9.87237 10.9249 10.2183 11.2259 10.498 11.4309C12.1061 9.82232 14.6083 9.67571 16.2925 11.0921L17.0677 11.7453C18.6046 13.039 18.7583 15.3443 17.4379 16.895C16.7599 17.6796 15.8055 18.1725 14.8316 18.2643C11.8157 18.6706 8.78281 17.2771 5.75565 14.2489C2.72841 11.2207 1.33468 8.18617 1.73335 5.23746C1.76138 4.92413 1.82647 4.61524 1.92834 4.31411C2.15971 3.63503 2.56815 3.03005 3.11914 2.55513C4.66208 1.24289 6.96562 1.39661 8.25817 2.93437L8.90983 3.70912C10.3277 5.39112 10.1825 7.89591 8.60688 9.47199C8.778 9.78515 9.07878 10.1311 9.47565 10.5281Z"
              fill="#1F2226"/>
</svg>
