<svg width="81" height="80" viewBox="0 0 81 80" fill="none" xmlns="http://www.w3.org/2000/svg">
<path d="M46.7898 10C49.7427 10 51.8376 10.9581 53.6607 13.1206C53.6882 13.1533 55.2043 15.0637 55.9364 15.976C56.1887 16.2905 57.3456 16.5882 59.1898 16.5882H60.6015C68.1892 16.5882 73.4258 22.0702 73.4258 30.5056V51.6328C73.4258 59.2446 66.1773 66 57.7781 66H21.0735C12.6743 66 5.42578 59.2446 5.42578 51.6328V30.5056C5.42578 22.0702 10.6624 16.5882 18.2501 16.5882H19.6618C21.506 16.5882 22.6629 16.2905 22.9152 15.976C23.6473 15.0637 25.1634 13.1533 25.1909 13.1206C27.0139 10.9581 29.1089 10 32.0618 10H46.7898ZM46.7898 15.9294H32.0618C30.8206 15.9294 30.3706 16.1352 29.6758 16.9594C29.7145 16.9134 28.2852 18.7146 27.4912 19.704C25.7744 21.8435 23.1551 22.5176 19.6618 22.5176H18.2501C13.9637 22.5176 11.3104 25.2953 11.3104 30.5056V51.6328C11.3104 55.8621 15.8261 60.0706 21.0735 60.0706H57.7781C63.0254 60.0706 67.5412 55.8621 67.5412 51.6328V30.5056C67.5412 25.2953 64.8878 22.5176 60.6015 22.5176H59.1898C55.6965 22.5176 53.0771 21.8435 51.3603 19.704C50.5664 18.7146 49.137 16.9134 49.1758 16.9594C48.481 16.1352 48.0309 15.9294 46.7898 15.9294ZM39.4258 25.4824C47.3709 25.4824 53.8104 31.9709 53.8104 39.9765C53.8104 47.982 47.3709 54.4706 39.4258 54.4706C31.4807 54.4706 25.0412 47.982 25.0412 39.9765C25.0412 31.9709 31.4807 25.4824 39.4258 25.4824ZM39.4258 31.4118C34.7307 31.4118 30.9258 35.2457 30.9258 39.9765C30.9258 44.7073 34.7307 48.5412 39.4258 48.5412C44.1209 48.5412 47.9258 44.7073 47.9258 39.9765C47.9258 35.2457 44.1209 31.4118 39.4258 31.4118Z" fill="#1F2226"/>
</svg>
