<svg width="20" height="20" viewBox="0 0 20 20" fill="none" xmlns="http://www.w3.org/2000/svg">
<g clip-path="url(#clip0_222_12639)">
<path fill-rule="evenodd" clip-rule="evenodd" d="M7.25 18.75V7.8281L7.55 7.9331C8.14469 8.1431 8.73219 8.29935 9.29156 8.37935C9.55875 8.41748 9.81625 8.43748 10.0625 8.43748C10.3087 8.43748 10.5662 8.41748 10.8334 8.37935C11.3928 8.29935 11.9803 8.1431 12.5753 7.9331C12.8813 7.82498 12.875 7.81967 12.875 7.81967V18.75H7.25ZM14.125 19.375V6.87498C14.125 6.76846 14.0978 6.66371 14.0459 6.57067C13.994 6.47763 13.9192 6.39939 13.8286 6.34338C13.738 6.28737 13.6346 6.25544 13.5282 6.25064C13.4218 6.24583 13.3159 6.2683 13.2206 6.31592C13.1706 6.34092 13.0716 6.38779 12.9313 6.44904C12.6947 6.5531 12.4344 6.65717 12.1594 6.75435C11.6359 6.93873 11.125 7.07498 10.6562 7.14185C10.4453 7.17185 10.2469 7.18748 10.0625 7.18748C9.87813 7.18748 9.67969 7.17185 9.46875 7.14185C9 7.07498 8.48906 6.93873 7.96562 6.75435C7.69062 6.65748 7.43031 6.5531 7.19375 6.44904C7.0963 6.40685 6.99982 6.36247 6.90438 6.31592C6.80909 6.2683 6.70321 6.24583 6.5968 6.25064C6.49039 6.25544 6.38697 6.28737 6.29636 6.34338C6.20576 6.39939 6.13097 6.47763 6.0791 6.57067C6.02723 6.66371 6 6.76846 6 6.87498V19.375C6 19.5407 6.06585 19.6997 6.18306 19.8169C6.30027 19.9341 6.45924 20 6.625 20H13.5C13.6658 20 13.8247 19.9341 13.9419 19.8169C14.0592 19.6997 14.125 19.5407 14.125 19.375Z" fill="black"/>
<path fill-rule="evenodd" clip-rule="evenodd" d="M10.6875 12.5C10.6875 12.6658 10.7533 12.8247 10.8706 12.9419C10.9878 13.0592 11.1467 13.125 11.3125 13.125C11.4783 13.125 11.6372 13.0592 11.7544 12.9419C11.8717 12.8247 11.9375 12.6658 11.9375 12.5V8.125C11.9375 7.95924 11.8717 7.80027 11.7544 7.68306C11.6372 7.56585 11.4783 7.5 11.3125 7.5C11.1467 7.5 10.9878 7.56585 10.8706 7.68306C10.7533 7.80027 10.6875 7.95924 10.6875 8.125V12.5ZM9.4375 7.5C9.4375 7.66576 9.50335 7.82473 9.62056 7.94194C9.73777 8.05915 9.89674 8.125 10.0625 8.125C10.2283 8.125 10.3872 8.05915 10.5044 7.94194C10.6217 7.82473 10.6875 7.66576 10.6875 7.5V6.5625C10.6875 6.39674 10.6217 6.23777 10.5044 6.12056C10.3872 6.00335 10.2283 5.9375 10.0625 5.9375C9.89674 5.9375 9.73777 6.00335 9.62056 6.12056C9.50335 6.23777 9.4375 6.39674 9.4375 6.5625V7.5Z" fill="black"/>
<path fill-rule="evenodd" clip-rule="evenodd" d="M12.5625 4.0625C12.5625 3.44781 12.2156 2.55312 11.6966 1.645C11.1094 0.61875 10.6094 0 10.0625 0C9.51562 0 9.01562 0.61875 8.42844 1.645C7.90937 2.55312 7.5625 3.44781 7.5625 4.0625C7.5625 4.72554 7.82589 5.36143 8.29473 5.83027C8.76357 6.29911 9.39946 6.5625 10.0625 6.5625C10.7255 6.5625 11.3614 6.29911 11.8303 5.83027C12.2991 5.36143 12.5625 4.72554 12.5625 4.0625ZM8.8125 4.0625C8.8125 3.72687 9.09531 2.99687 9.51375 2.26562C9.63875 2.04688 9.76812 1.84188 9.89062 1.66656C9.95719 1.57094 10.0613 1.44406 10.0613 1.44406C10.0613 1.44406 10.1997 1.61687 10.2284 1.65781C10.3525 1.835 10.4844 2.04344 10.6112 2.26562C11.0297 2.99687 11.3125 3.72687 11.3125 4.0625C11.3125 4.39402 11.1808 4.71196 10.9464 4.94638C10.712 5.1808 10.394 5.3125 10.0625 5.3125C9.73098 5.3125 9.41304 5.1808 9.17862 4.94638C8.9442 4.71196 8.8125 4.39402 8.8125 4.0625Z" fill="black"/>
</g>
<defs>
<clipPath id="clip0_222_12639">
<rect width="8.125" height="20" fill="white" transform="translate(6)"/>
</clipPath>
</defs>
</svg>
