<svg width="24" height="24" viewBox="0 0 24 24" fill="none" xmlns="http://www.w3.org/2000/svg">
<g clip-path="url(#clip0_8896_139308)">
<path d="M21.34 16.3085L19.8768 10.7318V0.446063C19.8768 0.199641 19.677 0 19.4307 0H4.56834C4.32201 0 4.12227 0.199641 4.12227 0.446063V8.96813L2.67267 12.8526C2.62677 12.9756 2.63742 13.1127 2.70173 13.2272C2.76609 13.3417 2.87765 13.4219 3.0066 13.4467L4.12223 13.6604V23.554C4.12223 23.8005 4.32196 24.0001 4.56829 24.0001H19.4308C19.6771 24.0001 19.8768 23.8005 19.8768 23.554V16.6783L20.8246 16.8599C20.8526 16.8652 20.8806 16.8678 20.9085 16.8678C21.0308 16.8678 21.1492 16.8174 21.2344 16.7264C21.339 16.6144 21.3789 16.4566 21.34 16.3085ZM5.01431 0.892125H18.9846V10.2875L18.4523 10.2251V7.49733C18.4523 7.25091 18.2526 7.05127 18.0063 7.05127H15.0624C14.8161 7.05127 14.6163 7.25091 14.6163 7.49733V9.77588L13.9175 9.69403V7.49733C13.9175 7.25091 13.7178 7.05127 13.4714 7.05127H10.5275C10.2812 7.05127 10.0814 7.25091 10.0814 7.49733V9.24473L9.38263 9.16289V7.49733C9.38263 7.25091 9.1829 7.05127 8.93657 7.05127H5.9932C5.74687 7.05127 5.54713 7.25091 5.54713 7.49733V8.71364L5.01426 8.6512V0.892125H5.01431ZM17.5603 7.94334V10.1206L15.5084 9.88027V7.94334H17.5603ZM13.0254 7.9433V9.58945L10.9736 9.34912V7.9433H13.0254ZM8.49056 7.94334V9.05836L6.43931 8.81808V7.94334H8.49056ZM18.9847 23.1079H18.9847H5.01435V13.8313L18.9847 16.5074V23.1079H18.9847ZM3.69304 12.6698L4.86407 9.5318L19.0764 11.1963L20.2975 15.8505L3.69304 12.6698Z" fill="black" stroke="black" stroke-width="0.2"/>
<path d="M8.93776 1.33008H5.99391C5.74759 1.33008 5.54785 1.52972 5.54785 1.77614V6.05798C5.54785 6.30441 5.74759 6.50405 5.99391 6.50405H8.93776C9.18409 6.50405 9.38382 6.30441 9.38382 6.05798V1.77609C9.38382 1.52972 9.18409 1.33008 8.93776 1.33008ZM8.49169 5.61192H6.43998V2.22216H8.49169V5.61192Z" fill="black" stroke="black" stroke-width="0.2"/>
<path d="M13.4719 1.33008H10.5281C10.2818 1.33008 10.082 1.52972 10.082 1.77614V6.05798C10.082 6.30441 10.2818 6.50405 10.5281 6.50405H13.4719C13.7183 6.50405 13.918 6.30441 13.918 6.05798V1.77609C13.918 1.52972 13.7183 1.33008 13.4719 1.33008ZM13.0259 5.61192H10.9742V2.22216H13.0259V5.61192Z" fill="black" stroke="black" stroke-width="0.2"/>
<path d="M18.0061 1.33008H15.0623C14.8159 1.33008 14.6162 1.52972 14.6162 1.77614V6.05798C14.6162 6.30441 14.8159 6.50405 15.0623 6.50405H18.0061C18.2524 6.50405 18.4522 6.30441 18.4522 6.05798V1.77609C18.4522 1.52972 18.2525 1.33008 18.0061 1.33008ZM17.5601 5.61192H15.5083V2.22216H17.5601V5.61192Z" fill="black" stroke="black" stroke-width="0.2"/>
</g>
<defs>
<clipPath id="clip0_8896_139308">
<rect width="24" height="24" fill="white"/>
</clipPath>
</defs>
</svg>
