<svg width="20" height="20" viewBox="0 0 20 20" fill="none" xmlns="http://www.w3.org/2000/svg">
<path d="M10 1.66699C12.327 1.66699 14.2135 3.47594 14.2135 5.7074H14.2591C15.3861 5.7074 15.7947 5.81991 16.2067 6.03119C16.6187 6.24248 16.942 6.55252 17.1623 6.94758C17.3827 7.34265 17.5 7.73451 17.5 8.81514V12.7655C17.5 14.4536 17.3142 15.0778 16.9654 15.7034C16.6165 16.3289 16.1046 16.8198 15.4523 17.1543C14.7999 17.4888 14.1489 17.667 12.3885 17.667H7.6115C5.85106 17.667 5.20006 17.4888 4.54775 17.1543C3.89544 16.8198 3.3835 16.3289 3.03464 15.7034C2.68578 15.0778 2.5 14.4536 2.5 12.7655V8.81514C2.5 7.73451 2.61734 7.34265 2.83767 6.94758C3.058 6.55252 3.38133 6.24248 3.79331 6.03119C4.2053 5.81991 4.61395 5.7074 5.74087 5.7074H5.78652C5.78652 3.47594 7.67296 1.66699 10 1.66699ZM14.4215 7.16256L5.74087 7.16194C4.94242 7.16194 4.72708 7.20182 4.50866 7.31383C4.36101 7.38955 4.25421 7.49197 4.17525 7.63355C4.05844 7.84299 4.01685 8.04949 4.01685 8.81514V12.7655C4.01685 14.0867 4.10999 14.5472 4.37222 15.0174C4.57971 15.3894 4.87512 15.6727 5.26309 15.8717C5.75342 16.1231 6.23368 16.2124 7.6115 16.2124H12.3885C13.7663 16.2124 14.2466 16.1231 14.7369 15.8717C15.1249 15.6727 15.4203 15.3894 15.6278 15.0174C15.89 14.5472 15.9831 14.0867 15.9831 12.7655V8.81514C15.9831 8.04949 15.9416 7.84299 15.8248 7.63355C15.7458 7.49197 15.639 7.38955 15.4913 7.31383C15.2885 7.20982 15.0884 7.16801 14.4215 7.16256ZM10 3.12154C8.51069 3.12154 7.30337 4.27927 7.30337 5.7074H12.6966C12.6966 4.27927 11.4893 3.12154 10 3.12154Z" fill="currentColor" stroke="white" stroke-width="0.1"/>
</svg>
