<svg width="24" height="24" viewBox="0 0 24 24" fill="none" xmlns="http://www.w3.org/2000/svg">
<path fill-rule="evenodd" clip-rule="evenodd" d="M4.5 6.88889H22L19.7802 14.9047C19.4368 16.145 18.3381 17 17.088 17H7.70612C6.27938 17 5.0808 15.8932 4.92325 14.4301L3.8 4H1" fill="#1F2226"/>
<path d="M4.5 6.88889H22L19.7802 14.9047C19.4368 16.145 18.3381 17 17.088 17H7.70612C6.27938 17 5.0808 15.8932 4.92325 14.4301L3.8 4H1" stroke="#1F2226" stroke-width="2" stroke-linecap="round" stroke-linejoin="round"/>
<path d="M8 24C9.10457 24 10 23.1046 10 22C10 20.8954 9.10457 20 8 20C6.89543 20 6 20.8954 6 22C6 23.1046 6.89543 24 8 24Z" fill="#1F2226"/>
<path d="M17 24C18.1046 24 19 23.1046 19 22C19 20.8954 18.1046 20 17 20C15.8954 20 15 20.8954 15 22C15 23.1046 15.8954 24 17 24Z" fill="#1F2226"/>
</svg>
