<svg xmlns="http://www.w3.org/2000/svg" width="24" height="24" viewBox="0 0 24 24">
  <path d="M11.9004 2.00049C14.6618 2.00049 16.9004 4.23906 16.9004 7.00049H16.9545C18.2918 7.00049 18.7767 7.13973 19.2656 7.40119C19.7545 7.66265 20.1382 8.04633 20.3997 8.53522C20.6611 9.02411 20.8004 9.50904 20.8004 10.8463V15.7348C20.8004 17.8239 20.5799 18.5964 20.1659 19.3705C19.7519 20.1446 19.1444 20.7521 18.3704 21.166C17.5963 21.58 16.8238 21.8005 14.7347 21.8005H9.06601C6.97695 21.8005 6.20443 21.58 5.43036 21.166C4.65628 20.7521 4.04879 20.1446 3.63481 19.3705C3.22083 18.5964 3.00037 17.8239 3.00037 15.7348V10.8463C3.00037 9.50904 3.1396 9.02411 3.40107 8.53522C3.66253 8.04633 4.04621 7.66265 4.5351 7.40119C5.02399 7.13973 5.50892 7.00049 6.84619 7.00049H6.90037C6.90037 4.23906 9.13894 2.00049 11.9004 2.00049ZM17.1472 8.80126L6.84619 8.80049C5.89871 8.80049 5.64316 8.84984 5.38398 8.98845C5.20877 9.08215 5.08203 9.20889 4.98833 9.3841C4.84971 9.64329 4.80037 9.89883 4.80037 10.8463V15.7348C4.80037 17.3699 4.91089 17.9398 5.22207 18.5216C5.46829 18.982 5.81884 19.3326 6.27924 19.5788C6.86109 19.89 7.431 20.0005 9.06601 20.0005H14.7347C16.3697 20.0005 16.9396 19.89 17.5215 19.5788C17.9819 19.3326 18.3324 18.982 18.5787 18.5216C18.8898 17.9398 19.0004 17.3699 19.0004 15.7348V10.8463C19.0004 9.89883 18.951 9.64329 18.8124 9.3841C18.7187 9.20889 18.592 9.08215 18.4168 8.98845C18.1761 8.85974 17.9386 8.80799 17.1472 8.80126ZM11.9004 3.80049C10.1331 3.80049 8.70037 5.23318 8.70037 7.00049H15.1004C15.1004 5.23318 13.6677 3.80049 11.9004 3.80049Z"
        stroke="white" stroke-width="0.2"/>
</svg>
