<svg xmlns="http://www.w3.org/2000/svg" width="18" height="18" viewBox="0 0 20 20">
  <path d="M3.75004 5.74074H18.3334L16.4836 12.4206C16.1974 13.4541 15.2818 14.1667 14.24 14.1667H6.42181C5.23286 14.1667 4.23404 13.2443 4.10275 12.0251L3.16671 3.33334H0.833374"
        stroke="currentColor" stroke-width="1.5" stroke-linecap="round" stroke-linejoin="round"/>
  <path d="M6.66667 20C7.58714 20 8.33333 19.2538 8.33333 18.3333C8.33333 17.4129 7.58714 16.6667 6.66667 16.6667C5.74619 16.6667 5 17.4129 5 18.3333C5 19.2538 5.74619 20 6.66667 20Z"
  />
  <path d="M14.1667 20C15.0871 20 15.8333 19.2538 15.8333 18.3333C15.8333 17.4129 15.0871 16.6667 14.1667 16.6667C13.2462 16.6667 12.5 17.4129 12.5 18.3333C12.5 19.2538 13.2462 20 14.1667 20Z"
  />
</svg>
