<svg xmlns="http://www.w3.org/2000/svg" width="20" height="19" viewBox="0 0 14 12">
  <path
    d="M13.1264 6.58463L13.1263 6.58462L13.1258 6.58938C13.1064 6.78219 13.0771 6.97389 13.0381 7.16371L13.0378 7.16532C13.0199 7.25608 13.0008 7.34335 12.9791 7.43013C12.8863 7.79162 12.7582 8.14314 12.5968 8.47965L12.5967 8.47962L12.5945 8.48467C12.5556 8.5717 12.5128 8.6571 12.4647 8.7355L12.4644 8.73534L12.4592 8.74507C12.3482 8.95079 12.2247 9.14944 12.0892 9.33989L12.0891 9.33986L12.0867 9.34342C12.0261 9.43256 11.9611 9.51856 11.8918 9.60109L11.8916 9.60099L11.8867 9.60741C11.7293 9.81113 11.5561 10.0021 11.3686 10.1786L11.3686 10.1786L11.3664 10.1808C11.2698 10.2747 11.1714 10.3621 11.071 10.446L11.0703 10.4466C10.8326 10.647 10.5784 10.8271 10.3103 10.9848L10.3103 10.9848L10.308 10.9862C10.1472 11.0837 9.98097 11.1721 9.81014 11.2508L9.81013 11.2508L9.80855 11.2515C9.04095 11.6134 8.20271 11.8007 7.35409 11.8H7.35393H6.19316V0.200006L7.35393 0.200006L7.35422 0.200006C8.27296 0.198672 9.17861 0.417797 9.99512 0.838979L9.99511 0.839006L9.99822 0.84054C10.1568 0.918877 10.3106 1.00645 10.4589 1.1028L10.4589 1.10281L10.4611 1.10425C10.7291 1.2733 10.982 1.46522 11.2169 1.67789L11.2168 1.67791L11.2197 1.68041C11.3137 1.7623 11.405 1.85097 11.4881 1.94074L11.488 1.9408L11.4921 1.94498C11.7917 2.25026 12.0566 2.58776 12.2819 2.9513C12.336 3.03957 12.3881 3.12527 12.4344 3.21254L12.4344 3.21255L12.4357 3.21491C12.625 3.5606 12.7784 3.92477 12.8935 4.30173C12.9205 4.39269 12.9463 4.47971 12.9693 4.5689C13.0416 4.85331 13.091 5.14304 13.1171 5.43533L13.117 5.43534L13.1179 5.44233C13.1284 5.527 13.1352 5.61247 13.1392 5.70188C13.1414 5.74994 13.1446 5.79173 13.1477 5.83118C13.152 5.88812 13.156 5.9402 13.156 5.99929C13.156 6.11413 13.156 6.21709 13.1481 6.31882C13.1452 6.35655 13.143 6.38856 13.1411 6.41738C13.1368 6.47952 13.1336 6.52684 13.1264 6.58463Z"
    fill="#A47B00" stroke="black" stroke-width="0.4"/>
  <path
    d="M5.99787 0.20293L5.99792 0.20293C6.75923 0.20275 7.51313 0.352545 8.21654 0.643763C8.91996 0.934982 9.55912 1.36192 10.0975 1.90018C10.6359 2.43845 11.063 3.07751 11.3544 3.78085C11.6458 4.4842 11.7957 5.23806 11.7957 5.99938H11.9957L11.7957 5.99942C11.796 7.14619 11.4562 8.26728 10.8193 9.22092C10.1824 10.1746 9.27697 10.9179 8.21757 11.3569C7.15817 11.796 5.99237 11.911 4.8676 11.6874C3.74284 11.4639 2.70963 10.9118 1.89864 10.101C1.08766 9.2902 0.535331 8.25712 0.311507 7.13241C0.0876843 6.00769 0.202421 4.84187 0.641208 3.78237C1.07999 2.72286 1.82312 1.81728 2.77661 1.18014C3.73009 0.543002 4.8511 0.20293 5.99787 0.20293Z"
    fill="#FFED74" stroke="black" stroke-width="0.4"/>
  <path
    d="M10.9767 5.99727C10.9775 6.98222 10.6862 7.94529 10.1396 8.76465C9.59304 9.58401 8.81571 10.2229 7.90598 10.6004C6.99625 10.9779 5.99499 11.0771 5.02887 10.8854C4.06274 10.6938 3.17516 10.2199 2.4784 9.52376C1.78164 8.8276 1.307 7.94042 1.11454 6.97446C0.922076 6.0085 1.02043 5.00716 1.39716 4.09711C1.77389 3.18705 2.41206 2.40918 3.23096 1.86188C4.04985 1.31459 5.01267 1.02246 5.99762 1.02246C7.31741 1.02246 8.58321 1.54645 9.51685 2.47929C10.4505 3.41213 10.9756 4.67748 10.9767 5.99727V5.99727Z"
    fill="#FCBC00"/>
  <path
    d="M6.41367 10.5601C5.45411 10.5603 4.51496 10.2831 3.70927 9.76192C2.90359 9.24073 2.26571 8.49778 1.87245 7.6225C1.47919 6.74722 1.34731 5.77693 1.49267 4.82844C1.63804 3.87995 2.05445 2.9937 2.69179 2.27637C2.18487 2.72705 1.77542 3.27658 1.48855 3.89123C1.20169 4.50587 1.04347 5.17266 1.02362 5.85066C1.00376 6.52867 1.12269 7.20357 1.37309 7.83395C1.62349 8.46433 2.00009 9.03688 2.47976 9.51646C2.95943 9.99604 3.53206 10.3725 4.16249 10.6228C4.79292 10.8731 5.46785 10.9919 6.14585 10.9719C6.82384 10.9519 7.4906 10.7935 8.10519 10.5065C8.71978 10.2195 9.26923 9.80997 9.71981 9.30297C8.80982 10.1143 7.63281 10.5618 6.41367 10.5601V10.5601Z"
    fill="#C57F0C"/>
</svg>
