<svg width="10" height="14" viewBox="0 0 10 14" fill="none" xmlns="http://www.w3.org/2000/svg">
<path d="M5.57132 4.4285C5.57132 3.52246 6.1738 2.75714 6.99999 2.5113L6.9999 1.28565C6.9999 0.970053 7.25573 0.714216 7.57132 0.714216C7.88692 0.714216 8.14275 0.970053 8.14275 1.28565L8.14323 2.51147C8.96913 2.75749 9.57132 3.52267 9.57132 4.4285C9.57132 5.33433 8.96913 6.09951 8.14323 6.34554L8.14275 12.7142C8.14275 13.0298 7.88692 13.2856 7.57132 13.2856C7.25573 13.2856 6.9999 13.0298 6.9999 12.7142L6.99999 6.34571C6.1738 6.09987 5.57132 5.33454 5.57132 4.4285ZM6.57132 4.4285C6.57132 4.98079 7.01904 5.4285 7.57132 5.4285C8.12361 5.4285 8.57132 4.98079 8.57132 4.4285C8.57132 3.87622 8.12361 3.4285 7.57132 3.4285C7.01904 3.4285 6.57132 3.87622 6.57132 4.4285ZM0.428467 8.99993C0.428467 8.09389 1.03094 7.32857 1.85713 7.08273L1.85704 1.28565C1.85704 0.970054 2.11288 0.714216 2.42847 0.714216C2.74406 0.714216 2.9999 0.970054 2.9999 1.28565L3.00037 7.0829C3.82627 7.32892 4.42847 8.0941 4.42847 8.99993C4.42847 9.90576 3.82627 10.6709 3.00038 10.917L2.9999 12.7142C2.9999 13.0298 2.74406 13.2856 2.42847 13.2856C2.11288 13.2856 1.85704 13.0298 1.85704 12.7142L1.85713 10.9171C1.03094 10.6713 0.428467 9.90597 0.428467 8.99993ZM1.42847 8.99993C1.42847 9.55222 1.87618 9.99993 2.42847 9.99993C2.98075 9.99993 3.42847 9.55222 3.42847 8.99993C3.42847 8.44765 2.98075 7.99993 2.42847 7.99993C1.87618 7.99993 1.42847 8.44765 1.42847 8.99993Z" fill="#7C7C7C"/>
</svg>
