<svg width="28" height="28" viewBox="0 0 28 28" fill="none" xmlns="http://www.w3.org/2000/svg">
<path d="M21.3508 6.6498C20.8997 6.19877 20.1685 6.19877 19.7174 6.6498L14.0008 12.3665L8.28411 6.6498C7.83308 6.19877 7.10181 6.19877 6.65077 6.6498C6.19974 7.10083 6.19974 7.8321 6.65077 8.28313L12.3674 13.9998L6.65077 19.7165C6.19974 20.1675 6.19974 20.8988 6.65077 21.3498C7.10181 21.8008 7.83308 21.8008 8.28411 21.3498L14.0008 15.6331L19.7174 21.3498C20.1685 21.8008 20.8997 21.8008 21.3508 21.3498C21.8018 20.8988 21.8018 20.1675 21.3508 19.7165L15.6341 13.9998L21.3508 8.28313C21.8018 7.8321 21.8018 7.10083 21.3508 6.6498Z" fill="white"/>
</svg>
