<svg xmlns="http://www.w3.org/2000/svg" viewBox="0 0 16 16" fill="currentColor">
  <path d="M12.1997 3.79999C11.942 3.54226 11.5241 3.54226 11.2664 3.79999L7.99975 7.06666L4.73308 3.79999C4.47535 3.54226 4.05748 3.54226 3.79974 3.79999C3.54201 4.05772 3.54201 4.47559 3.79974 4.73332L7.06641 7.99999L3.79974 11.2667C3.54201 11.5244 3.54201 11.9423 3.79974 12.2C4.05748 12.4577 4.47535 12.4577 4.73308 12.2L7.99975 8.93332L11.2664 12.2C11.5241 12.4577 11.942 12.4577 12.1997 12.2C12.4575 11.9423 12.4575 11.5244 12.1997 11.2667L8.93308 7.99999L12.1997 4.73332C12.4575 4.47559 12.4575 4.05772 12.1997 3.79999Z" fill="currentColor"/>
</svg>
