<svg width="20" height="20" viewBox="0 0 20 20" fill="none" xmlns="http://www.w3.org/2000/svg">
<path d="M2.14997 18.7499C2.14997 19.247 1.74709 19.6498 1.24999 19.6498C0.752878 19.6498 0.35 19.247 0.35 18.7499C0.35 18.2528 0.752879 17.8499 1.24999 17.8499C1.74709 17.8499 2.14997 18.2528 2.14997 18.7499Z" stroke="#1F2226" stroke-width="0.7"/>
<path d="M6.99994 15C6.99994 16.1044 6.10438 16.9999 4.99997 16.9999C3.89531 16.9999 3 16.1044 3 15C3 13.8953 3.89527 13 4.99997 13C6.10442 13 6.99994 13.8953 6.99994 15Z" stroke="#1F2226"/>
<path d="M18.0862 6.56549L18.2599 6.15426C18.3933 5.8386 18.4621 5.49937 18.4625 5.15666C18.4615 4.44574 18.1786 3.76422 17.676 3.26159C17.1733 2.75894 16.4918 2.47609 15.7808 2.4751C15.5742 2.47513 15.3683 2.49986 15.1675 2.54877L14.676 2.66851L14.4749 2.20431C14.2155 1.60532 13.7449 1.12258 13.1529 0.847668C12.5607 0.572793 11.8883 0.52502 11.2632 0.713432C10.6382 0.901843 10.1042 1.31325 9.76257 1.86954L9.42289 2.42268L8.89813 2.04063C8.44717 1.71231 7.90332 1.53613 7.34539 1.53766L7.34457 1.53766C6.69566 1.53856 6.0691 1.77421 5.5804 2.20116L18.0862 6.56549ZM18.0862 6.56549L18.4302 6.85006M18.0862 6.56549L18.4302 6.85006M18.4302 6.85006C18.9996 7.32117 19.3487 8.00724 19.3947 8.74512C19.4406 9.48315 19.1793 10.2073 18.6726 10.7456M18.4302 6.85006L19.1095 11.1569L18.6726 10.7456M4.62446 4.3129L4.17219 4.37406C3.27884 4.49487 2.50602 5.05642 2.11509 5.86873L4.62446 4.3129ZM4.62446 4.3129L4.68626 3.86073M4.62446 4.3129L4.68626 3.86073M4.68626 3.86073C4.77415 3.2177 5.09166 2.62834 5.58033 2.20122L4.68626 3.86073ZM4.7747 9.72595L4.93049 10.0496C5.19595 10.6012 5.6408 11.0464 6.19239 11.3121L6.19245 11.3121C6.74377 11.5777 7.36923 11.6482 7.96613 11.512L8.45289 11.401L8.65055 11.8594C9.00089 12.672 9.73336 13.2566 10.6034 13.418C11.4736 13.5794 12.3669 13.2964 12.9855 12.6635L13.2066 12.4372L13.5183 12.4919C14.3546 12.6387 15.2085 12.354 15.7895 11.7348L16.0099 11.4998L16.3276 11.5538C16.4574 11.5759 16.5888 11.5872 16.7204 11.5875C17.4595 11.5885 18.1661 11.2837 18.6726 10.7456M4.7747 9.72595L18.6726 10.7456M4.7747 9.72595L4.4158 9.7104M4.7747 9.72595L4.4158 9.7104M4.4158 9.7104C3.51504 9.6714 2.69424 9.18252 2.23101 8.40918L4.4158 9.7104ZM2.23098 8.40915C1.7678 7.63572 1.7243 6.68134 2.11504 5.86883L2.23098 8.40915Z" stroke="#1F2226" stroke-width="1.2"/>
</svg>
