<svg width="18" height="16" viewBox="0 0 18 16" fill="none" xmlns="http://www.w3.org/2000/svg">
<path d="M17.5683 8.78778L17.5683 8.78777L17.5678 8.79252C17.5416 9.05187 17.5023 9.30972 17.4498 9.56504L17.4495 9.56665C17.4254 9.68866 17.3997 9.80624 17.3704 9.92332C17.2456 10.4096 17.0733 10.8824 16.8562 11.335L16.8561 11.335L16.8538 11.3401C16.8013 11.4578 16.7428 11.5744 16.6768 11.6822L16.6765 11.682L16.6713 11.6917C16.522 11.9685 16.3558 12.2357 16.1735 12.4918L16.1735 12.4918L16.1711 12.4954C16.089 12.6161 16.0009 12.7325 15.9071 12.8443L15.907 12.8442L15.902 12.8506C15.69 13.125 15.4567 13.3823 15.2042 13.62L15.2042 13.62L15.2019 13.6222C15.0718 13.7487 14.9394 13.8664 14.8044 13.9792L14.8038 13.9798C14.4839 14.2494 14.1418 14.4917 13.7812 14.7038L13.7812 14.7038L13.7789 14.7052C13.5623 14.8366 13.3385 14.9556 13.1084 15.0616L13.1084 15.0616L13.1068 15.0623C12.0744 15.549 10.9471 15.8009 9.80572 15.8H9.80556H8.19121V0.200008L9.80556 0.200009L9.80585 0.200008C11.0415 0.198214 12.2596 0.492925 13.3577 1.05939L13.3577 1.05942L13.3608 1.06095C13.5745 1.16656 13.7819 1.28461 13.9818 1.4145L13.9818 1.41451L13.9841 1.41595C14.3446 1.64339 14.6848 1.90163 15.0009 2.18776L15.0009 2.18779L15.0037 2.19029C15.1308 2.30103 15.2543 2.42091 15.3667 2.54237L15.3666 2.54243L15.3707 2.54661C15.7737 2.95722 16.1299 3.41115 16.433 3.90012C16.505 4.01771 16.5756 4.13367 16.6384 4.25216L16.6384 4.25216L16.6397 4.25452C16.8944 4.71951 17.1007 5.20935 17.2555 5.71639C17.2915 5.83764 17.3263 5.95494 17.3573 6.07535C17.4546 6.45804 17.5211 6.84788 17.5562 7.24117L17.5561 7.24118L17.557 7.24818C17.5713 7.36311 17.5804 7.47885 17.5859 7.59948C17.5886 7.65905 17.5928 7.71352 17.5968 7.76603C17.6027 7.84455 17.6084 7.91871 17.6084 7.99906C17.6084 8.15173 17.6083 8.29159 17.5976 8.43021L17.797 8.44555L17.5976 8.43021C17.5939 8.47895 17.591 8.52093 17.5884 8.55912C17.5827 8.64313 17.5782 8.70881 17.5683 8.78778Z" fill="#A47B00" stroke="black" stroke-width="0.4"/>
<path d="M15.7943 7.99917V7.99922C15.7947 9.54143 15.3377 11.0491 14.4812 12.3316C13.6246 13.6141 12.407 14.6137 10.9823 15.2042C9.55757 15.7946 7.98976 15.9493 6.47714 15.6486C4.96452 15.348 3.57503 14.6055 2.48439 13.5151C1.39375 12.4248 0.650963 11.0354 0.349959 9.52289C0.0489543 8.01034 0.203256 6.4425 0.79335 5.01765C1.38344 3.59279 2.38283 2.37493 3.6651 1.51809C4.94738 0.661247 6.45495 0.203907 7.99716 0.203906H7.99721C9.02105 0.203664 10.0349 0.405115 10.9809 0.796755C11.9269 1.1884 12.7864 1.76255 13.5105 2.48643C14.2345 3.21031 14.8089 4.06974 15.2008 5.01562C15.5926 5.96151 15.7943 6.97532 15.7943 7.99917Z" fill="#FFED74" stroke="black" stroke-width="0.4"/>
<path d="M14.6359 7.99636C14.637 9.30962 14.2486 10.5937 13.5198 11.6862C12.791 12.7787 11.7546 13.6305 10.5416 14.1338C9.32866 14.6372 7.99365 14.7694 6.70548 14.5139C5.41732 14.2584 4.23387 13.6266 3.30485 12.6984C2.37584 11.7701 1.743 10.5872 1.48638 9.29928C1.22976 8.01134 1.3609 6.67621 1.8632 5.46281C2.36551 4.2494 3.21641 3.21223 4.30827 2.48251C5.40013 1.75278 6.68389 1.36328 7.99715 1.36328C9.75688 1.36328 11.4446 2.06194 12.6895 3.30572C13.9343 4.5495 14.6344 6.23664 14.6359 7.99636Z" fill="#FCBC00"/>
<path d="M8.55091 14.0802C7.2715 14.0804 6.01929 13.7108 4.94504 13.0159C3.8708 12.321 3.0203 11.3304 2.49595 10.1633C1.97161 8.9963 1.79576 7.70258 1.98958 6.43793C2.1834 5.17327 2.73861 3.9916 3.5884 3.03516C2.91251 3.63607 2.36657 4.36878 1.98409 5.1883C1.6016 6.00783 1.39065 6.89688 1.36417 7.80089C1.3377 8.70489 1.49626 9.60476 1.83013 10.4453C2.164 11.2858 2.66613 12.0492 3.3057 12.6886C3.94526 13.328 4.70876 13.83 5.54933 14.1637C6.38991 14.4974 7.28981 14.6558 8.19381 14.6291C9.09781 14.6025 9.98682 14.3914 10.8063 14.0087C11.6257 13.6261 12.3583 13.08 12.9591 12.404C11.7458 13.4857 10.1764 14.0824 8.55091 14.0802Z" fill="#C57F0C"/>
</svg>
