<svg width="24" height="24" viewBox="0 0 24 24" fill="none" xmlns="http://www.w3.org/2000/svg">
<path d="M19.3572 10.5993L19.3579 9.61892L18.5639 10.1941C17.1016 11.2534 14.7111 11.9286 11.9992 11.9286C9.28777 11.9286 6.89758 11.2536 5.4352 10.1947L4.6419 9.6202L4.64195 10.5997L4.64202 12C4.64202 12 4.64202 12 4.64202 12C4.64203 12.5486 4.9176 13.0414 5.31419 13.4485C5.7125 13.8574 6.26673 14.2173 6.91999 14.5156C8.22863 15.1131 10.0156 15.5 11.9992 15.5C13.9827 15.5 15.7697 15.1131 17.0783 14.5156C17.7316 14.2173 18.2858 13.8574 18.6841 13.4485C19.0806 13.0414 19.3562 12.5488 19.3563 12.0003C19.3563 12.0002 19.3563 12.0001 19.3563 12L19.3572 10.5993ZM19.3572 14.885L19.3579 13.9046L18.5639 14.4798C17.1016 15.5391 14.7111 16.2143 11.9992 16.2143C9.28777 16.2143 6.89758 15.5393 5.4352 14.4804L4.6419 13.9059L4.64195 14.8854L4.64202 16.2857L4.64202 16.2968L4.64251 16.3079L4.64695 16.4076L4.64744 16.4186L4.64841 16.4296C4.69525 16.9574 4.99095 17.4265 5.39657 17.816C5.8051 18.2082 6.35932 18.554 7.0084 18.841C8.30809 19.4157 10.0594 19.7857 11.9992 19.7857C13.9827 19.7857 15.7697 19.3988 17.0783 18.8013C17.7316 18.5031 18.2858 18.1431 18.6841 17.7342C19.0806 17.3271 19.3562 16.8345 19.3563 16.286C19.3563 16.2859 19.3563 16.2858 19.3563 16.2857L19.3572 14.885ZM20.0669 16.4186C20.0072 17.5037 19.1942 18.5167 17.7198 19.2819C16.2551 20.042 14.2313 20.5 11.9992 20.5C9.72454 20.5 7.6669 20.0244 6.19667 19.2388C4.71499 18.447 3.92773 17.4035 3.92773 16.2857V7.72082L3.93138 7.58145C3.99115 6.49627 4.80408 5.48329 6.27853 4.7181C7.74321 3.95798 9.76707 3.5 11.9992 3.5C14.2738 3.5 16.3314 3.97556 17.8017 4.7612C19.2833 5.55297 20.0706 6.59646 20.0706 7.71429V16.2792L20.0669 16.4186ZM11.9992 4.21429C10.0156 4.21429 8.22863 4.60122 6.91999 5.19869C6.26673 5.49695 5.7125 5.8569 5.31419 6.2658C4.9176 6.67293 4.64202 7.16569 4.64202 7.71429C4.64202 8.26289 4.9176 8.75564 5.31419 9.16277C5.7125 9.57167 6.26673 9.93162 6.91999 10.2299C8.22863 10.8274 10.0156 11.2143 11.9992 11.2143C13.9827 11.2143 15.7697 10.8274 17.0783 10.2299C17.7316 9.93162 18.2858 9.57167 18.6841 9.16277C19.0807 8.75564 19.3563 8.26289 19.3563 7.71429C19.3563 7.16569 19.0807 6.67293 18.6841 6.2658C18.2858 5.8569 17.7316 5.49695 17.0783 5.19869C15.7697 4.60122 13.9827 4.21429 11.9992 4.21429Z" fill="#1F2226" stroke="#1F2226"/>
</svg>
