<svg width="32" height="32" viewBox="0 0 32 32" fill="none" xmlns="http://www.w3.org/2000/svg">
<rect width="32" height="32" rx="12" fill="#F7F7F7"/>
<path d="M23.4127 12.4214H23.5127V12.3214V11.779C23.5127 11.4004 23.4119 11.0998 23.2043 10.8943C22.9969 10.689 22.6984 10.5942 22.3354 10.5942H9.65653C9.29352 10.5942 8.99506 10.689 8.78764 10.8943C8.58003 11.0998 8.47924 11.4004 8.47924 11.779V12.3214V12.4214H8.57924H23.4127ZM8.57924 13.9918H8.47924V14.0918V19.6515C8.47924 20.0301 8.58003 20.3307 8.78764 20.5362C8.99506 20.7415 9.29352 20.8363 9.65653 20.8363H22.3354C22.6984 20.8363 22.9969 20.7415 23.2043 20.5362C23.4119 20.3307 23.5127 20.0301 23.5127 19.6515V14.0918V13.9918H23.4127H8.57924ZM22.4333 22.143H9.55859C8.76131 22.143 8.17098 21.9365 7.77959 21.5477C7.38832 21.1591 7.18008 20.5727 7.18008 19.7796V11.6434C7.18008 10.8541 7.38826 10.2696 7.77951 9.88193C8.17092 9.49406 8.76131 9.2875 9.55859 9.2875H22.4333C23.2345 9.2875 23.8248 9.49412 24.2151 9.88185C24.6054 10.2695 24.8118 10.8539 24.8118 11.6434V19.7796C24.8118 20.5691 24.6054 21.1555 24.215 21.5451C23.8245 21.9346 23.2343 22.143 22.4333 22.143ZM12.5268 19.2728H10.6811C10.4854 19.2728 10.3269 19.2073 10.2178 19.1014C10.1089 18.9956 10.0428 18.8434 10.0428 18.6571V17.2559C10.0428 17.0696 10.1089 16.9173 10.2178 16.8116C10.3269 16.7056 10.4854 16.6402 10.6811 16.6402H12.5268C12.7267 16.6402 12.8871 16.7059 12.997 16.8118C13.1066 16.9175 13.1726 17.0696 13.1726 17.2559V18.6571C13.1726 18.8434 13.1066 18.9955 12.997 19.1011C12.8871 19.2071 12.7267 19.2728 12.5268 19.2728Z" fill="#1F2226" stroke="#F7F7F7" stroke-width="0.2"/>
</svg>
