<svg width="20" height="20" viewBox="0 0 20 20" fill="none" xmlns="http://www.w3.org/2000/svg">
<path d="M3.52333 15.3124C3.54332 15.3946 3.57958 15.4719 3.62995 15.5398C3.68033 15.6077 3.74381 15.6649 3.81664 15.7078C3.88947 15.7508 3.97017 15.7787 4.05397 15.79C4.13778 15.8012 4.22299 15.7956 4.30458 15.7733C8.02879 14.7422 11.9632 14.7422 15.6874 15.7733C15.769 15.7956 15.8542 15.8012 15.938 15.79C16.0218 15.7787 16.1025 15.7508 16.1753 15.7078C16.2482 15.6649 16.3116 15.6077 16.362 15.5398C16.4124 15.4719 16.4486 15.3946 16.4686 15.3124L18.4608 6.85148C18.4882 6.73823 18.4833 6.61958 18.4468 6.50894C18.4103 6.3983 18.3436 6.30006 18.2543 6.22532C18.1649 6.15057 18.0564 6.10229 17.9411 6.08593C17.8257 6.06957 17.7081 6.08578 17.6015 6.13273L13.6483 7.89054C13.5051 7.9536 13.3436 7.96136 13.195 7.9123C13.0463 7.86324 12.9212 7.76086 12.8436 7.62491L10.5468 3.48429C10.4927 3.3866 10.4135 3.30517 10.3173 3.24847C10.2211 3.19177 10.1115 3.16187 9.99989 3.16187C9.88825 3.16187 9.77864 3.19177 9.68247 3.24847C9.5863 3.30517 9.50707 3.3866 9.45302 3.48429L7.15614 7.62491C7.0786 7.76086 6.95344 7.86324 6.80482 7.9123C6.65621 7.96136 6.49469 7.9536 6.35145 7.89054L2.39833 6.13273C2.2917 6.08578 2.17407 6.06957 2.05872 6.08593C1.94337 6.10229 1.83488 6.15057 1.74551 6.22532C1.65614 6.30006 1.58944 6.3983 1.55295 6.50894C1.51645 6.61958 1.5116 6.73823 1.53895 6.85148L3.52333 15.3124Z" stroke="black" stroke-width="1.4" stroke-linecap="round" stroke-linejoin="round"/>
</svg>
