<svg width="16" height="16" viewBox="0 0 16 16" fill="none" xmlns="http://www.w3.org/2000/svg">
<path d="M14.0202 1.97988C14.4676 2.42721 14.7189 3.03393 14.7189 3.66655C14.7189 4.29917 14.4676 4.90588 14.0202 5.35321L6.04157 13.3332C5.857 13.5179 5.62744 13.6511 5.37557 13.7199L1.9649 14.6499C1.8799 14.6729 1.79031 14.6731 1.7052 14.6505C1.62009 14.6278 1.54249 14.583 1.48024 14.5207C1.41799 14.4584 1.37331 14.3807 1.35071 14.2956C1.32812 14.2105 1.32842 14.1209 1.35157 14.0359L2.28157 10.6252C2.3503 10.3733 2.48359 10.1438 2.66824 9.95921L10.6469 1.97988C11.0942 1.53255 11.701 1.28125 12.3336 1.28125C12.9662 1.28125 13.5729 1.53255 14.0202 1.97988ZM10.0002 4.03988L3.3749 10.6665C3.31343 10.7281 3.26909 10.8046 3.24624 10.8885L2.54624 13.4552L5.11291 12.7552C5.1965 12.7318 5.27255 12.687 5.33357 12.6252L11.9602 5.99988L10.0002 4.03988ZM11.3536 2.68655L10.7069 3.33321L12.6669 5.29321L13.3136 4.64655C13.5692 4.38574 13.7115 4.03461 13.7097 3.66945C13.7078 3.30429 13.5619 2.95461 13.3037 2.6964C13.0455 2.43818 12.6958 2.29231 12.3307 2.29046C11.9655 2.28862 11.6144 2.43096 11.3536 2.68655Z" fill="#1F2226" stroke="#1F2226" stroke-width="0.2"/>
</svg>
