<svg width="22" height="20" viewBox="0 0 22 20" fill="none" xmlns="http://www.w3.org/2000/svg">
<path d="M17.875 10.625C17.875 14.6484 12.0625 16.0312 11.125 16.2266C11.0424 16.2422 10.9576 16.2422 10.875 16.2266C9.93751 16.0312 4.12501 14.6484 4.12501 10.625V6.06249C4.12436 5.93385 4.16391 5.80823 4.23815 5.70317C4.31239 5.59812 4.4176 5.51889 4.53907 5.47655L10.7891 3.20311C10.9258 3.15609 11.0743 3.15609 11.2109 3.20311L17.4609 5.47655C17.5824 5.51889 17.6876 5.59812 17.7619 5.70317C17.8361 5.80823 17.8757 5.93385 17.875 6.06249V10.625Z" stroke="black" stroke-width="1.4" stroke-linecap="round" stroke-linejoin="round"/>
<path d="M7.875 8.75H14.125" stroke="black" stroke-width="1.4" stroke-linecap="round" stroke-linejoin="round"/>
<path d="M7.875 11.25H14.125" stroke="black" stroke-width="1.4" stroke-linecap="round" stroke-linejoin="round"/>
<path d="M17.6719 11.875H18.5C18.7465 11.876 18.9908 11.8283 19.2188 11.7344C19.4467 11.6405 19.6538 11.5025 19.8281 11.3281C20.0024 11.1538 20.1405 10.9467 20.2344 10.7188C20.3282 10.4908 20.376 10.2465 20.375 10V8.12502C20.376 7.8785 20.3282 7.63422 20.2344 7.40626C20.1405 7.17831 20.0024 6.9712 19.8281 6.79689C19.6538 6.62257 19.4467 6.4845 19.2188 6.39064C18.9908 6.29678 18.7465 6.24898 18.5 6.25002H17.875" stroke="black" stroke-width="1.4" stroke-linecap="round" stroke-linejoin="round"/>
<path d="M4.32814 11.875H3.50002C3.2535 11.876 3.00922 11.8283 2.78126 11.7344C2.55331 11.6405 2.3462 11.5025 2.17189 11.3281C1.99757 11.1538 1.8595 10.9467 1.76564 10.7188C1.67178 10.4908 1.62398 10.2465 1.62502 10V8.12502C1.62398 7.8785 1.67178 7.63422 1.76564 7.40626C1.8595 7.17831 1.99757 6.9712 2.17189 6.79689C2.3462 6.62257 2.55331 6.4845 2.78126 6.39064C3.00922 6.29678 3.2535 6.24898 3.50002 6.25002H4.12502" stroke="black" stroke-width="1.4" stroke-linecap="round" stroke-linejoin="round"/>
</svg>
