<svg width="24" height="24" viewBox="0 0 24 24" fill="none" xmlns="http://www.w3.org/2000/svg">
<path fill-rule="evenodd" clip-rule="evenodd" d="M5.25843 8.4058C5.34882 8.4058 5.43645 8.39356 5.51983 8.3706C5.93492 9.73494 7.17006 10.7246 8.62921 10.7246C10.0884 10.7246 11.3235 9.73494 11.7386 8.37059C11.822 8.39355 11.9096 8.4058 12 8.4058H20.9888C21.5473 8.4058 22 7.93862 22 7.36232C22 6.78602 21.5473 6.31884 20.9888 6.31884H12C11.9096 6.31884 11.822 6.33108 11.7386 6.35404C11.3235 4.9897 10.0884 4 8.62921 4C7.17006 4 5.93492 4.9897 5.51983 6.35404C5.43645 6.33108 5.34882 6.31884 5.25843 6.31884H3.01124C2.45275 6.31884 2 6.78602 2 7.36232C2 7.93862 2.45275 8.4058 3.01124 8.4058H5.25843ZM8.62921 6.08696C7.94662 6.08696 7.39326 6.65796 7.39326 7.36232C7.39326 8.06668 7.94662 8.63768 8.62921 8.63768C9.31181 8.63768 9.86517 8.06668 9.86517 7.36232C9.86517 6.65796 9.31181 6.08696 8.62921 6.08696Z" fill="#1F2226"/>
<path fill-rule="evenodd" clip-rule="evenodd" d="M2 16.6377C2 16.0614 2.45275 15.5942 3.01124 15.5942H12C12.0904 15.5942 12.178 15.6064 12.2614 15.6294C12.6765 14.2651 13.9116 13.2754 15.3708 13.2754C16.8299 13.2754 18.0651 14.2651 18.4802 15.6294C18.5636 15.6064 18.6512 15.5942 18.7416 15.5942H20.9888C21.5473 15.5942 22 16.0614 22 16.6377C22 17.214 21.5473 17.6812 20.9888 17.6812H18.7416C18.6512 17.6812 18.5636 17.6689 18.4802 17.646C18.0651 19.0103 16.8299 20 15.3708 20C13.9116 20 12.6765 19.0103 12.2614 17.646C12.178 17.6689 12.0904 17.6812 12 17.6812H3.01124C2.45275 17.6812 2 17.214 2 16.6377ZM14.1348 16.6377C14.1348 15.9333 14.6882 15.3623 15.3708 15.3623C16.0534 15.3623 16.6067 15.9333 16.6067 16.6377C16.6067 17.342 16.0534 17.913 15.3708 17.913C14.6882 17.913 14.1348 17.342 14.1348 16.6377Z" fill="#1F2226"/>
</svg>
