<svg width="24" height="24" viewBox="0 0 24 24" fill="none" xmlns="http://www.w3.org/2000/svg">
<path d="M11.7513 1.31445C12.3863 1.45733 12.7853 2.08797 12.6424 2.72333C12.5764 3.01603 12.4863 3.25961 12.3546 3.46292C10.5027 6.32248 10.8006 8.20877 12.0361 8.39152C13.244 8.57018 13.9191 7.7979 13.7245 5.99997C13.6788 5.5779 13.6406 5.22209 13.6099 4.93247C13.5817 4.66677 13.6467 4.39953 13.7937 4.17644C14.1441 3.64483 14.8591 3.49791 15.3906 3.84825C16.0295 4.26924 16.7451 4.98592 17.5627 6.00565C19.8851 8.90215 20.6029 11.4345 20.5704 14.0277C20.5098 18.8588 16.9079 22.2857 11.9996 22.2857C7.07054 22.2857 3.42871 18.8383 3.42871 14.0119C3.45377 9.74353 5.77776 5.10611 10.1241 2.00471C10.2924 1.88459 10.5148 1.72204 10.7905 1.5176C11.066 1.31335 11.4167 1.23919 11.7513 1.31445ZM9.96943 4.30449C6.8231 7.02586 5.16258 10.681 5.14298 14.0169C5.14298 17.8699 7.99691 20.5714 11.9996 20.5714C15.9834 20.5714 18.8076 17.8845 18.8562 14.0062C18.8841 11.7828 18.2752 9.63479 16.2253 7.07801C15.9527 6.73805 15.6967 6.44026 15.4588 6.18503C15.5984 8.81481 14.0759 10.4262 11.7852 10.0873C9.46528 9.74419 8.71471 7.29998 9.96943 4.30449Z" fill="#1F2226"/>
</svg>
