<svg xmlns="http://www.w3.org/2000/svg" width="20" height="19" viewBox="0 0 16 16">
    <path d="M7.31131 0.0219033C7.79291 0.130759 8.0955 0.611253 7.9871 1.09533C7.93709 1.31834 7.86872 1.50393 7.76887 1.65884C6.36451 3.83754 6.59038 5.27472 7.5273 5.41396C8.44329 5.55008 8.95529 4.96168 8.80773 3.59182C8.77308 3.27025 8.74411 2.99915 8.72081 2.77849C8.69943 2.57605 8.74871 2.37244 8.86021 2.20247C9.12591 1.79743 9.66811 1.68549 10.0712 1.95241C10.5557 2.27317 11.0984 2.81921 11.7184 3.59615C13.4795 5.80301 14.0239 7.73245 13.9992 9.70818C13.9533 13.389 11.2218 16 7.49962 16C3.76174 16 1 13.3734 1 9.69616C1.01901 6.44407 2.78138 2.91079 6.07736 0.547812C6.20501 0.456296 6.37368 0.332449 6.58276 0.176683C6.79164 0.0210661 7.05761 -0.0354402 7.31131 0.0219033Z"
          fill="#F95D77"/>
    <path d="M7.31131 0.0219033C7.79291 0.130759 8.0955 0.611253 7.9871 1.09533C7.93709 1.31834 7.86872 1.50393 7.76887 1.65884C6.36451 3.83754 6.59038 5.27472 7.5273 5.41396C8.44329 5.55008 8.95529 4.96168 8.80773 3.59182C8.77308 3.27025 8.74411 2.99915 8.72081 2.77849C8.69943 2.57605 8.74871 2.37244 8.86021 2.20247C9.12591 1.79743 9.66811 1.68549 10.0712 1.95241C10.5557 2.27317 11.0984 2.81921 11.7184 3.59615C13.4795 5.80301 14.0239 7.73245 13.9992 9.70818C13.9533 13.389 11.2218 16 7.49962 16C3.76174 16 1 13.3734 1 9.69616C1.01901 6.44407 2.78138 2.91079 6.07736 0.547812C6.20501 0.456296 6.37368 0.332449 6.58276 0.176683C6.79164 0.0210661 7.05761 -0.0354402 7.31131 0.0219033ZM5.96008 2.30003C3.5741 4.37346 2.31486 7.1583 2.3 9.7C2.3 12.6356 4.46425 14.6939 7.49962 14.6939C10.5207 14.6939 12.6624 12.6467 12.6993 9.69181C12.7204 7.99782 12.2587 6.36122 10.7041 4.41318C10.4974 4.15417 10.3033 3.92728 10.1229 3.73282C10.2288 5.73647 9.07416 6.96417 7.33708 6.70602C5.57777 6.44457 5.00858 4.58231 5.96008 2.30003Z"/>
</svg>
