<svg width="16" height="16" viewBox="0 0 16 16" fill="none" xmlns="http://www.w3.org/2000/svg">
<g clip-path="url(#clip0_172_12555)">
<path d="M0.6 3.2C0.6 2.42879 0.601274 1.91074 0.653228 1.52431C0.702862 1.15514 0.78864 0.997146 0.892893 0.892893C0.997146 0.78864 1.15514 0.702862 1.52431 0.653228C1.91074 0.601274 2.42879 0.6 3.2 0.6H4C4.77121 0.6 5.28926 0.601274 5.67569 0.653228C6.04486 0.702862 6.20285 0.78864 6.30711 0.892893C6.41136 0.997147 6.49714 1.15514 6.54677 1.52431C6.59873 1.91074 6.6 2.42879 6.6 3.2V4C6.6 4.77121 6.59873 5.28926 6.54677 5.67569C6.49714 6.04486 6.41136 6.20285 6.30711 6.30711L6.73137 6.73137L6.30711 6.30711C6.20285 6.41136 6.04486 6.49714 5.67569 6.54677C5.28926 6.59873 4.77121 6.6 4 6.6H3.2C2.42879 6.6 1.91074 6.59873 1.52431 6.54677C1.15514 6.49714 0.997147 6.41136 0.892893 6.30711C0.78864 6.20285 0.702862 6.04486 0.653228 5.67569C0.601274 5.28926 0.6 4.77121 0.6 4V3.2ZM0.6 12C0.6 11.2288 0.601274 10.7107 0.653228 10.3243C0.702862 9.95514 0.78864 9.79715 0.892893 9.69289C0.997147 9.58864 1.15514 9.50286 1.52431 9.45323C1.91074 9.40127 2.42879 9.4 3.2 9.4H4C4.77121 9.4 5.28926 9.40127 5.67569 9.45323C6.04486 9.50286 6.20285 9.58864 6.30711 9.69289C6.41136 9.79715 6.49714 9.95514 6.54677 10.3243C6.59873 10.7107 6.6 11.2288 6.6 12V12.8C6.6 13.5712 6.59873 14.0893 6.54677 14.4757C6.49714 14.8449 6.41136 15.0029 6.30711 15.1071C6.20285 15.2114 6.04486 15.2971 5.67569 15.3468C5.28926 15.3987 4.77121 15.4 4 15.4H3.2C2.42879 15.4 1.91074 15.3987 1.52431 15.3468C1.15514 15.2971 0.997147 15.2114 0.892893 15.1071C0.78864 15.0029 0.702862 14.8449 0.653228 14.4757C0.601274 14.0893 0.6 13.5712 0.6 12.8V12ZM9.4 3.2C9.4 2.42879 9.40127 1.91074 9.45323 1.52431C9.50286 1.15514 9.58864 0.997147 9.69289 0.892893C9.79715 0.78864 9.95514 0.702862 10.3243 0.653228C10.7107 0.601274 11.2288 0.6 12 0.6H12.8C13.5712 0.6 14.0893 0.601274 14.4757 0.653228C14.8449 0.702862 15.0029 0.78864 15.1071 0.892893C15.2114 0.997147 15.2971 1.15514 15.3468 1.52431C15.3987 1.91074 15.4 2.42879 15.4 3.2V4C15.4 4.77121 15.3987 5.28926 15.3468 5.67569C15.2971 6.04486 15.2114 6.20285 15.1071 6.30711C15.0029 6.41136 14.8449 6.49714 14.4757 6.54677C14.0893 6.59873 13.5712 6.6 12.8 6.6H12C11.2288 6.6 10.7107 6.59873 10.3243 6.54677C9.95514 6.49714 9.79715 6.41136 9.69289 6.30711C9.58864 6.20285 9.50286 6.04486 9.45323 5.67569C9.40127 5.28926 9.4 4.77121 9.4 4V3.2ZM9.4 12C9.4 11.2288 9.40127 10.7107 9.45323 10.3243C9.50286 9.95514 9.58864 9.79715 9.69289 9.69289C9.79715 9.58864 9.95514 9.50286 10.3243 9.45323C10.7107 9.40127 11.2288 9.4 12 9.4H12.8C13.5712 9.4 14.0893 9.40127 14.4757 9.45323C14.8449 9.50286 15.0029 9.58864 15.1071 9.69289C15.2114 9.79715 15.2971 9.95514 15.3468 10.3243C15.3987 10.7107 15.4 11.2288 15.4 12V12.8C15.4 13.5712 15.3987 14.0893 15.3468 14.4757C15.2971 14.8449 15.2114 15.0029 15.1071 15.1071C15.0029 15.2114 14.8449 15.2971 14.4757 15.3468C14.0893 15.3987 13.5712 15.4 12.8 15.4H12C11.2288 15.4 10.7107 15.3987 10.3243 15.3468C9.95514 15.2971 9.79715 15.2114 9.69289 15.1071C9.58864 15.0029 9.50286 14.8449 9.45323 14.4757C9.40127 14.0893 9.4 13.5712 9.4 12.8V12Z" stroke="#1F2226" stroke-width="1.2"/>
</g>
<defs>
<clipPath id="clip0_172_12555">
<rect width="16" height="16" fill="white"/>
</clipPath>
</defs>
</svg>
