<svg width="24" height="25" viewBox="0 0 24 25" fill="none" xmlns="http://www.w3.org/2000/svg">
<path d="M3.59961 14.4V20.9684C3.59961 22.6442 7.35861 24 11.9996 24C16.6406 24 20.3996 22.6442 20.3996 20.9684V14.4" fill="white"/>
<path d="M3.59961 14.4V20.9684C3.59961 22.6442 7.35861 24 11.9996 24C16.6406 24 20.3996 22.6442 20.3996 20.9684V14.4" stroke="#1F2226" stroke-width="1.4" stroke-linecap="round" stroke-linejoin="round"/>
<path d="M20.1431 5.40042C19.9491 4.95249 19.5301 4.63811 18.9526 4.49012C19.2655 3.40946 19.0791 2.47873 18.4452 2.06978C17.9348 1.74034 17.2258 1.81411 16.5088 2.25446C16.289 1.95667 16.0069 1.75332 15.6737 1.68284C14.607 1.45718 13.4809 2.65317 13.1101 4.40589C12.8349 5.70691 13.0694 6.92041 13.6665 7.5368C12.9409 8.02049 12.5116 9.36273 12.0956 11.1908C11.8788 10.6213 11.5342 10.1538 11.0121 9.87692C11.5261 9.31412 11.8698 8.37373 11.9028 7.29858C11.9573 5.50765 11.1463 4.08133 10.0569 4.04569C9.71616 4.03521 9.39402 4.16611 9.10982 4.40357C8.51782 3.80614 7.84624 3.56611 7.27222 3.76555C6.56126 4.01239 6.16366 4.87183 6.20993 5.99269C5.6297 6 5.13764 6.19859 4.83393 6.59944C4.12862 7.53094 4.74332 9.14458 6.23322 10.2732C6.82226 10.7196 7.47238 11.0274 8.09476 11.1591C8.2013 11.1816 8.3067 11.1988 8.4109 11.2109C9.17847 11.2992 9.79546 11.0912 10.1487 10.6253C10.211 10.5431 10.2594 10.454 10.3012 10.362C10.3764 10.337 10.4497 10.306 10.5213 10.268C12.467 10.9547 11.7973 14.9141 11.5366 16.1463C11.5049 16.2964 11.6006 16.4438 11.7509 16.4756C11.9012 16.5074 12.0484 16.4113 12.0802 16.2613C12.2733 15.3484 12.5222 13.8053 12.3758 12.4344C12.3898 12.4098 12.4036 12.3849 12.4097 12.3558C12.7639 10.6814 13.2388 8.44723 14.0028 7.98473C14.0113 8.00754 14.0168 8.03114 14.0265 8.05364C14.233 8.52977 14.6904 8.85765 15.3266 8.99224C15.4071 9.00926 15.4902 9.02314 15.5759 9.0339C16.2899 9.12331 17.1197 8.98283 17.9135 8.63851C18.7073 8.29418 19.3774 7.784 19.7998 7.20183C20.2538 6.57637 20.3758 5.93689 20.1431 5.40042ZM10.04 4.60091C10.7957 4.62447 11.3908 5.85149 11.3476 7.28111C11.3159 8.32384 10.9418 9.25726 10.4386 9.6619C10.4384 9.65732 10.4372 9.65224 10.437 9.64766C10.4306 9.43788 10.3892 9.21845 10.3162 8.99486C10.3124 8.983 10.3086 8.9714 10.3046 8.95975C10.2282 8.73547 10.1198 8.50811 9.98134 8.28232C9.97518 8.2725 9.96875 8.26262 9.9626 8.2528C9.89536 8.14516 9.82201 8.03821 9.74107 7.93222C9.73704 7.92711 9.73361 7.92184 9.72958 7.91673C9.64521 7.80688 9.55395 7.6987 9.4558 7.59219C9.44498 7.58025 9.43317 7.56895 9.42203 7.55722C9.35504 7.48597 9.28537 7.4153 9.21226 7.34617C9.21204 7.34584 9.21183 7.34551 9.21134 7.34512C9.21107 7.34507 9.2108 7.34501 9.21064 7.34441C9.19409 7.3287 9.17606 7.31324 9.15891 7.29769C9.13372 7.27447 9.10881 7.25131 9.08329 7.22831C9.052 7.2004 9.02125 7.17259 8.98876 7.14499C8.98806 7.14428 8.98769 7.14335 8.98666 7.14285C8.90985 7.07776 8.83057 7.01357 8.74888 6.95143C8.74888 6.95143 8.74888 6.95143 8.74861 6.95137C8.6989 6.91388 8.64869 6.87742 8.59825 6.84205C8.60166 6.80983 8.60425 6.77744 8.60847 6.7454C8.61216 6.71721 8.61558 6.68897 8.61948 6.66112C8.63105 6.58094 8.64467 6.50176 8.6603 6.42386C8.66231 6.41435 8.66351 6.40466 8.66552 6.39515C8.6844 6.30459 8.70597 6.21602 8.72998 6.12939C8.73378 6.11543 8.73829 6.10218 8.74203 6.08849C8.76266 6.01648 8.78529 5.94573 8.80915 5.87724C8.81507 5.86003 8.82119 5.84316 8.82732 5.82628C8.8549 5.75091 8.88443 5.67708 8.91605 5.60682C8.91722 5.60395 8.9184 5.60107 8.91958 5.5982C9.02787 5.35874 9.15805 5.15004 9.30546 4.98473C9.30806 4.98187 9.30886 4.97807 9.31145 4.97521C9.53138 4.73154 9.7819 4.59287 10.04 4.60091ZM7.45455 4.29023C7.81946 4.16383 8.29722 4.36172 8.73444 4.81027C8.73439 4.81055 8.73439 4.81055 8.73439 4.81055C8.65594 4.91832 8.58298 5.03634 8.51566 5.16265C8.51282 5.16801 8.50998 5.17338 8.50709 5.17901C8.44075 5.30468 8.37962 5.43798 8.32541 5.58012L8.32536 5.5804C8.22078 5.85329 8.14051 6.1549 8.08763 6.47735C8.08524 6.49132 8.0814 6.50414 8.07901 6.51811C8.07619 6.51667 8.0731 6.51516 8.07028 6.51371C7.62837 6.27258 7.18311 6.11166 6.7639 6.03832C6.70999 5.14555 6.97685 4.4558 7.45455 4.29023ZM8.47466 10.6585C7.8582 10.5875 7.18052 10.293 6.56895 9.82976C5.36882 8.92054 4.77704 7.59456 5.27726 6.93458C5.5138 6.62174 5.96151 6.50661 6.49349 6.56633C6.61337 6.57948 6.73642 6.60181 6.86172 6.6323C6.88145 6.63704 6.901 6.64259 6.92094 6.64766C7.04143 6.6794 7.16365 6.71774 7.28643 6.76416C7.30694 6.77191 7.32771 6.78113 7.34816 6.78914C7.47493 6.83953 7.60164 6.89558 7.72781 6.96088C7.73523 6.96473 7.74275 6.96944 7.75017 6.97328C7.88002 7.04135 8.00885 7.11688 8.13505 7.19951C8.14354 7.205 8.15188 7.20988 8.16037 7.21537C8.24556 7.27172 8.33017 7.33079 8.41392 7.39394C8.48486 7.44785 8.55344 7.50353 8.61989 7.55989C8.64612 7.58219 8.67131 7.60541 8.69688 7.62814C8.73346 7.66058 8.76983 7.69269 8.80515 7.72572C8.83804 7.75681 8.86967 7.78849 8.9013 7.82017C8.92712 7.84579 8.95266 7.87135 8.97754 7.89734C9.01239 7.93396 9.04658 7.97101 9.07956 8.00837C9.09813 8.02933 9.11642 8.05024 9.13444 8.07109C9.16972 8.11234 9.20441 8.15375 9.23756 8.19569C9.25056 8.21207 9.26297 8.2286 9.2757 8.24493C9.31115 8.29076 9.34567 8.33696 9.37818 8.38331C9.38515 8.3933 9.39158 8.40318 9.39855 8.41317C9.49239 8.54944 9.57298 8.68659 9.64099 8.82279C9.66093 8.86279 9.68113 8.90284 9.69856 8.94259C9.71796 8.98644 9.73573 9.02995 9.75236 9.07351C9.75601 9.08308 9.76048 9.09283 9.76386 9.10235C9.77877 9.14327 9.79097 9.18361 9.80338 9.22428C9.80952 9.24489 9.81643 9.26594 9.82203 9.28644C9.83177 9.32229 9.83939 9.3574 9.84668 9.39274C9.85175 9.41709 9.85688 9.44118 9.86092 9.46503C9.86622 9.49767 9.87022 9.52975 9.87368 9.56172C9.87624 9.58724 9.8783 9.61238 9.87961 9.63708C9.88124 9.66695 9.88205 9.69666 9.88157 9.7258C9.88123 9.75157 9.87959 9.77677 9.87773 9.80165C9.87569 9.82876 9.87331 9.85609 9.86943 9.88252C9.86554 9.90896 9.85965 9.93412 9.8537 9.95955C9.84848 9.98287 9.84348 10.0065 9.83669 10.0292C9.80731 10.1238 9.76461 10.2116 9.7055 10.2897C9.47621 10.5924 9.03899 10.7237 8.47466 10.6585ZM18.144 2.53675C18.5694 2.81159 18.6652 3.54682 18.4003 4.4031C18.3952 4.40288 18.3898 4.40314 18.3844 4.40287C18.0624 4.38274 17.7218 4.40665 17.3735 4.47182C17.3676 4.47285 17.3616 4.47414 17.3557 4.47544C17.2512 4.49537 17.1462 4.51916 17.0411 4.5466C17.0306 4.54921 17.0203 4.55073 17.01 4.55367C17.0111 4.54082 17.0102 4.52871 17.0112 4.51587C17.0497 4.01858 17.0127 3.55446 16.9109 3.14988C16.9095 3.14448 16.9083 3.13912 16.9069 3.13399C16.871 2.99493 16.8282 2.86293 16.7774 2.73945L16.7772 2.73912C17.3135 2.40083 17.8137 2.32377 18.144 2.53675ZM13.6537 4.52088C13.9497 3.12147 14.8222 2.0706 15.5587 2.2264C15.8112 2.27981 16.0221 2.47377 16.1774 2.76245C16.1789 2.7659 16.179 2.76961 16.1808 2.77311C16.2849 2.96806 16.3617 3.20123 16.41 3.45877C16.4111 3.46412 16.4117 3.46963 16.4128 3.47498C16.4262 3.54852 16.4369 3.62431 16.4458 3.70145C16.4479 3.72093 16.4501 3.7404 16.4519 3.76009C16.4589 3.83029 16.4636 3.90199 16.4667 3.97448C16.4675 3.99084 16.4687 4.00671 16.4692 4.02327C16.4717 4.11211 16.4719 4.20217 16.4688 4.29351C16.4685 4.30566 16.4672 4.31844 16.4666 4.33053C16.4635 4.4071 16.4579 4.48457 16.4506 4.56224C16.4477 4.59174 16.4443 4.62139 16.4408 4.65132C16.4374 4.68239 16.4322 4.71366 16.4281 4.74489C16.3709 4.76714 16.3136 4.79081 16.2561 4.81556C16.208 4.83633 16.1619 4.85979 16.1149 4.88167C16.0699 4.9028 16.0236 4.9231 15.9795 4.945L15.9794 4.94527C15.9444 4.96287 15.9112 4.98168 15.877 4.99972C15.8422 5.01818 15.8078 5.03676 15.7737 5.05594C15.6704 5.11359 15.5694 5.17344 15.4723 5.23665C15.4502 5.25101 15.4276 5.26498 15.4058 5.27967C15.3075 5.34576 15.2139 5.41511 15.123 5.48619C15.0849 5.5159 15.0484 5.54622 15.0119 5.57682C14.9604 5.61989 14.9108 5.66391 14.8622 5.70843C14.8559 5.71419 14.8493 5.71989 14.8429 5.72565C14.8352 5.73281 14.8276 5.7403 14.8199 5.74746C14.7911 5.7746 14.7608 5.80113 14.7331 5.82877C14.6805 5.88153 14.6315 5.93591 14.5833 5.99046C14.5804 5.9938 14.5771 5.99709 14.5741 6.00044C14.5561 6.02105 14.5379 6.04133 14.5205 6.06206C14.4906 6.09747 14.4632 6.13313 14.4351 6.16894C14.4281 6.17823 14.4196 6.18724 14.4125 6.19653C14.4114 6.19772 14.4116 6.19946 14.4107 6.20098C14.3977 6.21838 14.3828 6.2351 14.3701 6.25229C14.3504 6.27964 14.3347 6.30698 14.3161 6.33429C14.2889 6.37452 14.2611 6.41464 14.2365 6.45545C14.1821 6.54475 14.1328 6.63426 14.0921 6.72333C14.0869 6.73471 14.0836 6.74623 14.0786 6.75767C14.0403 6.84496 14.0099 6.93196 13.9848 7.01837C13.9818 7.02853 13.9766 7.03876 13.9739 7.04871C13.5799 6.53661 13.4378 5.54142 13.6537 4.52088ZM19.3504 6.87535C18.9854 7.37823 18.3969 7.82333 17.6929 8.12844C16.9891 8.43388 16.2618 8.55942 15.6452 8.48209C15.0809 8.41156 14.6876 8.18071 14.5365 7.83214C14.4994 7.74679 14.4781 7.65568 14.4708 7.56014C14.4688 7.53304 14.4701 7.50549 14.4705 7.47803C14.4708 7.45679 14.4698 7.43613 14.4712 7.41457C14.4733 7.38577 14.4786 7.35651 14.4831 7.32736C14.4865 7.30593 14.4886 7.28509 14.4932 7.26334C14.4995 7.23399 14.5086 7.20413 14.5172 7.17442C14.5235 7.15248 14.529 7.13064 14.5365 7.10838C14.5469 7.07793 14.5597 7.04713 14.5721 7.01653C14.581 6.99484 14.5896 6.97309 14.5996 6.95135C14.6144 6.91899 14.6315 6.88627 14.6486 6.85382C14.6591 6.83389 14.6695 6.81422 14.6811 6.79425C14.7017 6.7583 14.7241 6.72215 14.7476 6.68624C14.7573 6.67152 14.7669 6.65681 14.7772 6.64194C14.8038 6.60328 14.8316 6.56458 14.8613 6.52628C14.8876 6.49153 14.9174 6.45694 14.9463 6.42244C15.0905 6.2522 15.2619 6.08601 15.4583 5.93078C15.4624 5.9274 15.4665 5.92401 15.4707 5.92062C15.5227 5.87996 15.5766 5.83996 15.6314 5.80101C15.6414 5.79404 15.6515 5.7868 15.6615 5.77955C15.7128 5.74383 15.7653 5.70895 15.8188 5.67483C15.8368 5.66359 15.8549 5.65208 15.8731 5.64089C15.9208 5.61151 15.9693 5.5823 16.0187 5.55413C16.0538 5.53458 16.0894 5.51514 16.1252 5.4963C16.1627 5.47612 16.2 5.45561 16.2384 5.43648C16.2905 5.4103 16.3445 5.38595 16.3985 5.36132C16.4246 5.34951 16.4498 5.33639 16.4763 5.32497C16.5754 5.28204 16.6744 5.24364 16.773 5.20828C16.789 5.20257 16.8051 5.19774 16.821 5.1923C17.1892 5.06491 17.5609 4.98593 17.9115 4.96045C17.9182 4.95987 17.9245 4.9595 17.9311 4.95919C17.9971 4.95469 18.0623 4.95231 18.1266 4.95172C18.1389 4.95147 18.151 4.95177 18.163 4.95174C18.2232 4.95169 18.2828 4.95295 18.3411 4.95649C18.3557 4.9573 18.3699 4.95888 18.3841 4.96018C18.4414 4.96435 18.4986 4.96934 18.5537 4.97704C18.554 4.97709 18.5546 4.97694 18.5549 4.977C18.6139 4.98522 18.6719 4.99409 18.7271 5.00576C19.1823 5.10206 19.5 5.31719 19.6323 5.62202C19.7846 5.97028 19.6842 6.41555 19.3504 6.87535Z" fill="#1F2226" stroke="#1F2226" stroke-width="0.8"/>
<path d="M11.9996 16.8C16.6388 16.8 20.3996 15.7255 20.3996 14.4C20.3996 13.0745 16.6388 12 11.9996 12C7.36042 12 3.59961 13.0745 3.59961 14.4C3.59961 15.7255 7.36042 16.8 11.9996 16.8Z" stroke="#1F2226" stroke-width="1.4" stroke-linecap="round" stroke-linejoin="round"/>
</svg>
