<svg width="101" height="100" viewBox="0 0 101 100" fill="none" xmlns="http://www.w3.org/2000/svg">
<path d="M82.8581 80.208C82.4128 80.6903 82.1716 80.984 81.9026 81.2468C70.7426 92.0742 57.4179 96.4428 42.1544 93.6479C14.2094 88.5341 -1.59216 59.0016 9.35144 32.7741C10.2513 30.613 11.4789 28.591 12.5581 26.504C13.5137 24.6582 12.6324 22.6548 10.6935 22.2807C9.49368 22.0488 8.4052 22.6393 7.58883 24.0121C0.82601 35.3774 -1.22727 47.5342 1.41664 60.5042C5.90354 82.5237 25.8952 99.3986 48.339 99.9767C63.1448 100.357 75.8046 95.2834 86.2534 84.7529C86.4823 84.521 86.742 84.3169 87.0605 84.0325C87.3296 85.5815 87.5491 86.9913 87.8212 88.3888C88.1305 89.9811 89.5405 90.9859 91.0156 90.72C92.5741 90.4355 93.5512 89.0071 93.2729 87.3592C92.7101 84.0139 92.1442 80.6717 91.5536 77.3326C91.2197 75.4497 90.2178 74.6181 88.2758 74.615C85.0351 74.6088 81.7944 74.6212 78.5537 74.6583C76.6334 74.6799 75.3995 75.8239 75.4243 77.4718C75.449 79.0795 76.655 80.1616 78.5196 80.1987C79.8617 80.2265 81.2037 80.2049 82.8612 80.2049L82.8581 80.208ZM23.143 14.8388C23.9377 14.2544 24.448 13.8494 24.986 13.4877C35.8245 6.20039 47.6339 3.91558 60.3834 6.74145C79.8029 11.0421 94.346 28.8785 94.7418 48.7678C94.8685 55.0997 93.7677 61.1874 91.3743 67.0525C91.0929 67.742 90.8795 68.5427 90.929 69.2693C91.0094 70.4658 92.0638 71.3995 93.2049 71.551C94.6366 71.7396 95.7066 71.0873 96.3405 69.5568C100.212 60.229 101.254 50.6105 99.4173 40.6643C95.2211 17.9584 75.2264 0.727966 52.1579 0.0261356C40.4567 -0.329417 29.8687 2.94167 20.4404 9.90742C20.1899 10.0929 19.9147 10.2382 19.5281 10.4794C19.5281 8.87786 19.5683 7.48657 19.5189 6.10145C19.4508 4.26495 17.8367 3.06534 16.0772 3.48582C14.8155 3.78881 13.9991 4.90803 13.9868 6.45701C13.962 9.58278 13.9682 12.7055 13.9651 15.8312C13.9651 18.3943 14.7598 19.2971 17.277 19.6465C20.3692 20.0731 23.4584 20.5091 26.5476 20.9605C28.3906 21.2295 29.7883 20.3267 30.0666 18.6447C30.3264 17.0865 29.2441 15.7694 27.4382 15.4757C26.1147 15.2624 24.7881 15.0799 23.1492 14.8357L23.143 14.8388Z" fill="white"/>
<path d="M82.8567 80.2083C81.1992 80.2083 79.8572 80.23 78.5151 80.2021C76.6536 80.165 75.4476 79.0829 75.4198 77.4752C75.3919 75.8273 76.6288 74.6833 78.5492 74.6617C81.7899 74.6246 85.0306 74.6122 88.2713 74.6184C90.2132 74.6215 91.2151 75.4532 91.5491 77.3361C92.1428 80.6752 92.7087 84.0174 93.2684 87.3627C93.5436 89.0106 92.5696 90.439 91.0111 90.7234C89.536 90.9924 88.1259 89.9845 87.8167 88.3922C87.5446 86.9948 87.3251 85.5849 87.056 84.0359C86.7375 84.3204 86.4778 84.5244 86.2489 84.7563C75.8032 95.2869 63.1403 100.364 48.3344 99.9802C25.8907 99.402 5.89904 82.5241 1.41213 60.5076C-1.23177 47.5376 0.824599 35.3839 7.58742 24.0155C8.40379 22.6458 9.49227 22.0522 10.6921 22.2841C12.6309 22.6582 13.5122 24.6617 12.5567 26.5075C11.4775 28.5913 10.253 30.6164 9.35003 32.7776C-1.59666 59.005 14.208 88.5345 42.1499 93.6482C57.4165 96.4432 70.738 92.0745 81.8981 81.2472C82.1671 80.9844 82.4114 80.6937 82.8536 80.2083H82.8567Z" fill="#1F2226"/>
<path d="M23.1411 14.8394C24.78 15.0805 26.1066 15.2629 27.4301 15.4793C29.2391 15.7731 30.3183 17.0902 30.0586 18.6484C29.7772 20.3303 28.3825 21.2331 26.5395 20.9641C23.4504 20.5127 20.3612 20.0768 17.2689 19.6501C14.7518 19.3039 13.9539 18.398 13.957 15.8349C13.9601 12.7091 13.957 9.58644 13.9787 6.46067C13.9911 4.91169 14.8074 3.79247 16.0691 3.48948C17.8286 3.069 19.4428 4.26551 19.5108 6.10511C19.5603 7.49022 19.5201 8.88152 19.5201 10.4831C19.9066 10.2419 20.1849 10.0966 20.4323 9.91108C29.8668 2.94224 40.4548 -0.325759 52.156 0.0267021C75.2245 0.728533 95.2192 17.9558 99.4154 40.6649C101.252 50.6111 100.21 60.2326 96.3386 69.5574C95.7046 71.0847 94.6378 71.7402 93.203 71.5516C92.0619 71.4001 91.0075 70.4664 90.9271 69.2699C90.8776 68.5402 91.091 67.7425 91.3724 67.0531C93.7658 61.188 94.8666 55.0972 94.7399 48.7684C94.341 28.8791 79.801 11.0427 60.3815 6.74202C47.632 3.91923 35.8226 6.20405 24.9841 13.4882C24.4461 13.85 23.9358 14.255 23.1411 14.8394Z" fill="#1F2226"/>
<path d="M50.2967 57.6549C54.5251 57.6549 57.9529 54.2272 57.9529 49.9989C57.9529 45.7706 54.5251 42.3429 50.2967 42.3429C46.0684 42.3429 42.6406 45.7706 42.6406 49.9989C42.6406 54.2272 46.0684 57.6549 50.2967 57.6549Z" stroke="#1F2226" stroke-width="5" stroke-linecap="round" stroke-linejoin="round"/>
<path d="M46.7421 43.2179C44.7461 39.0071 42.6406 33.7572 42.6406 30.312C42.6406 28.2815 43.4472 26.3342 44.8831 24.8984C46.3189 23.4626 48.2662 22.656 50.2967 22.656C52.3273 22.656 54.2746 23.4626 55.7104 24.8984C57.1462 26.3342 57.9529 28.2815 57.9529 30.312C57.9529 33.7572 55.8474 39.0071 53.8514 43.2179" stroke="#1F2226" stroke-width="5" stroke-linecap="round" stroke-linejoin="round"/>
<path d="M42.64 49.6724C37.9917 49.317 32.3863 48.4967 29.4059 46.7741C27.7676 45.7022 26.6021 44.0435 26.1492 42.1388C25.6962 40.2341 25.9901 38.2283 26.9705 36.5337C27.9509 34.839 29.5432 33.5844 31.4202 33.0276C33.2972 32.4708 35.3161 32.6542 37.062 33.5401C40.0424 35.2354 43.5424 39.6923 46.1947 43.5476" stroke="#1F2226" stroke-width="5" stroke-linecap="round" stroke-linejoin="round"/>
<path d="M46.1953 56.4518C43.543 60.3072 40.043 64.7641 37.0626 66.4593C36.1917 67.0292 35.2137 67.4154 34.1884 67.5945C33.1632 67.7736 32.1121 67.7418 31.0996 67.501C30.087 67.2602 29.1342 66.8155 28.2994 66.194C27.4645 65.5725 26.7651 64.7874 26.2439 63.8865C25.7227 62.9856 25.3907 61.9879 25.2681 60.9544C25.1455 59.9209 25.235 58.8732 25.531 57.8754C25.827 56.8776 26.3233 55.9506 26.9897 55.1511C27.656 54.3516 28.4784 53.6963 29.4065 53.2254C32.3869 51.5028 37.9923 50.6825 42.6406 50.327" stroke="#1F2226" stroke-width="5" stroke-linecap="round" stroke-linejoin="round"/>
<path d="M53.8514 56.78C55.8474 60.9908 57.9529 66.2407 57.9529 69.6859C57.9529 71.7164 57.1462 73.6637 55.7104 75.0995C54.2746 76.5353 52.3273 77.3419 50.2967 77.3419C48.2662 77.3419 46.3189 76.5353 44.8831 75.0995C43.4472 73.6637 42.6406 71.7164 42.6406 69.6859C42.6406 66.2407 44.7461 60.9908 46.7421 56.78" stroke="#1F2226" stroke-width="5" stroke-linecap="round" stroke-linejoin="round"/>
<path d="M57.9531 50.327C62.6014 50.6825 68.2068 51.5028 71.1872 53.2254C72.8255 54.2972 73.991 55.956 74.4439 57.8607C74.8969 59.7653 74.603 61.7712 73.6226 63.4658C72.6422 65.1604 71.0499 66.4151 69.1729 66.9719C67.2959 67.5287 65.277 67.3453 63.5311 66.4594C60.5507 64.7641 57.0507 60.3072 54.3984 56.4518" stroke="#1F2226" stroke-width="5" stroke-linecap="round" stroke-linejoin="round"/>
<path d="M54.3984 43.5476C57.0507 39.6923 60.5507 35.2354 63.5311 33.5401C65.277 32.6542 67.2959 32.4708 69.1729 33.0276C71.0499 33.5844 72.6422 34.839 73.6226 36.5337C74.603 38.2283 74.8969 40.2341 74.4439 42.1388C73.991 44.0435 72.8255 45.7022 71.1872 46.7741C68.2068 48.4967 62.6014 49.317 57.9531 49.6724" stroke="#1F2226" stroke-width="5" stroke-linecap="round" stroke-linejoin="round"/>
</svg>
