<svg width="24" height="24" viewBox="0 0 24 24" fill="none" xmlns="http://www.w3.org/2000/svg">
<path d="M21.0466 8.00072C20.9867 7.813 20.8813 7.64302 20.7398 7.50589C20.5983 7.36877 20.4251 7.26876 20.2356 7.21478C19.9365 7.12719 19.6153 7.15803 19.3384 7.30091C19.3874 6.99223 19.3168 6.67649 19.141 6.41808C19.0301 6.25524 18.881 6.12198 18.7068 6.02989C18.5326 5.93779 18.3386 5.88965 18.1415 5.88965C17.9445 5.88965 17.7504 5.93779 17.5762 6.02989C17.4021 6.12198 17.253 6.25524 17.1421 6.41808C16.9675 6.67699 16.8982 6.99269 16.9483 7.30091C16.67 7.15817 16.3477 7.12735 16.0475 7.21478C15.7825 7.29185 15.5518 7.45726 15.3937 7.68354C15.2356 7.90982 15.1597 8.18336 15.1786 8.45873C15.1975 8.7341 15.31 8.99473 15.4974 9.19735C15.6848 9.39997 15.9359 9.53238 16.209 9.57259C15.9871 9.79241 15.8585 10.0894 15.8501 10.4016C15.8458 10.5632 15.8738 10.7239 15.9323 10.8746C15.9908 11.0252 16.0788 11.1627 16.1911 11.279C16.3033 11.3952 16.4376 11.488 16.5861 11.5518C16.7346 11.6155 16.8943 11.6491 17.0559 11.6505C17.1954 11.6496 17.3337 11.6254 17.4651 11.5787C17.7552 11.4703 17.9937 11.2562 18.1326 10.9794C18.2726 11.258 18.514 11.4725 18.8072 11.5787C18.9399 11.6254 19.0793 11.6497 19.22 11.6505C19.4601 11.6491 19.6945 11.5764 19.8933 11.4417C20.0921 11.3069 20.2465 11.1162 20.3368 10.8937C20.4271 10.6711 20.4493 10.4268 20.4007 10.1916C20.352 9.95642 20.2346 9.74098 20.0633 9.57259C20.2374 9.54682 20.4038 9.48335 20.5509 9.38662C20.6979 9.28989 20.8221 9.16223 20.9147 9.01255C21.0073 8.86287 21.0661 8.69478 21.0871 8.52002C21.108 8.34526 21.0905 8.16803 21.0359 8.00072H21.0466Z" stroke="#009959" stroke-width="1.6" stroke-linecap="round" stroke-linejoin="round"/>
<path d="M18.8088 5.09395C18.7471 4.90638 18.6402 4.73689 18.4975 4.60044C18.3548 4.46399 18.1807 4.36479 17.9905 4.3116C17.6901 4.22769 17.3689 4.26238 17.0934 4.4085C17.1414 4.09886 17.0681 3.78262 16.8888 3.52566C16.7773 3.36356 16.6281 3.23101 16.454 3.13943C16.2798 3.04785 16.0861 3 15.8893 3C15.6926 3 15.4988 3.04785 15.3247 3.13943C15.1506 3.23101 15.0013 3.36356 14.8899 3.52566C14.7172 3.78668 14.6505 4.10363 14.7032 4.41209C14.4246 4.26992 14.1016 4.24161 13.8025 4.33313C13.6105 4.38831 13.4352 4.49032 13.2924 4.62999C13.1496 4.76967 13.0437 4.94264 12.9843 5.13336C12.9248 5.32408 12.9137 5.52658 12.9519 5.72265C12.9901 5.91873 13.0765 6.10224 13.2031 6.25671C13.3964 6.502 13.6765 6.66384 13.9855 6.70889" stroke="#009959" stroke-width="1.4" stroke-linecap="round" stroke-linejoin="round"/>
<path d="M11.7726 6.91038C11.9255 6.70264 12.0062 6.45055 12.0023 6.19263C11.9992 5.99951 11.9497 5.80997 11.8579 5.64006C11.766 5.47014 11.6346 5.32485 11.4747 5.21649C11.2188 5.03783 10.9044 4.9634 10.5955 5.00834C10.7365 4.7296 10.7672 4.40797 10.6816 4.10756C10.6254 3.91669 10.5225 3.74286 10.3821 3.60186C10.2417 3.46085 10.0684 3.35713 9.87775 3.30009V3.30009C9.69084 3.23722 9.49118 3.22201 9.29691 3.25585C9.10263 3.28969 8.91988 3.37151 8.76523 3.49389C8.51691 3.68407 8.35219 3.96331 8.30587 4.27265C8.08542 4.05168 7.78886 3.9233 7.47687 3.91377C7.27978 3.90723 7.08415 3.9497 6.90751 4.03739C6.73088 4.12508 6.57878 4.25524 6.46484 4.4162" stroke="#009959" stroke-width="1.4" stroke-linecap="round" stroke-linejoin="round"/>
<path d="M13.8258 8.02251C13.6665 7.9061 13.4808 7.83106 13.2854 7.80413C13.09 7.77719 12.8909 7.79921 12.7061 7.86819C12.4115 7.97396 12.1695 8.19017 12.0314 8.4711C11.8875 8.19356 11.6439 7.98073 11.3495 7.87537C11.1636 7.81062 10.9648 7.79209 10.7701 7.82137C10.5754 7.85066 10.3908 7.92689 10.2322 8.04347C10.0736 8.16005 9.94573 8.31348 9.85966 8.49053C9.77359 8.66757 9.7319 8.8629 9.73819 9.05966C9.74879 9.3714 9.87701 9.66759 10.0971 9.88866C9.82551 9.93267 9.57697 10.0677 9.39224 10.2716C9.20752 10.4754 9.09758 10.736 9.08047 11.0106C9.06337 11.2852 9.1401 11.5574 9.29809 11.7826C9.45608 12.0078 9.68593 12.1727 9.94993 12.2501C10.2511 12.3353 10.5734 12.3019 10.8507 12.1567C10.8026 12.4648 10.8745 12.7795 11.0517 13.036C11.1606 13.1959 11.3066 13.3271 11.4772 13.4183C11.6478 13.5096 11.8379 13.5582 12.0314 13.56C12.2074 13.5588 12.381 13.5194 12.5402 13.4445C12.6994 13.3696 12.8404 13.2609 12.9534 13.1261C13.0664 12.9912 13.1487 12.8334 13.1946 12.6635C13.2406 12.4936 13.249 12.3158 13.2193 12.1424C13.498 12.2839 13.8203 12.3135 14.1201 12.2249C14.2484 12.1812 14.3694 12.1183 14.4789 12.0383C14.6656 11.8953 14.8067 11.701 14.885 11.4792C14.9633 11.2575 14.9754 11.0177 14.9199 10.7891C14.8644 10.5606 14.7436 10.3531 14.5723 10.192C14.401 10.0308 14.1865 9.92294 13.955 9.88148C14.1763 9.66123 14.3047 9.36455 14.3139 9.05248C14.3241 8.85382 14.2848 8.65574 14.1996 8.47598C14.1145 8.29622 13.986 8.14041 13.8258 8.02251Z" stroke="#009959" stroke-width="1.4" stroke-linecap="round" stroke-linejoin="round"/>
<path d="M6.36403 5.6431C6.19068 5.61272 6.01279 5.62066 5.84284 5.66634C5.67289 5.71203 5.515 5.79436 5.38025 5.90756C5.2455 6.02076 5.13717 6.16209 5.06285 6.32161C4.98853 6.48114 4.95004 6.65499 4.95006 6.83098C4.69975 6.64465 4.38817 6.56002 4.07799 6.59412C3.80249 6.62424 3.54568 6.74806 3.35056 6.94488C3.15543 7.14169 3.03382 7.39955 3.00608 7.6753C2.97833 7.95106 3.04614 8.22797 3.19815 8.45971C3.35016 8.69145 3.57715 8.86395 3.84113 8.94834C3.58484 9.1277 3.40748 9.39888 3.34589 9.70557C3.30499 9.89917 3.31236 10.0999 3.36736 10.2899C3.42235 10.48 3.52327 10.6536 3.66122 10.7955C3.79917 10.9373 3.96991 11.0431 4.15838 11.1033C4.34685 11.1636 4.54725 11.1766 4.74191 11.1411C5.0504 11.0883 5.32604 10.917 5.5099 10.6638C5.5966 10.9686 5.80047 11.2266 6.07693 11.3815C6.24791 11.4805 6.44099 11.535 6.6385 11.54C6.836 11.545 7.0316 11.5004 7.20739 11.4102C7.43506 11.2978 7.62198 11.1172 7.74211 10.8934C7.80586 10.7686 7.84831 10.6339 7.86772 10.4951C7.91124 10.1859 7.83273 9.87182 7.6488 9.61944C7.96212 9.62453 8.26538 9.50887 8.49575 9.29645C8.59854 9.20141 8.68466 9.08981 8.75055 8.96629C8.85901 8.75409 8.90257 8.51465 8.87578 8.27786C8.84899 8.04106 8.75304 7.8174 8.59992 7.6348C8.44679 7.4522 8.24327 7.31875 8.01477 7.2511C7.78626 7.18346 7.5429 7.18463 7.31505 7.25445C7.4161 6.95847 7.40071 6.63512 7.27198 6.35009C7.19155 6.16591 7.06635 6.00477 6.90778 5.8813C6.74921 5.75783 6.5623 5.67595 6.36403 5.6431V5.6431Z" stroke="#009959" stroke-width="1.4" stroke-linecap="round" stroke-linejoin="round"/>
<path d="M17.3664 21.4443H6.82112C6.6683 21.4437 6.52097 21.3933 6.40667 21.3025C6.29237 21.2118 6.21893 21.0869 6.20006 20.9513L4.09769 12.0624C4.08789 11.9849 4.09641 11.9065 4.12271 11.8322C4.14901 11.7579 4.19249 11.6894 4.25033 11.6311C4.30818 11.5728 4.37908 11.526 4.45845 11.4939C4.53781 11.4617 4.62385 11.4448 4.71098 11.4443H19.4765C19.5636 11.4448 19.6497 11.4617 19.7291 11.4939C19.8084 11.526 19.8793 11.5728 19.9372 11.6311C19.995 11.6894 20.0385 11.7579 20.0648 11.8322C20.0911 11.9065 20.0996 11.9849 20.0898 12.0624L17.9874 20.9513C17.9686 21.0869 17.8951 21.2118 17.7808 21.3025C17.6665 21.3933 17.5192 21.4437 17.3664 21.4443Z" fill="white" stroke="#009959" stroke-width="1.5" stroke-linecap="round" stroke-linejoin="round"/>
</svg>
