<svg width="20" height="20" viewBox="0 0 20 20" fill="none" xmlns="http://www.w3.org/2000/svg">
<path d="M15.1097 1.13887C17.6547 1.61972 12.5647 0.657872 15.1097 1.13887V1.13887Z" fill="#1F2226" stroke="#1F2226" stroke-width="0.6"/>
<path d="M15.1092 1.13896C12.5642 0.657964 10.1025 2.33746 9.62171 4.88244C9.38376 6.14179 9.57358 7.92718 10.1052 9.43097C10.5578 10.711 11.1932 11.6464 11.9459 12.1656C11.6737 12.3772 11.49 12.6767 11.4254 13.0185C11.4078 13.1115 11.4279 13.2079 11.4813 13.2861C11.5347 13.3644 11.617 13.4183 11.7101 13.4358L12.365 13.565L11.9384 15.8232C11.9017 16.0171 12.0292 16.204 12.2231 16.2406C12.2455 16.2448 12.2678 16.2469 12.2898 16.2469C12.4582 16.2469 12.6081 16.1274 12.6405 15.9559L13.0671 13.6977C13.2455 13.7313 13.891 13.8845 14.0554 13.7724C14.1336 13.719 14.1875 13.6367 14.2051 13.5436C14.2696 13.202 14.2079 12.8562 14.0317 12.56C14.9219 12.3511 15.8548 11.7116 16.7431 10.6851C17.7867 9.47892 18.6148 7.88584 18.8527 6.6265C19.3335 4.08148 17.6542 1.61981 15.1092 1.13896ZM12.9314 12.9394L12.2898 12.8182C12.328 12.775 12.3719 12.7362 12.4208 12.7029C12.5752 12.5975 12.7614 12.5587 12.9451 12.5933C12.9619 12.5965 12.9783 12.6008 12.9946 12.6051C13.1572 12.648 13.2977 12.7462 13.3934 12.8865C13.4267 12.9354 13.4534 12.9875 13.4732 13.0417L12.9314 12.9394ZM18.1506 6.49381C17.9344 7.63818 17.1698 9.09982 16.2027 10.2175C15.1326 11.4541 13.9936 12.0642 13.0778 11.8912C12.162 11.7181 11.324 10.7346 10.7789 9.19278C10.2862 7.79931 10.1076 6.15951 10.3238 5.0151C10.6845 3.10591 12.3597 1.77144 14.2356 1.77144C14.4799 1.77144 14.7279 1.79412 14.9766 1.84107C17.1344 2.24875 18.5583 4.336 18.1506 6.49381Z" fill="#1F2226" stroke="#1F2226" stroke-width="0.6"/>
<path d="M8.49768 11.7571C8.49687 11.7593 8.49687 11.7593 8.49768 11.7571V11.7571Z" fill="#1F2226" stroke="#1F2226" stroke-width="0.6"/>
<path d="M9.01073 7.58543C8.59719 5.39651 6.47993 3.95213 4.29107 4.36571C3.23073 4.56603 2.3119 5.16732 1.70375 6.05874C1.09564 6.95017 0.871061 8.02506 1.07138 9.0854C1.27492 10.1627 1.98242 11.5245 2.87378 12.5546C3.61215 13.408 4.38818 13.9498 5.13381 14.1458C5.00487 14.3939 4.96246 14.676 5.01519 14.955C5.03277 15.0481 5.08665 15.1304 5.16492 15.1838C5.30808 15.2815 5.85942 15.1204 6.0148 15.091L6.65642 18.069C6.68883 18.2405 6.83874 18.36 7.00709 18.36C7.02909 18.36 7.05142 18.3579 7.07382 18.3537C7.26771 18.3171 7.39519 18.1302 7.35857 17.9363L6.68087 14.955L7.19551 14.9066C7.3894 14.87 7.51688 14.6831 7.48026 14.4892C7.42617 14.2028 7.2779 13.9578 7.07382 13.7794C7.69676 13.3249 8.22192 12.5376 8.59819 11.4734C8.54818 11.6149 8.50287 11.743 8.49791 11.757C8.50169 11.7464 8.53006 11.6662 8.59819 11.4734C8.69541 11.1984 8.73371 11.09 8.73764 11.079C8.7321 11.0946 8.66147 11.2945 8.59819 11.4734C9.05221 10.1891 9.21424 8.66264 9.01073 7.58543ZM6.19222 14.369L5.78375 14.4462C5.78947 14.4366 5.79547 14.4272 5.8018 14.4179C5.88304 14.2988 6.00583 14.2185 6.14749 14.1917C6.15114 14.191 6.15482 14.1908 6.15846 14.1902C6.18861 14.1851 6.21884 14.1822 6.24885 14.1822C6.35628 14.1822 6.46121 14.2143 6.55189 14.2762C6.56118 14.2826 6.57021 14.2891 6.579 14.296L6.19222 14.369ZM6.0148 13.4896C5.25714 13.6327 4.30919 13.1216 3.41412 12.0871C2.59929 11.1454 1.95531 9.91509 1.77349 8.95275C1.60858 8.07993 1.79346 7.19519 2.294 6.46142C2.79454 5.72766 3.55092 5.23273 4.42369 5.06785C4.63141 5.02859 4.83827 5.00969 5.04238 5.00969C6.60855 5.00969 8.00745 6.12405 8.30859 7.71809C8.67486 9.65689 7.69973 13.1713 6.0148 13.4896Z" fill="#1F2226"/>
<path d="M8.59819 11.4734C8.22192 12.5376 7.69676 13.3249 7.07382 13.7794C7.2779 13.9578 7.42617 14.2028 7.48026 14.4892C7.51688 14.6831 7.3894 14.87 7.19551 14.9066L6.68087 14.955L7.35857 17.9363C7.39519 18.1302 7.26771 18.3171 7.07382 18.3537C7.05142 18.3579 7.02909 18.36 7.00709 18.36C6.83874 18.36 6.68883 18.2405 6.65642 18.069L6.0148 15.091C5.85942 15.1204 5.30808 15.2815 5.16492 15.1838C5.08665 15.1304 5.03277 15.0481 5.01519 14.955C4.96246 14.676 5.00487 14.3939 5.13381 14.1458C4.38818 13.9498 3.61215 13.408 2.87378 12.5546C1.98242 11.5245 1.27492 10.1627 1.07138 9.0854C0.871061 8.02506 1.09564 6.95017 1.70375 6.05874C2.3119 5.16732 3.23073 4.56603 4.29107 4.36571C6.47993 3.95213 8.59719 5.39651 9.01073 7.58543C9.21424 8.66264 9.05221 10.1891 8.59819 11.4734ZM8.59819 11.4734C8.54818 11.6149 8.50287 11.743 8.49791 11.757C8.50169 11.7464 8.53006 11.6662 8.59819 11.4734ZM8.59819 11.4734C8.69541 11.1984 8.73371 11.09 8.73764 11.079C8.7321 11.0946 8.66147 11.2945 8.59819 11.4734ZM6.19222 14.369L5.78375 14.4462C5.78947 14.4366 5.79547 14.4272 5.8018 14.4179C5.88304 14.2988 6.00583 14.2185 6.14749 14.1917C6.15114 14.191 6.15482 14.1908 6.15846 14.1902C6.18861 14.1851 6.21884 14.1822 6.24885 14.1822C6.35628 14.1822 6.46121 14.2143 6.55189 14.2762C6.56118 14.2826 6.57021 14.2891 6.579 14.296L6.19222 14.369ZM6.0148 13.4896C5.25714 13.6327 4.30919 13.1216 3.41412 12.0871C2.59929 11.1454 1.95531 9.91509 1.77349 8.95275C1.60858 8.07993 1.79346 7.19519 2.294 6.46142C2.79454 5.72766 3.55092 5.23273 4.42369 5.06785C4.63141 5.02859 4.83827 5.00969 5.04238 5.00969C6.60855 5.00969 8.00745 6.12405 8.30859 7.71809C8.67486 9.65689 7.69973 13.1713 6.0148 13.4896Z" stroke="#1F2226" stroke-width="0.6"/>
<path d="M8.7373 11.0794C8.73788 11.0777 8.73793 11.0777 8.7373 11.0794V11.0794Z" fill="#1F2226" stroke="#1F2226" stroke-width="0.6"/>
</svg>
