<svg width="167" height="129" viewBox="0 0 167 129" fill="none" xmlns="http://www.w3.org/2000/svg">
<path opacity="0.2" d="M22.6608 73.5675L8.48104 92.047C2.82769 99.4146 1.54476 102.675 0.918458 106.474C0.292168 110.273 0.784006 114.008 2.37216 117.516C3.96032 121.023 6.04337 123.84 13.411 129.493L31.8904 143.673L62.3285 104.006L22.6608 73.5675ZM75.5511 114.152L45.113 153.819L63.5925 167.999C70.96 173.652 74.2204 174.935 78.0192 175.562C81.818 176.188 85.5539 175.696 89.0611 174.108C92.3346 172.626 95.0069 170.712 99.945 164.474L101.039 163.069L115.219 144.59L75.5511 114.152ZM60.2608 28.8914C56.3337 25.878 53.3976 24.6002 50.3586 24.0991C47.3195 23.5981 44.3308 23.9915 41.525 25.2621C38.7192 26.5326 36.2139 28.5269 33.2005 32.4539L26.0876 41.7237C23.8263 44.6707 23.3131 45.9748 23.0626 47.4943C22.8121 49.0139 23.0088 50.5082 23.6441 51.9111C24.2793 53.314 25.1125 54.4409 28.0596 56.7022L72.4745 90.783L97.8396 57.7266L60.2608 28.8914ZM111.062 67.8727L85.6971 100.929L130.112 135.01C133.059 137.271 134.363 137.784 135.883 138.035C137.402 138.285 138.897 138.089 140.299 137.453C141.527 136.898 142.543 136.19 144.293 134.048L145.091 133.038L152.204 123.768C155.217 119.841 156.495 116.905 156.996 113.866C157.497 110.827 157.103 107.838 155.833 105.032C154.721 102.577 153.055 100.352 150.025 97.8157L148.641 96.7079L111.062 67.8727ZM96.2981 0.872924C77.937 3.2902 67.9422 34.4178 102.52 61.3358L104.451 62.7997C140.306 91.3623 168.839 73.3417 166.378 54.6468C163.975 36.3967 133.208 26.412 106.403 60.2475C132.156 25.6049 114.548 -1.52975 96.2981 0.872924Z" fill="#FFCD1E"/>
</svg>
