<svg width="20" height="20" viewBox="0 0 20 20" fill="none" xmlns="http://www.w3.org/2000/svg">
<path d="M9.24286 15.7335L9.24135 15.7379H9.31149H17.75C17.9602 15.7379 18.1629 15.6649 18.3132 15.5334C18.4638 15.4017 18.55 15.2214 18.55 15.0319V9.99781V9.94781H18.5H8.56H8.43312L8.52589 10.0344L10.2459 11.6392L10.2459 11.6392L10.2472 11.6404C10.3159 11.7001 10.3707 11.7719 10.4087 11.8514C10.4466 11.9308 10.467 12.0165 10.4686 12.1032C10.4702 12.1899 10.4531 12.2762 10.4182 12.3568C10.3833 12.4375 10.3312 12.511 10.2649 12.5729C10.1986 12.6348 10.1194 12.6837 10.032 12.7167C9.94453 12.7496 9.85076 12.7658 9.7563 12.7643C9.66184 12.7627 9.56876 12.7434 9.48266 12.7076C9.39655 12.6718 9.31929 12.6203 9.25538 12.5563L9.2554 12.5563L9.25411 12.5551L7.53411 10.9503L7.45 10.8718V10.9868V15.6835V15.7335H7.5H9.24286ZM18.5 8.64825H18.55V8.59825V5.79913C18.55 5.41352 18.3858 5.04446 18.0948 4.77293C17.8039 4.5015 17.41 4.34956 17 4.34956H7.5H7.45V4.39956V5.52668V5.60107L7.51888 5.57298C7.97071 5.38871 8.47177 5.33576 8.95654 5.42119C9.44131 5.50661 9.88676 5.72634 10.2349 6.05119C10.583 6.376 10.8177 6.79074 10.9088 7.24106C11 7.69134 10.9436 8.15687 10.7467 8.57704L10.7134 8.64825H10.792H18.5ZM1.45 8.59825V8.64825H1.5H2.708H2.78664L2.75328 8.57704C2.55644 8.15687 2.50003 7.69134 2.59117 7.24106C2.68232 6.79074 2.91696 6.376 3.26508 6.05119C3.61324 5.72634 4.05869 5.50661 4.54346 5.42119C5.02823 5.33576 5.5293 5.38871 5.98112 5.57298L6.05 5.60107V5.52668V4.39956V4.34956H6H3C2.58999 4.34956 2.19613 4.5015 1.90523 4.77293C1.61421 5.04446 1.45 5.41352 1.45 5.79913V8.59825ZM1.5 9.94781H1.45V9.99781V14.1965C1.45 14.5821 1.61421 14.9512 1.90523 15.2227C2.19026 15.4886 2.58356 15.7335 3 15.7335H6H6.05V15.6835V10.9868V10.8718L5.96589 10.9503L4.24655 12.5545C4.11408 12.6694 3.93839 12.7324 3.7563 12.7294C3.57391 12.7264 3.40052 12.6574 3.27249 12.538C3.14457 12.4186 3.07198 12.2583 3.06882 12.0911C3.06566 11.9242 3.13191 11.7619 3.25477 11.6386L4.97411 10.0344L5.06688 9.94781H4.94H1.5ZM7.45 8.59825V8.64825H7.5H8.5C8.70693 8.64825 8.90947 8.59101 9.08202 8.48343C9.25461 8.37584 9.38967 8.22256 9.46958 8.04256C9.54951 7.8625 9.57049 7.66416 9.52969 7.47276C9.48889 7.28139 9.38829 7.10612 9.24122 6.96889C9.09418 6.8317 8.90724 6.73862 8.70421 6.70093C8.50119 6.66326 8.29072 6.68257 8.09929 6.75655C7.90784 6.83054 7.74366 6.95605 7.62788 7.11773C7.51207 7.27945 7.45 7.46998 7.45 7.66521V8.59825ZM6.05 7.66148L6.05 7.66126C6.04916 7.4662 5.98639 7.27607 5.87008 7.11487C5.7538 6.95372 5.58933 6.82883 5.39781 6.75543C5.20631 6.68205 4.99598 6.66329 4.79323 6.70141C4.59048 6.73953 4.40393 6.83292 4.25731 6.97028C4.11065 7.10766 4.01047 7.28294 3.97001 7.4742C3.92955 7.66549 3.95078 7.86364 4.03083 8.04346C4.11086 8.22323 4.24592 8.37628 4.41842 8.4837C4.59088 8.59111 4.79325 8.64825 5 8.64825H6H6.05V8.59825L6.05 7.66148ZM17.75 3.05C18.3355 3.05 18.8958 3.2535 19.3081 3.61409C19.7201 3.97448 19.95 4.46174 19.95 4.96814V15.0319C19.95 15.5383 19.7201 16.0255 19.3081 16.3859C18.8958 16.7465 18.3355 16.95 17.75 16.95H2.25C1.96023 16.95 1.67342 16.9001 1.40599 16.8032C1.13857 16.7063 0.89598 16.5644 0.691929 16.3859C0.487891 16.2074 0.326452 15.9959 0.216461 15.7636C0.106482 15.5314 0.05 15.2828 0.05 15.0319V4.96814C0.05 4.46174 0.279918 3.97448 0.691929 3.61409C1.10415 3.2535 1.66452 3.05 2.25 3.05H17.75Z" fill="#1F2226" stroke="white" stroke-width="0.1"/>
</svg>
