<svg width="16" height="16" viewBox="0 0 16 16" fill="none" xmlns="http://www.w3.org/2000/svg">
<path d="M8.00109 2.406C8.94113 0.713047 10.7176 0.506499 11.733 1.52188C12.5627 2.35153 12.5765 3.69103 11.6346 4.66731L11.9997 4.66662C13.4724 4.66662 14.6663 5.86052 14.6663 7.33328V7.61958C14.6663 8.29088 14.5735 8.65087 14.3992 8.97679C14.2249 9.30272 13.9691 9.55851 13.6432 9.73282C13.5457 9.78496 13.4451 9.82982 13.3341 9.86707L13.333 11.2481C13.333 12.4368 13.2092 12.8678 12.9768 13.3024C12.7444 13.737 12.4034 14.078 11.9688 14.3104C11.5342 14.5428 11.1032 14.6666 9.91449 14.6666H6.08485C4.89616 14.6666 4.46511 14.5428 4.03055 14.3104C3.59598 14.078 3.25493 13.737 3.02252 13.3024C2.79011 12.8678 2.66634 12.4368 2.66634 11.2481L2.66591 9.8673C2.55462 9.83 2.45386 9.78507 2.35616 9.73282C2.03024 9.55851 1.77445 9.30272 1.60014 8.97679C1.44036 8.67803 1.34904 8.35064 1.33494 7.78108L1.33301 7.33328C1.33301 5.86052 2.52692 4.66662 3.99967 4.66662L4.36695 4.66731C3.425 3.69103 3.43887 2.35153 4.26852 1.52188C5.28469 0.505712 7.06315 0.713368 8.00109 2.406ZM7.39967 9.99995H3.86567L3.86701 11.4103L3.87255 11.6952C3.89091 12.2595 3.95196 12.4958 4.08069 12.7365C4.20126 12.9619 4.37102 13.1317 4.59647 13.2523C4.87421 13.4008 5.14604 13.4592 5.92265 13.4659H7.39967V9.99995ZM12.133 9.99995H8.59967V13.4659H10.0767L10.3616 13.4604C10.9259 13.442 11.1622 13.381 11.4029 13.2523C11.6283 13.1317 11.7981 12.9619 11.9187 12.7365C12.0672 12.4587 12.1256 12.1869 12.1323 11.4103L12.133 9.99995ZM11.9997 5.86662L8.6074 5.86708C8.60499 5.86724 8.60258 5.86741 8.60016 5.86757L8.59967 8.79928H12.349L12.412 8.79879C12.768 8.79178 12.931 8.75284 13.0773 8.67464C13.1941 8.61217 13.2786 8.52768 13.341 8.41088C13.4192 8.26466 13.4582 8.10157 13.4652 7.74562L13.4663 7.33328C13.4663 6.52327 12.8097 5.86662 11.9997 5.86662ZM7.39412 5.86708L3.99967 5.86662C3.18966 5.86662 2.53301 6.52327 2.53301 7.33328L2.53417 7.74562C2.54118 8.10157 2.58012 8.26466 2.65832 8.41088C2.72078 8.52768 2.80528 8.61217 2.92208 8.67464C3.07638 8.75716 3.24946 8.79596 3.64815 8.79966L7.39967 8.79928L7.40005 5.86748C7.39807 5.86735 7.39609 5.86721 7.39412 5.86708ZM5.11704 2.37041C4.40424 3.08322 5.06577 4.4213 7.23221 4.64969L7.39782 4.66394C7.3984 4.65499 7.399 4.64606 7.39962 4.63715L7.4017 4.66518C7.22861 2.35875 5.91578 1.57168 5.11704 2.37041ZM10.8845 2.37041C10.0857 1.57168 8.77292 2.35875 8.59983 4.66518L8.60214 4.64051C8.60267 4.64831 8.60319 4.65612 8.60371 4.66394L8.76931 4.64969C10.9358 4.4213 11.5973 3.08322 10.8845 2.37041Z" fill="#1F2226"/>
</svg>
