<svg width="16" height="18" viewBox="0 0 16 18" fill="none" xmlns="http://www.w3.org/2000/svg">
<path d="M0.406766 17.1808C0.135576 17.0466 0 16.7111 0 16.3755C0 16.3084 0 16.1742 0 16.1071C0 11.1408 0 6.17453 0 1.27539C0 1.00694 0.0677879 0.805629 0.135576 0.537179C0.203403 0.402934 0.338978 0.268727 0.474593 0.134521C3.38982 3.0203 6.23726 5.90608 9.0847 8.7919C6.16947 11.4763 3.32203 14.295 0.406766 17.1808Z" fill="#00CDFF"/>
<path d="M11.9325 5.8387C11.119 6.64405 10.2376 7.44937 9.42408 8.32182C6.71222 5.57025 3.93257 2.81868 1.2207 0.0671031C1.2207 0.0671031 1.2207 0 1.28849 0C4.81392 1.94622 8.33932 3.89248 11.9325 5.8387Z" fill="#00F076"/>
<path d="M1.2207 17.1808C3.93257 14.4963 6.71222 11.8119 9.42408 9.12744C10.1698 9.86565 10.9834 10.6039 11.8648 11.4092C8.33932 13.3555 4.81392 15.3017 1.28849 17.1808H1.2207Z" fill="#F73866"/>
<path d="M12.3399 11.1408C11.4586 10.3355 10.645 9.5301 9.76367 8.72479C10.645 7.85233 11.5264 6.97988 12.4077 6.10742C12.6789 6.24163 12.9501 6.37587 13.2213 6.57718C13.8992 6.97988 14.645 7.31543 15.323 7.71809C15.5264 7.78519 15.662 7.91944 15.7975 8.12075C16.0687 8.4563 16.0687 8.79189 15.7975 9.12745C15.662 9.26165 15.5264 9.3959 15.323 9.463C14.3738 10.067 13.3569 10.6039 12.3399 11.1408Z" fill="#FFC600"/>
</svg>
