<svg width="110" height="32" viewBox="0 0 110 32" fill="none" xmlns="http://www.w3.org/2000/svg">
<rect width="110" height="32" rx="6" fill="#1F2226"/>
<path d="M55.3463 18.1825C53.4906 18.1825 52.0216 19.5602 52.0216 21.4738C52.0216 23.3109 53.4906 24.7652 55.3463 24.7652C57.2019 24.7652 58.6714 23.3874 58.6714 21.4738C58.6714 19.5602 57.2019 18.1825 55.3463 18.1825ZM55.3463 23.3874C54.341 23.3874 53.4906 22.5454 53.4906 21.3973C53.4906 20.2491 54.341 19.4072 55.3463 19.4072C56.3515 19.4072 57.2019 20.1726 57.2019 21.3973C57.2019 22.622 56.3515 23.3874 55.3463 23.3874ZM48.155 18.1825C46.2993 18.1825 44.8302 19.5602 44.8302 21.4738C44.8302 23.3109 46.2993 24.7652 48.155 24.7652C50.011 24.7652 51.4801 23.3874 51.4801 21.4738C51.4801 19.5602 50.011 18.1825 48.155 18.1825ZM48.155 23.3874C47.1501 23.3874 46.2993 22.5454 46.2993 21.3973C46.2993 20.2491 47.1501 19.4072 48.155 19.4072C49.1602 19.4072 50.011 20.1726 50.011 21.3973C50.011 22.622 49.1602 23.3874 48.155 23.3874ZM39.5722 19.1775V20.5553H42.8971C42.8198 21.3208 42.5105 21.9331 42.1239 22.3158C41.6599 22.775 40.8866 23.3109 39.5722 23.3109C37.4844 23.3109 35.9379 21.7034 35.9379 19.6368C35.9379 17.5702 37.5617 15.9627 39.5722 15.9627C40.6547 15.9627 41.5052 16.422 42.1239 16.9578L43.1291 15.9627C42.2785 15.1973 41.1959 14.585 39.6495 14.585C36.8658 14.585 34.4688 16.8813 34.4688 19.6368C34.4688 22.3923 36.8658 24.6886 39.6495 24.6886C41.1959 24.6886 42.2785 24.2294 43.2064 23.2343C44.1343 22.3158 44.4435 21.0146 44.4435 20.0195C44.4435 19.7134 44.4436 19.4072 44.3662 19.1775H39.5722ZM74.6775 20.2491C74.3682 19.4837 73.5946 18.1825 71.8938 18.1825C70.1927 18.1825 68.8008 19.4837 68.8008 21.4738C68.8008 23.3109 70.1927 24.7652 72.0483 24.7652C73.5174 24.7652 74.4454 23.8467 74.7547 23.3109L73.6723 22.5454C73.2857 23.0812 72.8214 23.4639 72.0483 23.4639C71.2752 23.4639 70.8109 23.1578 70.4243 22.4689L74.832 20.6318L74.6775 20.2491ZM70.1927 21.3208C70.1927 20.0961 71.1979 19.4072 71.8938 19.4072C72.4349 19.4072 72.9763 19.7134 73.1308 20.0961L70.1927 21.3208ZM66.5582 24.459H68.0272V14.8911H66.5582V24.459ZM64.2387 18.8714C63.8517 18.4886 63.2335 18.1059 62.4599 18.1059C60.8364 18.1059 59.2896 19.5602 59.2896 21.3973C59.2896 23.2343 60.7592 24.6121 62.4599 24.6121C63.2335 24.6121 63.8517 24.2294 64.1611 23.8467H64.2387V24.3059C64.2387 25.5306 63.5428 26.2195 62.4599 26.2195C61.6095 26.2195 60.9908 25.6072 60.8364 25.0714L59.599 25.6072C59.9856 26.4491 60.9136 27.5207 62.5376 27.5207C64.2387 27.5207 65.6306 26.5257 65.6306 24.1529V18.3356H64.2387V18.8714ZM62.5376 23.3874C61.5323 23.3874 60.6815 22.5454 60.6815 21.3973C60.6815 20.2491 61.5323 19.4072 62.5376 19.4072C63.5428 19.4072 64.316 20.2491 64.316 21.3973C64.316 22.5454 63.5428 23.3874 62.5376 23.3874ZM81.4046 14.8911H77.925V24.459H79.3941V20.8615H81.4046C83.0281 20.8615 84.5748 19.7134 84.5748 17.8763C84.5748 16.0393 83.0281 14.8911 81.4046 14.8911ZM81.4818 19.5602H79.3941V16.2689H81.4818C82.5643 16.2689 83.183 17.1874 83.183 17.8763C83.1058 18.6418 82.4871 19.5602 81.4818 19.5602ZM90.3743 18.1825C89.2914 18.1825 88.2089 18.6418 87.8223 19.6368L89.1369 20.1726C89.4463 19.6368 89.9101 19.4837 90.4515 19.4837C91.2247 19.4837 91.9206 19.943 91.9978 20.7084V20.785C91.7661 20.6318 91.1474 20.4022 90.5287 20.4022C89.1369 20.4022 87.7451 21.1677 87.7451 22.5454C87.7451 23.8467 88.9048 24.6886 90.1422 24.6886C91.1474 24.6886 91.6112 24.2294 91.9978 23.7702H92.075V24.5356H93.4669V20.8615C93.3124 19.101 91.9978 18.1825 90.3743 18.1825ZM90.2194 23.3874C89.7556 23.3874 89.0597 23.1578 89.0597 22.5454C89.0597 21.78 89.91 21.5504 90.606 21.5504C91.2247 21.5504 91.534 21.7035 91.9206 21.8566C91.7661 22.7751 90.9925 23.3874 90.2194 23.3874ZM98.3383 18.3356L96.7148 22.4689H96.6376L94.9364 18.3356H93.3896L95.9416 24.1529L94.4721 27.3677H95.9416L99.885 18.3356H98.3383ZM85.348 24.459H86.817V14.8911H85.348V24.459Z" fill="white"/>
<path d="M10.3389 25.3726C10.0296 25.2195 9.875 24.8368 9.875 24.4541C9.875 24.3775 9.875 24.2244 9.875 24.1479C9.875 18.4837 9.875 12.8195 9.875 7.23186C9.875 6.92569 9.95231 6.69609 10.0296 6.38991C10.107 6.2368 10.2616 6.08373 10.4163 5.93066C13.7412 9.222 16.9888 12.5133 20.2364 15.8047C16.9115 18.8664 13.6639 22.0812 10.3389 25.3726Z" fill="#00CDFF"/>
<path d="M23.4868 12.4366C22.5589 13.3551 21.5536 14.2736 20.6258 15.2687C17.5328 12.1304 14.3625 8.99214 11.2695 5.85388C11.2695 5.85388 11.2695 5.77734 11.3468 5.77734C15.3677 7.99708 19.3886 10.2169 23.4868 12.4366Z" fill="#00F076"/>
<path d="M11.2695 25.3727C14.3625 22.3109 17.5328 19.2492 20.6258 16.1875C21.4763 17.0295 22.4042 17.8715 23.4094 18.7899C19.3886 21.0097 15.3677 23.2295 11.3468 25.3727H11.2695Z" fill="#F73866"/>
<path d="M23.95 18.4839C22.9448 17.5654 22.0169 16.6469 21.0117 15.7284C22.0169 14.7333 23.0222 13.7382 24.0273 12.7432C24.3366 12.8962 24.6459 13.0493 24.9552 13.2789C25.7285 13.7382 26.5791 14.1209 27.3523 14.5802C27.5843 14.6567 27.7389 14.8098 27.8935 15.0394C28.2028 15.4221 28.2028 15.8049 27.8935 16.1876C27.7389 16.3407 27.5843 16.4938 27.3523 16.5703C26.2698 17.2592 25.1099 17.8716 23.95 18.4839Z" fill="#FFC600"/>
<path d="M37.848 10.608H35.48L34.944 12H34.16L36.304 6.4H37.056L39.2 12H38.384L37.848 10.608ZM35.728 9.952H37.6L36.664 7.36L35.728 9.952ZM38.8828 7.76H39.6668L41.0428 11.28L42.2908 7.76H43.0428L41.4428 12H40.6428L38.8828 7.76ZM44.6452 12.08C44.4105 12.08 44.2025 12.048 44.0212 11.984C43.8452 11.9147 43.6959 11.8213 43.5732 11.704C43.4505 11.5867 43.3572 11.448 43.2932 11.288C43.2292 11.128 43.1972 10.952 43.1972 10.76C43.1972 10.3387 43.3199 10.0347 43.5652 9.848C43.8159 9.66133 44.1732 9.568 44.6372 9.568H46.0132V9.28C46.0132 8.91733 45.9305 8.66667 45.7652 8.528C45.6052 8.38933 45.3625 8.32 45.0372 8.32C44.7332 8.32 44.5119 8.37867 44.3732 8.496C44.2345 8.608 44.1572 8.736 44.1412 8.88H43.4372C43.4479 8.70933 43.4932 8.552 43.5732 8.408C43.6585 8.25867 43.7705 8.13067 43.9092 8.024C44.0532 7.91733 44.2239 7.83467 44.4212 7.776C44.6185 7.712 44.8372 7.68 45.0772 7.68C45.5785 7.68 45.9759 7.8 46.2692 8.04C46.5679 8.27467 46.7172 8.66133 46.7172 9.2V10.92C46.7172 11.144 46.7172 11.3413 46.7172 11.512C46.7225 11.6773 46.7359 11.84 46.7572 12H46.1412C46.1252 11.8773 46.1145 11.7627 46.1092 11.656C46.1039 11.544 46.1012 11.4187 46.1012 11.28C45.9892 11.504 45.8079 11.6933 45.5572 11.848C45.3065 12.0027 45.0025 12.08 44.6452 12.08ZM44.7972 11.44C44.9625 11.44 45.1172 11.4187 45.2612 11.376C45.4105 11.328 45.5412 11.2613 45.6532 11.176C45.7652 11.0853 45.8532 10.976 45.9172 10.848C45.9812 10.72 46.0132 10.5707 46.0132 10.4V10.112H44.7572C44.4959 10.112 44.2905 10.1653 44.1412 10.272C43.9919 10.3733 43.9172 10.536 43.9172 10.76C43.9172 10.9573 43.9865 11.12 44.1252 11.248C44.2692 11.376 44.4932 11.44 44.7972 11.44ZM47.8806 7.76H48.5846V12H47.8806V7.76ZM48.2326 7.2C48.094 7.2 47.9793 7.15467 47.8886 7.064C47.798 6.97333 47.7526 6.85867 47.7526 6.72C47.7526 6.58133 47.798 6.46667 47.8886 6.376C47.9793 6.28533 48.094 6.24 48.2326 6.24C48.3713 6.24 48.486 6.28533 48.5766 6.376C48.6673 6.46667 48.7126 6.58133 48.7126 6.72C48.7126 6.85867 48.6673 6.97333 48.5766 7.064C48.486 7.15467 48.3713 7.2 48.2326 7.2ZM51.0612 12.04C50.6186 12.04 50.3012 11.9333 50.1092 11.72C49.9172 11.5067 49.8212 11.16 49.8212 10.68V6.4H50.5252V10.68C50.5252 10.9573 50.5706 11.1467 50.6612 11.248C50.7519 11.3493 50.9119 11.4 51.1412 11.4C51.1999 11.4 51.2506 11.4 51.2932 11.4C51.3359 11.3947 51.3786 11.3893 51.4212 11.384V12.008C51.3786 12.0187 51.3172 12.0267 51.2372 12.032C51.1626 12.0373 51.1039 12.04 51.0612 12.04ZM53.3918 12.08C53.1571 12.08 52.9491 12.048 52.7678 11.984C52.5918 11.9147 52.4424 11.8213 52.3198 11.704C52.1971 11.5867 52.1038 11.448 52.0398 11.288C51.9758 11.128 51.9438 10.952 51.9438 10.76C51.9438 10.3387 52.0664 10.0347 52.3118 9.848C52.5624 9.66133 52.9198 9.568 53.3838 9.568H54.7598V9.28C54.7598 8.91733 54.6771 8.66667 54.5118 8.528C54.3518 8.38933 54.1091 8.32 53.7838 8.32C53.4798 8.32 53.2584 8.37867 53.1198 8.496C52.9811 8.608 52.9038 8.736 52.8878 8.88H52.1838C52.1944 8.70933 52.2398 8.552 52.3198 8.408C52.4051 8.25867 52.5171 8.13067 52.6558 8.024C52.7998 7.91733 52.9704 7.83467 53.1678 7.776C53.3651 7.712 53.5838 7.68 53.8238 7.68C54.3251 7.68 54.7224 7.8 55.0158 8.04C55.3144 8.27467 55.4638 8.66133 55.4638 9.2V10.92C55.4638 11.144 55.4638 11.3413 55.4638 11.512C55.4691 11.6773 55.4824 11.84 55.5038 12H54.8878C54.8718 11.8773 54.8611 11.7627 54.8558 11.656C54.8504 11.544 54.8478 11.4187 54.8478 11.28C54.7358 11.504 54.5544 11.6933 54.3038 11.848C54.0531 12.0027 53.7491 12.08 53.3918 12.08ZM53.5438 11.44C53.7091 11.44 53.8638 11.4187 54.0078 11.376C54.1571 11.328 54.2878 11.2613 54.3998 11.176C54.5118 11.0853 54.5998 10.976 54.6638 10.848C54.7278 10.72 54.7598 10.5707 54.7598 10.4V10.112H53.5038C53.2424 10.112 53.0371 10.1653 52.8878 10.272C52.7384 10.3733 52.6638 10.536 52.6638 10.76C52.6638 10.9573 52.7331 11.12 52.8718 11.248C53.0158 11.376 53.2398 11.44 53.5438 11.44ZM58.7072 12.08C58.3445 12.08 58.0299 12 57.7632 11.84C57.4965 11.6747 57.3099 11.4613 57.2032 11.2V12H56.5472V6.4H57.2512V8.52C57.3739 8.25867 57.5605 8.05333 57.8112 7.904C58.0672 7.75467 58.3659 7.68 58.7072 7.68C59.2352 7.68 59.6592 7.856 59.9792 8.208C60.3045 8.55467 60.4672 9.072 60.4672 9.76V9.92C60.4672 10.2827 60.4245 10.6 60.3392 10.872C60.2539 11.1387 60.1339 11.3627 59.9792 11.544C59.8245 11.72 59.6379 11.8533 59.4192 11.944C59.2059 12.0347 58.9685 12.08 58.7072 12.08ZM58.5472 11.456C58.7179 11.456 58.8779 11.424 59.0272 11.36C59.1765 11.2907 59.3045 11.192 59.4112 11.064C59.5232 10.936 59.6085 10.776 59.6672 10.584C59.7312 10.392 59.7632 10.1707 59.7632 9.92V9.76C59.7632 9.53067 59.7312 9.32533 59.6672 9.144C59.6085 8.96267 59.5232 8.81067 59.4112 8.688C59.3045 8.56 59.1765 8.464 59.0272 8.4C58.8779 8.336 58.7179 8.304 58.5472 8.304C58.3552 8.304 58.1792 8.336 58.0192 8.4C57.8592 8.45867 57.7232 8.544 57.6112 8.656C57.4992 8.76267 57.4112 8.89067 57.3472 9.04C57.2832 9.18933 57.2512 9.34933 57.2512 9.52V10.16C57.2512 10.352 57.2832 10.528 57.3472 10.688C57.4112 10.848 57.4992 10.984 57.6112 11.096C57.7232 11.208 57.8592 11.296 58.0192 11.36C58.1792 11.424 58.3552 11.456 58.5472 11.456ZM62.5891 12.04C62.1464 12.04 61.8291 11.9333 61.6371 11.72C61.4451 11.5067 61.3491 11.16 61.3491 10.68V6.4H62.0531V10.68C62.0531 10.9573 62.0984 11.1467 62.1891 11.248C62.2797 11.3493 62.4397 11.4 62.6691 11.4C62.7277 11.4 62.7784 11.4 62.8211 11.4C62.8637 11.3947 62.9064 11.3893 62.9491 11.384V12.008C62.9064 12.0187 62.8451 12.0267 62.7651 12.032C62.6904 12.0373 62.6317 12.04 62.5891 12.04ZM65.3934 12.08C65.1214 12.08 64.8628 12.0373 64.6174 11.952C64.3721 11.8667 64.1561 11.736 63.9694 11.56C63.7828 11.3787 63.6334 11.152 63.5214 10.88C63.4094 10.608 63.3534 10.288 63.3534 9.92V9.76C63.3534 9.408 63.4068 9.104 63.5134 8.848C63.6201 8.58667 63.7614 8.37067 63.9374 8.2C64.1188 8.024 64.3268 7.89333 64.5614 7.808C64.8014 7.72267 65.0521 7.68 65.3134 7.68C65.9374 7.68 66.4201 7.85067 66.7614 8.192C67.1028 8.53333 67.2734 9.016 67.2734 9.64V10.088H64.0574C64.0574 10.3387 64.0974 10.5493 64.1774 10.72C64.2574 10.8907 64.3614 11.0293 64.4894 11.136C64.6174 11.2427 64.7588 11.32 64.9134 11.368C65.0734 11.416 65.2334 11.44 65.3934 11.44C65.7134 11.44 65.9588 11.3867 66.1294 11.28C66.3054 11.1733 66.4308 11.0267 66.5054 10.84H67.1934C67.1508 11.0427 67.0734 11.2213 66.9614 11.376C66.8548 11.5307 66.7214 11.6613 66.5614 11.768C66.4068 11.8693 66.2281 11.9467 66.0254 12C65.8281 12.0533 65.6174 12.08 65.3934 12.08ZM65.3534 8.32C65.1881 8.32 65.0281 8.344 64.8734 8.392C64.7188 8.43467 64.5801 8.50667 64.4574 8.608C64.3401 8.704 64.2441 8.82667 64.1694 8.976C64.0948 9.12533 64.0574 9.304 64.0574 9.512H66.6094C66.6041 9.29333 66.5668 9.10933 66.4974 8.96C66.4334 8.80533 66.3454 8.68267 66.2334 8.592C66.1214 8.496 65.9881 8.42667 65.8334 8.384C65.6841 8.34133 65.5241 8.32 65.3534 8.32ZM70.0341 7.76H70.7381V12H70.0341V7.76ZM70.3861 7.2C70.2474 7.2 70.1327 7.15467 70.0421 7.064C69.9514 6.97333 69.9061 6.85867 69.9061 6.72C69.9061 6.58133 69.9514 6.46667 70.0421 6.376C70.1327 6.28533 70.2474 6.24 70.3861 6.24C70.5247 6.24 70.6394 6.28533 70.7301 6.376C70.8207 6.46667 70.8661 6.58133 70.8661 6.72C70.8661 6.85867 70.8207 6.97333 70.7301 7.064C70.6394 7.15467 70.5247 7.2 70.3861 7.2ZM71.9347 7.76H72.5907V8.56C72.6387 8.44267 72.7054 8.33067 72.7907 8.224C72.876 8.11733 72.9774 8.024 73.0947 7.944C73.2174 7.864 73.356 7.8 73.5107 7.752C73.6707 7.704 73.8467 7.68 74.0387 7.68C74.572 7.68 74.9667 7.824 75.2227 8.112C75.484 8.39467 75.6147 8.81067 75.6147 9.36V12H74.9107V9.52C74.9107 9.12533 74.828 8.82667 74.6627 8.624C74.4974 8.42133 74.22 8.32 73.8307 8.32C73.6227 8.32 73.4414 8.35467 73.2867 8.424C73.1374 8.49333 73.0147 8.584 72.9187 8.696C72.8227 8.808 72.7507 8.936 72.7027 9.08C72.66 9.224 72.6387 9.37067 72.6387 9.52V12H71.9347V7.76Z" fill="white"/>
</svg>
