<svg width="110" height="32" viewBox="0 0 110 32" fill="none" xmlns="http://www.w3.org/2000/svg">
<rect width="110" height="32" rx="6" fill="#F7F7F7"/>
<path d="M55.3463 18.1825C53.4906 18.1825 52.0216 19.5602 52.0216 21.4738C52.0216 23.3109 53.4906 24.7652 55.3463 24.7652C57.2019 24.7652 58.6714 23.3874 58.6714 21.4738C58.6714 19.5602 57.2019 18.1825 55.3463 18.1825ZM55.3463 23.3874C54.341 23.3874 53.4906 22.5454 53.4906 21.3973C53.4906 20.2491 54.341 19.4072 55.3463 19.4072C56.3515 19.4072 57.2019 20.1726 57.2019 21.3973C57.2019 22.622 56.3515 23.3874 55.3463 23.3874ZM48.155 18.1825C46.2993 18.1825 44.8302 19.5602 44.8302 21.4738C44.8302 23.3109 46.2993 24.7652 48.155 24.7652C50.011 24.7652 51.4801 23.3874 51.4801 21.4738C51.4801 19.5602 50.011 18.1825 48.155 18.1825ZM48.155 23.3874C47.1501 23.3874 46.2993 22.5454 46.2993 21.3973C46.2993 20.2491 47.1501 19.4072 48.155 19.4072C49.1602 19.4072 50.011 20.1726 50.011 21.3973C50.011 22.622 49.1602 23.3874 48.155 23.3874ZM39.5722 19.1775V20.5553H42.8971C42.8198 21.3208 42.5105 21.9331 42.1239 22.3158C41.6599 22.775 40.8866 23.3109 39.5722 23.3109C37.4844 23.3109 35.9379 21.7034 35.9379 19.6368C35.9379 17.5702 37.5617 15.9627 39.5722 15.9627C40.6547 15.9627 41.5052 16.422 42.1239 16.9578L43.1291 15.9627C42.2785 15.1973 41.1959 14.585 39.6495 14.585C36.8658 14.585 34.4688 16.8813 34.4688 19.6368C34.4688 22.3923 36.8658 24.6886 39.6495 24.6886C41.1959 24.6886 42.2785 24.2294 43.2064 23.2343C44.1343 22.3158 44.4435 21.0146 44.4435 20.0195C44.4435 19.7134 44.4436 19.4072 44.3662 19.1775H39.5722ZM74.6775 20.2491C74.3682 19.4837 73.5946 18.1825 71.8938 18.1825C70.1927 18.1825 68.8008 19.4837 68.8008 21.4738C68.8008 23.3109 70.1927 24.7652 72.0483 24.7652C73.5174 24.7652 74.4454 23.8467 74.7547 23.3109L73.6723 22.5454C73.2857 23.0812 72.8214 23.4639 72.0483 23.4639C71.2752 23.4639 70.8109 23.1578 70.4243 22.4689L74.832 20.6318L74.6775 20.2491ZM70.1927 21.3208C70.1927 20.0961 71.1979 19.4072 71.8938 19.4072C72.4349 19.4072 72.9763 19.7134 73.1308 20.0961L70.1927 21.3208ZM66.5582 24.459H68.0272V14.8911H66.5582V24.459ZM64.2387 18.8714C63.8517 18.4886 63.2335 18.1059 62.4599 18.1059C60.8364 18.1059 59.2896 19.5602 59.2896 21.3973C59.2896 23.2343 60.7592 24.6121 62.4599 24.6121C63.2335 24.6121 63.8517 24.2294 64.1611 23.8467H64.2387V24.3059C64.2387 25.5306 63.5428 26.2195 62.4599 26.2195C61.6095 26.2195 60.9908 25.6072 60.8364 25.0714L59.599 25.6072C59.9856 26.4491 60.9136 27.5207 62.5376 27.5207C64.2387 27.5207 65.6306 26.5257 65.6306 24.1529V18.3356H64.2387V18.8714ZM62.5376 23.3874C61.5323 23.3874 60.6815 22.5454 60.6815 21.3973C60.6815 20.2491 61.5323 19.4072 62.5376 19.4072C63.5428 19.4072 64.316 20.2491 64.316 21.3973C64.316 22.5454 63.5428 23.3874 62.5376 23.3874ZM81.4046 14.8911H77.925V24.459H79.3941V20.8615H81.4046C83.0281 20.8615 84.5748 19.7134 84.5748 17.8763C84.5748 16.0393 83.0281 14.8911 81.4046 14.8911ZM81.4818 19.5602H79.3941V16.2689H81.4818C82.5643 16.2689 83.183 17.1874 83.183 17.8763C83.1058 18.6418 82.4871 19.5602 81.4818 19.5602ZM90.3743 18.1825C89.2914 18.1825 88.2089 18.6418 87.8223 19.6368L89.1369 20.1726C89.4463 19.6368 89.9101 19.4837 90.4515 19.4837C91.2247 19.4837 91.9206 19.943 91.9978 20.7084V20.785C91.7661 20.6318 91.1474 20.4022 90.5287 20.4022C89.1369 20.4022 87.7451 21.1677 87.7451 22.5454C87.7451 23.8467 88.9048 24.6886 90.1422 24.6886C91.1474 24.6886 91.6112 24.2294 91.9978 23.7702H92.075V24.5356H93.4669V20.8615C93.3124 19.101 91.9978 18.1825 90.3743 18.1825ZM90.2194 23.3874C89.7556 23.3874 89.0597 23.1578 89.0597 22.5454C89.0597 21.78 89.91 21.5504 90.606 21.5504C91.2247 21.5504 91.534 21.7035 91.9206 21.8566C91.7661 22.7751 90.9925 23.3874 90.2194 23.3874ZM98.3383 18.3356L96.7148 22.4689H96.6376L94.9364 18.3356H93.3896L95.9416 24.1529L94.4721 27.3677H95.9416L99.885 18.3356H98.3383ZM85.348 24.459H86.817V14.8911H85.348V24.459Z" fill="#1F2226"/>
<path d="M10.3389 25.3726C10.0296 25.2195 9.875 24.8368 9.875 24.4541C9.875 24.3775 9.875 24.2244 9.875 24.1479C9.875 18.4837 9.875 12.8195 9.875 7.23186C9.875 6.92569 9.95231 6.69609 10.0296 6.38991C10.107 6.2368 10.2616 6.08373 10.4163 5.93066C13.7412 9.222 16.9888 12.5133 20.2364 15.8047C16.9115 18.8664 13.6639 22.0812 10.3389 25.3726Z" fill="#00CDFF"/>
<path d="M23.4868 12.4366C22.5589 13.3551 21.5536 14.2736 20.6258 15.2687C17.5328 12.1304 14.3625 8.99214 11.2695 5.85388C11.2695 5.85388 11.2695 5.77734 11.3468 5.77734C15.3677 7.99708 19.3886 10.2169 23.4868 12.4366Z" fill="#00F076"/>
<path d="M11.2695 25.3727C14.3625 22.3109 17.5328 19.2492 20.6258 16.1875C21.4763 17.0295 22.4042 17.8715 23.4094 18.7899C19.3886 21.0097 15.3677 23.2295 11.3468 25.3727H11.2695Z" fill="#F73866"/>
<path d="M23.95 18.4839C22.9448 17.5654 22.0169 16.6469 21.0117 15.7284C22.0169 14.7333 23.0222 13.7382 24.0273 12.7432C24.3366 12.8962 24.6459 13.0493 24.9552 13.2789C25.7285 13.7382 26.5791 14.1209 27.3523 14.5802C27.5843 14.6567 27.7389 14.8098 27.8935 15.0394C28.2028 15.4221 28.2028 15.8049 27.8935 16.1876C27.7389 16.3407 27.5843 16.4938 27.3523 16.5703C26.2698 17.2592 25.1099 17.8716 23.95 18.4839Z" fill="#FFC600"/>
<path d="M38.848 10.608H36.48L35.944 12H35.16L37.304 6.4H38.056L40.2 12H39.384L38.848 10.608ZM36.728 9.952H38.6L37.664 7.36L36.728 9.952ZM39.8828 7.76H40.6668L42.0428 11.28L43.2908 7.76H44.0428L42.4428 12H41.6428L39.8828 7.76ZM45.6452 12.08C45.4105 12.08 45.2025 12.048 45.0212 11.984C44.8452 11.9147 44.6959 11.8213 44.5732 11.704C44.4505 11.5867 44.3572 11.448 44.2932 11.288C44.2292 11.128 44.1972 10.952 44.1972 10.76C44.1972 10.3387 44.3199 10.0347 44.5652 9.848C44.8159 9.66133 45.1732 9.568 45.6372 9.568H47.0132V9.28C47.0132 8.91733 46.9305 8.66667 46.7652 8.528C46.6052 8.38933 46.3625 8.32 46.0372 8.32C45.7332 8.32 45.5119 8.37867 45.3732 8.496C45.2345 8.608 45.1572 8.736 45.1412 8.88H44.4372C44.4479 8.70933 44.4932 8.552 44.5732 8.408C44.6585 8.25867 44.7705 8.13067 44.9092 8.024C45.0532 7.91733 45.2239 7.83467 45.4212 7.776C45.6185 7.712 45.8372 7.68 46.0772 7.68C46.5785 7.68 46.9759 7.8 47.2692 8.04C47.5679 8.27467 47.7172 8.66133 47.7172 9.2V10.92C47.7172 11.144 47.7172 11.3413 47.7172 11.512C47.7225 11.6773 47.7359 11.84 47.7572 12H47.1412C47.1252 11.8773 47.1145 11.7627 47.1092 11.656C47.1039 11.544 47.1012 11.4187 47.1012 11.28C46.9892 11.504 46.8079 11.6933 46.5572 11.848C46.3065 12.0027 46.0025 12.08 45.6452 12.08ZM45.7972 11.44C45.9625 11.44 46.1172 11.4187 46.2612 11.376C46.4105 11.328 46.5412 11.2613 46.6532 11.176C46.7652 11.0853 46.8532 10.976 46.9172 10.848C46.9812 10.72 47.0132 10.5707 47.0132 10.4V10.112H45.7572C45.4959 10.112 45.2905 10.1653 45.1412 10.272C44.9919 10.3733 44.9172 10.536 44.9172 10.76C44.9172 10.9573 44.9865 11.12 45.1252 11.248C45.2692 11.376 45.4932 11.44 45.7972 11.44ZM48.8806 7.76H49.5846V12H48.8806V7.76ZM49.2326 7.2C49.094 7.2 48.9793 7.15467 48.8886 7.064C48.798 6.97333 48.7526 6.85867 48.7526 6.72C48.7526 6.58133 48.798 6.46667 48.8886 6.376C48.9793 6.28533 49.094 6.24 49.2326 6.24C49.3713 6.24 49.486 6.28533 49.5766 6.376C49.6673 6.46667 49.7126 6.58133 49.7126 6.72C49.7126 6.85867 49.6673 6.97333 49.5766 7.064C49.486 7.15467 49.3713 7.2 49.2326 7.2ZM52.0612 12.04C51.6186 12.04 51.3012 11.9333 51.1092 11.72C50.9172 11.5067 50.8212 11.16 50.8212 10.68V6.4H51.5252V10.68C51.5252 10.9573 51.5706 11.1467 51.6612 11.248C51.7519 11.3493 51.9119 11.4 52.1412 11.4C52.1999 11.4 52.2506 11.4 52.2932 11.4C52.3359 11.3947 52.3786 11.3893 52.4212 11.384V12.008C52.3786 12.0187 52.3172 12.0267 52.2372 12.032C52.1626 12.0373 52.1039 12.04 52.0612 12.04ZM54.3918 12.08C54.1571 12.08 53.9491 12.048 53.7678 11.984C53.5918 11.9147 53.4424 11.8213 53.3198 11.704C53.1971 11.5867 53.1038 11.448 53.0398 11.288C52.9758 11.128 52.9438 10.952 52.9438 10.76C52.9438 10.3387 53.0664 10.0347 53.3118 9.848C53.5624 9.66133 53.9198 9.568 54.3838 9.568H55.7598V9.28C55.7598 8.91733 55.6771 8.66667 55.5118 8.528C55.3518 8.38933 55.1091 8.32 54.7838 8.32C54.4798 8.32 54.2584 8.37867 54.1198 8.496C53.9811 8.608 53.9038 8.736 53.8878 8.88H53.1838C53.1944 8.70933 53.2398 8.552 53.3198 8.408C53.4051 8.25867 53.5171 8.13067 53.6558 8.024C53.7998 7.91733 53.9704 7.83467 54.1678 7.776C54.3651 7.712 54.5838 7.68 54.8238 7.68C55.3251 7.68 55.7224 7.8 56.0158 8.04C56.3144 8.27467 56.4638 8.66133 56.4638 9.2V10.92C56.4638 11.144 56.4638 11.3413 56.4638 11.512C56.4691 11.6773 56.4824 11.84 56.5038 12H55.8878C55.8718 11.8773 55.8611 11.7627 55.8558 11.656C55.8504 11.544 55.8478 11.4187 55.8478 11.28C55.7358 11.504 55.5544 11.6933 55.3038 11.848C55.0531 12.0027 54.7491 12.08 54.3918 12.08ZM54.5438 11.44C54.7091 11.44 54.8638 11.4187 55.0078 11.376C55.1571 11.328 55.2878 11.2613 55.3998 11.176C55.5118 11.0853 55.5998 10.976 55.6638 10.848C55.7278 10.72 55.7598 10.5707 55.7598 10.4V10.112H54.5038C54.2424 10.112 54.0371 10.1653 53.8878 10.272C53.7384 10.3733 53.6638 10.536 53.6638 10.76C53.6638 10.9573 53.7331 11.12 53.8718 11.248C54.0158 11.376 54.2398 11.44 54.5438 11.44ZM59.7072 12.08C59.3445 12.08 59.0299 12 58.7632 11.84C58.4965 11.6747 58.3099 11.4613 58.2032 11.2V12H57.5472V6.4H58.2512V8.52C58.3739 8.25867 58.5605 8.05333 58.8112 7.904C59.0672 7.75467 59.3659 7.68 59.7072 7.68C60.2352 7.68 60.6592 7.856 60.9792 8.208C61.3045 8.55467 61.4672 9.072 61.4672 9.76V9.92C61.4672 10.2827 61.4245 10.6 61.3392 10.872C61.2539 11.1387 61.1339 11.3627 60.9792 11.544C60.8245 11.72 60.6379 11.8533 60.4192 11.944C60.2059 12.0347 59.9685 12.08 59.7072 12.08ZM59.5472 11.456C59.7179 11.456 59.8779 11.424 60.0272 11.36C60.1765 11.2907 60.3045 11.192 60.4112 11.064C60.5232 10.936 60.6085 10.776 60.6672 10.584C60.7312 10.392 60.7632 10.1707 60.7632 9.92V9.76C60.7632 9.53067 60.7312 9.32533 60.6672 9.144C60.6085 8.96267 60.5232 8.81067 60.4112 8.688C60.3045 8.56 60.1765 8.464 60.0272 8.4C59.8779 8.336 59.7179 8.304 59.5472 8.304C59.3552 8.304 59.1792 8.336 59.0192 8.4C58.8592 8.45867 58.7232 8.544 58.6112 8.656C58.4992 8.76267 58.4112 8.89067 58.3472 9.04C58.2832 9.18933 58.2512 9.34933 58.2512 9.52V10.16C58.2512 10.352 58.2832 10.528 58.3472 10.688C58.4112 10.848 58.4992 10.984 58.6112 11.096C58.7232 11.208 58.8592 11.296 59.0192 11.36C59.1792 11.424 59.3552 11.456 59.5472 11.456ZM63.5891 12.04C63.1464 12.04 62.8291 11.9333 62.6371 11.72C62.4451 11.5067 62.3491 11.16 62.3491 10.68V6.4H63.0531V10.68C63.0531 10.9573 63.0984 11.1467 63.1891 11.248C63.2797 11.3493 63.4397 11.4 63.6691 11.4C63.7277 11.4 63.7784 11.4 63.8211 11.4C63.8637 11.3947 63.9064 11.3893 63.9491 11.384V12.008C63.9064 12.0187 63.8451 12.0267 63.7651 12.032C63.6904 12.0373 63.6317 12.04 63.5891 12.04ZM66.3934 12.08C66.1214 12.08 65.8628 12.0373 65.6174 11.952C65.3721 11.8667 65.1561 11.736 64.9694 11.56C64.7828 11.3787 64.6334 11.152 64.5214 10.88C64.4094 10.608 64.3534 10.288 64.3534 9.92V9.76C64.3534 9.408 64.4068 9.104 64.5134 8.848C64.6201 8.58667 64.7614 8.37067 64.9374 8.2C65.1188 8.024 65.3268 7.89333 65.5614 7.808C65.8014 7.72267 66.0521 7.68 66.3134 7.68C66.9374 7.68 67.4201 7.85067 67.7614 8.192C68.1028 8.53333 68.2734 9.016 68.2734 9.64V10.088H65.0574C65.0574 10.3387 65.0974 10.5493 65.1774 10.72C65.2574 10.8907 65.3614 11.0293 65.4894 11.136C65.6174 11.2427 65.7588 11.32 65.9134 11.368C66.0734 11.416 66.2334 11.44 66.3934 11.44C66.7134 11.44 66.9588 11.3867 67.1294 11.28C67.3054 11.1733 67.4308 11.0267 67.5054 10.84H68.1934C68.1508 11.0427 68.0734 11.2213 67.9614 11.376C67.8548 11.5307 67.7214 11.6613 67.5614 11.768C67.4068 11.8693 67.2281 11.9467 67.0254 12C66.8281 12.0533 66.6174 12.08 66.3934 12.08ZM66.3534 8.32C66.1881 8.32 66.0281 8.344 65.8734 8.392C65.7188 8.43467 65.5801 8.50667 65.4574 8.608C65.3401 8.704 65.2441 8.82667 65.1694 8.976C65.0948 9.12533 65.0574 9.304 65.0574 9.512H67.6094C67.6041 9.29333 67.5668 9.10933 67.4974 8.96C67.4334 8.80533 67.3454 8.68267 67.2334 8.592C67.1214 8.496 66.9881 8.42667 66.8334 8.384C66.6841 8.34133 66.5241 8.32 66.3534 8.32ZM71.0341 7.76H71.7381V12H71.0341V7.76ZM71.3861 7.2C71.2474 7.2 71.1327 7.15467 71.0421 7.064C70.9514 6.97333 70.9061 6.85867 70.9061 6.72C70.9061 6.58133 70.9514 6.46667 71.0421 6.376C71.1327 6.28533 71.2474 6.24 71.3861 6.24C71.5247 6.24 71.6394 6.28533 71.7301 6.376C71.8207 6.46667 71.8661 6.58133 71.8661 6.72C71.8661 6.85867 71.8207 6.97333 71.7301 7.064C71.6394 7.15467 71.5247 7.2 71.3861 7.2ZM72.9347 7.76H73.5907V8.56C73.6387 8.44267 73.7054 8.33067 73.7907 8.224C73.876 8.11733 73.9774 8.024 74.0947 7.944C74.2174 7.864 74.356 7.8 74.5107 7.752C74.6707 7.704 74.8467 7.68 75.0387 7.68C75.572 7.68 75.9667 7.824 76.2227 8.112C76.484 8.39467 76.6147 8.81067 76.6147 9.36V12H75.9107V9.52C75.9107 9.12533 75.828 8.82667 75.6627 8.624C75.4974 8.42133 75.22 8.32 74.8307 8.32C74.6227 8.32 74.4414 8.35467 74.2867 8.424C74.1374 8.49333 74.0147 8.584 73.9187 8.696C73.8227 8.808 73.7507 8.936 73.7027 9.08C73.66 9.224 73.6387 9.37067 73.6387 9.52V12H72.9347V7.76Z" fill="#1F2226"/>
</svg>
