<svg xmlns="http://www.w3.org/2000/svg" viewBox="0 0 54 21">
        <path fill-rule="evenodd" clip-rule="evenodd"
              d="M24.9502 16.5159V10.474H28.2468C29.5976 10.474 30.7378 10.0459 31.6672 9.20142L31.8903 8.98733C33.5882 7.23898 33.4766 4.51537 31.6672 2.89785C30.7626 2.04152 29.5233 1.57767 28.2468 1.60146H22.955V16.5159H24.9502ZM24.951 8.64295V3.43298H28.2977C29.0166 3.43298 29.6983 3.69467 30.2065 4.17047C31.2849 5.16964 31.3097 6.83492 30.2685 7.86978C29.7603 8.38126 29.0414 8.66674 28.2977 8.64295H24.951ZM41.1971 7.10816C40.342 6.35886 39.177 5.97827 37.7023 5.97827C35.8061 5.97827 34.381 6.64431 33.4391 7.96449L35.1989 9.02301C35.8433 8.11911 36.7232 7.66715 37.8386 7.66715C38.545 7.66715 39.2266 7.91692 39.7595 8.36887C40.28 8.79704 40.5775 9.4155 40.5775 10.0696V10.5097C39.8091 10.1053 38.8424 9.89124 37.6527 9.89124C36.2647 9.89124 35.1493 10.2005 34.319 10.8308C33.4887 11.4612 33.0673 12.2937 33.0673 13.3523C33.0425 14.3156 33.4763 15.2314 34.2446 15.8499C35.0254 16.5159 36.0168 16.849 37.1818 16.849C38.5574 16.849 39.648 16.2662 40.4783 15.1006H40.5651V16.5159H42.4736V10.2243C42.4736 8.90408 42.0522 7.85745 41.1971 7.10816ZM35.7817 14.6371C35.3727 14.3516 35.1248 13.8877 35.1248 13.3882C35.1248 12.8291 35.3975 12.3652 35.9304 11.9965C36.4758 11.6277 37.1576 11.4374 37.9632 11.4374C39.0788 11.4255 39.9464 11.6634 40.5662 12.1392C40.5662 12.948 40.2315 13.6498 39.5746 14.2446C38.9796 14.8155 38.1739 15.1367 37.3311 15.1367C36.7733 15.1486 36.2279 14.9702 35.7817 14.6371ZM46.762 20.9998L53.4294 6.31131H51.2607L48.1748 13.6377H48.1376L44.9774 6.31131H42.8086L47.1834 15.8618L44.7048 20.9998H46.762Z"
              fill="#3C4043"/>
        <path d="M18.0619 9.16585C18.0619 8.583 18.0123 8.00015 17.9131 7.4292H9.49829V10.7241H14.3192C14.1209 11.7827 13.4764 12.7343 12.5346 13.3291V15.4701H15.4098C17.0952 13.9833 18.0619 11.7827 18.0619 9.16585Z"
              fill="#4285F4"/>
        <path d="M9.498 17.5395C11.9022 17.5395 13.9347 16.7783 15.4095 15.4698L12.5343 13.3287C11.7287 13.8521 10.7001 14.1495 9.498 14.1495C7.16812 14.1495 5.19763 12.6388 4.49123 10.6167H1.5293V12.8291C3.04124 15.7196 6.1271 17.5395 9.498 17.5395Z"
              fill="#34A853"/>
        <path d="M4.49218 10.6173C4.12033 9.55869 4.12033 8.40489 4.49218 7.33434V5.13379H1.52978C0.253095 7.54845 0.253095 10.4032 1.52978 12.8179L4.49218 10.6173Z"
              fill="#FBBC04"/>
        <path d="M9.498 3.80218C10.7745 3.77839 12.0014 4.2423 12.9185 5.08683L15.4714 2.63648C13.8479 1.18531 11.7163 0.388349 9.498 0.412139C6.1271 0.412139 3.04124 2.24395 1.5293 5.13441L4.49123 7.34686C5.19763 5.31284 7.16812 3.80218 9.498 3.80218Z"
              fill="#EA4335"/>
	</svg>