<svg width="20" height="20" viewBox="0 0 20 20" fill="none" xmlns="http://www.w3.org/2000/svg">
<g clip-path="url(#clip0_174_12585)">
<path d="M9.97493 1.25631C9.67852 1.09634 9.32148 1.09634 9.02507 1.25631L0.631309 5.78628C-0.0689192 6.16418 -0.0687443 7.16883 0.631616 7.54649L2.81818 8.72556V13.7957C2.81818 14.1632 3.01973 14.501 3.34307 14.6756L9.02489 17.7435C9.3214 17.9036 9.6786 17.9036 9.97511 17.7435L15.6569 14.6756C15.9803 14.501 16.1818 14.1632 16.1818 13.7957V8.72556L18.0909 7.69611V13.2677C18.0909 13.7949 18.5183 14.2222 19.0455 14.2222V14.2222C19.5726 14.2222 20 13.7949 20 13.2677V7.26332C20 6.89578 19.7984 6.55786 19.4749 6.3833L9.97493 1.25631ZM16.01 6.66667L9.97493 9.92369C9.67852 10.0837 9.32148 10.0837 9.02507 9.92369L2.99 6.66667L9.02507 3.40965C9.32148 3.24968 9.67852 3.24968 9.97493 3.40965L16.01 6.66667ZM14.2727 13.2683L9.5 15.8467L4.72727 13.2683V9.755L9.0247 12.0766C9.32131 12.2368 9.67869 12.2368 9.9753 12.0766L14.2727 9.755V13.2683Z" fill="#1F2226" stroke="white" stroke-width="0.4"/>
</g>
<defs>
<clipPath id="clip0_174_12585">
<rect width="20" height="20" fill="white"/>
</clipPath>
</defs>
</svg>
