<svg xmlns="http://www.w3.org/2000/svg" width="20" height="19" viewBox="0 0 20 19">
  <g style="mix-blend-mode:luminosity">
    <path d="M9.64645 2.35355L10 2.70711L10.3536 2.35355C11.2936 1.41346 12.8138 0.5 14.5 0.5C17.2316 0.5 19.5 2.74484 19.5 6C19.5 9.30661 17.7312 11.9341 15.5945 13.9487C13.7003 15.7347 11.5666 16.9937 10.2223 17.7868C10.1456 17.8321 10.0714 17.8759 10 17.9181C9.92859 17.8759 9.85441 17.8321 9.77766 17.7868C8.43342 16.9937 6.29969 15.7347 4.40551 13.9487C2.26881 11.9341 0.5 9.30661 0.5 6C0.5 2.74715 2.80427 0.5 5.5 0.5C7.18616 0.5 8.70636 1.41346 9.64645 2.35355Z"
    />
  </g>
</svg>
