<svg width="22" height="20" viewBox="0 0 22 20" fill="none" xmlns="http://www.w3.org/2000/svg">
<path d="M7 11H15" stroke="#1F2226" stroke-width="1.4" stroke-linecap="round" stroke-linejoin="round"/>
<path d="M4 7V4.85714C4 4.09938 4.295 3.37266 4.8201 2.83684C5.3452 2.30102 6.05739 2 6.8 2H15.2C15.9426 2 16.6548 2.30102 17.1799 2.83684C17.705 3.37266 18 4.09938 18 4.85714V7" stroke="#1F2226" stroke-width="1.4" stroke-linecap="round" stroke-linejoin="round"/>
<path d="M6.71429 13.4286V9.85714C6.71429 9.29205 6.54672 8.73966 6.23277 8.2698C5.91882 7.79995 5.4726 7.43374 4.95052 7.21749C4.42845 7.00124 3.85397 6.94466 3.29974 7.0549C2.74551 7.16514 2.23642 7.43726 1.83684 7.83684C1.43726 8.23642 1.16514 8.74551 1.0549 9.29974C0.944657 9.85397 1.00124 10.4285 1.21749 10.9505C1.43374 11.4726 1.79995 11.9188 2.2698 12.2328C2.73965 12.5467 3.29205 12.7143 3.85714 12.7143V16.2857C3.85714 16.4752 3.9324 16.6568 4.06635 16.7908C4.20031 16.9247 4.38199 17 4.57143 17H17.4286C17.618 17 17.7997 16.9247 17.9336 16.7908C18.0676 16.6568 18.1429 16.4752 18.1429 16.2857V12.7143C18.7079 12.7143 19.2603 12.5467 19.7302 12.2328C20.2001 11.9188 20.5663 11.4726 20.7825 10.9505C20.9988 10.4285 21.0553 9.85397 20.9451 9.29974C20.8349 8.74551 20.5627 8.23642 20.1632 7.83684C19.7636 7.43726 19.2545 7.16514 18.7003 7.0549C18.146 6.94466 17.5715 7.00124 17.0495 7.21749C16.5274 7.43374 16.0812 7.79995 15.7672 8.2698C15.4533 8.73966 15.2857 9.29205 15.2857 9.85714V13.4286" stroke="#1F2226" stroke-width="1.4" stroke-linecap="round" stroke-linejoin="round"/>
</svg>
