<svg width="24" height="24" viewBox="0 0 24 24" fill="none" xmlns="http://www.w3.org/2000/svg">
<path d="M8.40106 12C8.40106 10.0118 10.0124 8.39971 12.0006 8.39971C13.9889 8.39971 15.6011 10.0118 15.6011 12C15.6011 13.9881 13.9889 15.6003 12.0006 15.6003C10.0124 15.6003 8.40106 13.9881 8.40106 12ZM6.45473 12C6.45473 15.0629 8.93762 17.5457 12.0006 17.5457C15.0636 17.5457 17.5465 15.0629 17.5465 12C17.5465 8.93712 15.0636 6.45433 12.0006 6.45433C8.93762 6.45433 6.45473 8.93712 6.45473 12ZM16.47 6.23444C16.4699 6.49076 16.5458 6.74136 16.6882 6.95454C16.8305 7.16773 17.0328 7.33392 17.2696 7.43211C17.5064 7.53029 17.767 7.55606 18.0184 7.50616C18.2698 7.45625 18.5008 7.33291 18.6822 7.15173C18.8635 6.97056 18.987 6.73968 19.0371 6.4883C19.0872 6.23692 19.0617 5.97633 18.9637 5.73948C18.8657 5.50263 18.6996 5.30015 18.4865 5.15766C18.2735 5.01517 18.0229 4.93906 17.7666 4.93896H17.7661C17.4225 4.93912 17.093 5.07564 16.85 5.31854C16.607 5.56144 16.4703 5.89086 16.47 6.23444V6.23444ZM7.63725 20.7909C6.58425 20.743 6.01192 20.5676 5.63157 20.4194C5.12732 20.2231 4.76753 19.9893 4.38926 19.6116C4.01099 19.2338 3.77683 18.8744 3.58139 18.3702C3.43312 17.99 3.25772 17.4175 3.20985 16.3646C3.15749 15.2262 3.14704 14.8842 3.14704 12.0001C3.14704 9.11596 3.15836 8.77494 3.20985 7.63559C3.25781 6.58263 3.4345 6.01127 3.58139 5.62998C3.7777 5.12575 4.0115 4.76598 4.38926 4.38772C4.76702 4.00947 5.12645 3.77532 5.63157 3.57988C6.01174 3.43162 6.58425 3.25623 7.63725 3.20836C8.7757 3.15601 9.11769 3.14555 12.0006 3.14555C14.8836 3.14555 15.2259 3.15687 16.3653 3.20836C17.4183 3.25632 17.9897 3.433 18.371 3.57988C18.8752 3.77532 19.235 4.00998 19.6133 4.38772C19.9916 4.76547 20.2249 5.12575 20.4212 5.62998C20.5694 6.01014 20.7448 6.58263 20.7927 7.63559C20.8451 8.77494 20.8555 9.11596 20.8555 12.0001C20.8555 14.8842 20.8451 15.2252 20.7927 16.3646C20.7447 17.4175 20.5685 17.9898 20.4212 18.3702C20.2249 18.8744 19.991 19.2342 19.6133 19.6116C19.2355 19.989 18.8752 20.2231 18.371 20.4194C17.9908 20.5677 17.4183 20.7431 16.3653 20.7909C15.2268 20.8433 14.8849 20.8537 12.0006 20.8537C9.11639 20.8537 8.77536 20.8433 7.63725 20.7909V20.7909ZM7.54783 1.2654C6.39805 1.31776 5.61239 1.50006 4.92626 1.76704C4.21568 2.04274 3.61413 2.41262 3.01303 3.01276C2.41192 3.61289 2.04297 4.21536 1.76726 4.92591C1.50027 5.61244 1.31796 6.39765 1.2656 7.54737C1.21238 8.69891 1.2002 9.06706 1.2002 12C1.2002 14.9329 1.21238 15.3011 1.2656 16.4526C1.31796 17.6024 1.50027 18.3875 1.76726 19.0741C2.04297 19.7842 2.412 20.3874 3.01303 20.9872C3.61405 21.5871 4.21568 21.9565 4.92626 22.233C5.61368 22.4999 6.39805 22.6822 7.54783 22.7346C8.70002 22.7869 9.06758 22.8 12.0006 22.8C14.9337 22.8 15.3018 22.7878 16.4534 22.7346C17.6033 22.6822 18.3884 22.4999 19.075 22.233C19.7851 21.9565 20.3871 21.5874 20.9882 20.9872C21.5893 20.3871 21.9575 19.7842 22.234 19.0741C22.501 18.3875 22.6842 17.6023 22.7357 16.4526C22.788 15.3002 22.8002 14.9329 22.8002 12C22.8002 9.06706 22.788 8.69891 22.7357 7.54737C22.6833 6.39756 22.501 5.61201 22.234 4.92591C21.9575 4.21579 21.5884 3.61384 20.9882 3.01276C20.3881 2.41167 19.7851 2.04274 19.0759 1.76704C18.3884 1.50006 17.6032 1.3169 16.4543 1.2654C15.3027 1.21304 14.9345 1.2 12.0015 1.2C9.06844 1.2 8.70002 1.21218 7.54783 1.2654Z" fill="#1F2226"/>
</svg>
