<svg xmlns="http://www.w3.org/2000/svg" viewBox="0 0 10 14">
  <path
    d="M3.26831 12.2706C2.86957 13.8001 3.46824 14.1169 4.53922 13.0003L9.03795 8.07725C10.0788 6.8673 9.81811 5.89517 8.31917 5.65214L6.15014 5.26957C6.02343 5.24723 5.93973 5.13128 5.9632 5.0106C5.96397 5.00662 5.96486 5.00266 5.96586 4.99872L6.80056 1.71878C7.20042 0.179613 6.53396 -0.0991276 5.53426 0.991621C4.09786 2.53409 3.00628 3.6993 2.25953 4.48726C1.99918 4.76197 1.58011 5.19077 1.00232 5.77365C-0.263979 7.11192 0.402484 8.08246 1.86716 8.32549L3.94008 8.67939C4.06693 8.70105 4.15132 8.81654 4.12858 8.93734C4.12771 8.94199 4.12668 8.94661 4.12549 8.9512L3.26831 12.2706Z"
    fill="#FCBC00"/>
</svg>
