<svg width="16" height="14" viewBox="0 0 16 14" fill="none" xmlns="http://www.w3.org/2000/svg">
<path d="M1.47135 5.22664H3.47135V13.2266H1.47135C1.29454 13.2266 1.12497 13.1564 0.99995 13.0314C0.874925 12.9064 0.804688 12.7368 0.804688 12.56V5.8933C0.804687 5.71649 0.874925 5.54692 0.99995 5.4219C1.12497 5.29687 1.29454 5.22664 1.47135 5.22664ZM5.00002 4.36464L9.26669 0.0979702C9.32339 0.0410995 9.39873 0.00661472 9.47883 0.000857903C9.55894 -0.00489891 9.63843 0.0184593 9.70269 0.0666368L10.2714 0.493303C10.4293 0.611867 10.5486 0.774539 10.6142 0.960807C10.6798 1.14708 10.6888 1.3486 10.64 1.53997L9.87136 4.55997H14.138C14.4916 4.55997 14.8308 4.70045 15.0808 4.95049C15.3309 5.20054 15.4714 5.53968 15.4714 5.8933V7.29597C15.4715 7.47021 15.4376 7.6428 15.3714 7.80397L13.308 12.814C13.2577 12.9361 13.1722 13.0406 13.0624 13.114C12.9526 13.1875 12.8235 13.2267 12.6914 13.2266H5.47135C5.29454 13.2266 5.12497 13.1564 4.99995 13.0314C4.87493 12.9064 4.80469 12.7368 4.80469 12.56V4.83597C4.80473 4.65917 4.87499 4.48963 5.00002 4.36464Z" fill="#26AD4F"/>
</svg>
