<svg xmlns="http://www.w3.org/2000/svg" viewBox="0 0 16 14">
  <path
    d="M1.33366 5.22664H3.33366V13.2266H1.33366C1.15685 13.2266 0.987279 13.1564 0.862254 13.0314C0.73723 12.9063 0.666992 12.7368 0.666992 12.56V5.8933C0.666992 5.71649 0.73723 5.54692 0.862254 5.4219C0.987279 5.29687 1.15685 5.22664 1.33366 5.22664ZM4.86233 4.36464L9.12899 0.0979702C9.1857 0.0410995 9.26103 0.00661472 9.34114 0.000857903C9.42124 -0.00489891 9.50074 0.0184593 9.56499 0.0666368L10.1337 0.493303C10.2916 0.611867 10.4109 0.774539 10.4765 0.960807C10.5421 1.14708 10.5511 1.3486 10.5023 1.53997L9.73366 4.55997H14.0003C14.3539 4.55997 14.6931 4.70045 14.9431 4.95049C15.1932 5.20054 15.3337 5.53968 15.3337 5.8933V7.29597C15.3338 7.47021 15.2999 7.6428 15.2337 7.80397L13.1703 12.814C13.12 12.9361 13.0345 13.0406 12.9247 13.114C12.8149 13.1875 12.6858 13.2267 12.5537 13.2266H5.33366C5.15685 13.2266 4.98728 13.1564 4.86225 13.0314C4.73723 12.9063 4.66699 12.7368 4.66699 12.56V4.83597C4.66703 4.65917 4.73729 4.48963 4.86233 4.36464Z"/>
</svg>
