<svg xmlns="http://www.w3.org/2000/svg" viewBox="0 0 14 14">
        <path d="M13.467 0.931611L9.28839 13.4683C9.26689 13.5332 9.22595 13.5899 9.17113 13.6307C9.11631 13.6716 9.05026 13.6945 8.98192 13.6966C8.91359 13.6986 8.84629 13.6796 8.78913 13.6421C8.73198 13.6046 8.68773 13.5504 8.66239 13.4869L6.33373 7.66494L0.433732 4.71494C0.373652 4.68492 0.324043 4.63746 0.291403 4.57876C0.258762 4.52006 0.244615 4.45288 0.250812 4.386C0.257009 4.31913 0.283263 4.25568 0.326135 4.20399C0.369005 4.15229 0.426493 4.11474 0.491065 4.09628L13.0597 0.504944C13.1181 0.488309 13.1799 0.487937 13.2385 0.503868C13.2971 0.5198 13.3502 0.55143 13.3921 0.595344C13.4341 0.639259 13.4632 0.69379 13.4764 0.753051C13.4896 0.812313 13.4864 0.874054 13.467 0.931611Z"/>
</svg>
