<svg width="134" height="30" viewBox="0 0 134 30" fill="none" xmlns="http://www.w3.org/2000/svg">
<path fill-rule="evenodd" clip-rule="evenodd" d="M65.4314 7.15449C65.3702 7.1745 65.309 7.19395 65.2468 7.21187C64.7241 7.36096 64.1906 7.43938 63.6254 7.40783C63.5287 7.40268 63.4312 7.3942 63.3328 7.38231C63.579 6.91357 63.8343 6.45344 64.1044 6.00573C64.9147 4.66272 65.8594 3.43293 67.0978 2.42391C65.7152 3.21062 64.6031 4.27858 63.6103 5.4825C63.279 5.88475 62.9617 6.3028 62.6515 6.73022C62.6512 6.72902 62.6519 6.72764 62.6515 6.7264C62.5836 6.35349 62.5977 6.00037 62.6346 5.64983C62.6399 5.59971 62.6455 5.54973 62.6515 5.49976C62.8263 4.01836 63.4242 2.7953 64.4132 1.82781C64.7431 1.5052 65.1163 1.2112 65.5316 0.945285C66.1721 0.534613 66.8713 0.292482 67.6021 0.156682C67.8937 0.102569 68.1902 0.065345 68.4898 0.0410457C68.9063 0.00520007 69.3223 -0.0203055 69.7387 0.0253632C69.7532 0.0267419 69.7676 0.0282929 69.782 0.0298439C69.9005 0.0446647 69.941 0.0965372 69.9522 0.200283C70.152 2.35343 69.6153 4.22497 67.9123 5.67397C67.811 5.76012 67.708 5.84356 67.6046 5.92593C66.9455 6.45379 66.2389 6.89222 65.4314 7.15449ZM56.8779 3.29334C56.8779 2.15335 55.9529 1.23222 54.8099 1.23222C53.6668 1.23222 52.7418 2.15335 52.7418 3.29334V3.30041H52.7348V22.2605H52.7418C52.7418 23.4005 53.6668 24.3252 54.8099 24.3252C55.9529 24.3252 56.8779 23.4039 56.8779 22.2639H56.8849V3.29696H56.8779V3.29334ZM49.6081 6.47327H42.9539L42.9574 6.46964C42.9117 6.46964 42.873 6.5086 42.873 6.55442V11.5344C42.873 11.5482 42.8765 11.5613 42.8825 11.573C42.8906 11.5883 42.9029 11.6013 42.9176 11.6101C42.9296 11.6171 42.943 11.6216 42.9574 11.6226H49.3233C50.4804 11.6226 51.4194 12.5649 51.4194 13.7261C51.4194 14.8873 50.4804 15.8296 49.3233 15.8296C49.2705 15.8296 49.2177 15.8262 49.165 15.8226H42.9539C42.9307 15.8226 42.9088 15.8327 42.8934 15.8489C42.8786 15.8643 42.8695 15.885 42.8695 15.9074V21.9603C42.88 22.038 42.8835 22.1226 42.8835 22.2038C42.8835 23.432 41.8882 24.4308 40.6643 24.4308C39.4403 24.4308 38.445 23.4356 38.445 22.2038V22.098V15.8226H38.438V11.6192H38.445V6.46964H38.438V5.22746C38.438 3.57199 39.7744 2.2309 41.4239 2.2309H49.6081C50.7723 2.2309 51.7149 3.17684 51.7149 4.34511C51.7149 5.51317 50.7723 6.45912 49.6081 6.45912V6.47327ZM18.7354 2.23435C17.6521 2.24141 16.7096 2.85561 16.2382 3.75556L16.2067 3.71313L10.822 12.4733C10.7868 12.5262 10.7095 12.5262 10.6778 12.4733L5.39521 3.71677L5.34945 3.73435C4.87116 2.84148 3.92852 2.23797 2.84885 2.23435C1.28369 2.23435 0 3.57563 0 5.14611V22.4226H0.014082C0.119611 23.5485 1.06568 24.4308 2.21577 24.4308C3.36585 24.4308 4.31192 23.5485 4.41746 22.4226H4.42801V10.3803C4.42801 10.292 4.54049 10.2638 4.58625 10.3379L10.6743 20.5061C10.7059 20.5626 10.7868 20.5626 10.8185 20.5061L17.0121 10.3168C17.0577 10.2425 17.1703 10.2745 17.1703 10.3627V22.4226H17.1809C17.2863 23.5485 18.2325 24.4308 19.3826 24.4308C20.5326 24.4308 21.4787 23.5485 21.5842 22.4226H21.5947V5.14611C21.5947 3.56857 20.3075 2.22384 18.7354 2.23435ZM35.8986 8.64383C34.8365 8.31552 33.7111 8.90507 33.3874 9.96026C33.3769 9.99559 33.3664 10.0344 33.3594 10.0697L30.4648 18.971C30.4402 19.0485 30.3346 19.0485 30.303 18.9744L26.9478 10.4014C26.9371 10.3231 26.9219 10.2446 26.9018 10.1666C26.8821 10.0902 26.8577 10.0142 26.8281 9.93909C26.4272 8.93677 25.2701 8.45684 24.2431 8.86975C23.2161 9.28265 22.7097 10.4297 23.1106 11.432C23.1176 11.4461 23.1247 11.4603 23.1282 11.4778H23.1247L27.9712 22.7897C27.9712 22.7897 28.4987 23.7425 28.1822 24.3743C26.8141 27.4379 24.1798 26.8061 24.1798 26.8061C24.1798 27.6532 24.9184 29.9756 27.3381 29.9756C30.7075 29.9756 32.8142 23.4215 32.8142 23.4215L37.1894 11.2979L37.2017 11.2652C37.2126 11.2361 37.2239 11.2061 37.2316 11.178L37.2386 11.1602V11.1461C37.5657 10.0909 36.9678 8.9685 35.9022 8.64037L35.8986 8.64383ZM96.0017 16.398C96.0017 11.5063 99.3535 8.08269 104.161 8.08269V8.08615C108.885 8.08615 112.124 11.4391 112.314 15.9815C112.321 16.0335 112.325 16.0871 112.326 16.141L112.328 16.1765L112.328 16.2215C112.328 16.246 112.327 16.2705 112.326 16.2946L112.324 16.3282L112.321 16.3768C112.243 17.372 111.413 18.1557 110.404 18.1557H100.395C100.335 18.1557 100.293 18.2156 100.314 18.2721C100.975 19.9062 102.473 21.0462 104.218 21.0462C105.653 21.0462 106.634 20.8485 107.291 20.3827C107.633 20.0861 108.079 19.9097 108.565 19.9097C109.644 19.9097 110.52 20.7886 110.52 21.872C110.52 22.718 109.658 23.405 109.393 23.6166C109.318 23.676 109.29 23.6981 109.342 23.6757C108.062 24.4133 106.345 24.7133 104.161 24.7133C99.4343 24.7133 96.0017 21.2897 96.0017 16.398ZM100.282 14.9368H108.136C108.192 14.9368 108.234 14.8803 108.216 14.8239C107.615 13.0273 106.068 11.7427 104.218 11.7427C102.368 11.7427 100.792 13.0273 100.201 14.8239C100.183 14.8803 100.226 14.9368 100.282 14.9368ZM66.1981 7.88864C61.4853 7.88864 57.6657 11.7215 57.6657 16.4509C57.6657 21.1805 61.4853 25.0133 66.1981 25.0133C70.911 25.0133 74.7305 21.1805 74.7305 16.4509C74.7305 11.7215 70.911 7.88864 66.1981 7.88864ZM66.2509 20.8346C63.8382 20.8346 61.8792 18.8722 61.8792 16.4475C61.8792 14.0227 63.8347 12.0603 66.2509 12.0603C68.6671 12.0603 70.6226 14.0227 70.6226 16.4475C70.6226 18.8722 68.6671 20.8346 66.2509 20.8346ZM117.385 11.2662C117.417 11.1497 118.3 8.20625 122.017 8.20625H122.021C122.021 8.20625 122.439 10.6381 121.177 11.9051C120.658 12.4274 120.011 12.7943 119.412 13.1337C118.798 13.4823 118.234 13.8018 117.913 14.2309C117.366 14.9594 117.37 15.4536 117.382 16.8004C117.383 17.0131 117.385 17.2469 117.385 17.5063C117.385 19.0416 117.378 21.3357 117.378 22.165C117.385 22.2145 117.385 22.2639 117.385 22.3134C117.385 22.3663 117.382 22.4192 117.378 22.4721V22.4792C117.294 23.538 116.411 24.3745 115.331 24.3745C114.252 24.3745 113.369 23.5416 113.285 22.4792H113.277V10.5286C113.306 9.41327 114.213 8.52044 115.331 8.52044C116.45 8.52044 117.357 9.41327 117.385 10.5286V11.2662ZM128.421 14.7048L128.415 14.7033C126.889 14.2945 125.812 14.0062 125.812 12.8581C125.812 11.8911 127.877 11.1004 129.196 12.1381C129.561 12.5758 130.128 12.8546 130.761 12.8546C131.865 12.8546 132.762 12.004 132.762 10.9522C132.762 10.1545 132.245 9.46982 131.513 9.18753C131.513 9.18753 129.628 8.10044 127.406 8.10044C125.183 8.10044 121.782 9.40279 121.782 12.8546C121.782 15.9968 123.46 16.6734 125.542 17.5123L125.544 17.5128L125.546 17.5139C125.75 17.5961 125.957 17.6798 126.168 17.7675C126.185 17.7746 126.208 17.782 126.236 17.7898C126.274 17.8001 126.321 17.811 126.376 17.8227C126.457 17.8399 126.556 17.8591 126.669 17.8809L126.678 17.8825C127.743 18.0876 129.986 18.5196 129.924 19.7792C129.832 21.611 126.262 21.4028 125.478 20.4639C125.119 19.9522 124.507 19.6169 123.815 19.6169C122.71 19.6169 121.813 20.4675 121.813 21.5193C121.813 21.9604 121.972 22.3663 122.235 22.6875C122.235 22.6875 123.378 24.8298 127.743 24.8298C132.108 24.8298 134.049 22.3029 133.958 19.7192C133.859 17.0157 132.758 15.9499 129.319 14.944L129.312 14.9511C129.002 14.8608 128.704 14.7807 128.421 14.7048ZM94.9008 8.52732C95.9525 8.86629 96.5328 9.99923 96.2127 11.0756L96.2092 11.0791L92.8363 22.3663H92.8293C92.3721 23.8697 90.7824 24.7238 89.2736 24.2685C88.2642 23.965 87.5432 23.1533 87.311 22.1967L85.25 15.3004L83.189 22.2003C82.9569 23.1533 82.2359 23.9614 81.23 24.2651C79.7212 24.7204 78.135 23.8697 77.6743 22.3663H77.6673L74.2944 11.0756H74.3014C73.9849 9.99923 74.5617 8.86629 75.6133 8.52732C76.679 8.18507 77.822 8.78857 78.1702 9.87566L78.1807 9.90736H78.1843L80.4809 17.5909L82.7213 10.0909C82.7353 10.0414 82.7494 9.99217 82.767 9.94269C82.8208 9.78294 82.8992 9.63266 82.9977 9.49187C83.0171 9.46413 83.0371 9.43671 83.0582 9.40967C83.0765 9.38589 83.0955 9.36245 83.1152 9.33919C83.5794 8.78857 84.3673 8.42857 85.2571 8.42857C86.1469 8.42857 86.9347 8.79203 87.399 9.33919C87.5537 9.52272 87.6733 9.72383 87.7472 9.94269C87.7647 9.99217 87.7788 10.0414 87.7929 10.0909L90.0332 17.5909L92.3299 9.90736H92.3334L92.3359 9.90065L92.3404 9.89066C92.3422 9.88565 92.3439 9.88067 92.3439 9.87566C92.6921 8.78857 93.8352 8.18507 94.9008 8.52732Z" fill="#00AB45"/>
</svg>
