<svg width="24" height="24" viewBox="0 0 24 24" fill="none" xmlns="http://www.w3.org/2000/svg">
<path d="M15.9998 15L15.9998 9L9.99984 9L9.99984 5.96568C9.99984 5.74477 9.82076 5.56568 9.59984 5.56568C9.49376 5.56568 9.39201 5.60783 9.317 5.68284L3.28268 11.7172C3.12647 11.8734 3.12647 12.1266 3.28268 12.2828L9.317 18.3172C9.47321 18.4734 9.72648 18.4734 9.88269 18.3172C9.9577 18.2421 9.99984 18.1404 9.99984 18.0343L9.99984 15L15.9998 15ZM17.9998 18L17.9998 6C17.9998 5.44771 18.4476 5 18.9998 5C19.5521 5 19.9998 5.44771 19.9998 6L19.9998 18C19.9998 18.5523 19.5521 19 18.9998 19C18.4476 19 17.9998 18.5523 17.9998 18Z" fill="#DB1838"/>
</svg>
