<svg width="20" height="19" viewBox="0 0 20 19" fill="none" xmlns="http://www.w3.org/2000/svg">
<path d="M19.7541 10.1399C19.5087 9.98525 19.1839 10.0588 19.0292 10.3049C18.5384 11.086 18.0397 11.3756 17.7628 11.315C17.5387 11.2667 17.3607 10.9594 17.2984 10.5124C17.2313 10.0305 17.2768 9.37778 17.3908 8.68742C18.5117 8.32393 19.4221 6.96481 19.7367 5.77953C20.0026 4.77702 19.7363 4.29617 19.4659 4.06923C19.124 3.78241 18.7061 3.74065 18.3197 3.95493C17.5225 4.3961 16.8739 6.0876 16.5193 7.72772C16.2822 7.69316 16.0655 7.5874 15.8718 7.4108C15.9694 6.9518 16.0549 6.55002 16.1268 6.26319C16.4143 5.11388 16.2914 4.28662 15.7804 3.93408C15.612 3.81772 15.1537 3.59661 14.5164 4.04053C13.8418 4.50978 13.902 5.90553 14.3497 6.9837C14.4596 7.24826 14.5889 7.48615 14.7354 7.69596C14.4983 8.79599 14.1064 10.5196 13.7658 11.2182C13.4115 10.1979 13.1477 7.12468 13.0926 4.4612C13.0867 4.18909 12.8742 3.96593 12.6024 3.94779C12.3358 3.92588 12.0901 4.12132 12.0476 4.39036C12.0086 4.63815 11.8826 5.07489 11.6831 5.40623C11.5893 4.50711 11.285 3.941 10.7939 3.76129C10.6156 3.69557 10.1477 3.59906 9.67161 4.11554C9.23316 4.59127 9.1791 5.40658 9.54325 6.05448C9.78319 6.48093 10.1641 6.76263 10.6118 6.86703C10.4657 8.38943 10.0022 10.5981 9.32214 11.1751C9.19241 11.2854 9.12192 11.2713 9.08631 11.2631C8.95488 11.2165 8.59379 10.6843 8.37917 9.40666C8.19144 8.28792 8.19 7.10391 8.33536 6.15958C8.4607 5.63802 8.5994 5.12751 8.736 4.80471C8.822 4.64735 8.91777 4.52323 9.02265 4.43969C9.24994 4.25897 9.28722 3.92799 9.10615 3.70109C8.99926 3.56668 8.83992 3.49917 8.68058 3.50351C8.5888 3.50215 8.49553 3.52419 8.41032 3.57343C8.17392 3.71012 7.98829 3.94446 7.82716 4.27996C7.56373 4.75122 7.38972 5.35549 7.28869 6.01619C7.22201 6.29903 7.15362 6.60539 7.08059 6.93691C6.68972 8.71051 6.20338 10.9178 5.28916 11.4651C4.6943 11.8207 3.92145 11.1995 2.9734 10.3493C2.87141 10.2575 2.76977 10.1665 2.66914 10.0782C2.85086 9.47101 3.05178 8.69097 3.30027 7.69701C3.9013 5.29258 4.8093 1.6584 5.84773 1.21036C6.27935 1.02452 6.49122 1.04024 6.5172 1.04984C6.62195 1.21584 6.43369 2.15946 5.36854 3.40187C5.17959 3.62228 5.20495 3.95427 5.42536 4.14322C5.64577 4.33183 5.97746 4.3065 6.16672 4.0864C7.1326 2.95965 8.02593 1.32501 7.36431 0.426904C7.15279 0.139071 6.61954 -0.267881 5.43084 0.245179C4.02427 0.851861 3.23775 3.61084 2.2801 7.44186C2.12576 8.06033 1.9457 8.78048 1.76775 9.41366C1.42822 9.23536 1.09176 9.16894 0.75363 9.30037C0.0628768 9.56972 -0.156174 10.5637 0.109447 11.2725C0.351059 11.9177 0.942539 12.1959 1.58357 11.967C1.85979 11.8677 2.07608 11.622 2.28966 11.1479C3.01559 11.7996 3.94419 12.6255 4.92374 12.6252C5.22221 12.6252 5.52542 12.5485 5.82903 12.3671C6.55706 11.9313 7.03989 11.0057 7.40404 9.91227C7.42385 10.0097 7.44474 10.1048 7.46678 10.1971C7.76662 11.456 8.23858 12.1607 8.8694 12.2918C9.14904 12.3493 9.57207 12.3421 10.0026 11.9766C11.0496 11.0881 11.5346 8.42286 11.6705 6.79023C11.8344 6.72381 11.9806 6.63177 12.1103 6.5229C12.392 12.2829 13.2569 12.4304 13.6036 12.4896C13.6532 12.4982 13.7015 12.5023 13.7487 12.5023C14.5791 12.5023 15.0343 11.189 15.6305 8.52174C15.8506 8.64186 16.0861 8.72335 16.3332 8.76339C16.225 9.52323 16.1939 10.2047 16.2572 10.6575C16.3835 11.5672 16.8641 12.1973 17.5421 12.3432C18.3536 12.517 19.2195 11.978 19.9191 10.8649C20.0738 10.6187 19.9999 10.2943 19.7541 10.1399ZM18.7838 4.89676C18.8157 5.0511 18.7934 5.49744 18.4755 6.16383C18.2636 6.60811 17.9908 6.99281 17.7047 7.26934C18.0236 6.11078 18.4553 5.1021 18.7838 4.89676ZM1.18314 10.9908C1.16023 10.9963 1.14823 10.9973 1.14893 10.9987C1.12602 10.9823 1.05995 10.8755 1.05206 10.6766C1.04352 10.4579 1.11265 10.3032 1.11848 10.284C1.11949 10.284 1.12054 10.284 1.12155 10.284C1.19239 10.284 1.3091 10.347 1.44636 10.4429C1.3505 10.7054 1.26117 10.9001 1.18314 10.9908ZM10.4599 5.53919C10.3104 5.27256 10.3316 4.95082 10.4445 4.82828C10.45 4.82246 10.4555 4.81698 10.4602 4.81185C10.5307 4.94193 10.6296 5.23353 10.656 5.76166C10.579 5.7086 10.5136 5.63434 10.4599 5.53919ZM15.1257 5.93006C15.0305 5.44338 15.0545 5.02477 15.1374 4.88957C15.1593 4.8752 15.1781 4.86425 15.1945 4.85571C15.2356 5.00046 15.2643 5.33863 15.1257 5.93006Z" fill="#1F2226"/>
<path d="M13.8461 13.0256C13.048 12.6066 11.6567 12.6066 10.5402 13.4157C10.3933 13.5225 10.2561 13.6382 10.1281 13.7614C9.51136 13.1755 8.68273 12.8537 7.91058 12.903C7.35406 12.9366 6.87487 13.1608 6.59593 13.5177C6.22972 13.986 6.09588 14.5945 6.24615 15.1051C6.3817 15.5658 6.73284 15.9156 7.23494 16.0905C7.50976 16.186 7.80859 16.0405 7.9044 15.7667C7.99956 15.4922 7.85477 15.1927 7.5806 15.0973C7.31227 15.0042 7.26916 14.8566 7.25475 14.8084C7.20033 14.6232 7.26846 14.3648 7.42416 14.1652C7.49535 14.0742 7.67707 13.9705 7.97384 13.9524C8.48143 13.9246 9.03181 14.1502 9.44455 14.5633C9.45208 14.5708 9.45962 14.5784 9.4668 14.5859C8.90139 15.5073 8.72374 16.5714 8.95821 17.2942C9.14681 17.8754 9.59622 18.2225 10.1606 18.2225C10.8123 18.2225 11.3161 17.909 11.5427 17.3627C11.8552 16.609 11.5738 15.5634 10.8229 14.5524C10.9255 14.4504 11.0368 14.3545 11.1576 14.2673C12.0105 13.6481 12.9596 13.7477 13.3574 13.9565C13.6428 14.1064 13.7243 14.4712 13.6561 14.7389C13.6004 14.9576 13.472 15.0682 13.2745 15.0682C13.2718 15.0682 13.269 15.0682 13.266 15.0682C12.9648 15.0774 12.7365 15.2954 12.732 15.5857C12.7275 15.8759 12.9589 16.1148 13.2495 16.1196C13.2578 16.1196 13.266 16.1196 13.2745 16.1196C13.9526 16.1196 14.5008 15.6822 14.6751 14.9987C14.8469 14.3244 14.6172 13.4301 13.8461 13.0256ZM10.5713 16.9599C10.545 17.0232 10.4837 17.171 10.1606 17.171C10.1062 17.171 10.0237 17.171 9.95835 16.9698C9.84782 16.6289 9.91695 16.0501 10.1819 15.4768C10.5778 16.109 10.6942 16.6635 10.5713 16.9599Z" fill="#1F2226"/>
</svg>
