<svg xmlns="http://www.w3.org/2000/svg" viewBox="0 0 49 28">
	<path fill-rule="evenodd" clip-rule="evenodd"
	              d="M24.5279 24.3139C22.0086 26.3704 18.7406 27.6119 15.1696 27.6119C7.20155 27.6119 0.742188 21.4308 0.742188 13.806C0.742188 6.18114 7.20155 0 15.1696 0C18.7406 0 22.0086 1.2415 24.5279 3.29806C27.0472 1.2415 30.3152 0 33.8862 0C41.8542 0 48.3136 6.18114 48.3136 13.806C48.3136 21.4308 41.8542 27.6119 33.8862 27.6119C30.3152 27.6119 27.0472 26.3704 24.5279 24.3139Z"
	              fill="#ED0006"/>
	        <path fill-rule="evenodd" clip-rule="evenodd"
	              d="M24.528 24.3138C27.63 21.7815 29.597 18.0136 29.597 13.806C29.597 9.59837 27.63 5.8304 24.528 3.29813C27.0473 1.24153 30.3153 0 33.8864 0C41.8544 0 48.3138 6.18114 48.3138 13.806C48.3138 21.4308 41.8544 27.6119 33.8864 27.6119C30.3153 27.6119 27.0473 26.3704 24.528 24.3138Z"
	              fill="#F9A000"/>
	        <path fill-rule="evenodd" clip-rule="evenodd"
	              d="M24.5279 24.3138C21.4259 21.7816 19.4589 18.0136 19.4589 13.806C19.4589 9.59838 21.4259 5.83039 24.5279 3.29813C27.63 5.83039 29.597 9.59838 29.597 13.806C29.597 18.0136 27.63 21.7816 24.5279 24.3138Z"
	              fill="#FF5E00"/>
	</svg>
