<svg width="32" height="32" viewBox="0 0 32 32" fill="none" xmlns="http://www.w3.org/2000/svg">
<path d="M15.9987 1.33331C24.0989 1.33331 30.6654 7.8998 30.6654 16C30.6654 24.1002 24.0989 30.6666 15.9987 30.6666C7.89852 30.6666 1.33203 24.1002 1.33203 16C1.33203 7.8998 7.89852 1.33331 15.9987 1.33331ZM15.9987 3.73331C9.22401 3.73331 3.73203 9.22529 3.73203 16C3.73203 22.7747 9.22401 28.2666 15.9987 28.2666C22.7734 28.2666 28.2654 22.7747 28.2654 16C28.2654 9.22529 22.7734 3.73331 15.9987 3.73331ZM17.6692 9.33333C20.1413 9.33333 22.1454 11.3374 22.1454 13.8095C22.1454 16.2817 20.1413 18.2857 17.6692 18.2857L14.6654 18.2853V20H16.6654C17.2177 20 17.6654 20.4477 17.6654 21C17.6654 21.5523 17.2177 22 16.6654 22H14.6654V22.8667C14.6654 23.4926 14.158 24 13.532 24C12.9061 24 12.3987 23.4926 12.3987 22.8667L12.3974 22H11.332C10.7797 22 10.332 21.5523 10.332 21C10.332 20.4477 10.7797 20 11.332 20H12.3974V18.2853L11.4749 18.2857C10.8437 18.2857 10.332 17.774 10.332 17.1429C10.332 16.5117 10.8437 16 11.4749 16H12.3974L12.3987 10.4667C12.3987 9.84074 12.9061 9.33333 13.532 9.33333H17.6692ZM17.713 11.4286H14.6654V16H17.713C18.9753 16 19.9987 14.9766 19.9987 13.7143C19.9987 12.4519 18.9753 11.4286 17.713 11.4286Z" fill="#009959"/>
</svg>
