<svg width="20" height="20" viewBox="0 0 20 20" fill="none" xmlns="http://www.w3.org/2000/svg">
<path d="M14.2717 2.14282C15.8576 2.14282 17.1431 3.4284 17.1431 5.01425V14.9857C17.1431 16.5715 15.8576 17.8571 14.2717 17.8571H5.72885C4.143 17.8571 2.85742 16.5715 2.85742 14.9857V5.01425C2.85742 3.4284 4.143 2.14282 5.72885 2.14282H14.2717ZM14.2789 3.57139H5.72171C4.92878 3.57139 4.28599 4.21418 4.28599 5.00711V14.9928C4.28599 15.7857 4.92878 16.4285 5.72171 16.4285H14.2789C15.0718 16.4285 15.7146 15.7857 15.7146 14.9928V5.00711C15.7146 4.21418 15.0718 3.57139 14.2789 3.57139ZM13.5681 7.85711C13.9646 7.85711 14.286 8.1785 14.286 8.57497V14.2821C14.286 14.6786 13.9646 15 13.5681 15H6.43242C6.03596 15 5.71456 14.6786 5.71456 14.2821V8.57497C5.71456 8.1785 6.03596 7.85711 6.43242 7.85711H13.5681ZM10.7146 4.99997C11.1091 4.99997 11.4289 5.31976 11.4289 5.71425C11.4289 6.10874 11.1091 6.42854 10.7146 6.42854H6.42885C6.03436 6.42854 5.71456 6.10874 5.71456 5.71425C5.71456 5.31976 6.03436 4.99997 6.42885 4.99997H10.7146Z" fill="#009959"/>
</svg>
