<svg xmlns="http://www.w3.org/2000/svg" viewBox="0 0 17 18">
        <path d="M8.71401 0.428711C11.0358 0.428711 13.202 1.35912 14.7856 2.94925L14.7854 1.85728L14.7902 1.77398C14.8315 1.41874 15.1334 1.143 15.4997 1.143C15.8942 1.143 16.214 1.46279 16.214 1.85728V4.71442L16.2092 4.79772C16.1679 5.15297 15.866 5.42871 15.4997 5.42871H12.6426L12.5593 5.4239C12.204 5.38264 11.9283 5.08074 11.9283 4.71442C11.9283 4.31994 12.2481 4.00014 12.6426 4.00014L13.8159 4.0004C12.4924 2.64873 10.6701 1.85728 8.71401 1.85728C4.76911 1.85728 1.57115 5.05525 1.57115 9.00014C1.57115 12.945 4.76911 16.143 8.71401 16.143C10.6352 16.143 12.4342 15.3819 13.7656 14.0501C14.0445 13.7711 14.4968 13.771 14.7757 14.0499C15.0547 14.3288 15.0548 14.7811 14.7759 15.0601C13.1792 16.6573 11.0181 17.5716 8.71401 17.5716C3.98014 17.5716 0.142578 13.734 0.142578 9.00014C0.142578 4.26627 3.98014 0.428711 8.71401 0.428711ZM8.35686 4.71442C8.75135 4.71442 9.07115 5.03422 9.07115 5.42871V8.70427L11.0048 10.6379C11.2837 10.9169 11.2837 11.3691 11.0048 11.6481C10.7259 11.927 10.2736 11.927 9.99464 11.6481L7.85179 9.50521C7.71783 9.37126 7.64258 9.18958 7.64258 9.00014V5.42871C7.64258 5.03422 7.96237 4.71442 8.35686 4.71442Z"/>
</svg>
