<svg width="32" height="32" viewBox="0 0 32 32" fill="none" xmlns="http://www.w3.org/2000/svg">
<rect width="32" height="32" rx="12" fill="#F7F7F7"/>
<path d="M12.062 25.2174L12.4265 23.0277L11.6147 23.0099H7.73828L10.4322 6.85158C10.4405 6.8028 10.4677 6.75732 10.5074 6.72502C10.5472 6.69273 10.5981 6.67493 10.6511 6.67493H17.1873C19.3573 6.67493 20.8548 7.10207 21.6367 7.94514C22.0031 8.34065 22.2366 8.75395 22.3496 9.20877C22.4679 9.68603 22.4701 10.2562 22.3544 10.9516L22.346 11.0024V11.448L22.7126 11.6444C23.0213 11.7993 23.2665 11.9766 23.4546 12.1797C23.7684 12.5178 23.9712 12.9476 24.0568 13.4571C24.1453 13.9812 24.116 14.6048 23.9712 15.3107C23.8039 16.1228 23.5335 16.8301 23.1684 17.4089C22.8324 17.9421 22.4045 18.3844 21.8966 18.7272C21.4116 19.0528 20.8353 19.3001 20.1838 19.4583C19.5523 19.6137 18.8326 19.6923 18.0431 19.6923H17.5344C17.1707 19.6923 16.8173 19.8162 16.54 20.0384C16.262 20.2651 16.0779 20.5748 16.0215 20.9137L15.9832 21.1109L15.3393 24.9702L15.31 25.1119C15.3024 25.1569 15.2891 25.1793 15.2697 25.1944C15.2522 25.2081 15.2272 25.2174 15.2027 25.2174H12.062Z" fill="#253B80"/>
<path d="M23.059 11.0544C23.0396 11.1724 23.0173 11.2931 22.9922 11.417C22.1301 15.6034 19.1812 17.0496 15.4147 17.0496H13.497C13.0365 17.0496 12.6483 17.366 12.5765 17.7958L11.5946 23.6862L11.3166 25.3558C11.2699 25.638 11.4999 25.8924 11.8008 25.8924H15.2023C15.605 25.8924 15.9471 25.6156 16.0104 25.2399L16.0439 25.0763L16.6844 21.232L16.7255 21.0212C16.7881 20.6442 17.1309 20.3673 17.5337 20.3673H18.0424C21.3377 20.3673 23.9176 19.1017 24.6716 15.4393C24.9865 13.9093 24.8234 12.6318 23.99 11.7334C23.7378 11.4625 23.4249 11.2377 23.059 11.0544Z" fill="#179BD7"/>
<path d="M22.1551 10.7126C22.0235 10.6763 21.8875 10.6434 21.7481 10.6137C21.6081 10.5847 21.4644 10.559 21.3168 10.5366C20.7997 10.4575 20.2332 10.4199 19.6262 10.4199H14.5031C14.3769 10.4199 14.2572 10.4469 14.1499 10.4957C13.9136 10.6032 13.7381 10.8148 13.6955 11.0738L12.6055 17.6036L12.5742 17.7941C12.646 17.3643 13.0342 17.0479 13.4947 17.0479H15.4124C19.1789 17.0479 22.128 15.601 22.9899 11.4153C23.0156 11.2913 23.0373 11.1707 23.0567 11.0527C22.8387 10.9433 22.6024 10.8497 22.348 10.7699C22.2855 10.7502 22.2207 10.7311 22.1551 10.7126Z" fill="#222D65"/>
<path d="M13.6993 11.075C13.7418 10.8159 13.9176 10.6043 14.1537 10.4975C14.2618 10.4487 14.3809 10.4217 14.5069 10.4217H19.6302C20.2372 10.4217 20.8037 10.4593 21.3206 10.5384C21.4684 10.5608 21.6121 10.5865 21.7521 10.6155C21.8915 10.6452 22.0273 10.6781 22.1591 10.7144C22.2245 10.7328 22.2892 10.752 22.3526 10.7711C22.607 10.8508 22.8433 10.9451 23.0613 11.0539C23.3179 9.50678 23.0593 8.45343 22.1751 7.4996C21.2002 6.44955 19.4406 6 17.1892 6H10.6527C10.1928 6 9.80062 6.31639 9.72941 6.74683L7.00699 23.0712C6.95323 23.3942 7.2166 23.6856 7.56082 23.6856H11.5963L12.6095 17.6047L13.6993 11.075Z" fill="#253B80"/>
</svg>
