<svg xmlns="http://www.w3.org/2000/svg" viewBox="0 0 24 26">
        <path d="M7.21275 24.5377L7.66632 21.8127L6.65608 21.7905H1.83203L5.18453 1.68224C5.19476 1.62153 5.22871 1.56493 5.27814 1.52474C5.32756 1.48455 5.39097 1.4624 5.45687 1.4624H13.591C16.2915 1.4624 18.1549 1.99396 19.128 3.04313C19.584 3.53533 19.8746 4.04965 20.0151 4.61567C20.1624 5.20959 20.1652 5.91915 20.0211 6.78458L20.0107 6.84775V7.40226L20.467 7.64673C20.8511 7.83949 21.1562 8.06015 21.3903 8.31282C21.7808 8.73363 22.0331 9.26848 22.1397 9.90257C22.2498 10.5547 22.2134 11.3307 22.0331 12.2093C21.8249 13.2199 21.4884 14.1001 21.0341 14.8203C20.616 15.484 20.0835 16.0343 19.4515 16.461C18.8479 16.8662 18.1307 17.1739 17.3199 17.3708C16.5341 17.5642 15.6384 17.662 14.6559 17.662H14.0228C13.5703 17.662 13.1304 17.8162 12.7854 18.0927C12.4394 18.3748 12.2103 18.7602 12.1401 19.182L12.0925 19.4273L11.2912 24.23L11.2547 24.4064C11.2452 24.4624 11.2288 24.4902 11.2045 24.5091C11.1828 24.5261 11.1516 24.5377 11.1212 24.5377H7.21275Z"
              fill="#253B80"/>
        <path d="M20.8978 6.91284C20.8736 7.05967 20.8459 7.20978 20.8147 7.364C19.7418 12.5738 16.072 14.3736 11.3848 14.3736H8.99832C8.42518 14.3736 7.94215 14.7673 7.85278 15.3021L6.63086 22.6325L6.28487 24.7103C6.22671 25.0614 6.51303 25.3781 6.88747 25.3781H11.1204C11.6217 25.3781 12.0473 25.0335 12.1262 24.566L12.1678 24.3624L12.9649 19.5784L13.0161 19.316C13.094 18.8468 13.5206 18.5023 14.0218 18.5023H14.6549C18.7558 18.5023 21.9662 16.9273 22.9046 12.3695C23.2965 10.4656 23.0935 8.87585 22.0563 7.75775C21.7426 7.4206 21.3531 7.14088 20.8978 6.91284Z"
              fill="#179BD7"/>
        <path d="M19.7726 6.48824C19.6088 6.44311 19.4396 6.40209 19.2661 6.36519C19.0918 6.32911 18.9131 6.29711 18.7294 6.26922C18.0858 6.17078 17.3809 6.12402 16.6255 6.12402H10.25C10.093 6.12402 9.94398 6.15765 9.81043 6.21836C9.51637 6.35206 9.29795 6.6154 9.24503 6.93777L7.88855 15.0638L7.84961 15.3008C7.93898 14.766 8.42201 14.3722 8.99515 14.3722H11.3816C16.0688 14.3722 19.7389 12.5717 20.8115 7.36269C20.8435 7.20847 20.8704 7.05836 20.8946 6.91153C20.6233 6.77535 20.3292 6.65887 20.0127 6.5596C19.9348 6.53499 19.8542 6.51121 19.7726 6.48824Z"
              fill="#222D65"/>
        <path d="M9.24912 6.93837C9.30204 6.61598 9.52072 6.35267 9.81453 6.21977C9.94908 6.15906 10.0974 6.12544 10.2541 6.12544H16.6299C17.3852 6.12544 18.0902 6.17219 18.7335 6.27063C18.9174 6.29852 19.0962 6.33052 19.2704 6.3666C19.4439 6.40353 19.6129 6.44455 19.7769 6.48965C19.8583 6.51262 19.9389 6.5364 20.0178 6.56021C20.3343 6.65945 20.6284 6.77676 20.8997 6.91212C21.219 4.98684 20.8972 3.67599 19.7969 2.48899C18.5837 1.18225 16.394 0.622803 13.5921 0.622803H5.45778C4.88539 0.622803 4.39736 1.01653 4.30875 1.5522L0.920803 21.8672C0.853903 22.2691 1.18166 22.6318 1.61002 22.6318H6.63203L7.8929 15.0644L9.24912 6.93837Z"
              fill="#253B80"/>
	</svg>