<svg width="14" height="14" viewBox="0 0 14 14" fill="none" xmlns="http://www.w3.org/2000/svg">
<path d="M13.0202 0.979879C13.4676 1.42721 13.7189 2.03393 13.7189 2.66655C13.7189 3.29917 13.4676 3.90588 13.0202 4.35321L5.04157 12.3332C4.857 12.5179 4.62744 12.6511 4.37557 12.7199L0.964905 13.6499C0.879898 13.6729 0.790307 13.6731 0.705199 13.6505C0.620092 13.6278 0.542487 13.583 0.480239 13.5207C0.417991 13.4584 0.373309 13.3807 0.350715 13.2956C0.328121 13.2105 0.328416 13.1209 0.351571 13.0359L1.28157 9.62521C1.3503 9.37335 1.48359 9.14378 1.66824 8.95921L9.6469 0.979879C10.0942 0.532554 10.701 0.28125 11.3336 0.28125C11.9662 0.28125 12.5729 0.532554 13.0202 0.979879V0.979879ZM9.00024 3.03988L2.3749 9.66655C2.31343 9.72809 2.26909 9.80461 2.24624 9.88855L1.54624 12.4552L4.1129 11.7552C4.1965 11.7318 4.27255 11.687 4.33357 11.6252L10.9602 4.99988L9.00024 3.03988ZM10.3536 1.68655L9.7069 2.33321L11.6669 4.29321L12.3136 3.64655C12.5692 3.38574 12.7115 3.03461 12.7097 2.66945C12.7078 2.30429 12.5619 1.95461 12.3037 1.6964C12.0455 1.43818 11.6958 1.29231 11.3307 1.29046C10.9655 1.28862 10.6144 1.43096 10.3536 1.68655V1.68655Z" fill="#1F2226" stroke="#1F2226" stroke-width="0.2"/>
</svg>
