<svg xmlns="http://www.w3.org/2000/svg" viewBox="0 0 16 16">
  <path
    d="M14.8074 1.19268C14.5508 0.935774 14.1345 0.935774 13.8779 1.19268L1.1926 13.878C0.935801 14.1346 0.935801 14.5506 1.1926 14.8073C1.32094 14.9358 1.48922 15 1.65739 15C1.82556 15 1.99384 14.9358 2.12208 14.8073L14.8074 2.12204C15.0642 1.86536 15.0642 1.44936 14.8074 1.19268Z"
    stroke-width="0.4"/>
  <path
    d="M4 1C2.34588 1 1 2.34596 1 4.00005C1 5.65414 2.34588 7 4 7C5.65423 7 7 5.65404 7 3.99995C7 2.34586 5.65412 1 4 1ZM4 5.73678C3.04226 5.73678 2.26314 4.95756 2.26314 3.99995C2.26314 3.04233 3.04237 2.26312 4 2.26312C4.95774 2.26312 5.73686 3.04233 5.73686 3.99995C5.73686 4.95756 4.95774 5.73678 4 5.73678Z"
    stroke-width="0.4"/>
  <path
    d="M12 9C10.3459 9 9 10.3459 9 12C9 13.6541 10.3459 15 12 15C13.6541 15 15 13.6542 15 12C15 10.3458 13.6541 9 12 9ZM12 13.7368C11.0423 13.7368 10.2631 12.9575 10.2631 11.9999C10.2631 11.0423 11.0424 10.263 12 10.263C12.9576 10.263 13.7369 11.0423 13.7369 11.9999C13.7369 12.9575 12.9577 13.7368 12 13.7368Z"
    stroke-width="0.4"/>
</svg>
