<svg width="24" height="24" viewBox="0 0 24 24" fill="none" xmlns="http://www.w3.org/2000/svg">
<path d="M13.9235 14.9621L13.2564 15.6295C13.0782 15.8079 12.8125 15.8666 12.5757 15.7799C11.9122 15.5358 11.0821 14.9162 10.0855 13.9192C9.08976 12.9232 8.46945 12.0928 8.22637 11.4282C8.1394 11.1915 8.19772 10.9258 8.37582 10.7473L9.04385 10.08C10.2746 8.84887 10.3871 6.90988 9.30223 5.62293L8.51897 4.69171C7.62496 3.62811 6.01432 3.52094 4.92045 4.45125C4.51363 4.80194 4.20779 5.25493 4.03454 5.76342C3.95967 5.98477 3.91132 6.21423 3.8905 6.44697C3.48986 9.42164 4.92405 12.544 8.19216 15.8132C11.4603 19.0823 14.5807 20.5161 17.5553 20.1153C18.3281 20.0415 19.0427 19.6725 19.5504 19.085C20.4813 17.9917 20.3733 16.3797 19.3109 15.4854L18.38 14.7009C17.0917 13.6175 15.1542 13.731 13.9235 14.9621ZM11.3708 12.6337C11.8469 13.1099 12.262 13.4711 12.5977 13.7171C14.5273 11.7868 17.53 11.6109 19.5511 13.3105L20.4813 14.0943C22.3256 15.6468 22.51 18.4132 20.9255 20.274C20.1119 21.2155 18.9666 21.8069 17.798 21.9172C14.1789 22.4047 10.5394 20.7325 6.90683 17.0987C3.27415 13.4649 1.60167 9.82341 2.08007 6.28495C2.1137 5.90896 2.19181 5.53829 2.31405 5.17694C2.5917 4.36204 3.08183 3.63607 3.74302 3.06616C5.59455 1.49147 8.3588 1.67594 9.90985 3.52124L10.6918 4.45095C12.3933 6.46935 12.219 9.4751 10.3283 11.3664C10.5336 11.7422 10.8946 12.1573 11.3708 12.6337Z" fill="#009959"/>
</svg>
