<svg width="32" height="32" viewBox="0 0 32 32" fill="none" xmlns="http://www.w3.org/2000/svg">
<path d="M26.2863 13.7313C26.2863 8.04171 21.6817 3.42857 16.0006 3.42857C10.3194 3.42857 5.71484 8.04171 5.71484 13.7313C5.71484 17.7858 8.20533 22.6798 13.121 28.4917C14.466 30.0821 16.8457 30.2809 18.4361 28.9358C18.5962 28.8004 18.7447 28.6518 18.8801 28.4917C23.7958 22.6798 26.2863 17.7858 26.2863 13.7313ZM16.96 27.1906C16.3335 27.7205 15.3961 27.6422 14.8662 27.0156C10.2673 21.5782 8.00056 17.1239 8.00056 13.7313C8.00056 9.30313 11.5828 5.71428 16.0006 5.71428C20.4184 5.71428 24.0006 9.30313 24.0006 13.7313C24.0006 17.1239 21.7338 21.5782 17.1349 27.0157C17.0816 27.0787 17.0231 27.1372 16.96 27.1906ZM11.4291 13.7143C11.4291 11.1902 13.4765 9.14286 16.0006 9.14286C18.5246 9.14286 20.572 11.1902 20.572 13.7143C20.572 16.2384 18.5246 18.2857 16.0006 18.2857C13.4765 18.2857 11.4291 16.2384 11.4291 13.7143ZM13.7148 13.7143C13.7148 14.976 14.7388 16 16.0006 16C17.2623 16 18.2863 14.976 18.2863 13.7143C18.2863 12.4526 17.2623 11.4286 16.0006 11.4286C14.7388 11.4286 13.7148 12.4526 13.7148 13.7143Z" fill="#009959"/>
</svg>
