<svg width="19" height="19" viewBox="0 0 19 19" fill="none" xmlns="http://www.w3.org/2000/svg">
<path fill-rule="evenodd" clip-rule="evenodd" d="M0.427734 8.49523C0.427734 13.0126 4.03659 16.6966 8.50469 16.6966C9.05311 16.6966 9.60152 16.6476 10.2316 16.5913C10.9344 16.5285 11.7387 16.4566 12.758 16.4335C14.3046 16.4335 15.9802 17.0036 17.8276 18.6702C17.9994 18.8456 18.2572 18.6263 18.0853 18.4071C16.238 16.0826 14.5624 15.644 12.8869 15.2493C10.8247 14.7669 9.75061 13.6266 9.02025 12.3108C8.89136 12.0477 8.80543 12.0916 8.80543 12.4424C8.76247 12.9687 8.80543 13.4511 8.89136 13.9336H8.63358C5.71213 13.9336 3.30623 11.4776 3.30623 8.49523C3.30623 5.51291 5.71213 3.05689 8.63358 3.05689C11.555 3.05689 13.9609 5.51291 13.9609 8.49523C13.9609 8.67066 13.9609 8.88995 13.918 9.10924C13.4884 9.02152 12.758 9.02152 12.1995 9.06538C11.9847 9.06538 11.9847 9.1531 12.1565 9.19695C13.875 9.54782 15.078 10.6443 15.3787 12.6617C15.3787 12.7494 15.4217 12.7494 15.4646 12.7056C16.152 11.4776 16.5817 10.0302 16.5817 8.49523C16.5817 3.93404 12.9728 0.25 8.50469 0.25C4.03659 0.25 0.427734 3.9779 0.427734 8.49523ZM14.3475 11.8723C14.6483 12.0039 14.7772 12.4425 14.7772 12.6618C14.8201 13.0127 14.7342 13.1882 14.6053 13.1882C14.4764 13.1882 14.3046 13.0566 14.1327 12.7495C13.9609 12.4425 13.875 12.1355 13.9609 11.96C14.0898 11.8723 14.2187 11.8284 14.3475 11.8723ZM12.5861 13.2319C12.7579 13.2319 12.9728 13.3196 13.1876 13.495C13.5313 13.8021 13.6602 14.153 13.4883 14.4162C13.4024 14.5478 13.1876 14.6355 13.0157 14.6355C12.8009 14.6355 12.5861 14.5478 12.4572 14.4162C12.1135 14.1091 12.0276 13.6705 12.2424 13.4073C12.2854 13.3196 12.4142 13.2319 12.5861 13.2319Z" fill="#F28A1A"/>
</svg>
