<svg width="23" height="22" viewBox="0 0 23 22" fill="none" xmlns="http://www.w3.org/2000/svg">
<path d="M13.3354 10.0326C13.0007 9.86512 12.6593 9.72085 12.3118 9.6C13.4371 8.71083 14.1663 7.29498 14.1663 5.70316C14.1663 3.01798 12.0912 0.833374 9.54049 0.833374C6.98977 0.833374 4.91463 3.01798 4.91463 5.70316C4.91463 7.29673 5.64552 8.71398 6.7729 9.60297C5.73997 9.96097 4.77075 10.518 3.92245 11.2526C2.36694 12.5995 1.28541 14.4783 0.877144 16.5429C0.749185 17.1897 0.902485 17.8542 1.29766 18.3657C1.69089 18.8748 2.27398 19.1667 2.89738 19.1667H11.2752C11.6509 19.1667 11.9555 18.8461 11.9555 18.4506C11.9555 18.055 11.6509 17.7344 11.2752 17.7344H2.89738C2.60698 17.7344 2.43177 17.5638 2.3532 17.4621C2.21752 17.2864 2.165 17.0578 2.20912 16.8348C2.91507 13.2649 5.90609 10.6572 9.36015 10.5693C9.41998 10.5717 9.48008 10.573 9.54049 10.573C9.60147 10.573 9.66219 10.5717 9.72259 10.5692C10.7811 10.5954 11.7991 10.8497 12.7513 11.3262C13.0907 11.4959 13.4964 11.3441 13.6577 10.9868C13.819 10.6296 13.6747 10.2024 13.3354 10.0326ZM9.7064 9.13626C9.6512 9.13522 9.59589 9.13468 9.54049 9.13468C9.48559 9.13468 9.43069 9.13526 9.37586 9.13633C7.65154 9.04577 6.27518 7.54051 6.27518 5.70316C6.27518 3.80771 7.73997 2.26567 9.54049 2.26567C11.341 2.26567 12.8058 3.80771 12.8058 5.70316C12.8058 7.54004 11.4301 9.04502 9.7064 9.13626Z" fill="#1F2226" stroke="#1F2226" stroke-width="0.2"/>
<path d="M17.5459 14.0414C18.0159 13.6013 18.5582 13.3623 19.1629 13.3357L19.277 13.3333C20.5925 13.3333 21.6663 14.4 21.6663 15.7154C21.6663 16.9482 21.2349 17.5599 19.3442 19.0743L18.9554 19.3825L17.9703 20.1502C17.6936 20.3659 17.3057 20.3659 17.029 20.1502L15.909 19.2762C13.8027 17.6119 13.333 17.0018 13.333 15.7154C13.333 14.4 14.4068 13.3333 15.7223 13.3333C16.3641 13.3333 16.9424 13.5733 17.4465 14.0395L17.4972 14.0887L17.5459 14.0414Z" stroke="#1F2226" stroke-width="1.3"/>
</svg>
