<svg xmlns="http://www.w3.org/2000/svg" viewBox="0 0 11 16">
  <path
    d="M0 15.5313C0 15.7902 0.209875 16 0.46875 16H1.40625C2.73022 16 3.91347 15.3868 4.6875 14.4297V15.5313C4.6875 15.7902 4.89737 16 5.15625 16C5.41513 16 5.625 15.7902 5.625 15.5313V14.4297C6.39903 15.3868 7.58228 16 8.90625 16H9.84375C10.1026 16 10.3125 15.7902 10.3125 15.5313C10.3125 13.9058 9.38834 12.4923 8.03797 11.7881C9.38784 11.105 10.3116 9.73459 10.3116 8.15869C10.3116 8.12203 10.3115 8.66978 10.3125 2.8125C10.3125 1.26169 9.05081 0 7.5 0C7.14422 0 6.79994 0.0651563 6.47372 0.193406C6.06362 0.0670312 5.61669 3.125e-05 5.15625 3.125e-05C4.69581 3.125e-05 4.24884 0.0670312 3.83878 0.193438C3.51256 0.0651875 3.16828 3.125e-05 2.8125 3.125e-05C1.26169 3.125e-05 0 1.26172 0 2.81253V8.095C0 9.70256 0.911875 11.1028 2.26263 11.7944C0.91875 12.5007 0 13.9106 0 15.5313ZM9.34163 15.0625H8.90625C7.25609 15.0625 5.88653 13.8381 5.65837 12.25H6.09375C7.74391 12.25 9.11347 13.4745 9.34163 15.0625ZM9.375 8.15872C9.37409 9.89763 7.90203 11.3123 6.09244 11.3123C4.03547 11.3123 2.81159 10.6263 2.81159 8.50003C2.81159 7.21856 3.8225 6.85394 5.94662 6.56159C7.19403 6.38997 8.48778 5.91703 9.375 5.00253V8.15872ZM5.258 5.70525C4.70709 5.58278 3.7245 5.49119 2.8125 5.09881V3.99344C3.47703 4.47344 4.33619 4.68753 5.15625 4.68753C5.97628 4.68753 6.83534 4.4735 7.5 3.99344V5.15628C7.5 5.16006 7.50047 5.16372 7.50056 5.16747C6.62769 5.56025 5.85344 5.62175 5.27944 5.71119C5.27228 5.70922 5.26531 5.70688 5.258 5.70525V5.70525ZM9.375 2.81172L9.37422 3.26534C9.17231 3.82759 8.83606 4.25963 8.4375 4.59169V2.34378C8.4375 1.83644 8.22231 1.36041 7.82269 0.965906C8.70325 1.11934 9.375 1.88866 9.375 2.81172V2.81172ZM7.5 2.34378C7.5 2.79591 7.12238 3.20638 6.55003 3.46559C6.55797 3.40522 6.5625 3.34378 6.5625 3.28128C6.5625 2.50587 5.93166 1.87503 5.15625 1.87503C4.89737 1.87503 4.6875 2.08491 4.6875 2.34378C4.6875 2.60266 4.89737 2.81253 5.15625 2.81253C5.41472 2.81253 5.625 3.02281 5.625 3.28128C5.625 3.53975 5.41472 3.75003 5.15625 3.75003C3.88581 3.75003 2.8125 3.10606 2.8125 2.34378C2.8125 1.5815 3.88581 0.937531 5.15625 0.937531C6.42669 0.937531 7.5 1.5815 7.5 2.34378ZM2.48981 0.965906C2.09019 1.36041 1.875 1.83644 1.875 2.34378V4.53928C1.47784 4.21256 1.14434 3.78062 0.9375 3.20203V2.81253C0.9375 1.88872 1.60925 1.11938 2.48981 0.965906ZM0.9375 8.095V4.94944C1.57775 5.61113 2.39906 6.00459 3.28966 6.25491C3.26556 6.26669 3.24112 6.27806 3.21744 6.29034C2.32603 6.752 1.87406 7.49544 1.87406 8.50003C1.87406 9.59809 2.17162 10.3639 2.57509 10.8981C1.58391 10.339 0.9375 9.28434 0.9375 8.095V8.095ZM4.21875 12.25H4.65413C4.426 13.8381 3.05644 15.0625 1.40625 15.0625H0.970875C1.19903 13.4745 2.56859 12.25 4.21875 12.25Z"/>
</svg>
