<svg width="20" height="20" viewBox="0 0 20 20" fill="none" xmlns="http://www.w3.org/2000/svg">
<path d="M13.8374 12.7933L17 15.9552L15.9552 17L12.7933 13.8374C11.6168 14.7805 10.1535 15.2935 8.64566 15.2913C4.97726 15.2913 2 12.3141 2 8.64566C2 4.97726 4.97726 2 8.64566 2C12.3141 2 15.2913 4.97726 15.2913 8.64566C15.2935 10.1535 14.7805 11.6168 13.8374 12.7933ZM12.3562 12.2454C13.2933 11.2817 13.8166 9.98988 13.8145 8.64566C13.8145 5.78951 11.5011 3.47681 8.64566 3.47681C5.78951 3.47681 3.47681 5.78951 3.47681 8.64566C3.47681 11.5011 5.78951 13.8145 8.64566 13.8145C9.98988 13.8166 11.2817 13.2933 12.2454 12.3562L12.3562 12.2454Z" fill="#1F2226"/>
</svg>
