<svg xmlns="http://www.w3.org/2000/svg" viewBox="0 0 18 18">
  <path
    d="M13.3374 12.2933L16.5 15.4552L15.4552 16.5L12.2933 13.3374C11.1168 14.2805 9.65349 14.7935 8.14566 14.7913C4.47726 14.7913 1.5 11.8141 1.5 8.14566C1.5 4.47726 4.47726 1.5 8.14566 1.5C11.8141 1.5 14.7913 4.47726 14.7913 8.14566C14.7935 9.65349 14.2805 11.1168 13.3374 12.2933ZM11.8562 11.7454C12.7933 10.7817 13.3166 9.48988 13.3145 8.14566C13.3145 5.2895 11.0011 2.97681 8.14566 2.97681C5.2895 2.97681 2.97681 5.2895 2.97681 8.14566C2.97681 11.0011 5.2895 13.3145 8.14566 13.3145C9.48988 13.3166 10.7817 12.7933 11.7454 11.8562L11.8562 11.7454V11.7454Z"
  />
</svg>
