<svg width="20" height="20" viewBox="0 0 20 20" fill="none" xmlns="http://www.w3.org/2000/svg">
<path d="M10 12.1875C11.2081 12.1875 12.1875 11.2081 12.1875 10C12.1875 8.79188 11.2081 7.8125 10 7.8125C8.79188 7.8125 7.8125 8.79188 7.8125 10C7.8125 11.2081 8.79188 12.1875 10 12.1875Z" stroke="#1F2226" stroke-width="1.3" stroke-linecap="round" stroke-linejoin="round"/>
<path d="M8.98438 8.0625C8.41406 6.85938 7.8125 5.35938 7.8125 4.375C7.8125 3.79484 8.04297 3.23844 8.4532 2.8282C8.86344 2.41797 9.41984 2.1875 10 2.1875C10.5802 2.1875 11.1366 2.41797 11.5468 2.8282C11.957 3.23844 12.1875 3.79484 12.1875 4.375C12.1875 5.35938 11.5859 6.85938 11.0156 8.0625" stroke="#1F2226" stroke-width="1.3" stroke-linecap="round" stroke-linejoin="round"/>
<path d="M7.81213 9.9067C6.48401 9.80514 4.88245 9.57076 4.03088 9.07857C3.56279 8.77232 3.2298 8.29837 3.10038 7.75416C2.97095 7.20996 3.05493 6.63685 3.33504 6.15265C3.61516 5.66845 4.07012 5.30996 4.60641 5.15088C5.14269 4.99179 5.71955 5.0442 6.21838 5.29733C7.06995 5.7817 8.06995 7.05514 8.82776 8.1567" stroke="#1F2226" stroke-width="1.3" stroke-linecap="round" stroke-linejoin="round"/>
<path d="M8.8285 11.8438C8.07068 12.9453 7.07068 14.2188 6.21912 14.7031C5.97028 14.8659 5.69085 14.9763 5.39791 15.0275C5.10497 15.0786 4.80468 15.0695 4.51537 15.0007C4.22607 14.9319 3.95383 14.8049 3.71529 14.6273C3.47675 14.4497 3.27692 14.2254 3.12801 13.968C2.9791 13.7106 2.88423 13.4255 2.84921 13.1302C2.81419 12.8349 2.83974 12.5356 2.92431 12.2505C3.00888 11.9654 3.1507 11.7005 3.34108 11.4721C3.53147 11.2437 3.76643 11.0564 4.03162 10.9219C4.88318 10.4297 6.48475 10.1953 7.81287 10.0938" stroke="#1F2226" stroke-width="1.3" stroke-linecap="round" stroke-linejoin="round"/>
<path d="M11.0156 11.9375C11.5859 13.1406 12.1875 14.6406 12.1875 15.625C12.1875 16.2052 11.957 16.7616 11.5468 17.1718C11.1366 17.582 10.5802 17.8125 10 17.8125C9.41984 17.8125 8.86344 17.582 8.4532 17.1718C8.04297 16.7616 7.8125 16.2052 7.8125 15.625C7.8125 14.6406 8.41406 13.1406 8.98438 11.9375" stroke="#1F2226" stroke-width="1.3" stroke-linecap="round" stroke-linejoin="round"/>
<path d="M12.1875 10.0938C13.5156 10.1953 15.1172 10.4297 15.9687 10.9219C16.4368 11.2281 16.7698 11.7021 16.8993 12.2463C17.0287 12.7905 16.9447 13.3636 16.6646 13.8478C16.3845 14.332 15.9295 14.6905 15.3932 14.8496C14.8569 15.0087 14.2801 14.9563 13.7812 14.7031C12.9297 14.2188 11.9297 12.9453 11.1719 11.8438" stroke="#1F2226" stroke-width="1.3" stroke-linecap="round" stroke-linejoin="round"/>
<path d="M11.1719 8.1567C11.9297 7.05514 12.9297 5.7817 13.7812 5.29733C14.2801 5.0442 14.8569 4.99179 15.3932 5.15088C15.9295 5.30996 16.3845 5.66845 16.6646 6.15265C16.9447 6.63685 17.0287 7.20996 16.8993 7.75416C16.7698 8.29837 16.4368 8.77232 15.9687 9.07857C15.1172 9.57076 13.5156 9.80514 12.1875 9.9067" stroke="#1F2226" stroke-width="1.3" stroke-linecap="round" stroke-linejoin="round"/>
</svg>
