<svg width="24" height="24" viewBox="0 0 24 24" fill="none" xmlns="http://www.w3.org/2000/svg">
<path d="M19.9489 12.6571C19.8376 12.2233 19.5563 11.857 19.157 11.6257L15.358 9.42401C16.3812 8.53821 17.0251 7.25839 17.0251 5.83724C17.0251 5.68896 17.0177 5.54235 17.004 5.39741C17.7676 5.00038 18.2467 4.24138 18.2467 3.39245C18.2467 2.1327 17.1755 1.10785 15.8588 1.10785C15.3195 1.10785 14.8082 1.27831 14.3902 1.59159C13.6708 1.21467 12.8456 1 11.9691 1C11.0925 1 10.2674 1.21467 9.54798 1.59168C9.13034 1.27835 8.61893 1.10794 8.07922 1.10794C6.76249 1.10794 5.6913 2.13283 5.6913 3.39254C5.6913 4.2416 6.17051 5.00056 6.93415 5.39759C6.92045 5.54248 6.91304 5.68904 6.91304 5.83728C6.91304 7.2699 7.56759 8.55883 8.60528 9.44536L4.84305 11.6257C4.44369 11.857 4.16241 12.2234 4.05107 12.6571C3.93978 13.0909 4.01173 13.5402 4.25376 13.9222C4.58197 14.4405 5.15963 14.7272 5.75121 14.7272C6.05935 14.7272 6.37131 14.6493 6.65354 14.4858L7.58914 13.9436C7.35178 14.9002 7.46182 15.8828 7.88875 16.7514L7.26977 21.1218C7.14052 22.0255 7.80337 22.8612 8.74864 22.985C8.82669 22.9949 8.90569 23 8.98344 23C9.84202 23 10.5777 22.3858 10.6946 21.5711L11.0435 19.1329C11.3276 19.1876 11.6196 19.2164 11.9164 19.2174C11.9339 19.2175 11.9515 19.2175 11.969 19.2175C11.9865 19.2175 12.0041 19.2175 12.0216 19.2174C12.3183 19.2164 12.6103 19.1877 12.8943 19.1329L13.2437 21.5712C13.3606 22.3858 14.0959 23 14.9543 23C15.032 23 15.111 22.9949 15.1904 22.9848C15.648 22.9249 16.0537 22.6981 16.3328 22.3463C16.6119 21.9944 16.7309 21.5595 16.668 21.1222L16.0475 16.7551C16.4821 15.873 16.59 14.873 16.3386 13.902L17.3464 14.4859C17.6287 14.6494 17.9405 14.7273 18.2487 14.7273C18.8402 14.7273 19.418 14.4405 19.7461 13.9223C19.9883 13.5402 20.0603 13.091 19.9489 12.6571ZM15.8588 1.84494C16.7507 1.84494 17.4764 2.53922 17.4764 3.39258C17.4764 3.87877 17.2441 4.32122 16.8599 4.60907C16.5758 3.57468 15.9421 2.67445 15.0872 2.03185C15.3212 1.90982 15.5847 1.84494 15.8588 1.84494ZM6.46158 3.39258C6.46158 2.53922 7.18727 1.84494 8.07922 1.84494C8.35355 1.84494 8.61709 1.90982 8.85117 2.03185C7.99614 2.67449 7.36238 3.57477 7.07836 4.6092C6.69396 4.32135 6.46158 3.87881 6.46158 3.39258ZM7.68332 5.83728C7.68332 3.57636 9.60592 1.73696 11.9691 1.73696C14.3323 1.73696 16.2549 3.57636 16.2549 5.83728C16.2549 8.09821 14.3323 9.93761 11.9691 9.93761C9.60592 9.93761 7.68332 8.09825 7.68332 5.83728ZM7.85453 12.9283L6.25454 13.8555C5.7937 14.1224 5.19174 13.9811 4.91257 13.5403C4.77721 13.3266 4.73692 13.0754 4.79917 12.8329C4.86142 12.5904 5.01865 12.3856 5.24209 12.2562L8.53005 10.3506L7.85453 12.9283ZM9.93153 21.471C9.86672 21.9225 9.45919 22.263 8.98352 22.263C8.93974 22.263 8.895 22.2601 8.85189 22.2547C8.32871 22.1861 7.96133 21.7228 8.03305 21.2213L8.53077 17.7067C9.01393 18.2537 9.61993 18.6672 10.2962 18.922L9.93153 21.471ZM12.019 18.4804C11.9857 18.4805 11.9525 18.4805 11.9192 18.4804C10.779 18.4767 9.7226 17.9792 9.02085 17.1157C8.31465 16.2466 8.06997 15.1361 8.34973 14.0689L9.4136 10.0097C10.1639 10.432 11.0374 10.6746 11.9691 10.6746C12.9008 10.6746 13.7744 10.432 14.5248 10.0096L15.5886 14.069C15.8683 15.1361 15.6237 16.2466 14.9174 17.1157C14.2157 17.9792 13.1593 18.4766 12.019 18.4804ZM15.7193 21.9007C15.5647 22.0957 15.3397 22.2214 15.0873 22.2545C15.043 22.2601 14.9982 22.263 14.9544 22.263C14.4791 22.263 14.0718 21.9225 14.007 21.4711L13.6418 18.9221C14.3174 18.6676 14.9229 18.2547 15.4058 17.7086L15.905 21.222C15.9399 21.4647 15.8739 21.7058 15.7193 21.9007ZM19.0874 13.5403C18.8083 13.9811 18.2063 14.1224 17.7455 13.8555L16.0728 12.8861L15.3973 10.3085L18.758 12.2562C18.9813 12.3856 19.1386 12.5904 19.2008 12.8329C19.2631 13.0754 19.2228 13.3266 19.0874 13.5403Z" fill="black" stroke="black" stroke-width="0.4"/>
</svg>
