<svg width="8" height="8" viewBox="0 0 8 8" fill="none" xmlns="http://www.w3.org/2000/svg">
<path d="M3.33333 6.54545C3.70152 6.54545 4 6.87107 4 7.27273C4 7.67439 3.70152 8 3.33333 8H0.666667C0.298477 8 0 7.67439 0 7.27273C0 6.87107 0.298477 6.54545 0.666667 6.54545H3.33333ZM5.73333 3.27273C6.10152 3.27273 6.4 3.59834 6.4 4C6.4 4.40166 6.10152 4.72727 5.73333 4.72727H0.666667C0.298477 4.72727 0 4.40166 0 4C0 3.59834 0.298477 3.27273 0.666667 3.27273H5.73333ZM7.33333 0C7.70152 0 8 0.325611 8 0.727273C8 1.12893 7.70152 1.45455 7.33333 1.45455H0.666667C0.298477 1.45455 0 1.12893 0 0.727273C0 0.325611 0.298477 0 0.666667 0H7.33333Z" fill="#7C7C7C"/>
</svg>
