<svg width="32" height="32" viewBox="0 0 32 32" fill="none" xmlns="http://www.w3.org/2000/svg">
<path d="M16 32C14.8954 32 14 31.1046 14 30C14 28.8954 14.8954 28 16 28C22.6274 28 28 22.6274 28 16C28 9.37258 22.6274 4 16 4C9.37258 4 4 9.37258 4 16C4 17.2945 4.20427 18.5587 4.6004 19.7603C4.94621 20.8094 4.37613 21.9401 3.32709 22.2859C2.27805 22.6317 1.1473 22.0617 0.801483 21.0126C0.27257 19.4081 0 17.7213 0 16C0 7.16344 7.16344 0 16 0C24.8366 0 32 7.16344 32 16C32 24.8366 24.8366 32 16 32Z" fill="url(#paint0_angular_10882_172955)"/>
<defs>
<radialGradient id="paint0_angular_10882_172955" cx="0" cy="0" r="1" gradientUnits="userSpaceOnUse" gradientTransform="translate(16 15) rotate(126.87) scale(10 10.7343)">
<stop offset="0.0450398" stop-color="#26AD4F"/>
<stop offset="0.926518" stop-color="white" stop-opacity="0"/>
</radialGradient>
</defs>
</svg>
