<svg xmlns="http://www.w3.org/2000/svg" width="14" height="13" viewBox="0 0 14 13">
  <path d="M7.2436 10.7877C7.09187 10.7028 6.9069 10.7028 6.75516 10.7877L3.83098 12.4246C3.45868 12.633 3.01321 12.3093 3.09634 11.8908L3.74934 8.60387C3.78323 8.43331 3.72606 8.25739 3.59839 8.13933L1.1377 5.86397C0.824434 5.5743 0.994572 5.0506 1.41827 5.00035L4.74631 4.60564C4.91898 4.58516 5.06861 4.47645 5.14144 4.31856L6.54536 1.27522C6.72408 0.887807 7.27469 0.887807 7.4534 1.27522L8.85732 4.31856C8.93016 4.47645 9.07979 4.58516 9.25245 4.60564L12.5805 5.00035C13.0042 5.0506 13.1743 5.5743 12.8611 5.86397L10.4004 8.13933C10.2727 8.25739 10.2155 8.43331 10.2494 8.60387L10.9024 11.8908C10.9856 12.3093 10.5401 12.633 10.1678 12.4246L7.2436 10.7877Z"
        fill="#FFCD1E"/>
</svg>
