<svg width="20" height="20" viewBox="0 0 20 20" fill="none" xmlns="http://www.w3.org/2000/svg">
<g clip-path="url(#clip0_4_36)">
    <path d="M2.15417 2.15417C1.66602 2.64233 1.66602 3.428 1.66602 4.99935V5.83268C1.66602 7.40403 1.66602 8.1897 2.15417 8.67786C2.64233 9.16602 3.428 9.16602 4.99935 9.16602H5.83268C7.40403 9.16602 8.18971 9.16602 8.67786 8.67786C9.16602 8.1897 9.16602 7.40403 9.16602 5.83268V4.99935C9.16602 3.428 9.16602 2.64233 8.67786 2.15417C8.18971 1.66602 7.40403 1.66602 5.83268 1.66602H4.99935C3.428 1.66602 2.64233 1.66602 2.15417 2.15417Z" fill="#009959"/>
    <path d="M2.15417 11.3208C1.66602 11.809 1.66602 12.5947 1.66602 14.166V14.9993C1.66602 16.5707 1.66602 17.3564 2.15417 17.8445C2.64233 18.3327 3.428 18.3327 4.99935 18.3327H5.83268C7.40403 18.3327 8.18971 18.3327 8.67786 17.8445C9.16602 17.3564 9.16602 16.5707 9.16602 14.9993V14.166C9.16602 12.5947 9.16602 11.809 8.67786 11.3208C8.18971 10.8327 7.40403 10.8327 5.83268 10.8327H4.99935C3.428 10.8327 2.64233 10.8327 2.15417 11.3208Z" fill="#009959"/>
    <path d="M10.8327 4.99935C10.8327 3.428 10.8327 2.64233 11.3208 2.15417C11.809 1.66602 12.5947 1.66602 14.166 1.66602H14.9994C16.5707 1.66602 17.3564 1.66602 17.8445 2.15417C18.3327 2.64233 18.3327 3.428 18.3327 4.99935V5.83268C18.3327 7.40403 18.3327 8.1897 17.8445 8.67786C17.3564 9.16602 16.5707 9.16602 14.9994 9.16602H14.166C12.5947 9.16602 11.809 9.16602 11.3208 8.67786C10.8327 8.1897 10.8327 7.40403 10.8327 5.83268V4.99935Z" fill="#009959"/>
    <path d="M11.3208 11.3208C10.8327 11.809 10.8327 12.5947 10.8327 14.166V14.9993C10.8327 16.5707 10.8327 17.3564 11.3208 17.8445C11.809 18.3327 12.5947 18.3327 14.166 18.3327H14.9994C16.5707 18.3327 17.3564 18.3327 17.8445 17.8445C18.3327 17.3564 18.3327 16.5707 18.3327 14.9993V14.166C18.3327 12.5947 18.3327 11.809 17.8445 11.3208C17.3564 10.8327 16.5707 10.8327 14.9994 10.8327H14.166C12.5947 10.8327 11.809 10.8327 11.3208 11.3208Z" fill="#009959"/>
</g>
<defs>
    <clipPath id="clip0_4_36">
        <rect width="20" height="20" fill="white"/>
    </clipPath>
</defs>
</svg>
