<svg width="18" height="18" viewBox="0 0 18 18" fill="none" xmlns="http://www.w3.org/2000/svg">
<path d="M1.15417 1.15417C0.666016 1.64233 0.666016 2.428 0.666016 3.99935V4.83268C0.666016 6.40403 0.666016 7.1897 1.15417 7.67786C1.64233 8.16602 2.428 8.16602 3.99935 8.16602H4.83268C6.40403 8.16602 7.18971 8.16602 7.67786 7.67786C8.16602 7.1897 8.16602 6.40403 8.16602 4.83268V3.99935C8.16602 2.428 8.16602 1.64233 7.67786 1.15417C7.18971 0.666016 6.40403 0.666016 4.83268 0.666016H3.99935C2.428 0.666016 1.64233 0.666016 1.15417 1.15417Z" fill="#009959"/>
<path d="M1.15417 10.3208C0.666016 10.809 0.666016 11.5947 0.666016 13.166V13.9993C0.666016 15.5707 0.666016 16.3564 1.15417 16.8445C1.64233 17.3327 2.428 17.3327 3.99935 17.3327H4.83268C6.40403 17.3327 7.18971 17.3327 7.67786 16.8445C8.16602 16.3564 8.16602 15.5707 8.16602 13.9993V13.166C8.16602 11.5947 8.16602 10.809 7.67786 10.3208C7.18971 9.83268 6.40403 9.83268 4.83268 9.83268H3.99935C2.428 9.83268 1.64233 9.83268 1.15417 10.3208Z" fill="#009959"/>
<path d="M9.83268 3.99935C9.83268 2.428 9.83268 1.64233 10.3208 1.15417C10.809 0.666016 11.5947 0.666016 13.166 0.666016H13.9994C15.5707 0.666016 16.3564 0.666016 16.8445 1.15417C17.3327 1.64233 17.3327 2.428 17.3327 3.99935V4.83268C17.3327 6.40403 17.3327 7.1897 16.8445 7.67786C16.3564 8.16602 15.5707 8.16602 13.9994 8.16602H13.166C11.5947 8.16602 10.809 8.16602 10.3208 7.67786C9.83268 7.1897 9.83268 6.40403 9.83268 4.83268V3.99935Z" fill="#009959"/>
<path d="M10.3208 10.3208C9.83268 10.809 9.83268 11.5947 9.83268 13.166V13.9993C9.83268 15.5707 9.83268 16.3564 10.3208 16.8445C10.809 17.3327 11.5947 17.3327 13.166 17.3327H13.9994C15.5707 17.3327 16.3564 17.3327 16.8445 16.8445C17.3327 16.3564 17.3327 15.5707 17.3327 13.9993V13.166C17.3327 11.5947 17.3327 10.809 16.8445 10.3208C16.3564 9.83268 15.5707 9.83268 13.9994 9.83268H13.166C11.5947 9.83268 10.809 9.83268 10.3208 10.3208Z" fill="#009959"/>
</svg>
