<svg xmlns="http://www.w3.org/2000/svg" width="14" height="14" viewBox="0 0 14 14">
        <path d="M7.00065 0.333496C10.6817 0.333496 13.6673 3.31811 13.6673 7.00016C13.6673 10.6822 10.6817 13.6668 7.00065 13.6668C3.3186 13.6668 0.333984 10.6822 0.333984 7.00016C0.333984 3.31811 3.3186 0.333496 7.00065 0.333496ZM7.00065 1.66683C4.05501 1.66683 1.66732 4.05452 1.66732 7.00016C1.66732 9.9458 4.05501 12.3335 7.00065 12.3335C9.94547 12.3335 12.334 9.9458 12.334 7.00016C12.334 4.05452 9.94547 1.66683 7.00065 1.66683ZM6.55988 3.6976C6.92807 3.6976 7.22655 3.99608 7.22655 4.36426V6.92022L9.73365 7.75742C10.0824 7.87548 10.2694 8.2539 10.1513 8.60265C10.0333 8.9514 9.65486 9.13841 9.30611 9.02034L6.34611 8.01829C6.0754 7.92665 5.89321 7.67264 5.89321 7.38683V4.36426C5.89321 3.99608 6.19169 3.6976 6.55988 3.6976Z"/>
</svg>
