<svg width="24" height="24" viewBox="0 0 24 24" fill="none" xmlns="http://www.w3.org/2000/svg">
<g clip-path="url(#clip0_8896_139338)">
<path d="M23.705 13.2343C23.4105 13.0487 23.0207 13.137 22.8351 13.4323C22.2461 14.3696 21.6477 14.7171 21.3154 14.6444C21.0464 14.5864 20.8328 14.2177 20.758 13.6813C20.6776 13.103 20.7322 12.3197 20.8689 11.4913C22.214 11.0551 23.3065 9.42418 23.684 8.00184C24.0031 6.79884 23.6836 6.22181 23.3591 5.94948C22.9488 5.60529 22.4473 5.55519 21.9836 5.81232C21.0271 6.34172 20.2487 8.37153 19.8232 10.3397C19.5386 10.2982 19.2786 10.1713 19.0461 9.95936C19.1632 9.40857 19.2659 8.92643 19.3521 8.58224C19.6971 7.20306 19.5497 6.21034 18.9365 5.7873C18.7344 5.64767 18.1844 5.38233 17.4197 5.91505C16.6102 6.47815 16.6824 8.15304 17.2196 9.44684C17.3515 9.76432 17.5067 10.0498 17.6825 10.3016C17.3979 11.6216 16.9276 13.69 16.5189 14.5282C16.0939 13.3039 15.7772 9.61602 15.7111 6.41984C15.7041 6.09332 15.4491 5.82552 15.1229 5.80375C14.8029 5.77747 14.5081 6.01199 14.4571 6.33484C14.4103 6.63218 14.2591 7.15627 14.0197 7.55388C13.9072 6.47494 13.5421 5.7956 12.9527 5.57995C12.7387 5.50109 12.1772 5.38528 11.6059 6.00505C11.0798 6.57593 11.0149 7.5543 11.4519 8.33179C11.7398 8.84352 12.1969 9.18156 12.7342 9.30684C12.5588 11.1337 12.0027 13.7841 11.1866 14.4766C11.0309 14.6088 10.9463 14.592 10.9036 14.5821C10.7459 14.5262 10.3126 13.8876 10.055 12.3544C9.82973 11.0119 9.828 9.5911 10.0024 8.45791C10.1528 7.83204 10.3193 7.21941 10.4832 6.83206C10.5864 6.64322 10.7013 6.49429 10.8272 6.39403C11.0999 6.17717 11.1447 5.77999 10.9274 5.50772C10.7991 5.34643 10.6079 5.26541 10.4167 5.27062C10.3066 5.26899 10.1946 5.29543 10.0924 5.35452C9.8087 5.51855 9.58595 5.79976 9.39259 6.20235C9.07648 6.76787 8.86766 7.493 8.74643 8.28584C8.66642 8.62524 8.58435 8.99288 8.49671 9.39069C8.02766 11.519 7.44406 14.1678 6.34699 14.8245C5.63316 15.2512 4.70574 14.5057 3.56808 13.4855C3.44569 13.3754 3.32372 13.2662 3.20297 13.1602C3.42103 12.4316 3.66213 11.4956 3.96032 10.3028C4.68156 7.4175 5.77117 3.05649 7.01728 2.51884C7.53522 2.29583 7.78946 2.3147 7.82063 2.32621C7.94633 2.52541 7.72043 3.65776 6.44225 5.14865C6.2155 5.41314 6.24594 5.81153 6.51043 6.03828C6.77492 6.2646 7.17295 6.23421 7.40006 5.97009C8.55912 4.61799 9.63111 2.65642 8.83717 1.57869C8.58335 1.23329 7.94344 0.74495 6.517 1.36062C4.82913 2.08864 3.8853 5.39942 2.73613 9.99664C2.55091 10.7388 2.33484 11.603 2.12129 12.3628C1.71386 12.1488 1.31011 12.0691 0.904356 12.2269C0.0754521 12.5501 -0.187408 13.7428 0.131336 14.5934C0.421271 15.3676 1.13105 15.7015 1.90028 15.4268C2.23175 15.3076 2.4913 15.0128 2.74759 14.4439C3.61871 15.2259 4.73302 16.217 5.90848 16.2166C6.26666 16.2166 6.63051 16.1246 6.99483 15.9069C7.86848 15.384 8.44787 14.2732 8.88485 12.9611C8.90862 13.078 8.93369 13.1922 8.96014 13.3029C9.31994 14.8136 9.8863 15.6592 10.6433 15.8166C10.9789 15.8856 11.4865 15.8769 12.0032 15.4383C13.2595 14.3721 13.8416 11.1738 14.0046 9.21468C14.2013 9.13498 14.3767 9.02453 14.5324 8.89389C14.8704 15.8059 15.9083 15.9829 16.3243 16.0539C16.3839 16.0642 16.4418 16.0691 16.4985 16.0691C17.4949 16.0691 18.0412 14.4932 18.7566 11.2925C19.0207 11.4366 19.3033 11.5344 19.5998 11.5825C19.47 12.4943 19.4327 13.312 19.5087 13.8554C19.6602 14.9471 20.2369 15.7032 21.0505 15.8782C22.0243 16.0869 23.0634 15.44 23.903 14.1043C24.0886 13.8089 23.9999 13.4196 23.705 13.2343ZM22.5406 6.94252C22.5788 7.12773 22.5521 7.66333 22.1706 8.46301C21.9163 8.99614 21.5889 9.45778 21.2456 9.78961C21.6284 8.39934 22.1463 7.18892 22.5406 6.94252ZM1.41977 14.2554C1.39228 14.262 1.37787 14.2632 1.37871 14.2649C1.35122 14.2451 1.27194 14.117 1.26248 13.8784C1.25223 13.6159 1.33518 13.4303 1.34218 13.4073C1.34339 13.4073 1.34465 13.4073 1.34586 13.4073C1.43087 13.4073 1.57092 13.4829 1.73563 13.5978C1.6206 13.9128 1.5134 14.1465 1.41977 14.2554ZM12.5519 7.71343C12.3724 7.39348 12.3979 7.00739 12.5334 6.86035C12.54 6.85335 12.5466 6.84678 12.5523 6.84063C12.6369 6.99672 12.7556 7.34664 12.7872 7.98039C12.6948 7.91673 12.6164 7.82762 12.5519 7.71343ZM18.1508 8.18248C18.0367 7.59846 18.0654 7.09613 18.1648 6.93389C18.1911 6.91665 18.2137 6.90351 18.2334 6.89326C18.2827 7.06695 18.3172 7.47276 18.1508 8.18248Z" fill="#1F2226"/>
<path d="M16.6156 16.6975C15.6578 16.1947 13.9882 16.1947 12.6484 17.1657C12.4722 17.2938 12.3076 17.4326 12.1539 17.5805C11.4138 16.8774 10.4195 16.4913 9.49289 16.5504C8.82507 16.5907 8.25004 16.8597 7.91531 17.2881C7.47586 17.85 7.31525 18.5802 7.49557 19.193C7.65823 19.7458 8.0796 20.1655 8.68213 20.3754C9.01191 20.49 9.37051 20.3154 9.48548 19.9869C9.59967 19.6574 9.42592 19.2981 9.09692 19.1835C8.77492 19.0718 8.72319 18.8948 8.70589 18.8368C8.64059 18.6146 8.72234 18.3045 8.90919 18.0651C8.99462 17.9558 9.21268 17.8314 9.56881 17.8096C10.1779 17.7764 10.8384 18.047 11.3337 18.5428C11.3427 18.5518 11.3517 18.5608 11.3604 18.5699C10.6819 19.6755 10.4687 20.9524 10.75 21.8199C10.9764 22.5173 11.5157 22.9338 12.1929 22.9338C12.9749 22.9338 13.5795 22.5576 13.8514 21.9021C14.2264 20.9977 13.8888 19.7429 12.9876 18.5297C13.1109 18.4073 13.2443 18.2922 13.3893 18.1875C14.4129 17.4445 15.5518 17.5641 16.029 17.8146C16.3716 17.9945 16.4693 18.4323 16.3876 18.7535C16.3206 19.0159 16.1666 19.1486 15.9296 19.1486C15.9263 19.1486 15.923 19.1486 15.9194 19.1486C15.5579 19.1597 15.284 19.4213 15.2786 19.7696C15.2732 20.1179 15.5509 20.4046 15.8996 20.4104C15.9095 20.4104 15.9194 20.4104 15.9296 20.4104C16.7433 20.4104 17.4012 19.8855 17.6103 19.0653C17.8165 18.2561 17.5409 17.1829 16.6156 16.6975ZM12.6858 21.4187C12.6542 21.4946 12.5807 21.6721 12.1929 21.6721C12.1276 21.6721 12.0287 21.6721 11.9502 21.4305C11.8176 21.0215 11.9005 20.3269 12.2184 19.639C12.6936 20.3976 12.8332 21.063 12.6858 21.4187Z" fill="#1F2226"/>
</g>
<defs>
<clipPath id="clip0_8896_139338">
<rect width="24" height="24" fill="white"/>
</clipPath>
</defs>
</svg>
