<svg width="16" height="16" viewBox="0 0 16 16" fill="none" xmlns="http://www.w3.org/2000/svg">
<path d="M15.5 7.49375V7.48125C15.501 7.46639 15.4989 7.45148 15.4937 7.4375V7.41875C15.4937 7.40625 15.4875 7.39375 15.4875 7.38125V7.36875L15.475 7.31875H15.4688L14.5938 5.14375C14.524 4.9534 14.3971 4.78931 14.2303 4.67403C14.0636 4.55876 13.8652 4.49797 13.6625 4.5H11.5V4C11.5 3.86739 11.4473 3.74021 11.3536 3.64645C11.2598 3.55268 11.1326 3.5 11 3.5H1.5C1.23478 3.5 0.98043 3.60536 0.792893 3.79289C0.605357 3.98043 0.5 4.23478 0.5 4.5V11.5C0.5 11.7652 0.605357 12.0196 0.792893 12.2071C0.98043 12.3946 1.23478 12.5 1.5 12.5H2.3125C2.42265 12.9302 2.67285 13.3115 3.02366 13.5838C3.37446 13.8561 3.80591 14.0039 4.25 14.0039C4.69409 14.0039 5.12554 13.8561 5.47635 13.5838C5.82715 13.3115 6.07735 12.9302 6.1875 12.5H9.8125C9.92265 12.9302 10.1729 13.3115 10.5237 13.5838C10.8745 13.8561 11.3059 14.0039 11.75 14.0039C12.1941 14.0039 12.6255 13.8561 12.9763 13.5838C13.3271 13.3115 13.5773 12.9302 13.6875 12.5H14.5C14.7652 12.5 15.0196 12.3946 15.2071 12.2071C15.3946 12.0196 15.5 11.7652 15.5 11.5V7.5V7.49375ZM11.5 5.5H13.6625L14.2625 7H11.5V5.5ZM1.5 4.5H10.5V8.5H1.5V4.5ZM4.25 13C4.05222 13 3.85888 12.9414 3.69443 12.8315C3.52998 12.7216 3.40181 12.5654 3.32612 12.3827C3.25043 12.2 3.23063 11.9989 3.26921 11.8049C3.3078 11.6109 3.40304 11.4327 3.54289 11.2929C3.68275 11.153 3.86093 11.0578 4.05491 11.0192C4.24889 10.9806 4.44996 11.0004 4.63268 11.0761C4.81541 11.1518 4.97159 11.28 5.08147 11.4444C5.19135 11.6089 5.25 11.8022 5.25 12C5.25 12.2652 5.14464 12.5196 4.95711 12.7071C4.76957 12.8946 4.51522 13 4.25 13ZM11.75 13C11.5522 13 11.3589 12.9414 11.1944 12.8315C11.03 12.7216 10.9018 12.5654 10.8261 12.3827C10.7504 12.2 10.7306 11.9989 10.7692 11.8049C10.8078 11.6109 10.903 11.4327 11.0429 11.2929C11.1827 11.153 11.3609 11.0578 11.5549 11.0192C11.7489 10.9806 11.95 11.0004 12.1327 11.0761C12.3154 11.1518 12.4716 11.28 12.5815 11.4444C12.6914 11.6089 12.75 11.8022 12.75 12C12.75 12.2652 12.6446 12.5196 12.4571 12.7071C12.2696 12.8946 12.0152 13 11.75 13Z" fill="#1F2226"/>
</svg>
