<svg width="26" height="17" viewBox="0 0 26 17" fill="none" xmlns="http://www.w3.org/2000/svg">
<path d="M5.37372 0.834229H11.6775C12.5574 0.834229 13.1047 1.5664 12.8994 2.46766L9.96459 15.3306C9.75748 16.2287 8.87645 16.9615 7.99589 16.9615H1.69276C0.814047 16.9615 0.265521 16.2287 0.470795 15.3306L3.40687 2.46766C3.61214 1.5664 4.4927 0.834229 5.37372 0.834229Z" fill="#E21836"/>
<path d="M11.1526 0.833344H18.4018C19.2816 0.833344 18.8848 1.56552 18.6779 2.46678L15.7435 15.3297C15.5376 16.2278 15.6018 16.9606 14.7202 16.9606H7.47105C6.58941 16.9606 6.04381 16.2278 6.25093 15.3297L9.18516 2.46678C9.3935 1.56552 10.2722 0.833344 11.1526 0.833344Z" fill="#00447C"/>
<path d="M18.1152 0.833344H24.419C25.3001 0.833344 25.8474 1.56552 25.6405 2.46678L22.7061 15.3297C22.499 16.2278 21.6173 16.9606 20.7363 16.9606H14.4355C13.5539 16.9606 13.007 16.2278 13.2135 15.3297L16.1484 2.46678C16.3536 1.56552 17.2336 0.833344 18.1152 0.833344Z" fill="#007B84"/>
<path d="M7.02034 4.95551C6.37209 4.96226 6.18065 4.95551 6.1195 4.94077C6.09599 5.0548 5.65855 7.1147 5.65732 7.11643C5.56313 7.53318 5.49461 7.83025 5.26183 8.02208C5.12969 8.1336 4.97543 8.1874 4.79658 8.1874C4.5091 8.1874 4.34163 8.04169 4.31351 7.76532L4.30813 7.67042C4.30813 7.67042 4.39571 7.11219 4.39571 7.10906C4.39571 7.10906 4.85481 5.23188 4.93702 4.98374C4.94132 4.96963 4.94255 4.96226 4.94362 4.95551C4.05 4.96351 3.89159 4.95551 3.88068 4.94077C3.87469 4.961 3.85256 5.07738 3.85256 5.07738L3.38378 7.19313L3.34352 7.37257L3.26562 7.9595C3.26562 8.1336 3.29912 8.27571 3.3658 8.39585C3.57938 8.77684 4.18859 8.83393 4.53323 8.83393C4.97727 8.83393 5.39381 8.73763 5.6753 8.5618C6.1639 8.26708 6.29174 7.80641 6.40574 7.39703L6.4586 7.18701C6.4586 7.18701 6.93153 5.23737 7.01189 4.98374C7.01496 4.96963 7.01619 4.96226 7.02034 4.95551ZM8.62945 6.52831C8.51545 6.52831 8.3071 6.55654 8.11996 6.65018C8.05204 6.68578 7.98782 6.72688 7.92006 6.76782L7.98121 6.54242L7.94771 6.50446C7.55084 6.5865 7.46203 6.59748 7.09543 6.65018L7.0647 6.67104C7.02214 7.03132 6.98434 7.3022 6.82654 8.01038C6.76646 8.27138 6.70408 8.53488 6.64155 8.79525L6.65845 8.82835C7.03412 8.80812 7.14813 8.80812 7.47463 8.81361L7.50106 8.78428C7.54254 8.56735 7.54792 8.51653 7.6398 8.0772C7.68298 7.8689 7.77302 7.41121 7.81742 7.24825C7.89901 7.20966 7.97952 7.1717 8.05634 7.1717C8.23934 7.1717 8.21706 7.33467 8.20999 7.39961C8.20216 7.50862 8.13547 7.86467 8.0671 8.17037L8.02147 8.36768C7.98966 8.5134 7.95478 8.65503 7.92298 8.79949L7.93681 8.82835C8.3071 8.80812 8.42003 8.80812 8.73624 8.81361L8.77342 8.78428C8.83058 8.44548 8.84733 8.35482 8.94874 7.86153L8.99975 7.63488C9.09885 7.19131 9.14863 6.96639 9.07365 6.78319C8.99437 6.57787 8.80415 6.52831 8.62945 6.52831ZM10.427 6.99272C10.2302 7.03131 10.1047 7.05703 9.9799 7.07366C9.85622 7.09389 9.7356 7.11224 9.54538 7.13922L9.53033 7.15318L9.5165 7.16432C9.49668 7.30893 9.48285 7.43394 9.45658 7.58091C9.4343 7.7329 9.40003 7.90559 9.34426 8.15372C9.30108 8.34367 9.2788 8.40986 9.25422 8.47668C9.23025 8.54349 9.20382 8.60843 9.15527 8.79524L9.16664 8.81249L9.17617 8.82833C9.35394 8.81971 9.47025 8.81359 9.58979 8.81249C9.70917 8.8081 9.83286 8.81249 10.0243 8.81359L10.0411 8.79963L10.059 8.78426C10.0867 8.6158 10.0908 8.57047 10.1077 8.48828C10.1245 8.40013 10.1534 8.27811 10.2242 7.95217C10.2577 7.79909 10.295 7.64647 10.3298 7.49025C10.3659 7.33465 10.4037 7.18141 10.4396 7.02833L10.4342 7.00982L10.427 6.99272ZM10.4312 6.36655C10.2524 6.25879 9.93846 6.29298 9.7272 6.44183C9.51654 6.58771 9.49258 6.79475 9.67081 6.90391C9.84658 7.00869 10.1617 6.97748 10.3711 6.82737C10.5813 6.67836 10.6076 6.4732 10.4312 6.36655ZM11.5128 8.8621C11.8747 8.8621 12.2456 8.76031 12.5248 8.45822C12.7396 8.21322 12.838 7.8487 12.8722 7.69859C12.9832 7.20107 12.8967 6.96877 12.7881 6.82729C12.6231 6.61162 12.3315 6.54245 12.0289 6.54245C11.847 6.54245 11.4137 6.56081 11.0752 6.87937C10.8322 7.10915 10.7198 7.42097 10.6521 7.71992C10.5837 8.02453 10.505 8.57287 10.999 8.77693C11.1514 8.84375 11.3712 8.8621 11.5128 8.8621ZM11.4846 7.74267C11.568 7.36591 11.6665 7.04971 11.9178 7.04971C12.1148 7.04971 12.1291 7.28498 12.0415 7.66299C12.0259 7.7469 11.9539 8.05888 11.8567 8.19173C11.7888 8.28976 11.7084 8.34921 11.6196 8.34921C11.5932 8.34921 11.436 8.34921 11.4335 8.11095C11.4323 7.99331 11.4558 7.87317 11.4846 7.74267ZM13.7767 8.81365L13.805 8.78432C13.8451 8.5674 13.8517 8.51642 13.9405 8.07724C13.9849 7.86895 14.0768 7.41126 14.1199 7.24829C14.2017 7.20955 14.2808 7.17159 14.3601 7.17159C14.5419 7.17159 14.5197 7.33456 14.5125 7.3995C14.5059 7.50866 14.4392 7.86456 14.3696 8.17026L14.3264 8.36757C14.2934 8.51344 14.2575 8.65492 14.2256 8.79954L14.2395 8.8284C14.611 8.80816 14.7196 8.80816 15.0377 8.81365L15.0761 8.78432C15.1319 8.44537 15.1469 8.35471 15.2514 7.86158L15.3012 7.63477C15.4008 7.1912 15.4511 6.96643 15.3774 6.78323C15.2958 6.57792 15.1044 6.52835 14.9321 6.52835C14.818 6.52835 14.6085 6.55643 14.4225 6.65023C14.3559 6.68583 14.2893 6.72677 14.2238 6.76786L14.2808 6.54247L14.2502 6.50436C13.8535 6.58654 13.7629 6.59752 13.3967 6.65023L13.3686 6.67109C13.3242 7.03137 13.2881 7.30209 13.1303 8.01043C13.0702 8.27142 13.0078 8.53493 12.9454 8.7953L12.9622 8.8284C13.3385 8.80816 13.4508 8.80816 13.7767 8.81365ZM16.5063 8.82832C16.5297 8.71194 16.6684 8.02211 16.6697 8.02211C16.6697 8.02211 16.7878 7.51596 16.795 7.49761C16.795 7.49761 16.8322 7.4449 16.8694 7.42404H16.9241C17.4402 7.42404 18.023 7.42404 18.4798 7.08101C18.7906 6.84574 19.0031 6.49832 19.0979 6.07608C19.1225 5.97256 19.1406 5.84943 19.1406 5.7263C19.1406 5.56459 19.1088 5.4046 19.0169 5.27959C18.784 4.94692 18.3202 4.9408 17.7847 4.93829C17.783 4.93829 17.5207 4.9408 17.5207 4.9408C16.8353 4.94943 16.5604 4.94692 16.4475 4.9328C16.438 4.98378 16.42 5.07444 16.42 5.07444C16.42 5.07444 16.1744 6.23606 16.1744 6.23795C16.1744 6.23795 15.5869 8.7077 15.5592 8.82408C16.1577 8.81671 16.4031 8.81671 16.5063 8.82832ZM16.9613 6.7648C16.9613 6.7648 17.2223 5.60553 17.2211 5.60992L17.2296 5.55047L17.2332 5.50514L17.3376 5.51612C17.3376 5.51612 17.876 5.56334 17.8886 5.56459C18.101 5.64851 18.1886 5.8648 18.1275 6.14713C18.0717 6.40515 17.9078 6.62207 17.6971 6.72685C17.5236 6.81562 17.3111 6.823 17.0922 6.823H16.9505L16.9613 6.7648ZM18.5866 7.76414C18.5177 8.06435 18.4384 8.6127 18.9299 8.80813C19.0866 8.8762 19.227 8.89644 19.3698 8.88907C19.5205 8.88075 19.6602 8.80358 19.7896 8.69253C19.7779 8.73818 19.7662 8.78382 19.7545 8.82962L19.7768 8.85895C20.1303 8.84374 20.2401 8.84374 20.6231 8.84672L20.6578 8.81974C20.7138 8.48408 20.7665 8.15815 20.9118 7.516C20.9826 7.20842 21.0533 6.90382 21.126 6.59749L21.1146 6.56377C20.7191 6.63859 20.6134 6.65459 20.233 6.70964L20.2041 6.73364C20.2003 6.76485 20.1963 6.79481 20.1926 6.82477C20.1334 6.72721 20.0477 6.64392 19.9154 6.592C19.7462 6.52409 19.3489 6.61161 19.0073 6.92907C18.7673 7.15572 18.6521 7.46628 18.5866 7.76414ZM19.4173 7.78249C19.5019 7.41248 19.5992 7.09941 19.8512 7.09941C20.0105 7.09941 20.0944 7.24952 20.0773 7.5055C20.0638 7.56933 20.0492 7.63662 20.0319 7.71269C20.0067 7.82265 19.9793 7.93166 19.9527 8.04082C19.9257 8.11548 19.8942 8.18591 19.8596 8.23281C19.7948 8.3266 19.6405 8.38479 19.5517 8.38479C19.5265 8.38479 19.371 8.38479 19.3656 8.15077C19.3644 8.03424 19.3879 7.91425 19.4173 7.78249ZM23.7548 6.56077L23.7243 6.52517C23.3329 6.6061 23.2621 6.61897 22.9026 6.66853L22.8761 6.69551C22.8749 6.6999 22.8738 6.70664 22.872 6.71276L22.8708 6.70664C22.6031 7.33702 22.6109 7.20103 22.3931 7.69731C22.3918 7.67472 22.3918 7.6606 22.3906 7.63661L22.3361 6.56077L22.3018 6.52517C21.8919 6.6061 21.8822 6.61897 21.5036 6.66853L21.4741 6.69551C21.4699 6.70837 21.4699 6.72249 21.4675 6.73786L21.4699 6.74335C21.5173 6.99023 21.5059 6.93517 21.5534 7.32479C21.5755 7.51599 21.605 7.70829 21.6271 7.89713C21.6645 8.21319 21.6854 8.36878 21.731 8.85109C21.4753 9.2818 21.4148 9.44477 21.1686 9.82278L21.1703 9.82654L20.997 10.1064C20.9772 10.1358 20.9592 10.1561 20.934 10.1647C20.9064 10.1787 20.8704 10.1812 20.8205 10.1812H20.7244L20.5817 10.6658L21.0714 10.6745C21.3588 10.6732 21.5395 10.536 21.6368 10.3515L21.9447 9.8129H21.9398L21.9722 9.77494C22.1793 9.31976 23.7548 6.56077 23.7548 6.56077ZM18.5866 12.9261H18.3789L19.1478 10.3301H19.4028L19.4838 10.0627L19.4916 10.3601C19.4821 10.5439 19.6238 10.7069 19.9959 10.6799H20.4263L20.5744 10.18H20.4124C20.3193 10.18 20.2761 10.156 20.2815 10.1046L20.2737 9.80199H19.4767V9.80356C19.219 9.80905 18.4496 9.82882 18.2938 9.87116C18.1052 9.92073 17.9066 10.0666 17.9066 10.0666L17.9846 9.79886H17.2391L17.0838 10.3301L16.3046 12.9658H16.1534L16.0052 13.4621H17.49L17.4403 13.6276H18.1719L18.2205 13.4621H18.4258L18.5866 12.9261ZM17.9774 10.8576C17.858 10.8913 17.6358 10.9936 17.6358 10.9936L17.8334 10.3301H18.4258L18.2829 10.8135C18.2829 10.8135 18.0999 10.8245 17.9774 10.8576ZM17.9888 11.8054C17.9888 11.8054 17.8027 11.8293 17.6803 11.8575C17.5596 11.8948 17.3335 12.0125 17.3335 12.0125L17.5375 11.322H18.1329L17.9888 11.8054ZM17.6569 12.9322H17.0627L17.235 12.3495H17.8273L17.6569 12.9322ZM19.0878 11.322H19.9442L19.8211 11.7289H18.9533L18.823 12.1737H19.5824L19.0074 13.0002C18.9672 13.0609 18.931 13.0823 18.8909 13.0994C18.8507 13.1203 18.7978 13.1448 18.7367 13.1448H18.526L18.3813 13.6319H18.9323C19.2187 13.6319 19.3878 13.4989 19.5128 13.3244L19.907 12.7735L19.9917 13.3328C20.0097 13.4376 20.0834 13.4989 20.1333 13.5228C20.1885 13.551 20.2455 13.5995 20.326 13.6067C20.4124 13.6105 20.4748 13.6134 20.5162 13.6134H20.787L20.9495 13.0682H20.8427C20.7814 13.0682 20.6759 13.0577 20.6579 13.0381C20.6399 13.0143 20.6399 12.9776 20.6302 12.9217L20.5444 12.3612H20.1927L20.3469 12.1737H21.213L21.3462 11.7289H20.5444L20.6693 11.322H21.4687L21.617 10.8203H19.2336L19.0878 11.322ZM11.8543 13.0455L12.0542 12.3667H12.8757L13.0258 11.8618H12.2035L12.329 11.4439H13.1326L13.2815 10.955H11.2709L11.125 11.4439H11.5818L11.46 11.8618H11.002L10.8502 12.3753H11.3068L11.0404 13.2734C11.0044 13.3923 11.0573 13.4377 11.0908 13.4929C11.125 13.5467 11.1598 13.5823 11.2378 13.6025C11.3183 13.6209 11.3735 13.6318 11.4485 13.6318H12.3747L12.5397 13.0725L12.1291 13.1301C12.0499 13.1301 11.8303 13.1204 11.8543 13.0455ZM11.9485 9.7958L11.7403 10.1799C11.6957 10.2638 11.6556 10.3159 11.6195 10.3399C11.5877 10.3601 11.5247 10.3686 11.4335 10.3686H11.3248L11.1796 10.86H11.5404C11.7139 10.86 11.8471 10.7951 11.9107 10.7626C11.9791 10.7253 11.997 10.7466 12.0499 10.6945L12.1717 10.5868H13.2983L13.4478 10.0751H12.6232L12.7671 9.7958H11.9485ZM13.6117 13.0554C13.5924 13.0272 13.6063 12.9774 13.6356 12.8739L13.9435 11.8335H15.0389C15.1985 11.8312 15.3138 11.8293 15.3888 11.8238C15.4693 11.8152 15.5568 11.7859 15.6523 11.7332C15.7507 11.6779 15.8011 11.6198 15.8437 11.5529C15.8912 11.4863 15.9674 11.3404 16.0328 11.1155L16.4199 9.79889L15.2832 9.80563C15.2832 9.80563 14.9332 9.85833 14.7791 9.91653C14.6236 9.98146 14.4014 10.1628 14.4014 10.1628L14.504 9.80187H13.8019L12.8188 13.1301C12.7839 13.2593 12.7606 13.3531 12.7552 13.4094C12.7534 13.4701 12.8302 13.5302 12.88 13.5755C12.9388 13.6208 13.0258 13.6135 13.1092 13.6208C13.197 13.6276 13.3217 13.6318 13.494 13.6318H14.0336L14.1992 13.0609L13.7161 13.1075C13.6645 13.1075 13.6272 13.0792 13.6117 13.0554ZM14.1422 11.1309H15.2927L15.2196 11.3649C15.2093 11.3704 15.1847 11.3533 15.0676 11.3674H14.0714L14.1422 11.1309ZM14.3727 10.346H15.5329L15.4494 10.6278C15.4494 10.6278 14.9026 10.6223 14.815 10.6388C14.4297 10.7069 14.2046 10.9171 14.2046 10.9171L14.3727 10.346ZM15.2453 12.1485C15.2358 12.1835 15.2208 12.2049 15.1997 12.2209C15.1763 12.2362 15.1385 12.2417 15.0822 12.2417H14.9182L14.9279 11.9567H14.246L14.2183 13.35C14.2173 13.4506 14.2268 13.5087 14.2989 13.5553C14.3709 13.6135 14.5929 13.6209 14.8918 13.6209H15.3191L15.4733 13.0994L15.1014 13.1202L14.9777 13.1276C14.9608 13.1202 14.9446 13.1135 14.9267 13.0951C14.911 13.0793 14.8846 13.089 14.8889 12.9885L14.8918 12.6313L15.2819 12.6149C15.4926 12.6149 15.5826 12.5449 15.6594 12.4782C15.7327 12.4144 15.7567 12.341 15.7843 12.2417L15.8498 11.9255H15.3137L15.2453 12.1485Z" fill="#FEFEFE"/>
</svg>
