<svg width="32" height="32" viewBox="0 0 32 32" fill="none" xmlns="http://www.w3.org/2000/svg">
<path d="M19.7982 10.6C19.7982 8.50024 18.0979 6.79999 15.9982 6.79999C13.8984 6.79999 12.1982 8.50024 12.1982 10.6C12.1982 12.6998 13.8984 14.4 15.9982 14.4C18.0979 14.4 19.7982 12.6998 19.7982 10.6ZM22.1982 10.6C22.1982 14.0252 19.4234 16.8 15.9982 16.8C12.5729 16.8 9.79818 14.0252 9.79818 10.6C9.79818 7.17475 12.5729 4.39999 15.9982 4.39999C19.4234 4.39999 22.1982 7.17475 22.1982 10.6ZM7.86484 24.5714C7.86484 25.5966 7.74382 25.4667 8.3119 25.4667H23.6845C24.2525 25.4667 24.1315 25.5966 24.1315 24.5714C24.1315 22.048 20.4273 20.5333 15.9982 20.5333C11.5691 20.5333 7.86484 22.048 7.86484 24.5714ZM5.46484 24.5714C5.46484 20.1357 10.3619 18.1333 15.9982 18.1333C21.6345 18.1333 26.5315 20.1357 26.5315 24.5714C26.5315 26.8856 25.6175 27.8667 23.6845 27.8667H8.3119C6.37889 27.8667 5.46484 26.8856 5.46484 24.5714Z" fill="#009959"/>
</svg>
