<svg xmlns="http://www.w3.org/2000/svg" viewBox="0 0 18 18">
  <path d="M11.0019 8.35937C10.7342 8.2254 10.461 8.10998 10.183 8.0133C11.0833 7.30197 11.6667 6.16928 11.6667 4.89583C11.6667 2.74768 10.0066 1 7.96598 1C5.92541 1 4.2653 2.74768 4.2653 4.89583C4.2653 6.17069 4.85001 7.30449 5.75191 8.01568C4.92557 8.30208 4.1502 8.74772 3.47156 9.33536C2.22715 10.4129 1.36192 11.916 1.03531 13.5676C0.932942 14.0851 1.05558 14.6167 1.37172 15.0259C1.6863 15.4331 2.15278 15.6667 2.6515 15.6667H9.35374C9.65431 15.6667 9.89796 15.4102 9.89796 15.0937C9.89796 14.7773 9.65431 14.5208 9.35374 14.5208H2.6515C2.41917 14.5208 2.27901 14.3843 2.21615 14.303C2.10761 14.1624 2.0656 13.9795 2.10089 13.8011C2.66565 10.9453 5.05847 8.8591 7.82171 8.78874C7.86958 8.79069 7.91766 8.79167 7.96598 8.79167C8.01477 8.79167 8.06334 8.79066 8.11167 8.78869C8.95847 8.8096 9.7729 9.01304 10.5346 9.39426C10.8061 9.53004 11.1307 9.40855 11.2598 9.12276C11.3888 8.83698 11.2734 8.49521 11.0019 8.35937ZM8.09872 7.64231C8.05455 7.64148 8.01031 7.64105 7.96598 7.64105C7.92207 7.64105 7.87815 7.64151 7.83428 7.64237C6.45483 7.56992 5.35374 6.36571 5.35374 4.89583C5.35374 3.37947 6.52557 2.14583 7.96598 2.14583C9.40639 2.14583 10.5782 3.37947 10.5782 4.89583C10.5782 6.36534 9.47769 7.56932 8.09872 7.64231Z"
        fill="currentColor" stroke="currentColor" stroke-width="0.2"/>
  <path d="M14.3703 11.566C14.7463 11.214 15.1802 11.0228 15.6639 11.0015L15.7552 10.9995C16.8076 10.9995 17.6667 11.8529 17.6667 12.9053C17.6667 13.8915 17.3216 14.3808 15.809 15.5923L15.4979 15.8389L14.7099 16.4531C14.4885 16.6256 14.1782 16.6256 13.9568 16.4531L13.0608 15.7539C11.3758 14.4225 11 13.9344 11 12.9053C11 11.8529 11.8591 10.9995 12.9115 10.9995C13.4249 10.9995 13.8875 11.1915 14.2908 11.5645L14.3313 11.6038L14.3703 11.566Z"
        stroke="currentColor" stroke-width="1.3" fill="none"/>
	</svg>
