<svg width="24" height="24" viewBox="0 0 24 24" fill="none" xmlns="http://www.w3.org/2000/svg">
<g clip-path="url(#clip0_12700_333781)">
<path d="M12 22C6.477 22 2 17.523 2 12C2 6.477 6.477 2 12 2C17.523 2 22 6.477 22 12C22 17.523 17.523 22 12 22Z" fill="#F1903D"/>
<path fill-rule="evenodd" clip-rule="evenodd" d="M12 6C11.4477 6 11 6.44772 11 7V13C11 13.5523 11.4477 14 12 14C12.5523 14 13 13.5523 13 13V7C13 6.44772 12.5523 6 12 6ZM12 16C11.4477 16 11 16.4477 11 17C11 17.5523 11.4477 18 12 18C12.5523 18 13 17.5523 13 17C13 16.4477 12.5523 16 12 16Z" fill="white"/>
</g>
<defs>
<clipPath id="clip0_12700_333781">
<rect width="24" height="24" fill="white"/>
</clipPath>
</defs>
</svg>
