<svg width="29" height="18" viewBox="0 0 29 18" fill="none" xmlns="http://www.w3.org/2000/svg">
<path fill-rule="evenodd" clip-rule="evenodd" d="M9.04776 13.8519C9.2268 13.757 9.53114 13.6323 9.85354 13.6323C10.5935 13.6323 10.9935 14.1425 10.9935 15.0918C10.9935 16.2008 10.4565 16.7406 9.591 16.7406C9.27452 16.7406 8.78512 16.6398 8.42694 16.4497V12.3097L9.04776 12.1613V13.8519ZM9.04188 16.2301C9.23274 16.3132 9.44176 16.325 9.59103 16.325C10.0327 16.325 10.3669 16.0522 10.3669 15.0916C10.3669 14.338 10.0924 14.0949 9.69248 14.0949C9.45358 14.0949 9.28067 14.1601 9.04188 14.2906V16.2301ZM2.68463 13.7093H2.72644L3.53801 16.6694H4.18259L5.14966 12.4637H4.45125L3.84246 15.6017H3.80087L2.97103 12.4637H2.43983L1.66393 15.6017H1.62213L0.953589 12.4637H0.285156L1.25213 16.6694H1.8966L2.68463 13.7093ZM7.79459 16.4674V16.0166C7.46628 16.2124 7.16796 16.325 6.84567 16.325C6.23086 16.325 5.93845 16.0105 5.93845 15.2988H7.88411V15.0795C7.88411 14.1127 7.42448 13.6322 6.67856 13.6322C5.78327 13.6322 5.32364 14.2847 5.32364 15.1862C5.32364 16.1235 5.73545 16.7405 6.7381 16.7405C7.16796 16.7405 7.52603 16.6218 7.79459 16.4674ZM7.31707 14.9015H5.95054C6.01599 14.3085 6.29637 14.0297 6.66067 14.0297C6.98296 14.0297 7.28751 14.2786 7.31707 14.9015ZM13.7392 15.7796H13.7093L12.3723 12.4637H11.6501V16.6694H12.1873V13.6917H12.241L13.4588 16.6694H13.8406L15.0583 13.6205H15.1121V16.6694H15.7567V12.4637H15.0165L13.7392 15.7796ZM16.4134 15.1862C16.4134 14.1481 16.9864 13.6322 17.7742 13.6322C18.5621 13.6322 19.1352 14.1481 19.1352 15.1862C19.1352 16.2006 18.592 16.7405 17.7742 16.7405C16.9564 16.7405 16.4134 16.2006 16.4134 15.1862ZM18.5083 15.1862C18.5083 14.3855 18.1799 14.0475 17.7741 14.0475C17.3802 14.0475 17.0399 14.3855 17.0399 15.1862C17.0399 15.9991 17.3505 16.325 17.7741 16.325C18.1979 16.325 18.5083 15.9991 18.5083 15.1862ZM21.2238 13.6322C20.5377 13.6322 19.9705 13.9109 19.702 14.0711V16.6692H20.3228V14.3203C20.5077 14.2137 20.8122 14.1067 21.0511 14.1067C21.3554 14.1067 21.588 14.1897 21.588 14.6584V16.6692H22.2087V14.5218C22.2087 13.9109 21.9404 13.6322 21.2238 13.6322ZM25.2347 16.0166V16.4674C24.9663 16.6218 24.6083 16.7405 24.1783 16.7405C23.1758 16.7405 22.7639 16.1235 22.7639 15.1862C22.7639 14.2847 23.2236 13.6322 24.1188 13.6322C24.865 13.6322 25.3248 14.1127 25.3248 15.0795V15.2988H23.3789C23.3789 16.0105 23.6713 16.325 24.286 16.325C24.6083 16.325 24.9067 16.2124 25.2347 16.0166ZM23.3908 14.9015H24.7575C24.7279 14.2786 24.4232 14.0297 24.1009 14.0297C23.7367 14.0297 23.4566 14.3085 23.3908 14.9015ZM28.2852 13.733H27.6465L26.9658 15.9157H26.9302L26.1663 13.733H25.5097L26.6557 16.6988C26.5122 17.1376 26.2618 17.4582 25.8559 17.4582V17.9444C26.542 17.9444 26.9062 17.5175 27.2047 16.6988L28.2852 13.733Z" fill="#0068A3"/>
<path fill-rule="evenodd" clip-rule="evenodd" d="M13.8855 0.032196C14.7069 0.032196 15.4848 0.222265 16.1777 0.559711C16.2865 0.611005 16.395 0.667438 16.5038 0.729745L16.0223 1.15803L15.2987 0.414642L14.0776 1.49694L13.3522 0.71034L11.0774 2.74781L12.5358 4.34483L11.9627 4.84571L13.3991 6.44514L12.8294 6.94486L14.882 9.21509L16.1004 8.10048L17.1538 9.29492C16.9443 9.45677 16.716 9.60907 16.4646 9.74984C15.7028 10.1815 14.8224 10.4286 13.8855 10.4286C11.0043 10.4286 8.6543 8.09324 8.6543 5.23056C8.6543 2.36726 11.0043 0.032196 13.8855 0.032196ZM12.9321 4.90205L14.1761 3.78878L15.2962 5.02532L14.0524 6.13817L12.9321 4.90205ZM15.0608 5.92496L13.8167 7.03792L14.9371 8.27445L16.1811 7.16118L15.0608 5.92496ZM12.0421 2.79115L13.286 1.6782L14.4058 2.91442L13.1619 4.02737L12.0421 2.79115ZM15.2578 1.35743L14.3248 2.19207L15.1648 3.11955L16.0978 2.2846L15.2578 1.35743ZM15.9825 6.01538L16.9158 5.18043L17.7558 6.1078L16.8228 6.94254L15.9825 6.01538ZM17.736 7.0529L16.8033 7.88796L17.6432 8.81481L18.5762 7.98006L17.736 7.0529ZM17.179 3.59616L17.801 3.03963L18.3609 3.65774L17.7392 4.21416L17.179 3.59616ZM17.0063 1.20334L16.3844 1.75976L16.9443 2.37787L17.5664 1.82145L17.0063 1.20334ZM17.9742 5.43244L18.5961 4.87591L19.1562 5.49391L18.5342 6.05044L17.9742 5.43244ZM16.1176 3.22141L15.1848 4.05646L16.0249 4.98331L16.9576 4.14857L16.1176 3.22141Z" fill="#0068A3"/>
</svg>
