<svg width="22" height="20" viewBox="0 0 22 20" fill="none" xmlns="http://www.w3.org/2000/svg">
<circle cx="6" cy="10" r="5" stroke="#1F2226" stroke-width="1.4" stroke-linecap="round" stroke-linejoin="round"/>
<path d="M6.00727 4.75265C5.98513 4.75265 5.96405 4.74304 5.94959 4.72633L4.21788 2.70688C4.19785 2.68352 4.19454 2.6504 4.20945 2.62379L4.8166 1.53844C4.82985 1.51478 4.85515 1.5 4.88256 1.5L7.13197 1.5C7.15953 1.5 7.18483 1.51478 7.19793 1.53844L7.80493 2.62379C7.81999 2.65055 7.81653 2.68352 7.7965 2.70688L6.06479 4.72633C6.05048 4.74304 6.0294 4.75265 6.00727 4.75265V4.75265ZM4.36651 2.6504L6.00727 4.56399L7.64802 2.6504L7.0874 1.64785L4.92713 1.64785L4.36651 2.6504Z" fill="#1F2226" stroke="#1F2226"/>
<circle cx="16" cy="10" r="5" stroke="#1F2226" stroke-width="1.4" stroke-linecap="round" stroke-linejoin="round"/>
</svg>
