<svg width="22" height="21" viewBox="0 0 22 21" fill="none" xmlns="http://www.w3.org/2000/svg">
<circle cx="7" cy="10" r="6" stroke="#1F2226" stroke-width="1.4" stroke-linecap="round" stroke-linejoin="round"/>
<circle cx="15" cy="14" r="6" stroke="#1F2226" stroke-width="1.4" stroke-linecap="round" stroke-linejoin="round"/>
<path d="M9.61443 4.83565C9.59526 4.82458 9.5818 4.80571 9.57764 4.78402L9.08766 2.16927C9.08199 2.13902 9.09568 2.10869 9.1219 2.09309L10.1904 1.45673C10.2137 1.44287 10.243 1.44271 10.2667 1.45642L12.2148 2.58112C12.2386 2.5949 12.2532 2.62035 12.2527 2.64739L12.2357 3.89083C12.2353 3.92154 12.2159 3.94836 12.1868 3.95858L9.6774 4.84162C9.65666 4.84893 9.6336 4.84671 9.61443 4.83565V4.83565ZM9.24461 2.19467L9.70875 4.67227L12.0865 3.83543L12.1023 2.68688L10.2314 1.60674L9.24461 2.19467Z" fill="#1F2226" stroke="#1F2226"/>
</svg>
