<svg xmlns="http://www.w3.org/2000/svg" viewBox="0 0 16 16">
     <path fill-rule="evenodd" clip-rule="evenodd"
              d="M16 8C16 12.4183 12.4183 16 8 16C3.58172 16 0 12.4183 0 8C0 3.58172 3.58172 0 8 0C12.4183 0 16 3.58172 16 8ZM8.17344 9.37673C7.1832 8.69558 6.48295 7.76547 5.92276 6.71519C5.93411 6.70235 5.94481 6.69028 5.95507 6.67871C5.97345 6.65798 5.99044 6.63882 6.0073 6.61958C6.08417 6.5317 6.16156 6.44426 6.23895 6.35682C6.41721 6.15538 6.59548 5.95395 6.76743 5.74726C7.005 5.46166 6.99815 5.19372 6.7361 4.93164C6.37814 4.57361 6.01523 4.22056 5.65231 3.86751C5.47943 3.69933 5.30656 3.53115 5.13421 3.36243C4.94458 3.17679 4.59597 3.12566 4.37101 3.30275C4.31644 3.34571 4.25818 3.38394 4.1999 3.42218C4.16069 3.44792 4.12146 3.47366 4.08333 3.50086C3.71632 3.76265 3.47008 4.11276 3.35021 4.54531C3.17335 5.18342 3.14349 5.82691 3.30996 6.47372C3.50538 7.23295 3.88807 7.89734 4.34071 8.52774C4.7664 9.12057 5.27398 9.63999 5.78139 10.1592C5.86081 10.2405 5.94023 10.3218 6.01933 10.4033C6.6482 11.0516 7.33213 11.6346 8.11133 12.0981C9.01239 12.634 9.96429 12.9331 11.0302 12.7552C11.6907 12.645 12.2306 12.3628 12.5906 11.7813C12.5942 11.7755 12.5977 11.7697 12.6013 11.7639C12.6315 11.715 12.6619 11.6659 12.6968 11.6205C12.862 11.406 12.8155 11.0766 12.6519 10.9072C12.6027 10.8563 12.5535 10.8054 12.5044 10.7544C12.0176 10.2503 11.5308 9.74609 11.0329 9.25305C10.7886 9.0111 10.5191 9.01231 10.2549 9.23158C9.95821 9.47779 9.67043 9.73497 9.38314 9.99225C9.3232 10.0459 9.28064 10.0616 9.20781 10.0161C9.08178 9.93721 8.95394 9.86107 8.82612 9.78494C8.60537 9.65346 8.38467 9.52201 8.17344 9.37673Z"
              fill="#26AD4F"/>
</svg>
